<svg width="82" height="112" viewBox="0 0 82 112" fill="none" xmlns="http://www.w3.org/2000/svg">
<path d="M28.5548 48.8714L30.2302 43.3159L25.4281 39.1481L18.9022 40.703L17.2344 46.234L16.85 46.1449L18.5737 40.4223L25.5426 38.7628L30.6707 43.2134L28.9367 48.9627L28.7457 48.9181L28.5548 48.8736V48.8714Z" fill="#373535" stroke="#273453" stroke-width="0.0235825" stroke-miterlimit="22.9256"/>
<path d="M28.5548 48.8712L30.2862 43.1219L37.2552 41.4624L42.3832 45.9131L40.6492 51.6623L40.4583 51.6178L40.2673 51.5732L41.9427 46.0177L37.1406 41.85L30.6147 43.4048L28.9393 48.9603L28.7484 48.9158L28.5574 48.8712H28.5548Z" fill="#373535" stroke="#273453" stroke-width="0.0235825" stroke-miterlimit="22.9256"/>
<path d="M51.9798 54.2754L53.6552 48.7199L48.853 44.5522L42.3272 46.107L40.6518 51.6625L40.4608 51.6179L40.2699 51.5734L42.0038 45.8241L48.9727 44.1646L54.1007 48.6152L52.3668 54.3645L51.9823 54.2754H51.9798Z" fill="#373535" stroke="#273453" stroke-width="0.0235825" stroke-miterlimit="22.9256"/>
<path fill-rule="evenodd" clip-rule="evenodd" d="M27.2766 33.0069L30.6503 32.2028L34.024 31.3986L34.9152 28.4404L35.8063 25.4823L33.3238 23.3282L30.8413 21.1742L27.4676 21.9783L24.0939 22.7825L23.2027 25.7407L22.3115 28.6988L24.7941 30.8529L27.2766 33.0069V33.0069Z" stroke="#273453" stroke-width="0.034222" stroke-miterlimit="22.9256" stroke-linecap="round" stroke-linejoin="round"/>
<path fill-rule="evenodd" clip-rule="evenodd" d="M38.9893 35.7088L36.5067 33.5548L34.0242 31.4007L34.9154 28.4425L35.8065 25.4844L39.1802 24.6802L42.5539 23.8761L45.0365 26.0301L47.519 28.1842L46.6278 31.1423L45.7367 34.1005L42.363 34.9046L38.9893 35.7088Z" stroke="#273453" stroke-width="0.034222" stroke-miterlimit="22.9256" stroke-linecap="round" stroke-linejoin="round"/>
<path fill-rule="evenodd" clip-rule="evenodd" d="M50.704 38.4109L54.0777 37.6068L57.4514 36.8027L58.3426 33.8445L59.2337 30.8863L56.7512 28.7323L54.2687 26.5782L50.895 27.3824L47.5213 28.1865L46.6301 31.1447L45.739 34.1029L48.2215 36.2569L50.704 38.4109V38.4109Z" stroke="#273453" stroke-width="0.034222" stroke-miterlimit="22.9256" stroke-linecap="round" stroke-linejoin="round"/>
<path fill-rule="evenodd" clip-rule="evenodd" d="M18.7522 40.5138L22.1259 39.7097L25.4996 38.9055L26.3907 35.9473L27.2819 32.9892L24.7994 30.8351L22.3168 28.6811L18.9431 29.4852L15.5694 30.2894L14.6783 33.2476L13.7871 36.2057L16.2696 38.3598L18.7522 40.5138V40.5138Z" stroke="#273453" stroke-width="0.034222" stroke-miterlimit="22.9256" stroke-linecap="round" stroke-linejoin="round"/>
<path fill-rule="evenodd" clip-rule="evenodd" d="M30.4645 43.2157L27.982 41.0616L25.4995 38.9076L26.3906 35.9494L27.2818 32.9912L30.6555 32.1871L34.0292 31.3829L36.5117 33.537L38.9942 35.691L38.1031 38.6492L37.2119 41.6074L33.8382 42.4115L30.4645 43.2157V43.2157Z" stroke="#273453" stroke-width="0.034222" stroke-miterlimit="22.9256" stroke-linecap="round" stroke-linejoin="round"/>
<path fill-rule="evenodd" clip-rule="evenodd" d="M42.1771 45.9178L45.5508 45.1137L48.9245 44.3095L49.8157 41.3513L50.7068 38.3932L48.2243 36.2391L45.7418 34.0851L42.3681 34.8892L38.9944 35.6934L38.1032 38.6516L37.212 41.6097L39.6946 43.7638L42.1771 45.9178V45.9178Z" stroke="#273453" stroke-width="0.034222" stroke-miterlimit="22.9256" stroke-linecap="round" stroke-linejoin="round"/>
<path fill-rule="evenodd" clip-rule="evenodd" d="M53.8894 48.6197L51.4068 46.4657L48.9243 44.3116L49.8155 41.3534L50.7066 38.3953L54.0803 37.5911L57.454 36.787L59.9365 38.941L62.4191 41.095L61.5279 44.0532L60.6367 47.0114L57.263 47.8155L53.8894 48.6197V48.6197Z" stroke="#273453" stroke-width="0.034222" stroke-miterlimit="22.9256" stroke-linecap="round" stroke-linejoin="round"/>
<path d="M53.9653 27.5861C54.6018 27.7329 55.2539 27.4006 55.4217 26.8437C55.5896 26.2868 55.2096 25.7164 54.5731 25.5696C53.9366 25.4227 53.2845 25.7551 53.1167 26.312C52.9489 26.8688 53.3288 27.4393 53.9653 27.5861Z" fill="#EE3338"/>
<path d="M22.0086 29.7054C22.6451 29.8522 23.2972 29.5198 23.465 28.963C23.6328 28.4061 23.2529 27.8357 22.6164 27.6888C21.9799 27.542 21.3278 27.8744 21.16 28.4312C20.9922 28.9881 21.3721 29.5586 22.0086 29.7054Z" fill="#EE3338"/>
<path d="M33.7216 32.4076C34.3581 32.5544 35.0102 32.222 35.178 31.6652C35.3458 31.1083 34.9659 30.5378 34.3294 30.391C33.6929 30.2442 33.0408 30.5766 32.873 31.1334C32.7051 31.6903 33.0851 32.2607 33.7216 32.4076Z" fill="#EE3338"/>
<path d="M45.4346 35.1094C46.0711 35.2562 46.7232 34.9238 46.891 34.367C47.0589 33.8101 46.6789 33.2397 46.0424 33.0929C45.4059 32.946 44.7539 33.2784 44.586 33.8353C44.4182 34.3921 44.7981 34.9626 45.4346 35.1094Z" fill="#EE3338"/>
<path d="M57.1475 37.8112C57.784 37.9581 58.4361 37.6257 58.6039 37.0688C58.7717 36.512 58.3918 35.9415 57.7553 35.7947C57.1188 35.6479 56.4667 35.9803 56.2989 36.5371C56.1311 37.094 56.511 37.6644 57.1475 37.8112Z" fill="#EE3338"/>
<path d="M58.9306 31.8953C59.5671 32.0421 60.2192 31.7098 60.387 31.1529C60.5549 30.596 60.1749 30.0256 59.5384 29.8788C58.9019 29.7319 58.2498 30.0643 58.082 30.6212C57.9142 31.178 58.2941 31.7485 58.9306 31.8953Z" fill="#EE3338"/>
<path d="M30.1753 44.1728C30.8118 44.3197 31.4639 43.9873 31.6317 43.4304C31.7995 42.8736 31.4196 42.3031 30.7831 42.1563C30.1466 42.0094 29.4945 42.3418 29.3267 42.8987C29.1589 43.4555 29.5388 44.026 30.1753 44.1728Z" fill="#EE3338"/>
<path d="M41.8883 46.875C42.5248 47.0218 43.1769 46.6894 43.3447 46.1326C43.5125 45.5757 43.1326 45.0052 42.4961 44.8584C41.8596 44.7116 41.2075 45.044 41.0397 45.6008C40.8718 46.1577 41.2518 46.7281 41.8883 46.875Z" fill="#EE3338"/>
<path d="M53.6012 49.5768C54.2377 49.7237 54.8898 49.3913 55.0576 48.8344C55.2254 48.2776 54.8455 47.7071 54.209 47.5603C53.5725 47.4135 52.9204 47.7459 52.7526 48.3027C52.5848 48.8596 52.9647 49.43 53.6012 49.5768Z" fill="#EE3338"/>
<path d="M26.9863 33.9718C27.6228 34.1187 28.2748 33.7863 28.4427 33.2294C28.6105 32.6726 28.2306 32.1021 27.5941 31.9553C26.9576 31.8084 26.3055 32.1408 26.1377 32.6977C25.9698 33.2545 26.3498 33.825 26.9863 33.9718Z" fill="#EE3338"/>
<path d="M38.6993 36.6737C39.3358 36.8205 39.9878 36.4881 40.1557 35.9313C40.3235 35.3744 39.9436 34.804 39.307 34.6571C38.6705 34.5103 38.0185 34.8427 37.8506 35.3995C37.6828 35.9564 38.0627 36.5269 38.6993 36.6737Z" fill="#EE3338"/>
<path d="M50.4122 39.3758C51.0487 39.5227 51.7008 39.1903 51.8686 38.6334C52.0365 38.0766 51.6565 37.5061 51.02 37.3593C50.3835 37.2125 49.7315 37.5449 49.5636 38.1017C49.3958 38.6586 49.7757 39.229 50.4122 39.3758Z" fill="#EE3338"/>
<path d="M25.1951 39.915C25.8316 40.0619 26.4837 39.7295 26.6515 39.1726C26.8193 38.6158 26.4394 38.0453 25.8029 37.8985C25.1664 37.7517 24.5143 38.0841 24.3465 38.6409C24.1786 39.1978 24.5586 39.7682 25.1951 39.915Z" fill="#EE3338"/>
<path d="M36.9081 42.6169C37.5446 42.7637 38.1967 42.4313 38.3645 41.8745C38.5323 41.3176 38.1524 40.7472 37.5159 40.6004C36.8794 40.4535 36.2273 40.7859 36.0595 41.3428C35.8916 41.8996 36.2716 42.4701 36.9081 42.6169Z" fill="#EE3338"/>
<path d="M48.621 45.319C49.2576 45.4659 49.9096 45.1335 50.0774 44.5766C50.2453 44.0198 49.8653 43.4493 49.2288 43.3025C48.5923 43.1557 47.9403 43.4881 47.7724 44.0449C47.6046 44.6018 47.9845 45.1722 48.621 45.319Z" fill="#EE3338"/>
<path d="M65.6783 30.288C66.3148 30.4348 66.9669 30.1024 67.1347 29.5456C67.3025 28.9887 66.9226 28.4183 66.2861 28.2714C65.6496 28.1246 64.9975 28.457 64.8297 29.0138C64.6618 29.5707 65.0418 30.1411 65.6783 30.288Z" fill="#EE3338"/>
<path d="M15.251 31.3443C15.8875 31.4912 16.5396 31.1588 16.7074 30.6019C16.8753 30.0451 16.4953 29.4746 15.8588 29.3278C15.2223 29.181 14.5702 29.5134 14.4024 30.0702C14.2346 30.6271 14.6145 31.1975 15.251 31.3443Z" fill="#EE3338"/>
<path d="M13.468 37.2606C14.1045 37.4074 14.7565 37.0751 14.9244 36.5182C15.0922 35.9613 14.7123 35.3909 14.0757 35.2441C13.4392 35.0972 12.7872 35.4296 12.6193 35.9865C12.4515 36.5433 12.8314 37.1138 13.468 37.2606Z" fill="#EE3338"/>
<path d="M62.1026 42.1521C62.7391 42.2989 63.3912 41.9665 63.559 41.4097C63.7269 40.8528 63.3469 40.2824 62.7104 40.1355C62.0739 39.9887 61.4218 40.3211 61.254 40.8779C61.0862 41.4348 61.4661 42.0052 62.1026 42.1521Z" fill="#EE3338"/>
<path d="M60.3195 48.0683C60.956 48.2152 61.608 47.8828 61.7759 47.3259C61.9437 46.7691 61.5638 46.1986 60.9272 46.0518C60.2907 45.905 59.6387 46.2373 59.4708 46.7942C59.303 47.3511 59.6829 47.9215 60.3195 48.0683Z" fill="#EE3338"/>
<path fill-rule="evenodd" clip-rule="evenodd" d="M2.42198 24.6967C16.8141 12.8002 32.668 28.7518 63.6247 19.3795C69.177 30.0195 73.7904 41.3479 79.3399 51.985C53.222 59.2668 49.9547 46.9141 17.8252 55.9394C12.6918 45.5261 7.55543 35.11 2.42198 24.6967V24.6967Z" stroke="#373535" stroke-width="0.00789739" stroke-miterlimit="22.9256"/>
<path fill-rule="evenodd" clip-rule="evenodd" d="M2.84354 24.1819C4.42084 22.2537 6.35346 20.7789 8.71074 19.847C14.4797 17.569 21.9242 19.1082 27.855 20.1268C35.3659 21.4142 42.5996 22.472 50.2001 21.0224C54.2213 20.2556 58.3755 19.9785 62.2667 18.6576L64.1271 18.0252L80.9776 52.2818L78.317 52.8807C69.821 54.7893 62.1049 56.2557 53.4442 54.7501C40.6207 52.5169 31.6307 53.6698 18.6483 55.8107L17.0046 56.0822L2 25.2201L2.84643 24.1875L2.84354 24.1819ZM4.56528 25.5028C13.6391 14.4123 30.8045 26.8909 50.6247 23.1101C54.6518 22.3433 58.8723 22.0662 62.9947 20.6642L77.8202 50.807C46.2655 57.8956 60.2994 46.7827 18.2785 53.709L4.56817 25.5028H4.56528Z" fill="#273453" stroke="#273453" stroke-width="0.00789739" stroke-miterlimit="22.9256"/>
<path fill-rule="evenodd" clip-rule="evenodd" d="M51.064 19.8107L50.8502 18.9991C50.3938 17.2808 48.9783 14.8041 47.999 13.0915C46.9821 11.32 45.0264 8.38435 44.4833 7.45245C42.5449 4.139 41.6927 1.59236 41.008 0.386195C40.8607 0.128732 40.8636 0.142724 40.7278 0C39.5983 4.24535 36.071 9.10357 34.0257 12.487C31.6193 16.4693 28.6034 21.3863 31.4258 26.8546C36.6286 36.932 53.3577 32.7566 51.0669 19.8107H51.064Z" fill="#A9CEEE"/>
<path fill-rule="evenodd" clip-rule="evenodd" d="M40.5053 6.16787C39.9016 9.60445 37.9429 12.9123 36.8452 16.195C35.0223 21.6437 37.2438 23.4655 36.0074 24.8256C34.5717 26.4011 31.6048 24.389 33.0781 19.2873C33.8004 16.791 36.513 12.9571 38.0296 10.5839C38.9338 9.17068 39.7109 7.36564 40.5053 6.17067V6.16787Z" fill="white"/>
<path d="M34.8652 73.3945H30.752V75.9492H32.873C33.7637 75.9609 34.459 76.1895 34.959 76.6348C35.459 77.0801 35.709 77.6855 35.709 78.4512C35.709 79.2207 35.457 79.834 34.9531 80.291C34.4492 80.748 33.7617 80.9844 32.8906 81H29.6211V72.4688H34.8652V73.3945ZM30.752 76.875V80.0801H32.8086C33.3672 80.0801 33.8008 79.9316 34.1094 79.6348C34.4219 79.3379 34.5781 78.9395 34.5781 78.4395C34.5781 77.959 34.4277 77.5801 34.127 77.3027C33.8301 77.0254 33.4062 76.8828 32.8555 76.875H30.752ZM41.1641 74.6602H42.248V81H41.1641V76.377L38.2402 81H37.1562V74.6602H38.2402V79.2891L41.1641 74.6602ZM43.7012 77.7715C43.7012 77.1504 43.8223 76.5918 44.0645 76.0957C44.3105 75.5996 44.6504 75.2168 45.084 74.9473C45.5215 74.6777 46.0195 74.543 46.5781 74.543C47.4414 74.543 48.1387 74.8418 48.6699 75.4395C49.2051 76.0371 49.4727 76.832 49.4727 77.8242V77.9004C49.4727 78.5176 49.3535 79.0723 49.1152 79.5645C48.8809 80.0527 48.543 80.4336 48.1016 80.707C47.6641 80.9805 47.1602 81.1172 46.5898 81.1172C45.7305 81.1172 45.0332 80.8184 44.498 80.2207C43.9668 79.623 43.7012 78.832 43.7012 77.8477V77.7715ZM44.791 77.9004C44.791 78.6035 44.9531 79.168 45.2773 79.5938C45.6055 80.0195 46.043 80.2324 46.5898 80.2324C47.1406 80.2324 47.5781 80.0176 47.9023 79.5879C48.2266 79.1543 48.3887 78.5488 48.3887 77.7715C48.3887 77.0762 48.2227 76.5137 47.8906 76.084C47.5625 75.6504 47.125 75.4336 46.5781 75.4336C46.043 75.4336 45.6113 75.6465 45.2832 76.0723C44.9551 76.498 44.791 77.1074 44.791 77.9004ZM53.0879 77.8184H50.2285V76.9336H53.0879V77.8184ZM3.11914 92.2988H2.32812V95H1.23828V88.6602H2.32812V91.3438H3.03711L5.16992 88.6602H6.48242L3.97461 91.707L6.69336 95H5.31641L3.11914 92.2988ZM10.1621 95.1172C9.30273 95.1172 8.60352 94.8359 8.06445 94.2734C7.52539 93.707 7.25586 92.9512 7.25586 92.0059V91.8066C7.25586 91.1777 7.375 90.6172 7.61328 90.125C7.85547 89.6289 8.19141 89.2422 8.62109 88.9648C9.05469 88.6836 9.52344 88.543 10.0273 88.543C10.8516 88.543 11.4922 88.8145 11.9492 89.3574C12.4062 89.9004 12.6348 90.6777 12.6348 91.6895V92.1406H8.33984C8.35547 92.7656 8.53711 93.2715 8.88477 93.6582C9.23633 94.041 9.68164 94.2324 10.2207 94.2324C10.6035 94.2324 10.9277 94.1543 11.1934 93.998C11.459 93.8418 11.6914 93.6348 11.8906 93.377L12.5527 93.8926C12.0215 94.709 11.2246 95.1172 10.1621 95.1172ZM10.0273 89.4336C9.58984 89.4336 9.22266 89.5938 8.92578 89.9141C8.62891 90.2305 8.44531 90.6758 8.375 91.25H11.5508V91.168C11.5195 90.6172 11.3711 90.1914 11.1055 89.8906C10.8398 89.5859 10.4805 89.4336 10.0273 89.4336ZM19.25 91.9004C19.25 92.8652 19.0293 93.6426 18.5879 94.2324C18.1465 94.8223 17.5488 95.1172 16.7949 95.1172C16.0254 95.1172 15.4199 94.873 14.9785 94.3848V97.4375H13.8945V88.6602H14.8848L14.9375 89.3633C15.3789 88.8164 15.9922 88.543 16.7773 88.543C17.5391 88.543 18.1406 88.8301 18.582 89.4043C19.0273 89.9785 19.25 90.7773 19.25 91.8008V91.9004ZM18.166 91.7773C18.166 91.0625 18.0137 90.498 17.709 90.084C17.4043 89.6699 16.9863 89.4629 16.4551 89.4629C15.7988 89.4629 15.3066 89.7539 14.9785 90.3359V93.3652C15.3027 93.9434 15.7988 94.2324 16.4668 94.2324C16.9863 94.2324 17.3984 94.0273 17.7031 93.6172C18.0117 93.2031 18.166 92.5898 18.166 91.7773ZM24.5469 95C24.4844 94.875 24.4336 94.6523 24.3945 94.332C23.8906 94.8555 23.2891 95.1172 22.5898 95.1172C21.9648 95.1172 21.4512 94.9414 21.0488 94.5898C20.6504 94.2344 20.4512 93.7852 20.4512 93.2422C20.4512 92.582 20.7012 92.0703 21.2012 91.707C21.7051 91.3398 22.4121 91.1562 23.3223 91.1562H24.377V90.6582C24.377 90.2793 24.2637 89.9785 24.0371 89.7559C23.8105 89.5293 23.4766 89.416 23.0352 89.416C22.6484 89.416 22.3242 89.5137 22.0625 89.709C21.8008 89.9043 21.6699 90.1406 21.6699 90.418H20.5801C20.5801 90.1016 20.6914 89.7969 20.9141 89.5039C21.1406 89.207 21.4453 88.9727 21.8281 88.8008C22.2148 88.6289 22.6387 88.543 23.0996 88.543C23.8301 88.543 24.4023 88.7266 24.8164 89.0938C25.2305 89.457 25.4453 89.959 25.4609 90.5996V93.5176C25.4609 94.0996 25.5352 94.5625 25.6836 94.9062V95H24.5469ZM22.748 94.1738C23.0879 94.1738 23.4102 94.0859 23.7148 93.9102C24.0195 93.7344 24.2402 93.5059 24.377 93.2246V91.9238H23.5273C22.1992 91.9238 21.5352 92.3125 21.5352 93.0898C21.5352 93.4297 21.6484 93.6953 21.875 93.8867C22.1016 94.0781 22.3926 94.1738 22.748 94.1738ZM30.8105 93.5645L32.9668 88.6602H34.3203V95H33.2363V90.3887L31.1855 95H30.4355L28.3438 90.2891V95H27.2598V88.6602H28.666L30.8105 93.5645ZM40.168 88.6602H41.252V95H40.168V90.377L37.2441 95H36.1602V88.6602H37.2441V93.2891L40.168 88.6602ZM47.7793 95H46.6895V92.7031C46.2129 92.8281 45.7246 92.8906 45.2246 92.8906C44.4316 92.8906 43.8262 92.6875 43.4082 92.2812C42.9941 91.875 42.7832 91.2969 42.7754 90.5469V88.6543H43.8594V90.582C43.8789 91.5273 44.334 92 45.2246 92C45.7246 92 46.2129 91.9375 46.6895 91.8125V88.6602H47.7793V95ZM52.1504 95.1172C51.291 95.1172 50.5918 94.8359 50.0527 94.2734C49.5137 93.707 49.2441 92.9512 49.2441 92.0059V91.8066C49.2441 91.1777 49.3633 90.6172 49.6016 90.125C49.8438 89.6289 50.1797 89.2422 50.6094 88.9648C51.043 88.6836 51.5117 88.543 52.0156 88.543C52.8398 88.543 53.4805 88.8145 53.9375 89.3574C54.3945 89.9004 54.623 90.6777 54.623 91.6895V92.1406H50.3281C50.3438 92.7656 50.5254 93.2715 50.873 93.6582C51.2246 94.041 51.6699 94.2324 52.209 94.2324C52.5918 94.2324 52.916 94.1543 53.1816 93.998C53.4473 93.8418 53.6797 93.6348 53.8789 93.377L54.541 93.8926C54.0098 94.709 53.2129 95.1172 52.1504 95.1172ZM52.0156 89.4336C51.5781 89.4336 51.2109 89.5938 50.9141 89.9141C50.6172 90.2305 50.4336 90.6758 50.3633 91.25H53.5391V91.168C53.5078 90.6172 53.3594 90.1914 53.0938 89.8906C52.8281 89.5859 52.4688 89.4336 52.0156 89.4336ZM58.4258 94.2324C58.8125 94.2324 59.1504 94.1152 59.4395 93.8809C59.7285 93.6465 59.8887 93.3535 59.9199 93.002H60.9453C60.9258 93.3652 60.8008 93.7109 60.5703 94.0391C60.3398 94.3672 60.0312 94.6289 59.6445 94.8242C59.2617 95.0195 58.8555 95.1172 58.4258 95.1172C57.5625 95.1172 56.875 94.8301 56.3633 94.2559C55.8555 93.6777 55.6016 92.8887 55.6016 91.8887V91.707C55.6016 91.0898 55.7148 90.541 55.9414 90.0605C56.168 89.5801 56.4922 89.207 56.9141 88.9414C57.3398 88.6758 57.8418 88.543 58.4199 88.543C59.1309 88.543 59.7207 88.7559 60.1895 89.1816C60.6621 89.6074 60.9141 90.1602 60.9453 90.8398H59.9199C59.8887 90.4297 59.7324 90.0938 59.4512 89.832C59.1738 89.5664 58.8301 89.4336 58.4199 89.4336C57.8691 89.4336 57.4414 89.6328 57.1367 90.0312C56.8359 90.4258 56.6855 90.998 56.6855 91.748V91.9531C56.6855 92.6836 56.8359 93.2461 57.1367 93.6406C57.4375 94.0352 57.8672 94.2324 58.4258 94.2324ZM64.1387 92.2988H63.3477V95H62.2578V88.6602H63.3477V91.3438H64.0566L66.1895 88.6602H67.502L64.9941 91.707L67.7129 95H66.3359L64.1387 92.2988ZM72.7461 88.6602H73.8301V95H72.7461V90.377L69.8223 95H68.7383V88.6602H69.8223V93.2891L72.7461 88.6602ZM79.6719 88.6602H80.7559V95H79.6719V90.377L76.748 95H75.6641V88.6602H76.748V93.2891L79.6719 88.6602ZM79.9648 86.3516C79.9648 86.8242 79.8027 87.2051 79.4785 87.4941C79.1582 87.7793 78.7363 87.9219 78.2129 87.9219C77.6895 87.9219 77.2656 87.7773 76.9414 87.4883C76.6172 87.1992 76.4551 86.8203 76.4551 86.3516H77.3398C77.3398 86.625 77.4141 86.8398 77.5625 86.9961C77.7109 87.1484 77.9277 87.2246 78.2129 87.2246C78.4863 87.2246 78.6992 87.1484 78.8516 86.9961C79.0078 86.8438 79.0859 86.6289 79.0859 86.3516H79.9648ZM17.9258 105.9C17.9258 106.865 17.7051 107.643 17.2637 108.232C16.8223 108.822 16.2246 109.117 15.4707 109.117C14.7012 109.117 14.0957 108.873 13.6543 108.385V111.438H12.5703V102.66H13.5605L13.6133 103.363C14.0547 102.816 14.668 102.543 15.4531 102.543C16.2148 102.543 16.8164 102.83 17.2578 103.404C17.7031 103.979 17.9258 104.777 17.9258 105.801V105.9ZM16.8418 105.777C16.8418 105.062 16.6895 104.498 16.3848 104.084C16.0801 103.67 15.6621 103.463 15.1309 103.463C14.4746 103.463 13.9824 103.754 13.6543 104.336V107.365C13.9785 107.943 14.4746 108.232 15.1426 108.232C15.6621 108.232 16.0742 108.027 16.3789 107.617C16.6875 107.203 16.8418 106.59 16.8418 105.777ZM21.9395 109.117C21.0801 109.117 20.3809 108.836 19.8418 108.273C19.3027 107.707 19.0332 106.951 19.0332 106.006V105.807C19.0332 105.178 19.1523 104.617 19.3906 104.125C19.6328 103.629 19.9688 103.242 20.3984 102.965C20.832 102.684 21.3008 102.543 21.8047 102.543C22.6289 102.543 23.2695 102.814 23.7266 103.357C24.1836 103.9 24.4121 104.678 24.4121 105.689V106.141H20.1172C20.1328 106.766 20.3145 107.271 20.6621 107.658C21.0137 108.041 21.459 108.232 21.998 108.232C22.3809 108.232 22.7051 108.154 22.9707 107.998C23.2363 107.842 23.4688 107.635 23.668 107.377L24.3301 107.893C23.7988 108.709 23.002 109.117 21.9395 109.117ZM21.8047 103.434C21.3672 103.434 21 103.594 20.7031 103.914C20.4062 104.23 20.2227 104.676 20.1523 105.25H23.3281V105.168C23.2969 104.617 23.1484 104.191 22.8828 103.891C22.6172 103.586 22.2578 103.434 21.8047 103.434ZM29.1582 104.395C29.1582 104.098 29.0449 103.863 28.8184 103.691C28.5918 103.516 28.2812 103.428 27.8867 103.428C27.5039 103.428 27.1836 103.527 26.9258 103.727C26.6719 103.926 26.5449 104.16 26.5449 104.43H25.4668C25.4668 103.879 25.6973 103.428 26.1582 103.076C26.6191 102.725 27.1953 102.549 27.8867 102.549C28.6289 102.549 29.207 102.709 29.6211 103.029C30.0352 103.346 30.2422 103.799 30.2422 104.389C30.2422 104.674 30.1562 104.936 29.9844 105.174C29.8125 105.412 29.5684 105.602 29.252 105.742C29.9902 105.992 30.3594 106.484 30.3594 107.219C30.3594 107.801 30.1348 108.262 29.6855 108.602C29.2363 108.941 28.6367 109.111 27.8867 109.111C27.1562 109.111 26.5527 108.934 26.0762 108.578C25.6035 108.219 25.3672 107.734 25.3672 107.125H26.4453C26.4453 107.434 26.582 107.699 26.8555 107.922C27.1328 108.141 27.4766 108.25 27.8867 108.25C28.3008 108.25 28.6348 108.154 28.8887 107.963C29.1426 107.771 29.2695 107.523 29.2695 107.219C29.2695 106.863 29.1621 106.609 28.9473 106.457C28.7363 106.301 28.4062 106.223 27.957 106.223H26.873V105.309H28.0508C28.7891 105.289 29.1582 104.984 29.1582 104.395ZM31.4785 105.771C31.4785 105.15 31.5996 104.592 31.8418 104.096C32.0879 103.6 32.4277 103.217 32.8613 102.947C33.2988 102.678 33.7969 102.543 34.3555 102.543C35.2188 102.543 35.916 102.842 36.4473 103.439C36.9824 104.037 37.25 104.832 37.25 105.824V105.9C37.25 106.518 37.1309 107.072 36.8926 107.564C36.6582 108.053 36.3203 108.434 35.8789 108.707C35.4414 108.98 34.9375 109.117 34.3672 109.117C33.5078 109.117 32.8105 108.818 32.2754 108.221C31.7441 107.623 31.4785 106.832 31.4785 105.848V105.771ZM32.5684 105.9C32.5684 106.604 32.7305 107.168 33.0547 107.594C33.3828 108.02 33.8203 108.232 34.3672 108.232C34.918 108.232 35.3555 108.018 35.6797 107.588C36.0039 107.154 36.166 106.549 36.166 105.771C36.166 105.076 36 104.514 35.668 104.084C35.3398 103.65 34.9023 103.434 34.3555 103.434C33.8203 103.434 33.3887 103.646 33.0605 104.072C32.7324 104.498 32.5684 105.107 32.5684 105.9ZM43.7891 109H42.7051V106.293H39.793V109H38.7031V102.66H39.793V105.408H42.7051V102.66H43.7891V109ZM49.4492 109C49.3867 108.875 49.3359 108.652 49.2969 108.332C48.793 108.855 48.1914 109.117 47.4922 109.117C46.8672 109.117 46.3535 108.941 45.9512 108.59C45.5527 108.234 45.3535 107.785 45.3535 107.242C45.3535 106.582 45.6035 106.07 46.1035 105.707C46.6074 105.34 47.3145 105.156 48.2246 105.156H49.2793V104.658C49.2793 104.279 49.166 103.979 48.9395 103.756C48.7129 103.529 48.3789 103.416 47.9375 103.416C47.5508 103.416 47.2266 103.514 46.9648 103.709C46.7031 103.904 46.5723 104.141 46.5723 104.418H45.4824C45.4824 104.102 45.5938 103.797 45.8164 103.504C46.043 103.207 46.3477 102.973 46.7305 102.801C47.1172 102.629 47.541 102.543 48.002 102.543C48.7324 102.543 49.3047 102.727 49.7188 103.094C50.1328 103.457 50.3477 103.959 50.3633 104.6V107.518C50.3633 108.1 50.4375 108.562 50.5859 108.906V109H49.4492ZM47.6504 108.174C47.9902 108.174 48.3125 108.086 48.6172 107.91C48.9219 107.734 49.1426 107.506 49.2793 107.225V105.924H48.4297C47.1016 105.924 46.4375 106.312 46.4375 107.09C46.4375 107.43 46.5508 107.695 46.7773 107.887C47.0039 108.078 47.2949 108.174 47.6504 108.174ZM56.6797 103.539H54.5527V109H53.4688V103.539H51.3828V102.66H56.6797V103.539ZM57.2012 105.771C57.2012 105.15 57.3223 104.592 57.5645 104.096C57.8105 103.6 58.1504 103.217 58.584 102.947C59.0215 102.678 59.5195 102.543 60.0781 102.543C60.9414 102.543 61.6387 102.842 62.1699 103.439C62.7051 104.037 62.9727 104.832 62.9727 105.824V105.9C62.9727 106.518 62.8535 107.072 62.6152 107.564C62.3809 108.053 62.043 108.434 61.6016 108.707C61.1641 108.98 60.6602 109.117 60.0898 109.117C59.2305 109.117 58.5332 108.818 57.998 108.221C57.4668 107.623 57.2012 106.832 57.2012 105.848V105.771ZM58.291 105.9C58.291 106.604 58.4531 107.168 58.7773 107.594C59.1055 108.02 59.543 108.232 60.0898 108.232C60.6406 108.232 61.0781 108.018 61.4023 107.588C61.7266 107.154 61.8887 106.549 61.8887 105.771C61.8887 105.076 61.7227 104.514 61.3906 104.084C61.0625 103.65 60.625 103.434 60.0781 103.434C59.543 103.434 59.1113 103.646 58.7832 104.072C58.4551 104.498 58.291 105.107 58.291 105.9ZM69.6875 105.9C69.6875 106.865 69.4668 107.643 69.0254 108.232C68.584 108.822 67.9863 109.117 67.2324 109.117C66.4629 109.117 65.8574 108.873 65.416 108.385V111.438H64.332V102.66H65.3223L65.375 103.363C65.8164 102.816 66.4297 102.543 67.2148 102.543C67.9766 102.543 68.5781 102.83 69.0195 103.404C69.4648 103.979 69.6875 104.777 69.6875 105.801V105.9ZM68.6035 105.777C68.6035 105.062 68.4512 104.498 68.1465 104.084C67.8418 103.67 67.4238 103.463 66.8926 103.463C66.2363 103.463 65.7441 103.754 65.416 104.336V107.365C65.7402 107.943 66.2363 108.232 66.9043 108.232C67.4238 108.232 67.8359 108.027 68.1406 107.617C68.4492 107.203 68.6035 106.59 68.6035 105.777Z" fill="#273453"/>
</svg>
