<svg width="82" height="112" fill="none" xmlns="http://www.w3.org/2000/svg"><path d="M28.555 48.871l1.675-5.555-4.802-4.168-6.526 1.555-1.668 5.531-.384-.09 1.724-5.722 6.969-1.66 5.128 4.451-1.734 5.75-.191-.045-.191-.044v-.003z" fill="#373535" stroke="#273453" stroke-width=".024" stroke-miterlimit="22.926"/><path d="M28.555 48.871l1.731-5.75 6.97-1.659 5.127 4.451-1.734 5.75-.19-.045-.192-.045 1.676-5.555-4.802-4.168-6.526 1.555-1.676 5.555-.19-.044-.192-.045h-.002z" fill="#373535" stroke="#273453" stroke-width=".024" stroke-miterlimit="22.926"/><path d="M51.98 54.275l1.675-5.555-4.802-4.168-6.526 1.555-1.675 5.556-.191-.045-.191-.045 1.734-5.749 6.969-1.66 5.128 4.451-1.734 5.75-.385-.09h-.002z" fill="#373535" stroke="#273453" stroke-width=".024" stroke-miterlimit="22.926"/><path clip-rule="evenodd" d="M27.277 33.007l3.373-.804 3.374-.804.891-2.959.891-2.958-2.482-2.154-2.483-2.154-3.373.804-3.374.804-.891 2.959-.892 2.958 2.483 2.154 2.483 2.154v0zm11.713 2.702l-2.483-2.154-2.483-2.154.891-2.959.892-2.958 3.373-.804 3.374-.804 2.482 2.154 2.483 2.154-.891 2.958-.891 2.958-3.374.805-3.374.804zm11.714 2.701l3.374-.803 3.373-.804.892-2.959.89-2.958-2.482-2.154-2.482-2.154-3.374.804-3.374.804-.89 2.959-.892 2.958 2.483 2.154 2.482 2.154v0z" stroke="#273453" stroke-width=".034" stroke-miterlimit="22.926" stroke-linecap="round" stroke-linejoin="round"/><path clip-rule="evenodd" d="M18.752 40.514l3.374-.804 3.374-.804.89-2.959.892-2.958-2.483-2.154-2.482-2.154-3.374.804-3.374.804-.89 2.959-.892 2.958 2.483 2.154 2.482 2.154v0z" stroke="#273453" stroke-width=".034" stroke-miterlimit="22.926" stroke-linecap="round" stroke-linejoin="round"/><path clip-rule="evenodd" d="M30.465 43.216l-2.483-2.154-2.482-2.154.89-2.959.892-2.958 3.373-.804 3.374-.804 2.483 2.154 2.482 2.154-.89 2.958-.892 2.958-3.374.804-3.373.805v0z" stroke="#273453" stroke-width=".034" stroke-miterlimit="22.926" stroke-linecap="round" stroke-linejoin="round"/><path clip-rule="evenodd" d="M42.177 45.918l3.374-.804 3.373-.804.892-2.959.89-2.958-2.482-2.154-2.482-2.154-3.374.804-3.374.804-.89 2.959-.892 2.958 2.483 2.154 2.482 2.154v0z" stroke="#273453" stroke-width=".034" stroke-miterlimit="22.926" stroke-linecap="round" stroke-linejoin="round"/><path clip-rule="evenodd" d="M53.89 48.62l-2.483-2.154-2.483-2.154.892-2.959.89-2.958 3.374-.804 3.374-.804 2.483 2.154 2.482 2.154-.891 2.958-.891 2.958-3.374.804-3.374.805v0z" stroke="#273453" stroke-width=".034" stroke-miterlimit="22.926" stroke-linecap="round" stroke-linejoin="round"/><path d="M53.965 27.586c.637.147 1.289-.185 1.457-.742.168-.557-.212-1.128-.849-1.274-.636-.147-1.288.185-1.456.742-.168.557.212 1.127.848 1.274zm-31.956 2.119c.636.147 1.288-.185 1.456-.742.168-.557-.212-1.127-.849-1.274-.636-.147-1.288.185-1.456.742-.168.557.212 1.128.849 1.274zm11.713 2.703c.636.146 1.288-.186 1.456-.743.168-.557-.212-1.127-.849-1.274-.636-.147-1.288.186-1.456.742-.168.557.212 1.128.849 1.275zm11.713 2.702c.636.146 1.288-.186 1.456-.743.168-.557-.212-1.127-.849-1.274-.636-.147-1.288.185-1.456.742-.168.557.212 1.128.849 1.274zm11.713 2.701c.636.147 1.288-.185 1.456-.742.168-.557-.212-1.128-.849-1.274-.636-.147-1.288.185-1.456.742-.168.557.212 1.127.849 1.274zm1.782-5.916c.637.147 1.29-.185 1.457-.742.168-.557-.212-1.127-.849-1.274-.636-.147-1.288.185-1.456.742-.168.557.212 1.128.849 1.274zM30.175 44.173c.637.147 1.289-.186 1.457-.743.167-.556-.212-1.127-.849-1.274-.636-.147-1.289.186-1.456.743-.168.556.212 1.127.848 1.274zm11.713 2.702c.637.147 1.289-.186 1.457-.742.168-.557-.212-1.128-.849-1.275-.636-.146-1.288.186-1.456.743-.168.557.212 1.127.848 1.274zm11.713 2.702c.637.147 1.289-.186 1.457-.743.167-.556-.212-1.127-.849-1.274-.637-.147-1.289.186-1.456.743-.168.557.212 1.127.848 1.274zM26.986 33.972c.637.147 1.289-.186 1.457-.743.167-.556-.212-1.127-.849-1.274-.636-.147-1.289.186-1.456.743-.168.556.212 1.127.848 1.274zM38.7 36.674c.636.147 1.288-.186 1.456-.743.168-.557-.212-1.127-.849-1.274-.637-.147-1.288.186-1.456.743-.168.556.212 1.127.848 1.274zm11.712 2.702c.637.147 1.289-.186 1.457-.743.167-.556-.212-1.127-.849-1.274-.637-.147-1.289.186-1.456.743-.168.557.212 1.127.848 1.274zm-25.217.539c.637.147 1.289-.185 1.456-.742.168-.557-.212-1.128-.848-1.275-.637-.146-1.289.186-1.457.743-.167.557.213 1.127.85 1.274zm11.713 2.702c.637.147 1.289-.186 1.456-.742.168-.557-.212-1.128-.848-1.275-.637-.147-1.289.186-1.456.743-.168.557.212 1.127.848 1.274zm11.713 2.702c.637.147 1.289-.186 1.456-.742.168-.557-.212-1.128-.848-1.274-.637-.147-1.289.185-1.457.742-.167.557.212 1.127.849 1.274zm17.057-15.031c.637.147 1.289-.186 1.457-.742.167-.557-.212-1.128-.849-1.275-.636-.146-1.288.186-1.456.743-.168.557.212 1.127.848 1.274zm-50.427 1.056c.636.147 1.289-.185 1.456-.742.168-.557-.212-1.127-.848-1.274-.637-.147-1.289.185-1.457.742-.167.557.213 1.128.849 1.274zm-1.783 5.916c.636.147 1.289-.185 1.456-.742.168-.557-.212-1.127-.848-1.274-.637-.147-1.289.186-1.457.742-.168.557.212 1.128.849 1.275zm48.635 4.892c.636.147 1.288-.185 1.456-.742.168-.557-.212-1.128-.849-1.274-.636-.147-1.288.185-1.456.742-.168.557.212 1.127.849 1.274zm-1.783 5.916c.636.147 1.288-.185 1.456-.742.168-.557-.212-1.127-.849-1.274-.636-.147-1.288.185-1.456.742-.168.557.212 1.128.849 1.274z" fill="#EE3338"/><path clip-rule="evenodd" d="M2.422 24.697C16.814 12.8 32.668 28.752 63.625 19.38 69.177 30.02 73.79 41.347 79.34 51.984c-26.118 7.282-29.385-5.07-61.515 3.954L2.422 24.697v0z" stroke="#373535" stroke-width=".008" stroke-miterlimit="22.926"/><path fill-rule="evenodd" clip-rule="evenodd" d="M2.844 24.182c1.577-1.928 3.51-3.403 5.867-4.335 5.769-2.278 13.213-.739 19.144.28 7.51 1.287 14.745 2.345 22.345.895 4.021-.766 8.175-1.043 12.067-2.364l1.86-.633 16.85 34.257-2.66.599c-8.496 1.908-16.212 3.375-24.873 1.87-12.823-2.234-21.813-1.081-34.796 1.06l-1.643.271L2 25.22l.846-1.032-.002-.006zm1.721 1.32c9.074-11.09 26.24 1.389 46.06-2.392 4.027-.767 8.247-1.044 12.37-2.446L77.82 50.807c-31.554 7.089-17.52-4.024-59.541 2.902L4.569 25.503h-.004z" fill="#273453" stroke="#273453" stroke-width=".008" stroke-miterlimit="22.926"/><path fill-rule="evenodd" clip-rule="evenodd" d="M51.064 19.81L50.85 19c-.456-1.72-1.872-4.196-2.851-5.909-1.017-1.771-2.973-4.707-3.516-5.639-1.938-3.313-2.79-5.86-3.475-7.066-.147-.257-.144-.243-.28-.386-1.13 4.245-4.657 9.104-6.702 12.487-2.407 3.982-5.423 8.9-2.6 14.368 5.203 10.077 21.932 5.902 19.64-7.044h-.002z" fill="#A9CEEE"/><path fill-rule="evenodd" clip-rule="evenodd" d="M40.505 6.168c-.603 3.436-2.562 6.744-3.66 10.027-1.823 5.449.399 7.27-.838 8.63-1.435 1.576-4.402-.436-2.929-5.538.722-2.496 3.435-6.33 4.952-8.703.904-1.413 1.68-3.218 2.475-4.413v-.003z" fill="#fff"/><path d="M34.865 73.394h-4.113v2.555h2.121c.89.012 1.586.24 2.086.686.5.445.75 1.05.75 1.816 0 .77-.252 1.383-.756 1.84-.504.457-1.191.693-2.062.709h-3.27v-8.531h5.244v.925zm-4.113 3.481v3.205h2.057c.558 0 .992-.148 1.3-.445.313-.297.47-.696.47-1.196 0-.48-.151-.859-.452-1.136-.297-.278-.72-.42-1.272-.428h-2.103zm10.412-2.215h1.084V81h-1.084v-4.623L38.24 81h-1.084v-6.34h1.084v4.63l2.924-4.63zm2.537 3.112c0-.622.121-1.18.364-1.676a2.757 2.757 0 011.019-1.149 2.79 2.79 0 011.494-.404c.863 0 1.56.299 2.092.896.535.598.803 1.393.803 2.385v.076a3.77 3.77 0 01-.358 1.664 2.67 2.67 0 01-1.013 1.143c-.438.274-.942.41-1.512.41-.86 0-1.557-.299-2.092-.896-.531-.598-.797-1.389-.797-2.373v-.076zm1.09.128c0 .703.162 1.268.486 1.694.328.425.766.638 1.313.638.55 0 .988-.214 1.312-.644.325-.434.487-1.04.487-1.816 0-.696-.166-1.258-.498-1.688a1.564 1.564 0 00-1.313-.65c-.535 0-.967.213-1.295.638-.328.426-.492 1.035-.492 1.828zm8.297-.082h-2.86v-.884h2.86v.884zM3.119 92.298h-.79V95h-1.09v-6.34h1.09v2.684h.708L5.17 88.66h1.312l-2.507 3.047L6.693 95H5.316L3.12 92.299zm7.043 2.82c-.86 0-1.558-.282-2.098-.845-.539-.566-.808-1.322-.808-2.267v-.2c0-.628.119-1.189.357-1.681a2.815 2.815 0 011.008-1.16 2.536 2.536 0 011.406-.422c.825 0 1.465.271 1.922.814.457.543.686 1.32.686 2.332v.452H8.34c.015.625.197 1.13.545 1.517.351.383.797.574 1.336.574.383 0 .707-.078.972-.234.266-.156.498-.363.698-.621l.662.516c-.532.816-1.328 1.224-2.39 1.224zm-.135-5.684c-.437 0-.804.16-1.101.48-.297.317-.48.762-.551 1.336h3.176v-.082c-.031-.55-.18-.977-.446-1.277-.265-.305-.625-.457-1.078-.457zM19.25 91.9c0 .965-.22 1.743-.662 2.332-.442.59-1.04.885-1.793.885-.77 0-1.375-.244-1.817-.732v3.052h-1.083V88.66h.99l.053.703c.44-.547 1.054-.82 1.84-.82.761 0 1.363.287 1.804.861.445.575.668 1.373.668 2.397v.1zm-1.084-.123c0-.715-.152-1.279-.457-1.693-.305-.414-.723-.621-1.254-.621-.656 0-1.148.29-1.476.873v3.03c.324.577.82.866 1.488.866.52 0 .931-.205 1.236-.615.309-.414.463-1.027.463-1.84zM24.546 95c-.062-.125-.112-.348-.151-.668-.504.524-1.106.785-1.805.785-.625 0-1.139-.176-1.541-.527a1.728 1.728 0 01-.598-1.348c0-.66.25-1.172.75-1.535.504-.367 1.211-.55 2.121-.55h1.055v-.499c0-.379-.113-.68-.34-.902-.226-.227-.56-.34-1.002-.34-.387 0-.71.098-.973.293-.261.195-.392.432-.392.709h-1.09c0-.316.111-.621.334-.914.227-.297.531-.531.914-.703.387-.172.81-.258 1.272-.258.73 0 1.302.184 1.716.55.415.364.63.866.645 1.507v2.918c0 .582.074 1.044.223 1.388V95h-1.137zm-1.798-.826c.34 0 .662-.088.967-.264.305-.176.525-.404.662-.685v-1.301h-.85c-1.328 0-1.992.388-1.992 1.166 0 .34.113.605.34.797.227.191.518.287.873.287zm8.063-.61l2.156-4.904h1.353V95h-1.084v-4.611L31.186 95h-.75l-2.092-4.71V95H27.26v-6.34h1.406l2.145 4.904zm9.357-4.904h1.084V95h-1.084v-4.623L37.244 95H36.16v-6.34h1.084v4.63l2.924-4.63zM47.779 95h-1.09v-2.297a5.75 5.75 0 01-1.464.188c-.793 0-1.399-.204-1.817-.61-.414-.406-.625-.984-.633-1.734v-1.893h1.084v1.928c.02.945.475 1.418 1.366 1.418.5 0 .988-.063 1.465-.188V88.66h1.09V95zm4.371.117c-.859 0-1.558-.281-2.097-.844-.54-.566-.809-1.322-.809-2.267v-.2c0-.628.12-1.189.358-1.681a2.815 2.815 0 011.007-1.16 2.535 2.535 0 011.407-.422c.824 0 1.465.271 1.922.814.456.543.685 1.32.685 2.332v.452h-4.295c.016.625.197 1.13.545 1.517.352.383.797.574 1.336.574.383 0 .707-.078.973-.234.265-.156.498-.363.697-.621l.662.516c-.531.816-1.328 1.224-2.39 1.224zm-.134-5.683c-.438 0-.805.16-1.102.48-.297.317-.48.762-.55 1.336h3.175v-.082c-.031-.55-.18-.977-.445-1.277-.266-.305-.625-.457-1.078-.457zm6.41 4.798c.386 0 .724-.117 1.014-.351a1.24 1.24 0 00.48-.879h1.025c-.02.363-.144.709-.375 1.037-.23.328-.539.59-.925.785a2.645 2.645 0 01-1.22.293c-.862 0-1.55-.287-2.062-.861-.508-.578-.761-1.367-.761-2.367v-.182c0-.617.113-1.166.34-1.646.226-.48.55-.854.972-1.12.426-.265.928-.398 1.506-.398.71 0 1.3.213 1.77.639.472.425.724.978.755 1.658H59.92a1.477 1.477 0 00-.469-1.008 1.433 1.433 0 00-1.031-.398c-.55 0-.979.199-1.283.597-.301.395-.452.967-.452 1.717v.205c0 .73.15 1.293.452 1.688.3.394.73.591 1.289.591zm5.713-1.933h-.791V95h-1.09v-6.34h1.09v2.684h.709l2.132-2.684h1.313l-2.508 3.047L67.713 95h-1.377l-2.197-2.701zm8.607-3.639h1.084V95h-1.084v-4.623L69.822 95h-1.084v-6.34h1.084v4.63l2.924-4.63zm6.926 0h1.084V95h-1.084v-4.623L76.748 95h-1.084v-6.34h1.084v4.63l2.924-4.63zm.293-2.308c0 .472-.162.853-.487 1.142-.32.285-.742.428-1.265.428-.523 0-.947-.145-1.272-.434-.324-.289-.486-.668-.486-1.136h.885c0 .273.074.488.222.644.149.152.366.229.65.229.274 0 .487-.077.64-.229.156-.152.234-.367.234-.644h.879zM17.925 105.9c0 .965-.22 1.743-.661 2.332-.442.59-1.04.885-1.793.885-.77 0-1.375-.244-1.817-.732v3.053H12.57v-8.778h.99l.053.703c.442-.547 1.055-.82 1.84-.82.762 0 1.363.287 1.805.861.445.575.668 1.373.668 2.397v.099zm-1.083-.123c0-.715-.152-1.279-.457-1.693-.305-.414-.723-.621-1.254-.621-.656 0-1.149.291-1.477.873v3.029c.325.578.82.867 1.489.867.52 0 .931-.205 1.236-.615.308-.414.463-1.027.463-1.84zm5.098 3.34c-.86 0-1.56-.281-2.098-.844-.54-.566-.809-1.322-.809-2.267v-.199c0-.629.12-1.19.358-1.682a2.813 2.813 0 011.007-1.16 2.538 2.538 0 011.407-.422c.824 0 1.465.271 1.922.814.457.543.685 1.321.685 2.332v.452h-4.295c.016.625.197 1.13.545 1.517.352.383.797.574 1.336.574.383 0 .707-.078.973-.234.265-.156.498-.363.697-.621l.662.516c-.531.816-1.328 1.224-2.39 1.224zm-.135-5.683c-.438 0-.805.16-1.102.48-.297.316-.48.762-.55 1.336h3.175v-.082c-.031-.551-.18-.977-.445-1.277-.266-.305-.625-.457-1.078-.457zm7.353.961a.837.837 0 00-.34-.704c-.226-.175-.537-.263-.931-.263-.383 0-.703.099-.961.299-.254.199-.381.433-.381.703h-1.078c0-.551.23-1.002.691-1.354.461-.351 1.037-.527 1.729-.527.742 0 1.32.16 1.734.48.414.317.621.77.621 1.36 0 .285-.086.547-.258.785a1.753 1.753 0 01-.732.568c.738.25 1.107.742 1.107 1.477 0 .582-.224 1.043-.674 1.383-.449.339-1.048.509-1.798.509-.73 0-1.334-.177-1.81-.533-.474-.359-.71-.844-.71-1.453h1.078c0 .309.137.574.41.797.278.219.622.328 1.032.328.414 0 .748-.096 1.002-.287a.892.892 0 00.38-.744c0-.356-.107-.61-.322-.762-.21-.156-.54-.234-.99-.234h-1.084v-.914h1.178c.738-.02 1.107-.325 1.107-.914zm2.32 1.376c0-.621.122-1.179.364-1.675a2.763 2.763 0 011.02-1.149 2.795 2.795 0 011.493-.404c.864 0 1.561.299 2.092.896.535.598.803 1.393.803 2.385v.076c0 .618-.12 1.172-.357 1.664-.235.489-.573.87-1.014 1.143-.438.273-.941.41-1.512.41-.86 0-1.556-.299-2.092-.896-.53-.598-.796-1.389-.796-2.373v-.077zm1.09.129c0 .704.163 1.268.487 1.694.328.426.765.638 1.312.638.551 0 .989-.214 1.313-.644.324-.434.486-1.039.486-1.817 0-.695-.166-1.257-.498-1.687a1.563 1.563 0 00-1.313-.65c-.535 0-.966.212-1.294.638-.329.426-.493 1.035-.493 1.828zM43.79 109h-1.084v-2.707h-2.912V109h-1.09v-6.34h1.09v2.748h2.912v-2.748h1.084V109zm5.66 0c-.062-.125-.113-.348-.152-.668-.504.523-1.106.785-1.805.785-.625 0-1.139-.176-1.54-.527a1.73 1.73 0 01-.599-1.348c0-.66.25-1.172.75-1.535.504-.367 1.212-.551 2.122-.551h1.054v-.498c0-.379-.113-.679-.34-.902-.226-.227-.56-.34-1.002-.34-.386 0-.71.098-.972.293-.262.195-.393.432-.393.709h-1.09c0-.316.112-.621.334-.914.227-.297.532-.531.914-.703a3.097 3.097 0 011.272-.258c.73 0 1.303.184 1.717.551.414.363.629.865.644 1.506v2.918c0 .582.075 1.044.223 1.388V109H49.45zm-1.799-.826c.34 0 .663-.088.967-.264a1.59 1.59 0 00.662-.685v-1.301h-.85c-1.327 0-1.992.388-1.992 1.166 0 .34.114.605.34.797.227.191.518.287.873.287zm9.03-4.635h-2.127V109H53.47v-5.461h-2.086v-.879h5.297v.879zm.521 2.232c0-.621.121-1.179.364-1.675a2.762 2.762 0 011.019-1.149 2.795 2.795 0 011.494-.404c.863 0 1.56.299 2.092.896.535.598.803 1.393.803 2.385v.076a3.77 3.77 0 01-.358 1.664c-.234.489-.572.87-1.013 1.143-.438.273-.942.41-1.512.41-.86 0-1.557-.299-2.092-.896-.531-.598-.797-1.389-.797-2.373v-.077zm1.09.129c0 .704.162 1.268.486 1.694.328.426.766.638 1.313.638.55 0 .988-.214 1.312-.644.325-.434.487-1.039.487-1.817 0-.695-.166-1.257-.498-1.687a1.562 1.562 0 00-1.313-.65c-.535 0-.967.212-1.295.638-.328.426-.492 1.035-.492 1.828zm11.397 0c0 .965-.221 1.743-.663 2.332-.441.59-1.039.885-1.793.885-.77 0-1.375-.244-1.816-.732v3.053h-1.084v-8.778h.99l.053.703c.441-.547 1.055-.82 1.84-.82.762 0 1.363.287 1.804.861.446.575.668 1.373.668 2.397v.099zm-1.085-.123c0-.715-.152-1.279-.456-1.693-.305-.414-.723-.621-1.254-.621-.657 0-1.149.291-1.477.873v3.029c.324.578.82.867 1.488.867.52 0 .932-.205 1.237-.615.308-.414.462-1.027.462-1.84z" fill="#273453"/></svg>