<svg width="84" height="90" fill="none" xmlns="http://www.w3.org/2000/svg"><path fill-rule="evenodd" clip-rule="evenodd" d="M.836 21.858c1.673-1.938 3.725-3.422 6.226-4.357 6.124-2.289 14.024-.742 20.32.28 7.972 1.294 15.648 2.358 23.716.9 4.267-.771 8.676-1.048 12.806-2.378l1.975-.635 17.883 34.441-2.825.6c-9.016 1.92-17.207 3.393-26.399 1.88-13.608-2.245-23.151-1.087-36.93 1.064l-1.733.27h-.014L0 23.02v-.195l.835-.966zm1.827 1.329c9.63-11.15 27.85 1.395 48.883-2.407 4.276-.772 8.754-1.048 13.13-2.457l15.733 30.304c-33.49 7.127-18.594-4.047-63.194 2.917L2.663 23.186v.001z" fill="#273453"/><path d="M.752 21.798a15.627 15.627 0 012.821-2.572 15.163 15.163 0 013.449-1.816c5.733-2.143 12.998-.942 19.068.06l1.31.215c3.982.646 7.891 1.235 11.81 1.48 3.916.245 7.843.146 11.867-.58 1.36-.246 2.75-.444 4.139-.641 2.926-.416 5.855-.833 8.652-1.734l2.065-.664c5.984 11.548 11.986 23.088 17.98 34.63l-2.953.629c-4.51.96-8.817 1.808-13.147 2.228-4.332.42-8.688.41-13.295-.35-6.794-1.12-12.576-1.39-18.377-1.113-5.803.277-11.631 1.104-18.517 2.18l-1.114.173h-.768A17879.457 17879.457 0 000 23.248v-.58l.752-.87zm2.95-2.417a15.482 15.482 0 00-2.784 2.538l-.856.991 15.86 30.906 1.667-.26c6.892-1.075 12.728-1.904 18.541-2.182 5.817-.278 11.613-.006 18.426 1.118 4.584.755 8.92.765 13.235.347 4.317-.418 8.615-1.266 13.121-2.225l2.696-.573-17.785-34.253-1.884.607c-2.814.906-5.754 1.324-8.69 1.741-1.377.196-2.754.392-4.132.64-4.043.73-7.988.83-11.92.583-3.93-.246-7.845-.836-11.834-1.483l-1.31-.215c-6.041-.998-13.274-2.193-18.951-.07a14.924 14.924 0 00-3.399 1.788v.002zM2.58 23.127c5.531-6.405 13.844-5.053 23.885-3.42 7.532 1.224 16.041 2.607 25.062.978a112.14 112.14 0 014.08-.631c2.994-.426 6.04-.86 9.033-1.823l.09-.029c5.256 10.173 10.554 20.33 15.832 30.493l-.129.027c-16.233 3.455-21.117 2.614-26.901 1.62-6.144-1.058-13.308-2.29-36.299 1.3l-.078.012c-4.891-9.485-9.737-18.99-14.615-28.48l.04-.047zm23.848-3.228C16.48 18.28 8.24 16.942 2.787 23.2l14.49 28.236c22.963-3.581 30.14-2.346 36.292-1.288 5.746.989 10.6 1.824 26.686-1.59L64.62 18.443c-2.98.95-6.006 1.38-8.981 1.803a111.26 111.26 0 00-4.072.63c-9.058 1.637-17.589.25-25.139-.977z" fill="#273453"/><path fill="#273453" d="M13.426 45.587h67.131v2.464H13.426zm-3.356-6.16h67.131v2.464H10.07zm-2.686-6.161h67.131v2.464H7.384zm-2.685-6.16H71.83v2.464H4.699zm-3.021-6.161h67.131v2.464H1.678z"/><path fill-rule="evenodd" clip-rule="evenodd" d="M55.074 19.803l-.252-.81c-.534-1.717-2.194-4.195-3.344-5.905-1.19-1.772-3.483-4.706-4.123-5.637-2.273-3.314-3.27-5.859-4.075-7.064-.172-.257-.17-.242-.33-.387-1.325 4.244-5.46 9.1-7.857 12.481-2.822 3.982-6.359 8.897-3.049 14.362 6.1 10.073 25.716 5.901 23.029-7.04z" fill="#294D8B"/><path fill-rule="evenodd" clip-rule="evenodd" d="M41.558 6.2c-.64 3.454-2.719 6.78-3.883 10.08-1.933 5.478.422 7.31-.89 8.675-1.523 1.584-4.673-.438-3.109-5.568.766-2.51 3.644-6.364 5.255-8.75.96-1.421 1.785-3.237 2.627-4.438z" fill="#fff"/><path d="M30.496 67.394h-4.113V75h-1.131v-8.531h5.244v.925zm5.367 4.506c0 .965-.22 1.743-.662 2.332-.441.59-1.039.885-1.793.885-.77 0-1.375-.244-1.816-.732v3.052h-1.084V68.66h.99l.053.703c.441-.547 1.055-.82 1.84-.82.761 0 1.363.287 1.804.861.446.575.668 1.373.668 2.397v.1zm-1.084-.123c0-.715-.152-1.279-.457-1.693-.304-.414-.722-.621-1.254-.621-.656 0-1.148.29-1.476.873v3.03c.324.577.82.866 1.488.866.52 0 .932-.205 1.236-.615.309-.414.463-1.027.463-1.84zm4.471 1.635l1.477-4.752h1.16l-2.55 7.319c-.394 1.054-1.02 1.582-1.88 1.582l-.205-.018-.404-.076v-.88l.293.024c.367 0 .652-.074.855-.222.207-.149.377-.42.51-.815l.24-.644-2.262-6.27h1.184l1.582 4.752zm6.393-4.389c.797 0 1.433.268 1.91.803.48.531.72 1.233.72 2.104v.1c0 .597-.115 1.132-.345 1.605-.23.468-.563.834-.996 1.096-.43.257-.926.386-1.489.386-.851 0-1.537-.283-2.056-.85-.52-.57-.78-1.333-.78-2.29v-.528c0-1.332.246-2.39.739-3.176.496-.785 1.226-1.263 2.191-1.435.547-.098.916-.217 1.108-.357a.68.68 0 00.287-.58h.89c0 .488-.111.868-.334 1.142-.218.273-.57.467-1.054.58l-.809.182c-.645.152-1.129.41-1.453.773-.32.36-.53.84-.627 1.441.574-.663 1.273-.996 2.098-.996zm-.211.891c-.532 0-.954.18-1.266.54-.313.355-.469.849-.469 1.482v.093c0 .68.156 1.219.469 1.618.316.394.742.591 1.277.591.54 0 .965-.199 1.278-.597.312-.399.469-.98.469-1.747 0-.597-.159-1.076-.475-1.435-.313-.363-.74-.545-1.283-.545zM53.406 75c-.062-.125-.113-.348-.152-.668-.504.524-1.106.785-1.805.785-.625 0-1.139-.176-1.54-.527a1.728 1.728 0 01-.599-1.348c0-.66.25-1.172.75-1.535.505-.367 1.212-.55 2.122-.55h1.054v-.499c0-.379-.113-.68-.34-.902-.226-.227-.56-.34-1.002-.34-.386 0-.71.098-.972.293-.262.195-.393.432-.393.709h-1.09c0-.316.112-.621.334-.914.227-.297.532-.531.914-.703a3.097 3.097 0 011.272-.258c.73 0 1.303.184 1.717.55.414.364.629.866.644 1.507v2.918c0 .582.075 1.044.223 1.388V75h-1.137zm-1.799-.826c.34 0 .663-.088.967-.264a1.59 1.59 0 00.662-.685v-1.301h-.85c-1.327 0-1.992.388-1.992 1.166 0 .34.114.605.34.797.227.191.518.287.873.287zm9.258-5.514V75h-1.09v-2.467h-1.634L56.647 75h-1.172l1.593-2.63c-.406-.15-.718-.378-.937-.686a1.876 1.876 0 01-.322-1.09c0-.578.216-1.043.65-1.395.434-.355 1.014-.535 1.74-.539h2.666zm-3.967 1.946c0 .308.106.558.317.75.21.187.49.283.838.287h1.722v-2.104h-1.558c-.402 0-.723.1-.961.299a.945.945 0 00-.358.768zm-36.04 15.166c0-.622.12-1.18.363-1.676a2.758 2.758 0 011.02-1.149 2.79 2.79 0 011.493-.404c.864 0 1.56.299 2.092.896.535.598.803 1.393.803 2.385v.076a3.77 3.77 0 01-.358 1.664 2.67 2.67 0 01-1.013 1.143c-.438.274-.942.41-1.512.41-.86 0-1.556-.299-2.092-.896-.531-.598-.797-1.389-.797-2.373v-.076zm1.09.128c0 .703.161 1.268.486 1.694.328.425.765.638 1.312.638.55 0 .988-.214 1.313-.644.324-.434.486-1.04.486-1.816 0-.696-.166-1.258-.498-1.688a1.564 1.564 0 00-1.313-.65 1.56 1.56 0 00-1.295.638c-.328.426-.492 1.035-.492 1.828zM32.774 89h-1.09v-2.297a5.749 5.749 0 01-1.464.188c-.793 0-1.399-.204-1.817-.61-.414-.406-.625-.984-.633-1.734v-1.893h1.084v1.928c.02.945.475 1.418 1.366 1.418.5 0 .988-.063 1.465-.188V82.66h1.09V89zm5.842-6.34H39.7V89h-1.084v-4.623L35.693 89H34.61v-6.34h1.084v4.63l2.924-4.63zm5.367 5.572c.387 0 .725-.117 1.014-.351.29-.234.45-.528.48-.879h1.026c-.02.363-.145.709-.375 1.037-.23.328-.54.59-.926.785a2.645 2.645 0 01-1.219.293c-.863 0-1.55-.287-2.062-.861-.508-.578-.762-1.367-.762-2.367v-.182c0-.617.113-1.166.34-1.646.227-.48.55-.854.973-1.12.425-.265.927-.398 1.505-.398.712 0 1.301.213 1.77.639.473.425.725.978.756 1.658h-1.026a1.477 1.477 0 00-.468-1.008 1.433 1.433 0 00-1.032-.398c-.55 0-.978.199-1.283.597-.3.395-.45.967-.45 1.717v.205c0 .73.15 1.293.45 1.688.301.394.73.591 1.29.591zm8.45-4.693h-2.127V89h-1.084v-5.46h-2.086v-.88h5.297v.88zm3.029 2.76h-.791V89h-1.09v-6.34h1.09v2.684h.709l2.133-2.684h1.312l-2.508 3.047L59.038 89H57.66l-2.197-2.701zM63.883 89c-.063-.125-.114-.348-.153-.668-.503.524-1.105.785-1.804.785-.625 0-1.139-.176-1.541-.527a1.728 1.728 0 01-.598-1.348c0-.66.25-1.172.75-1.535.504-.367 1.211-.55 2.121-.55h1.055v-.499c0-.379-.113-.68-.34-.902-.226-.227-.56-.34-1.002-.34-.387 0-.71.098-.973.293-.261.195-.392.432-.392.709h-1.09c0-.316.111-.621.334-.914.227-.297.531-.531.914-.703.387-.172.81-.258 1.271-.258.731 0 1.303.184 1.717.55.414.364.63.866.645 1.507v2.918c0 .582.074 1.044.222 1.388V89h-1.136zm-1.799-.826c.34 0 .662-.088.967-.264.304-.176.525-.404.662-.685v-1.301h-.85c-1.328 0-1.992.388-1.992 1.166 0 .34.113.605.34.797.227.191.517.287.873.287z" fill="#273453"/></svg>