<svg width="93" height="91" fill="none" xmlns="http://www.w3.org/2000/svg"><path fill-rule="evenodd" clip-rule="evenodd" d="M4.9 22.06c1.676-1.927 3.73-3.4 6.232-4.33 6.129-2.273 14.04-.736 20.342.279 7.98 1.287 15.662 2.343 23.741.895 4.273-.767 8.686-1.043 12.818-2.363l1.978-.631 17.903 34.22-2.83.598C76.06 52.636 67.86 54.1 58.659 52.594c-13.621-2.23-23.174-1.078-36.969 1.06l-1.749.27L4 23.093l.897-1.035H4.9zm1.828 1.32c9.639-11.081 27.877 1.384 48.933-2.391 4.278-.768 8.762-1.043 13.141-2.441l15.751 30.11c-33.522 7.08-18.613-4.023-63.257 2.9L6.728 23.38z" fill="#273453"/><path d="M16.77 27.36a3.542 3.542 0 01-1.611-.11 2.83 2.83 0 01-1.255-.787 2.579 2.579 0 01-.637-1.307 2.416 2.416 0 01.152-1.423c.193-.442.498-.812.919-1.11a3.38 3.38 0 011.49-.572c.463-.07.9-.058 1.309.033.409.092.772.256 1.086.498l-.577.684a2.145 2.145 0 00-1.623-.378 2.291 2.291 0 00-1.005.386 1.688 1.688 0 00-.695 1.73c.064.35.204.647.427.897s.5.428.836.54c.336.108.7.133 1.087.077.598-.089 1.068-.367 1.404-.836l.784.489c-.214.32-.5.58-.86.787a3.52 3.52 0 01-1.237.411l.006-.008zm4.05-4.767c.638-.095 1.148-.028 1.535.2.388.228.632.623.733 1.182l.415 2.307-.955.142-.086-.478a1.125 1.125 0 01-.46.472 2.226 2.226 0 01-.806.259 2.28 2.28 0 01-.876-.025 1.379 1.379 0 01-.638-.337 1.055 1.055 0 01-.308-.578.996.996 0 01.28-.917c.25-.256.687-.431 1.307-.523l1.117-.167-.01-.058c-.048-.275-.177-.473-.384-.595-.207-.12-.488-.156-.845-.1a2.541 2.541 0 00-.7.209 1.752 1.752 0 00-.543.375l-.515-.612c.198-.192.448-.353.753-.483a3.93 3.93 0 01.99-.276l-.004.003zm.467 3.383c.254-.039.47-.125.647-.258a.87.87 0 00.336-.515l-.082-.456-1.044.156c-.583.086-.842.306-.781.654.03.166.125.289.29.366.164.078.375.095.634.059v-.006zm.348 9.349l.348 1.29 1.392.792-.632.92-5.442-3.099.632-.92 2.79 1.59-1.108-4.04.71-1.034 1.005 3.47 4.526-.495-.739 1.076-3.479.45h-.003zm7.612 11.398L27.125 44.1l.32 3.128-.36.242-3.152-1.185 2.088 2.591-.77.515-3.189-3.962.666-.445 3.842 1.471-.418-3.759.665-.444 3.196 3.956-.763.511-.003.003zm2.722-6.466l2.063 2.563c.858 1.065.69 1.993-.503 2.79-.318.215-.65.379-.995.496a2.58 2.58 0 01-.965.153l-.08-.765c.233.014.49-.022.764-.105.275-.084.525-.2.754-.35.363-.245.57-.498.62-.763.048-.264-.053-.55-.303-.861l-.128-.159a1.36 1.36 0 01-.244.623c-.138.195-.318.37-.547.52a2.34 2.34 0 01-1 .386 2.077 2.077 0 01-1.02-.114 1.97 1.97 0 01-.836-.617 1.686 1.686 0 01-.394-.909c-.03-.32.034-.623.19-.915.158-.291.393-.542.707-.75.241-.161.489-.27.742-.33s.507-.062.757-.004l-.324-.4.739-.495.003.006zm.07 3.47c.293-.198.47-.44.531-.724.058-.286-.015-.559-.22-.814a1.118 1.118 0 00-.778-.428 1.364 1.364 0 00-.915.244c-.3.2-.48.442-.538.726-.06.283.01.553.214.806.208.256.47.403.788.437a1.37 1.37 0 00.924-.248h-.006zm14.076-1.674l.87 4.843-.812.122-3.52-2.844.59 3.28-.98.145-.87-4.843.812-.122 3.52 2.844-.59-3.28.98-.145zm3.085.678c.598-.089 1.078-.028 1.44.186.364.214.593.584.688 1.11l.387 2.165-.897.134-.08-.45a1.072 1.072 0 01-.43.444 2.137 2.137 0 01-.757.245 2.129 2.129 0 01-.824-.023 1.277 1.277 0 01-.598-.317.986.986 0 01-.29-.542.925.925 0 01.263-.859c.235-.241.644-.405 1.227-.492l1.046-.155-.009-.056c-.046-.259-.168-.445-.36-.556-.195-.114-.458-.145-.793-.094-.23.033-.446.1-.657.197a1.66 1.66 0 00-.51.353l-.484-.575c.186-.178.42-.331.705-.454.283-.122.595-.208.927-.258l.006-.003zm.437 3.175a1.33 1.33 0 00.607-.242.811.811 0 00.315-.484l-.077-.428-.98.145c-.546.08-.79.286-.732.614.027.156.12.272.272.342.152.072.35.089.595.053zm-13.285-8.101a3.376 3.376 0 01-1.46-.634 2.564 2.564 0 01-.86-1.145 2.429 2.429 0 01-.08-1.426c.117-.504.352-.929.706-1.28a2.89 2.89 0 011.297-.733 3.537 3.537 0 011.614-.047 3.55 3.55 0 011.212.458c.348.22.62.492.818.82l-.806.45c-.314-.477-.769-.772-1.364-.886a2.386 2.386 0 00-1.09.033 1.872 1.872 0 00-.86.504c-.235.239-.39.533-.47.878a1.74 1.74 0 00.042.979c.11.305.3.564.568.775.269.212.598.353.983.428a2.16 2.16 0 001.642-.32l.54.715a2.77 2.77 0 01-1.114.453 3.622 3.622 0 01-1.315-.022h-.003zm5.661-3.12c.632.12 1.084.351 1.355.69.272.34.342.787.217 1.343l-.525 2.288-.946-.18.11-.476a1.23 1.23 0 01-.617.292 2.298 2.298 0 01-.854-.023 2.142 2.142 0 01-.81-.31 1.224 1.224 0 01-.46-.523.983.983 0 01-.058-.643c.08-.35.287-.606.623-.761.335-.159.811-.178 1.425-.062l1.108.212.012-.059c.064-.272.021-.5-.125-.68-.147-.181-.397-.304-.748-.373a2.6 2.6 0 00-.736-.034 1.946 1.946 0 00-.656.173l-.24-.74c.259-.114.558-.18.893-.203.336-.022.678 0 1.032.067v.003zm-.903 3.309c.25.047.488.039.708-.03a.95.95 0 00.516-.37l.103-.453-1.034-.198c-.577-.111-.907.009-.986.353a.45.45 0 00.125.437c.122.125.311.21.568.261zm-8.207-7.931l-1.883-2.766.046 3.14-.382.215-3.037-1.41 1.853 2.736-.812.456-2.832-4.178.702-.395 3.699 1.746-.089-3.778.702-.395 2.838 4.175-.805.454zm3.278-6.25l1.834 2.705c.76 1.123.513 2.038-.748 2.747a4.31 4.31 0 01-1.035.422c-.354.092-.68.12-.976.084l-.012-.768c.232.031.488.014.769-.047.28-.06.54-.161.781-.294.385-.217.614-.454.684-.715.07-.261-.003-.553-.226-.878l-.113-.167c-.046.217-.144.42-.296.603a2.098 2.098 0 01-.59.481 2.404 2.404 0 01-1.03.314 2.038 2.038 0 01-1.008-.189 1.902 1.902 0 01-.778-.675 1.68 1.68 0 01-.311-.934c-.003-.32.088-.62.268-.898.183-.278.44-.512.772-.698a2.31 2.31 0 01.77-.275 1.65 1.65 0 01.756.052l-.287-.422.782-.44-.006-.008zm-.232 3.464c.31-.175.506-.403.592-.684.085-.28.033-.556-.15-.828a1.092 1.092 0 00-.738-.484c-.312-.055-.623.006-.934.178-.315.178-.516.406-.602.684-.085.278-.036.553.144.817.183.27.433.434.745.492.314.059.628-.003.943-.18v.005z" fill="#273453"/><path fill-rule="evenodd" clip-rule="evenodd" d="M56.968 19.788l-.23-.81c-.485-1.714-1.986-4.191-3.03-5.901-1.08-1.77-3.156-4.704-3.736-5.632C47.912 4.134 47.01 1.59 46.28.386c-.156-.255-.156-.241-.3-.386-1.199 4.242-4.947 9.093-7.12 12.474-2.557 3.978-5.762 8.89-2.762 14.353 5.527 10.066 23.302 5.896 20.867-7.036l.003-.003z" fill="#A3C8ED"/><path fill-rule="evenodd" clip-rule="evenodd" d="M45.752 6.158c-.641 3.433-2.723 6.738-3.889 10.016-1.934 5.443.422 7.264-.89 8.62-1.524 1.574-4.68-.436-3.114-5.532.766-2.493 3.648-6.321 5.259-8.693.961-1.412 1.788-3.216 2.63-4.409l.004-.002z" fill="#fff"/><path d="M56.394 35.96l-1.883-2.767.046 3.141-.382.214-3.037-1.409 1.853 2.735-.812.456-2.832-4.178.702-.395 3.699 1.746-.089-3.778.702-.395 2.839 4.176-.806.453zm3.28-6.25l1.835 2.705c.76 1.123.513 2.037-.748 2.746-.336.19-.68.331-1.034.423-.354.091-.68.12-.977.083l-.012-.767c.232.03.488.014.769-.047.28-.062.54-.162.781-.295.385-.217.614-.453.684-.715.07-.26-.003-.553-.226-.878l-.113-.167c-.046.217-.143.42-.296.603a2.095 2.095 0 01-.589.481 2.406 2.406 0 01-1.032.315 2.038 2.038 0 01-1.007-.19 1.902 1.902 0 01-.778-.675 1.681 1.681 0 01-.311-.934c-.003-.32.088-.62.268-.898a2.17 2.17 0 01.773-.698c.253-.142.51-.233.769-.275a1.65 1.65 0 01.756.053l-.286-.423.78-.439-.005-.008zm-.231 3.464c.311-.176.506-.404.592-.684.085-.281.034-.556-.15-.829a1.092 1.092 0 00-.738-.484c-.311-.055-.623.006-.934.178-.315.178-.516.406-.601.684-.086.278-.037.553.143.818.183.27.433.433.745.492.314.058.629-.003.943-.181v.006zm6.415-10.523l-.827 4.849-.815-.114-2.374-3.7-.562 3.283-.98-.14.828-4.848.815.114 2.374 3.7.562-3.283.98.14zm2.701 1.518c.598.084 1.035.281 1.306.587.272.306.364.723.275 1.248l-.37 2.168-.896-.128.076-.45a1.158 1.158 0 01-.562.3 2.123 2.123 0 01-.802.017 2.074 2.074 0 01-.776-.256 1.188 1.188 0 01-.46-.47.936.936 0 01-.089-.597.992.992 0 01.543-.742c.305-.162.751-.203 1.334-.12l1.05.147.009-.055c.043-.259-.006-.47-.153-.631-.146-.162-.387-.267-.72-.315a2.39 2.39 0 00-.69.003 1.758 1.758 0 00-.604.192l-.265-.684c.238-.116.512-.194.827-.23a3.8 3.8 0 01.97.016h-.003zm-.668 3.142c.238.033.458.014.659-.059a.88.88 0 00.464-.37l.073-.428-.98-.139c-.546-.078-.848.048-.906.376a.423.423 0 00.14.403c.123.11.303.183.547.22l.003-.003zm1.571 6.972l-1.279.642-.476 1.431-1.141-.317 1.868-5.593 1.141.317-.958 2.87 3.992-2.03 1.282.355-3.415 1.788 1.706 3.85-1.334-.37-1.386-2.94v-.003zM57.685 45.069c-.556-.153-1.02-.403-1.392-.748a2.503 2.503 0 01-.745-1.21 2.443 2.443 0 01.061-1.428c.165-.492.44-.895.828-1.215a2.96 2.96 0 011.36-.626 3.556 3.556 0 011.615.084 3.38 3.38 0 011.16.556c.323.245.568.54.735.884l-.848.38c-.269-.5-.69-.83-1.273-.992A2.34 2.34 0 0058.1 40.7c-.348.067-.65.211-.907.43-.256.22-.442.501-.555.84-.113.34-.131.665-.052.979.08.314.241.586.488.82.248.233.562.4.937.506.58.161 1.136.097 1.667-.187l.467.754c-.348.2-.733.32-1.154.361a3.605 3.605 0 01-1.306-.128v-.005zm5.942-2.65c.616.17 1.044.437 1.282.796.238.358.265.811.082 1.353l-.748 2.238-.924-.255.155-.465c-.177.134-.39.214-.64.24a2.235 2.235 0 01-.849-.092 2.113 2.113 0 01-.775-.376 1.232 1.232 0 01-.41-.558 1.006 1.006 0 01.004-.643 1.1 1.1 0 01.696-.708c.348-.131.824-.112 1.425.055l1.084.3.018-.058c.088-.267.07-.495-.058-.687-.128-.191-.363-.336-.708-.43a2.559 2.559 0 00-.73-.092c-.25.002-.473.044-.668.12l-.168-.757c.272-.092.574-.136.91-.13a4.12 4.12 0 011.022.15zm-1.22 3.223c.246.069.481.077.707.027a.959.959 0 00.55-.328l.146-.442-1.013-.28c-.565-.156-.903-.067-1.016.272a.44.44 0 00.082.445c.11.133.29.236.54.306h.003zm11.218.003l1.032-3.117-2.555 2.107-.427-.12-.848-3.007-1.026 3.075-.912-.253 1.568-4.698.788.22 1.01 3.683 3.052-2.558.787.22-1.562 4.7-.907-.25v-.002zm7.316-1.89l-1.016 3.04c-.422 1.263-1.34 1.699-2.756 1.307a4.34 4.34 0 01-1.032-.428 2.332 2.332 0 01-.714-.612l.623-.517c.128.178.31.342.549.492.238.15.491.264.76.34.433.119.778.116 1.04-.006.263-.122.452-.37.577-.737l.065-.189c-.211.114-.44.178-.693.198a2.333 2.333 0 01-.785-.087 2.298 2.298 0 01-.94-.497 1.677 1.677 0 01-.51-.812 1.658 1.658 0 01.04-.978 1.77 1.77 0 01.565-.832 1.92 1.92 0 01.919-.408c.35-.059.71-.04 1.086.066.284.078.531.195.736.342.204.15.357.334.454.55l.159-.475.876.242h-.003zm-3.006 2.129c.348.097.668.08.955-.048.287-.127.482-.344.583-.647.1-.3.07-.576-.092-.826-.161-.25-.415-.423-.766-.52-.354-.097-.674-.083-.961.042a1.02 1.02 0 00-.58.64c-.1.302-.073.583.089.833.158.253.418.428.772.526zM3.41 75.469l2.79 6.96 2.788-6.96h1.46V84H9.321v-3.322l.106-3.586L6.627 84h-.861L2.97 77.11l.111 3.568V84H1.957v-8.531H3.41zm12.955 2.191h1.084V84h-1.084v-4.623L13.441 84h-1.084v-6.34h1.084v4.63l2.924-4.63zM24.37 84h-1.084v-2.707h-2.912V84h-1.09v-6.34h1.09v2.748h2.912V77.66h1.084V84zm4.377.117c-.86 0-1.558-.281-2.098-.844-.539-.566-.808-1.322-.808-2.267v-.2c0-.628.119-1.189.357-1.681a2.815 2.815 0 011.008-1.16 2.535 2.535 0 011.406-.422c.825 0 1.465.271 1.922.814.457.543.686 1.32.686 2.332v.452h-4.295c.015.625.197 1.13.545 1.517.351.383.797.574 1.336.574.383 0 .707-.078.972-.234.266-.156.498-.363.698-.621l.662.516c-.532.816-1.328 1.224-2.39 1.224zm-.135-5.683c-.437 0-.804.16-1.101.48-.297.317-.48.762-.551 1.336h3.176v-.082c-.032-.55-.18-.977-.446-1.277-.265-.305-.625-.457-1.078-.457zm9.223 2.466c0 .965-.22 1.743-.662 2.332-.441.59-1.04.885-1.793.885-.77 0-1.375-.244-1.816-.732v3.052h-1.085V77.66h.99l.053.703c.442-.547 1.055-.82 1.84-.82.762 0 1.364.287 1.805.861.445.575.668 1.373.668 2.397v.1zm-1.084-.123c0-.715-.152-1.279-.457-1.693-.305-.414-.723-.621-1.254-.621-.656 0-1.148.29-1.477.873v3.03c.325.577.82.866 1.489.866.52 0 .931-.205 1.236-.615.309-.414.463-1.027.463-1.84zM43.13 84c-.062-.125-.112-.348-.152-.668-.503.524-1.105.785-1.804.785-.625 0-1.139-.176-1.541-.527a1.728 1.728 0 01-.598-1.348c0-.66.25-1.172.75-1.535.504-.367 1.211-.55 2.121-.55h1.055v-.499c0-.379-.113-.68-.34-.902-.227-.227-.56-.34-1.002-.34-.387 0-.71.098-.972.293-.262.195-.393.432-.393.709h-1.09c0-.316.111-.621.334-.914.227-.297.531-.531.914-.703.387-.172.81-.258 1.272-.258.73 0 1.302.184 1.716.55.415.364.63.866.645 1.507v2.918c0 .582.074 1.044.223 1.388V84H43.13zm-1.798-.826c.34 0 .662-.088.967-.264.304-.176.525-.404.662-.685v-1.301h-.85c-1.328 0-1.992.388-1.992 1.166 0 .34.113.605.34.797.226.191.518.287.873.287zm9.61-5.514V84h-1.09v-5.443h-2.157l-.129 2.373c-.07 1.09-.254 1.869-.55 2.338-.293.468-.76.713-1.4.732h-.434v-.955l.31-.023c.352-.04.604-.243.756-.61.152-.367.25-1.047.293-2.039l.117-2.713h4.283zm5.841 0h1.084V84h-1.084v-4.623L53.86 84h-1.084v-6.34h1.084v4.63l2.924-4.63zm6.31 1.734a.835.835 0 00-.34-.703c-.226-.175-.536-.263-.93-.263-.383 0-.704.1-.962.299-.254.199-.38.433-.38.703h-1.079c0-.551.23-1.002.692-1.354.46-.351 1.037-.527 1.728-.527.742 0 1.32.16 1.735.48.414.317.62.77.62 1.36 0 .285-.085.547-.257.785a1.756 1.756 0 01-.733.568c.739.25 1.108.742 1.108 1.477 0 .582-.225 1.043-.674 1.383-.45.34-1.049.51-1.799.51-.73 0-1.334-.178-1.81-.534-.473-.36-.71-.844-.71-1.453h1.079c0 .309.137.574.41.797.277.219.621.328 1.031.328.414 0 .748-.096 1.002-.287a.891.891 0 00.381-.744c0-.356-.107-.61-.322-.762-.211-.156-.541-.234-.99-.234h-1.084v-.914h1.177c.739-.02 1.108-.325 1.108-.915zM69.616 84c-.062-.125-.113-.348-.152-.668-.504.524-1.106.785-1.805.785-.625 0-1.139-.176-1.54-.527a1.728 1.728 0 01-.599-1.348c0-.66.25-1.172.75-1.535.504-.367 1.212-.55 2.122-.55h1.054v-.499c0-.379-.113-.68-.34-.902-.226-.227-.56-.34-1.002-.34-.386 0-.71.098-.972.293-.262.195-.393.432-.393.709h-1.09c0-.316.112-.621.334-.914a2.32 2.32 0 01.915-.703c.386-.172.81-.258 1.271-.258.73 0 1.303.184 1.717.55.414.364.629.866.644 1.507v2.918c0 .582.075 1.044.223 1.388V84h-1.137zm-1.799-.826c.34 0 .662-.088.967-.264a1.59 1.59 0 00.662-.685v-1.301h-.85c-1.327 0-1.992.388-1.992 1.166 0 .34.114.605.34.797.227.191.518.287.873.287zm4.506-5.514h1.09v5.455h2.918V77.66h1.084v5.455h.756l-.106 2.766h-.972V84h-4.77v-6.34zm11.121 0h1.084V84h-1.084v-4.623L80.52 84h-1.084v-6.34h1.084v4.63l2.924-4.63zm7.67 0V84h-1.09v-2.467H88.39L86.894 84h-1.171l1.593-2.63c-.406-.15-.718-.378-.937-.686a1.877 1.877 0 01-.322-1.09c0-.578.216-1.043.65-1.395.434-.355 1.014-.535 1.74-.539h2.666zm-3.966 1.946c0 .308.105.558.316.75.21.187.49.283.838.287h1.722v-2.104h-1.558c-.403 0-.723.1-.961.299a.945.945 0 00-.358.768z" fill="#273453"/></svg>