<svg width="84" height="90" fill="none" xmlns="http://www.w3.org/2000/svg"><path fill-rule="evenodd" clip-rule="evenodd" d="M.899 20.592a15.124 15.124 0 016.234-4.236c6.132-2.226 14.039-.721 20.34.273 7.981 1.258 15.664 2.292 23.74.876 4.274-.75 8.685-1.018 12.821-2.312l1.977-.619 17.903 33.482-2.828.584c-9.026 1.864-17.228 3.298-26.427 1.827-13.623-2.18-23.178-1.057-36.97 1.035l-1.747.265L0 21.603l.899-1.011zm1.83 1.29c9.64-10.84 27.879 1.358 48.936-2.34 4.28-.749 8.761-1.017 13.143-2.388l15.75 29.46c-33.525 6.929-18.616-3.934-63.263 2.836L2.725 21.88l.003.003z" fill="#273453"/><path fill-rule="evenodd" clip-rule="evenodd" d="M62.048 22.424c.358 0 .652.26.652.582 0 .319-.29.581-.652.581-.358 0-.653-.26-.653-.581 0-.32.291-.582.653-.582zm-5.128 3.749c.359 0 .653.26.653.581 0 .32-.29.582-.652.582-.358 0-.653-.26-.653-.582 0-.319.291-.581.653-.581zm7.777 2.989c.358 0 .652.26.652.582 0 .32-.291.581-.653.581-.358 0-.652-.26-.652-.581 0-.32.291-.582.653-.582zm3.096-4.355c.358 0 .652.26.652.581 0 .32-.29.582-.652.582-.358 0-.653-.26-.653-.582 0-.319.291-.581.653-.581zm-12.667 6.651c.359 0 .653.259.653.581 0 .32-.291.582-.653.582-.358 0-.652-.26-.652-.582 0-.32.29-.581.652-.581zm-6.606 1.368c.359 0 .653.26.653.581 0 .32-.29.582-.652.582-.358 0-.653-.26-.653-.582 0-.319.291-.581.653-.581zm12.277 2.132c.358 0 .653.26.653.581 0 .32-.292.582-.653.582-.358 0-.653-.26-.653-.582 0-.319.291-.581.653-.581zm8.426-2.204c.358 0 .652.26.652.582 0 .319-.29.581-.652.581-.358 0-.653-.26-.653-.581 0-.32.291-.582.653-.582zm-2.342 5.448c.358 0 .653.259.653.58 0 .32-.291.582-.653.582-.358 0-.652-.259-.652-.581 0-.32.29-.581.652-.581zm4.475 5.098c.358 0 .652.26.652.582 0 .32-.29.582-.652.582-.358 0-.653-.26-.653-.582 0-.319.291-.581.653-.581zm2.809-6.05c.358 0 .652.26.652.581 0 .32-.291.582-.652.582-.359 0-.653-.26-.653-.582 0-.32.291-.581.653-.581zm4.055 7.812c.359 0 .653.26.653.582 0 .319-.291.581-.653.581-.358 0-.652-.26-.652-.581 0-.32.291-.582.653-.582zM65.717 46.75c.358 0 .652.26.652.581 0 .32-.29.582-.652.582-.358 0-.653-.26-.653-.582 0-.319.291-.581.653-.581zm-4.609-4.1c.358 0 .652.26.652.582 0 .32-.29.582-.652.582-.358 0-.653-.26-.653-.582 0-.32.291-.581.653-.581zm-7.021-4.494c.358 0 .652.26.652.581 0 .32-.29.582-.652.582-.359 0-.653-.26-.653-.582 0-.319.291-.581.653-.581zm.156 6.348c.358 0 .653.26.653.581 0 .32-.291.582-.653.582-.358 0-.653-.26-.653-.582 0-.32.292-.581.653-.581zm-6.806-3.144c.358 0 .652.26.652.581 0 .32-.291.582-.652.582-.359 0-.653-.26-.653-.582 0-.319.291-.581.653-.581zm-3.909-4.735c.358 0 .653.26.653.581 0 .32-.292.582-.653.582-.358 0-.652-.26-.652-.582 0-.319.29-.581.652-.581zm-7.178-4.218c.358 0 .652.259.652.581 0 .32-.29.581-.652.581-.358 0-.653-.259-.653-.581 0-.32.291-.581.653-.581zm.105 6.445c.358 0 .653.259.653.581 0 .32-.291.582-.653.582-.358 0-.652-.26-.652-.582 0-.32.29-.581.652-.581zm4.421 5.281c.358 0 .653.26.653.582 0 .32-.291.581-.653.581-.358 0-.652-.259-.652-.581 0-.32.29-.582.652-.582zm17.641-24.822c.358 0 .652.26.652.582 0 .32-.29.581-.652.581-.359 0-.653-.259-.653-.581 0-.32.291-.582.653-.582zm-35.387 0c.358 0 .652.26.652.582 0 .32-.291.581-.652.581-.359 0-.653-.259-.653-.581 0-.32.291-.582.653-.582zm3.077 6.417c.358 0 .653.259.653.581 0 .32-.291.582-.653.582-.358 0-.652-.26-.652-.582 0-.32.29-.581.652-.581zm-6.814-1.756c.359 0 .653.26.653.582 0 .319-.291.581-.652.581-.359 0-.653-.26-.653-.581 0-.32.291-.582.652-.582zm-5.408-5.054c.358 0 .652.26.652.582 0 .319-.291.581-.652.581-.359 0-.653-.26-.653-.581 0-.32.291-.582.653-.582zm-3.279 8.483c.358 0 .653.26.653.582 0 .319-.291.581-.653.581-.358 0-.652-.26-.652-.581 0-.32.29-.582.652-.582zM6.6 21.47c.357 0 .652.259.652.581 0 .32-.291.582-.653.582-.358 0-.652-.26-.652-.582 0-.32.29-.581.652-.581zm5.46 1.621c.357 0 .652.26.652.581 0 .32-.291.582-.653.582-.358 0-.652-.26-.652-.582 0-.319.29-.581.652-.581zm4.785 6.397c.358 0 .652.26.652.581 0 .32-.291.582-.652.582-.359 0-.653-.26-.653-.582 0-.319.291-.581.652-.581zm6.285.333c.358 0 .652.26.652.582 0 .319-.291.581-.652.581-.359 0-.653-.26-.653-.581 0-.32.291-.582.653-.582zM12.526 33.54c.358 0 .653.26.653.582 0 .32-.291.582-.653.582-.358 0-.652-.26-.652-.582 0-.319.29-.581.652-.581zm8.054 3.88c.359 0 .653.26.653.582 0 .32-.291.582-.652.582-.359 0-.653-.26-.653-.582 0-.32.291-.581.652-.581zm5.982-3.708c.358 0 .652.26.652.581 0 .32-.29.582-.652.582-.358 0-.652-.26-.652-.582 0-.319.29-.581.652-.581zm1.004 5.47c.358 0 .653.26.653.581 0 .32-.292.582-.653.582-.358 0-.652-.26-.652-.581 0-.32.29-.582.652-.582zm-11.284 1.53c.358 0 .652.26.652.582 0 .32-.29.582-.652.582-.358 0-.653-.26-.653-.582 0-.32.291-.581.653-.581zm3.364 4.621c.358 0 .653.26.653.582 0 .32-.291.581-.653.581-.358 0-.652-.259-.652-.581 0-.32.29-.582.652-.582zm11.036-.92c.358 0 .652.26.652.581 0 .32-.29.582-.652.582-.358 0-.653-.26-.653-.582 0-.319.291-.581.653-.581z" fill="#273453"/><path fill-rule="evenodd" clip-rule="evenodd" d="M52.883 19.363l-.227-.792c-.483-1.68-1.99-4.102-3.029-5.773-1.078-1.733-3.157-4.6-3.736-5.512-2.06-3.241-2.965-5.727-3.694-6.907-.157-.25-.154-.236-.298-.379-1.2 4.15-4.948 8.896-7.12 12.203-2.559 3.893-5.76 8.7-2.764 14.041 5.528 9.848 23.306 5.77 20.868-6.884v.003z" fill="#4683C9"/><path fill-rule="evenodd" clip-rule="evenodd" d="M41.666 6.029c-.64 3.358-2.722 6.593-3.886 9.8-1.936 5.327.422 7.106-.893 8.434-1.522 1.54-4.676-.425-3.112-5.413.768-2.44 3.646-6.185 5.262-8.506.96-1.382 1.788-3.147 2.629-4.312v-.003z" fill="#fff"/><path d="M21.111 71.01c0 .836-.14 1.566-.422 2.191-.28.621-.68 1.096-1.195 1.424-.515.328-1.117.492-1.805.492-.671 0-1.267-.164-1.787-.492-.52-.332-.923-.803-1.212-1.412-.286-.613-.432-1.322-.44-2.127v-.615c0-.82.143-1.545.428-2.174.285-.629.687-1.11 1.207-1.441.523-.337 1.12-.504 1.793-.504.683 0 1.285.166 1.804.498.524.328.926.806 1.207 1.435.282.625.422 1.354.422 2.186v.539zm-1.119-.551c0-1.012-.203-1.787-.61-2.326-.405-.543-.974-.815-1.704-.815-.711 0-1.272.272-1.682.815-.406.539-.615 1.289-.627 2.25v.627c0 .98.205 1.752.615 2.314.414.559.983.838 1.705.838.727 0 1.29-.264 1.688-.79.398-.532.604-1.292.615-2.28v-.633zm5.42-1.436c.797 0 1.434.268 1.91.803.48.531.721 1.233.721 2.104v.1c0 .597-.115 1.132-.346 1.605a2.58 2.58 0 01-.996 1.096c-.43.257-.926.386-1.488.386-.852 0-1.537-.283-2.057-.85-.52-.57-.779-1.333-.779-2.29v-.528c0-1.332.246-2.39.738-3.176.496-.785 1.227-1.263 2.192-1.435.547-.098.916-.217 1.107-.357a.68.68 0 00.287-.58h.89c0 .488-.11.868-.333 1.142-.219.273-.57.467-1.055.58l-.808.182c-.645.152-1.13.41-1.454.773-.32.36-.529.84-.627 1.441.575-.663 1.274-.996 2.098-.996zm-.21.891c-.532 0-.954.18-1.267.54-.312.355-.468.849-.468 1.482v.093c0 .68.156 1.219.469 1.618.316.394.742.591 1.277.591.539 0 .965-.199 1.277-.597.313-.399.469-.98.469-1.747 0-.597-.158-1.076-.475-1.435-.312-.363-.74-.545-1.283-.545zm9.31 1.986c0 .965-.221 1.743-.662 2.332-.442.59-1.04.885-1.793.885-.77 0-1.375-.244-1.817-.732v3.052h-1.084V68.66h.99l.053.703c.442-.547 1.055-.82 1.84-.82.762 0 1.363.287 1.805.861.445.575.668 1.373.668 2.397v.1zm-1.084-.123c0-.715-.153-1.279-.457-1.693-.305-.414-.723-.621-1.254-.621-.656 0-1.149.29-1.477.873v3.03c.325.577.82.866 1.489.866.519 0 .931-.205 1.236-.615.308-.414.463-1.027.463-1.84zM39.808 75c-.062-.125-.113-.348-.152-.668-.504.524-1.105.785-1.804.785-.625 0-1.14-.176-1.541-.527a1.728 1.728 0 01-.598-1.348c0-.66.25-1.172.75-1.535.504-.367 1.21-.55 2.121-.55h1.055v-.499c0-.379-.114-.68-.34-.902-.227-.227-.56-.34-1.002-.34-.387 0-.711.098-.973.293-.261.195-.392.432-.392.709h-1.09c0-.316.111-.621.334-.914a2.31 2.31 0 01.914-.703c.387-.172.81-.258 1.271-.258.73 0 1.303.184 1.717.55.414.364.629.866.645 1.507v2.918c0 .582.074 1.044.222 1.388V75H39.81zm-1.798-.826c.34 0 .662-.088.967-.264.304-.176.525-.404.662-.685v-1.301h-.85c-1.328 0-1.992.388-1.992 1.166 0 .34.113.605.34.797.226.191.517.287.873.287zm9.03-4.635h-2.128V75h-1.084v-5.46h-2.086v-.88h5.297v.88zM53.272 75H52.19v-2.707h-2.912V75h-1.09v-6.34h1.09v2.748h2.913V68.66h1.083V75zm2.93-4.154h1.647c.718.007 1.287.195 1.705.562.418.367.627.865.627 1.494 0 .633-.215 1.141-.645 1.524-.43.383-1.008.574-1.734.574h-2.684v-6.34h1.084v2.186zM62.443 75h-1.09v-6.34h1.09V75zm-6.24-3.27v2.385h1.611c.407 0 .721-.103.944-.31.222-.211.334-.498.334-.862 0-.351-.11-.638-.328-.861-.215-.226-.518-.344-.909-.351h-1.652zm12.234-3.07h1.085V75h-1.085v-4.623L65.514 75H64.43v-6.34h1.084v4.63l2.924-4.63zm.294-2.308c0 .472-.163.853-.487 1.142-.32.285-.742.428-1.266.428-.523 0-.947-.145-1.271-.434-.324-.289-.486-.668-.486-1.136h.885c0 .273.074.488.222.644.149.152.365.229.65.229.274 0 .487-.077.64-.229.155-.152.234-.367.234-.644h.879zm-43.776 19.42c0-.622.121-1.18.363-1.676a2.758 2.758 0 011.02-1.149 2.79 2.79 0 011.494-.404c.863 0 1.56.299 2.092.896.535.598.803 1.393.803 2.385v.076a3.77 3.77 0 01-.358 1.664 2.67 2.67 0 01-1.014 1.143c-.437.274-.94.41-1.511.41-.86 0-1.557-.299-2.092-.896-.531-.598-.797-1.389-.797-2.373v-.076zm1.09.128c0 .703.162 1.268.486 1.694.328.425.766.638 1.313.638.55 0 .988-.214 1.312-.644.325-.434.487-1.04.487-1.816 0-.696-.166-1.258-.498-1.688a1.564 1.564 0 00-1.313-.65c-.535 0-.967.213-1.295.638-.328.426-.492 1.035-.492 1.828zm8.584 2.332c.387 0 .724-.117 1.014-.351.289-.234.449-.528.48-.879h1.025c-.02.363-.144.709-.375 1.037-.23.328-.539.59-.925.785-.383.195-.79.293-1.22.293-.862 0-1.55-.287-2.062-.861-.507-.578-.761-1.367-.761-2.367v-.182c0-.617.113-1.166.34-1.646.226-.48.55-.854.972-1.12.426-.265.928-.398 1.506-.398.711 0 1.3.213 1.77.639.472.425.724.978.755 1.658h-1.025a1.477 1.477 0 00-.469-1.008 1.433 1.433 0 00-1.031-.398c-.55 0-.978.199-1.283.597-.3.395-.451.967-.451 1.717v.205c0 .73.15 1.293.45 1.688.302.394.731.591 1.29.591zm7.389-.668l2.156-4.904h1.353V89h-1.084v-4.611L42.393 89h-.75l-2.092-4.71V89h-1.084v-6.34h1.406l2.145 4.904zm4.968-1.792c0-.622.121-1.18.364-1.676a2.758 2.758 0 011.02-1.149 2.79 2.79 0 011.493-.404c.864 0 1.56.299 2.092.896.535.598.803 1.393.803 2.385v.076a3.77 3.77 0 01-.358 1.664 2.67 2.67 0 01-1.013 1.143c-.438.274-.942.41-1.512.41-.86 0-1.557-.299-2.092-.896-.531-.598-.797-1.389-.797-2.373v-.076zm1.09.128c0 .703.162 1.268.486 1.694.329.425.766.638 1.313.638.55 0 .988-.214 1.313-.644.324-.434.486-1.04.486-1.816 0-.696-.166-1.258-.498-1.688a1.564 1.564 0 00-1.313-.65 1.56 1.56 0 00-1.295.638c-.328.426-.492 1.035-.492 1.828zm8.584 2.332c.387 0 .725-.117 1.014-.351.289-.234.449-.528.48-.879h1.026c-.02.363-.145.709-.375 1.037-.23.328-.54.59-.926.785-.383.195-.79.293-1.219.293-.863 0-1.55-.287-2.062-.861-.508-.578-.762-1.367-.762-2.367v-.182c0-.617.113-1.166.34-1.646.226-.48.55-.854.972-1.12.426-.265.928-.398 1.506-.398.711 0 1.301.213 1.77.639.473.425.724.978.756 1.658h-1.026a1.478 1.478 0 00-.469-1.008 1.433 1.433 0 00-1.03-.398c-.552 0-.98.199-1.284.597-.3.395-.451.967-.451 1.717v.205c0 .73.15 1.293.451 1.688.3.394.73.591 1.29.591z" fill="#273453"/></svg>