<svg width="122" height="110" fill="none" xmlns="http://www.w3.org/2000/svg"><path fill-rule="evenodd" clip-rule="evenodd" d="M60.318 29.58c2.91-.188 6.154.668 8.468 1.836.561.287 1.546.904 1.944 1.222 3.999 3.188 5.4 7.782 2.283 12.133-.453.632-.954 1.088-1.461 1.648-.483.533-.918 1.048-1.408 1.625-.833.967-1.697 2.503-2.095 3.855-.212.725-.357 2.368.326 2.964.078.067.181.139.26.174.513.238 1.214-.009 1.419-.327.139-.215-.139-1.76.024-2.43.501-2.074 2.199-3.891 3.624-5.458 2.24-2.463 3.618-5.279 2.954-8.48-.441-2.14-1.51-4.19-3.274-5.77a35.147 35.147 0 00-.828-.717c-.362-.31-.513-.394-.906-.663l-1.008-.654c-3.026-1.683-5.285-2.26-9.32-2.493-7.35-.43-14.906 4.043-16.163 9.684a9.551 9.551 0 002.435 8.703c1.485 1.545 4.801 4.903 4.1 7.571-.362 1.383 2.525 2.194 2.139-1.379-.157-1.468-1.1-2.928-1.879-4.025-1.703-2.404-4.288-3.944-4.85-7.289-.604-3.604 1.033-6.254 3.316-8.242 2.597-2.256 5.823-3.219 9.9-3.488zm29.915 11.1v-.372c-.23-.282-.235-.462-.694-.569-.526-.12-6.366-.054-7.345-.058-.96 0-1.933-.045-1.969.734-.036.788.918.797 1.873.793.942-.005 6.873.044 7.338-.036.49-.081.531-.269.797-.497v.004zM31 40.181v.497c.266.22.368.434.882.506.483.067 6.493.023 7.447.027 1.003 0 1.896 0 1.957-.73.024-.286 0-.26-.145-.42a.86.86 0 00-.387-.278c-.555-.206-6.378-.099-7.386-.099-2.223 0-1.631.018-2.368.497zM83.91 26.88c-.653.206-3.788 1.992-4.597 2.426L77.03 30.57c-1.178.69-.217 1.733.912 1.379.375-.117.785-.426 1.105-.587l5.726-3.125c.236-.134.332-.188.435-.385a.632.632 0 00-.018-.595c-.2-.332-.707-.555-1.28-.376zm-7.672 22.87c.12.277.755.577 1.063.743l5.822 3.192c.411.22.816.52 1.468.372.477-.108.821-.506.616-.99-.145-.353-3.902-2.3-4.572-2.66-1.033-.554-2.923-1.848-3.75-1.647-.436.108-.87.48-.653.99h.006zM36.774 26.867c-.544.152-.833.502-.628.967.175.399 2.947 1.782 3.473 2.055.858.453 1.564.878 2.392 1.317.64.34 1.812 1.2 2.633 1.016.514-.117.84-.502.634-.972-.18-.407-2.923-1.777-3.467-2.073-.845-.452-1.522-.85-2.391-1.311-.87-.462-1.873-1.218-2.646-1.003v.004zM45.58 49.54c.272-.47-.078-.926-.604-1.034-.706-.143-1.165.224-1.546.425-.852.462-1.606.856-2.458 1.335-.743.416-4.62 2.449-4.802 2.758-.272.474.109.94.64 1.038.707.135 1.13-.224 1.51-.434l4.899-2.682c.44-.242 2.186-1.124 2.355-1.415l.006.01zm13.016-17.662c-3.14.43-5.623 1.446-7.393 3.39-.779.854-1.45 1.875-1.745 3.12-.127.528-.405 1.45 0 1.894.477.523 1.57.407 1.806-.197.29-.735-.024-1.939 1.25-3.492 1.733-2.123 4.107-3.085 7.52-3.278 1.516-.085 2.12-1.925-1.444-1.432l.006-.005zm-2.3 31.622c-.08-.492.072-1.374-.104-1.773-.187-.43-.936-.703-1.576-.367-.52.273-.41.882-.41 1.437 0 .461-.134 1.285.156 1.625.278.332 6.07 2.225 6.45 2.23.49.004 6.228-1.997 6.494-2.266.26-.264.453-2.65-.206-3.017-.616-.345-1.389-.072-1.588.354-.181.39-.042 1.24-.103 1.71-.23.143-4.355 1.576-4.524 1.59-.241.017-4.27-1.353-4.59-1.519V63.5zm-3.244-5.82c0-.461.145-.56.755-.56h11.355c2.615 0 2.917-.192 2.91.703 0 .542-.078.658-.827.658H53.903c-.875 0-.845-.139-.851-.797v-.004zm-2.03.703c.369 1.795 2.597 1.625 4.107 1.625h6.246c2.017 0 4.258.067 6.25-.005 1.982-.071 2.75-1.262 2.46-2.811-.333-1.791-2.767-1.617-4.168-1.617H59.67c-1.98 0-4.3-.08-6.239.01-1.854.085-2.724 1.28-2.41 2.798z" fill="#273453"/><path fill-rule="evenodd" clip-rule="evenodd" d="M74.656 20.684l-.296-.846c-.622-1.795-2.555-4.383-3.89-6.17-1.39-1.853-4.053-4.915-4.802-5.887-2.645-3.46-3.805-6.12-4.747-7.378-.2-.269-.2-.255-.38-.403-1.54 4.432-6.354 9.505-9.145 13.042-3.286 4.16-7.399 9.294-3.551 15.003 7.102 10.525 29.933 6.165 26.805-7.356l.006-.005z" fill="#7FBAE5"/><path fill-rule="evenodd" clip-rule="evenodd" d="M60.245 6.434c-.822 3.59-3.498 7.042-4.995 10.472-2.489 5.69.543 7.593-1.148 9.012-1.957 1.648-6.01-.457-3.998-5.784.984-2.606 4.687-6.609 6.758-9.089 1.232-1.477 2.295-3.362 3.383-4.611z" fill="#fff"/><path d="M9.777 89.42l1.963-4.951h1.307l-3.018 7.107c-.203.453-.392.776-.568.967a1.82 1.82 0 01-.621.434c-.235.097-.53.146-.885.146-.309 0-.506-.017-.592-.053l.035-.89.534.023c.41 0 .714-.197.914-.592l.146-.304.223-.522-2.906-6.316h1.26l2.208 4.95zm9.235-2.76V93h-1.09v-5.443h-2.156l-.13 2.373c-.07 1.09-.253 1.869-.55 2.338-.293.468-.76.713-1.4.732h-.434v-.955l.31-.023c.352-.04.604-.243.756-.61.153-.367.25-1.047.293-2.039l.117-2.713h4.284zm2.924 2.186h1.646c.719.007 1.287.195 1.705.562.418.367.627.865.627 1.494 0 .633-.215 1.141-.645 1.524-.43.383-1.007.574-1.734.574h-2.683v-6.34h1.084v2.186zm0 .885v2.384h1.61c.407 0 .722-.103.944-.31.223-.211.334-.498.334-.862 0-.351-.11-.638-.328-.861-.215-.226-.517-.344-.908-.351h-1.652zm9.632-2.192h-2.127V93h-1.084v-5.46h-2.085v-.88h5.296v.88zm6.41 2.361c0 .965-.22 1.743-.662 2.332-.441.59-1.039.885-1.793.885-.77 0-1.375-.244-1.816-.732v3.052h-1.084V86.66h.99l.053.703c.441-.547 1.055-.82 1.84-.82.762 0 1.363.287 1.804.861.446.575.668 1.373.668 2.397v.1zm-1.084-.123c0-.715-.152-1.279-.456-1.693-.305-.414-.723-.621-1.254-.621-.657 0-1.149.29-1.477.873v3.03c.324.577.82.866 1.488.866.52 0 .932-.205 1.237-.615.308-.414.462-1.027.462-1.84zM43.276 93c-.062-.125-.113-.348-.152-.668-.504.524-1.105.785-1.805.785-.625 0-1.138-.176-1.54-.527a1.728 1.728 0 01-.598-1.348c0-.66.25-1.172.75-1.535.504-.367 1.21-.55 2.12-.55h1.056v-.499c0-.379-.114-.68-.34-.902-.227-.227-.56-.34-1.002-.34-.387 0-.711.098-.973.293-.262.195-.393.432-.393.709h-1.09c0-.316.112-.621.335-.914.226-.297.53-.531.914-.703.386-.172.81-.258 1.271-.258.73 0 1.303.184 1.717.55.414.364.629.866.645 1.507v2.918c0 .582.074 1.044.222 1.388V93h-1.137zm-1.798-.826c.34 0 .662-.088.966-.264.305-.176.526-.404.663-.685v-1.301h-.85c-1.328 0-1.992.388-1.992 1.166 0 .34.113.605.34.797.226.191.517.287.873.287zm4.177-2.227c0-1.058.205-1.89.615-2.496.41-.605.973-.908 1.688-.908.332 0 .623.057.873.17V84h1.084v2.748a2.12 2.12 0 01.961-.205c.719 0 1.283.303 1.693.908.41.606.616 1.479.616 2.62 0 .933-.206 1.675-.616 2.226-.406.55-.966.826-1.681.826-.38 0-.703-.063-.973-.188v2.502H48.83v-2.484a2.18 2.18 0 01-.885.17c-.71 0-1.271-.275-1.681-.826-.407-.55-.61-1.305-.61-2.262v-.088zm6.446 0c0-.797-.137-1.414-.41-1.851-.274-.442-.65-.662-1.131-.662-.246 0-.461.039-.645.117v4.588c.176.066.395.1.656.1.485 0 .86-.188 1.125-.563.27-.375.405-.951.405-1.729zm-5.362.123c0 .711.127 1.25.381 1.618.254.367.62.55 1.096.55.226 0 .431-.035.615-.105v-4.6a1.613 1.613 0 00-.603-.1c-.477 0-.844.213-1.102.64-.258.425-.387 1.091-.387 1.997zm11.96-3.41h1.083V93h-1.084v-4.623L55.773 93H54.69v-6.34h1.084v4.63l2.924-4.63zm2.536 3.112c0-.622.121-1.18.364-1.676a2.758 2.758 0 011.02-1.149 2.79 2.79 0 011.493-.404c.864 0 1.56.299 2.092.896.535.598.803 1.393.803 2.385v.076a3.77 3.77 0 01-.358 1.664 2.67 2.67 0 01-1.013 1.143c-.438.274-.942.41-1.512.41-.86 0-1.557-.299-2.092-.896-.531-.598-.797-1.389-.797-2.373v-.076zm1.09.128c0 .703.162 1.268.486 1.694.329.425.766.638 1.313.638.55 0 .988-.214 1.313-.644.324-.434.486-1.04.486-1.816 0-.696-.166-1.258-.498-1.688a1.564 1.564 0 00-1.313-.65c-.535 0-.967.213-1.295.638-.328.426-.492 1.035-.492 1.828zm11.145-3.24V93h-1.09v-5.443h-2.156l-.13 2.373c-.07 1.09-.253 1.869-.55 2.338-.293.468-.76.713-1.4.732h-.434v-.955l.31-.023c.352-.04.604-.243.756-.61.153-.367.25-1.047.293-2.039l.118-2.713h4.283zm4.37 6.457c-.858 0-1.558-.281-2.097-.844-.539-.566-.808-1.322-.808-2.267v-.2c0-.628.119-1.189.357-1.681a2.815 2.815 0 011.008-1.16 2.536 2.536 0 011.406-.422c.824 0 1.465.271 1.922.814.457.543.686 1.32.686 2.332v.452h-4.295c.015.625.197 1.13.544 1.517.352.383.797.574 1.336.574.383 0 .708-.078.973-.234.266-.156.498-.363.697-.621l.663.516c-.532.816-1.329 1.224-2.391 1.224zm-.134-5.683c-.437 0-.805.16-1.102.48-.296.317-.48.762-.55 1.336h3.175v-.082c-.03-.55-.18-.977-.445-1.277-.265-.305-.625-.457-1.078-.457zm8.508.105h-2.127V93h-1.084v-5.46h-2.086v-.88h5.297v.88zm.521 2.233c0-.622.122-1.18.364-1.676a2.758 2.758 0 011.02-1.149 2.79 2.79 0 011.493-.404c.864 0 1.56.299 2.092.896.535.598.803 1.393.803 2.385v.076a3.77 3.77 0 01-.358 1.664 2.67 2.67 0 01-1.013 1.143c-.438.274-.942.41-1.512.41-.86 0-1.557-.299-2.092-.896-.531-.598-.797-1.389-.797-2.373v-.076zm1.09.128c0 .703.162 1.268.487 1.694.328.425.765.638 1.312.638.55 0 .988-.214 1.313-.644.324-.434.486-1.04.486-1.816 0-.696-.166-1.258-.498-1.688a1.564 1.564 0 00-1.313-.65c-.535 0-.967.213-1.295.638-.328.426-.492 1.035-.492 1.828zm6.14 3.1v-6.34h2.474c.843 0 1.49.149 1.939.446.453.292.68.724.68 1.294 0 .293-.088.559-.264.797-.176.235-.436.414-.78.54.383.09.69.265.92.527.235.261.352.574.352.937 0 .582-.215 1.028-.644 1.336-.426.309-1.03.463-1.81.463h-2.866zm1.085-2.783v1.91h1.793c.453 0 .79-.084 1.014-.252.226-.168.34-.404.34-.709 0-.633-.465-.95-1.395-.95H95.05zm0-.867h1.4c1.016 0 1.524-.297 1.524-.891 0-.594-.48-.9-1.442-.92H95.05v1.81zm6.855-.504h1.647c.719.007 1.287.195 1.705.562.418.367.627.865.627 1.494 0 .633-.215 1.141-.645 1.524-.429.383-1.008.574-1.734.574h-2.684v-6.34h1.084v2.186zm6.24 4.154h-1.09v-6.34h1.09V93zm-6.241-3.27v2.385h1.612c.406 0 .72-.103.943-.31.223-.211.334-.498.334-.862 0-.351-.109-.638-.328-.861-.215-.226-.518-.344-.908-.351h-1.653zm12.235-3.07h1.084V93h-1.084v-4.623L111.215 93h-1.084v-6.34h1.084v4.63l2.924-4.63zm.293-2.308c0 .472-.162.853-.487 1.142-.32.285-.742.428-1.265.428-.524 0-.948-.145-1.272-.434-.324-.289-.486-.668-.486-1.136h.885c0 .273.074.488.222.644.149.152.366.229.651.229.273 0 .486-.077.638-.229.157-.152.235-.367.235-.644h.879zm-88.618 21.88c.387 0 .725-.117 1.014-.351.29-.235.45-.527.48-.879h1.026c-.02.363-.145.709-.375 1.037-.23.328-.54.59-.926.785a2.637 2.637 0 01-1.219.293c-.863 0-1.55-.287-2.062-.861-.508-.578-.762-1.367-.762-2.367v-.182c0-.617.114-1.166.34-1.646.227-.481.55-.854.973-1.12.425-.265.927-.398 1.506-.398.71 0 1.3.213 1.77.639.472.425.724.978.755 1.658h-1.025a1.479 1.479 0 00-.47-1.008 1.43 1.43 0 00-1.03-.398c-.551 0-.979.199-1.284.597-.3.395-.45.967-.45 1.717v.205c0 .731.15 1.293.45 1.688.301.394.73.591 1.29.591zm8.45-4.693h-2.127V107h-1.084v-5.461h-2.086v-.879h5.297v.879zm3.216 5.578c-.859 0-1.558-.281-2.097-.844-.54-.566-.809-1.322-.809-2.267v-.199c0-.629.12-1.19.358-1.682a2.813 2.813 0 011.008-1.16 2.537 2.537 0 011.406-.422c.824 0 1.465.271 1.922.814.457.543.685 1.321.685 2.332v.452h-4.295c.016.625.197 1.13.545 1.517.352.383.797.574 1.336.574.383 0 .707-.078.973-.234.265-.156.498-.363.697-.621l.662.516c-.531.816-1.328 1.224-2.39 1.224zm-.134-5.683c-.438 0-.805.16-1.102.48-.297.316-.48.762-.55 1.336h3.175v-.082c-.031-.551-.18-.977-.445-1.277-.266-.305-.625-.457-1.078-.457zm9.222 2.466c0 .965-.22 1.743-.662 2.332-.441.59-1.039.885-1.793.885-.77 0-1.375-.244-1.816-.732v3.053h-1.084v-8.778h.99l.053.703c.441-.547 1.054-.82 1.84-.82.761 0 1.363.287 1.804.861.446.575.668 1.373.668 2.397v.099zm-1.084-.123c0-.715-.152-1.279-.457-1.693-.304-.414-.722-.621-1.254-.621-.656 0-1.148.291-1.476.873v3.029c.324.578.82.867 1.488.867.52 0 .932-.205 1.237-.615.308-.414.462-1.027.462-1.84zm6.569-3.117h1.084V107h-1.084v-4.623L49.129 107h-1.084v-6.34h1.084v4.629l2.924-4.629zm8.021 0V107h-1.09v-5.443h-2.156l-.129 2.373c-.07 1.09-.254 1.869-.55 2.338-.294.468-.76.712-1.401.732h-.433v-.955l.31-.024c.352-.039.603-.242.756-.609.152-.367.25-1.047.293-2.039l.117-2.713h4.283zm5.842 0H67V107h-1.084v-4.623L62.992 107h-1.084v-6.34h1.084v4.629l2.924-4.629zm6.31 1.735a.837.837 0 00-.34-.704c-.226-.175-.536-.263-.93-.263-.384 0-.704.099-.962.299-.254.199-.38.433-.38.703h-1.079c0-.551.23-1.002.692-1.354.46-.351 1.037-.527 1.728-.527.742 0 1.32.16 1.734.48.415.317.622.77.622 1.36 0 .285-.086.547-.258.785a1.752 1.752 0 01-.733.568c.739.25 1.108.742 1.108 1.477 0 .582-.225 1.043-.674 1.383-.45.339-1.049.509-1.799.509-.73 0-1.334-.177-1.81-.533-.473-.359-.71-.844-.71-1.453h1.079c0 .309.136.574.41.797.277.219.62.328 1.031.328.414 0 .748-.096 1.002-.287a.892.892 0 00.38-.744c0-.356-.106-.61-.321-.762-.211-.156-.541-.234-.99-.234H69.94v-.914h1.178c.738-.02 1.108-.325 1.108-.914zM78.749 107c-.063-.125-.113-.348-.152-.668-.504.523-1.106.785-1.805.785-.625 0-1.139-.176-1.541-.527a1.73 1.73 0 01-.598-1.348c0-.66.25-1.172.75-1.535.504-.367 1.211-.551 2.121-.551h1.055v-.498c0-.379-.113-.679-.34-.902-.226-.227-.56-.34-1.002-.34-.386 0-.71.098-.972.293-.262.195-.393.432-.393.709h-1.09c0-.316.112-.621.334-.914.227-.297.532-.531.914-.703.387-.172.81-.258 1.272-.258.73 0 1.302.184 1.717.551.414.363.629.865.644 1.506v2.918c0 .582.074 1.044.223 1.388V107h-1.137zm-1.799-.826c.34 0 .662-.088.967-.264.305-.176.525-.404.662-.685v-1.301h-.85c-1.328 0-1.992.388-1.992 1.166 0 .34.114.605.34.797.227.191.518.287.873.287zm9.03-4.635h-2.127V107h-1.084v-5.461h-2.086v-.879h5.296v.879zm.521 2.232c0-.621.121-1.179.363-1.675a2.763 2.763 0 011.02-1.149 2.795 2.795 0 011.494-.404c.863 0 1.56.299 2.092.896.535.598.803 1.393.803 2.385v.076a3.77 3.77 0 01-.358 1.664c-.234.489-.572.87-1.014 1.143-.437.273-.941.41-1.511.41-.86 0-1.557-.299-2.092-.896-.531-.598-.797-1.389-.797-2.373v-.077zm1.09.129c0 .704.162 1.268.486 1.694.328.426.766.638 1.313.638.55 0 .988-.214 1.312-.644.324-.434.487-1.039.487-1.817 0-.695-.166-1.257-.499-1.687a1.563 1.563 0 00-1.312-.65c-.535 0-.967.212-1.295.638-.328.426-.492 1.035-.492 1.828zm11.396 0c0 .965-.22 1.743-.662 2.332-.441.59-1.039.885-1.793.885-.77 0-1.375-.244-1.816-.732v3.053H93.63v-8.778h.99l.053.703c.441-.547 1.054-.82 1.84-.82.761 0 1.363.287 1.804.861.446.575.668 1.373.668 2.397v.099zm-1.084-.123c0-.715-.152-1.279-.457-1.693-.304-.414-.722-.621-1.254-.621-.656 0-1.148.291-1.476.873v3.029c.324.578.82.867 1.488.867.52 0 .932-.205 1.236-.615.309-.414.463-1.027.463-1.84z" fill="#273453"/></svg>