<svg width="84" height="110" fill="none" xmlns="http://www.w3.org/2000/svg"><path fill-rule="evenodd" clip-rule="evenodd" d="M.896 22.066c1.68-1.938 3.733-3.4 6.234-4.318 6.122-2.278 14.035-.748 20.344.272 7.988 1.292 15.677 2.346 23.74.884 4.293-.782 8.698-1.054 12.804-2.38l1.978-.646 17.918 34.238-2.837.612c-9.034 1.904-17.209 3.366-26.429 1.87-13.624-2.244-23.18-1.088-36.992 1.054l-1.754.272L0 23.12l.896-1.054zm1.829 1.326c9.63-11.084 27.884 1.394 48.937-2.38 4.293-.782 8.772-1.054 13.14-2.448l15.752 30.124c-33.52 7.072-18.627-4.012-63.271 2.89L2.725 23.392z" fill="#273453"/><path d="M5.413 31.314l37.962-12.58m27.25 10.098L41.77 19.244M8.697 36.856l57.15-18.938m9.854 19.21L22.92 18.938M10.975 42.704l57.672-19.108m11.646 21.59L5.15 20.196m8.96 28.084l57.56-19.074m5.487 21.352L2.687 26.146m27.848 24.106L75.03 34.68M63.383 52.054L7.018 34.204M47.295 50.49l30.124-9.996m-42.256 9.792l-24.226-8.16M2.874 26.214l21.8-7.242m44.408 4.488l-12.866-4.284" stroke="#273453" stroke-width="2" stroke-miterlimit="87.658"/><path fill-rule="evenodd" clip-rule="evenodd" d="M52.894 19.822l-.224-.816c-.485-1.7-1.978-4.182-3.024-5.916-1.082-1.768-3.172-4.692-3.732-5.644-2.053-3.298-2.95-5.848-3.696-7.072-.15-.272-.15-.238-.299-.374-1.194 4.25-4.964 9.112-7.13 12.478-2.575 3.978-5.748 8.908-2.761 14.348 5.524 10.098 23.292 5.916 20.866-7.004z" fill="#2669B9"/><path fill-rule="evenodd" clip-rule="evenodd" d="M41.658 6.188c-.634 3.434-2.725 6.732-3.882 10.03-1.941 5.44.41 7.276-.896 8.636-1.53 1.564-4.666-.442-3.098-5.542.784-2.482 3.658-6.324 5.263-8.704.933-1.428 1.792-3.23 2.613-4.42z" fill="#fff"/><path d="M24.674 75.01c0 .836-.14 1.566-.422 2.191-.281.621-.68 1.096-1.195 1.424-.516.328-1.117.492-1.805.492-.672 0-1.268-.164-1.787-.492-.52-.332-.924-.803-1.213-1.412-.285-.613-.432-1.322-.44-2.127v-.615c0-.82.143-1.545.428-2.174.285-.629.688-1.11 1.207-1.441.524-.337 1.121-.504 1.793-.504.684 0 1.285.166 1.805.498.523.328.926.806 1.207 1.435.281.625.422 1.354.422 2.186v.539zm-1.12-.551c0-1.012-.202-1.787-.609-2.326-.406-.543-.974-.815-1.705-.815-.71 0-1.271.272-1.681.815-.407.539-.616 1.289-.627 2.25v.627c0 .98.205 1.752.615 2.314.414.559.982.838 1.705.838.727 0 1.289-.264 1.688-.79.398-.532.603-1.292.615-2.28v-.633zM30.98 79h-1.09v-2.297a5.75 5.75 0 01-1.465.188c-.793 0-1.399-.204-1.817-.61-.414-.406-.625-.984-.632-1.734v-1.893h1.084v1.928c.02.945.474 1.418 1.365 1.418.5 0 .988-.063 1.465-.188V72.66h1.09V79zm5.841-6.34h1.084V79H36.82v-4.623L33.897 79h-1.084v-6.34h1.084v4.63l2.923-4.63zm5.367 5.572c.387 0 .725-.117 1.014-.351.29-.234.45-.528.48-.879h1.026c-.02.363-.145.709-.375 1.037-.23.328-.539.59-.926.785a2.645 2.645 0 01-1.218.293c-.864 0-1.551-.287-2.063-.861-.508-.578-.762-1.367-.762-2.367v-.182c0-.617.114-1.166.34-1.646.227-.48.55-.854.973-1.12.426-.265.927-.398 1.506-.398.71 0 1.3.213 1.77.639.472.425.724.978.755 1.658h-1.025a1.477 1.477 0 00-.47-1.008 1.433 1.433 0 00-1.03-.398c-.551 0-.979.199-1.284.597-.3.395-.45.967-.45 1.717v.205c0 .73.15 1.293.45 1.688.301.394.73.591 1.29.591zm8.45-4.693H48.51V79h-1.084v-5.46H45.34v-.88h5.297v.88zm3.029 2.76h-.791V79h-1.09v-6.34h1.09v2.684h.709l2.133-2.684h1.312l-2.508 3.047L57.242 79h-1.378l-2.197-2.701zM62.086 79c-.063-.125-.113-.348-.152-.668-.504.524-1.106.785-1.805.785-.625 0-1.139-.176-1.541-.527a1.728 1.728 0 01-.598-1.348c0-.66.25-1.172.75-1.535.504-.367 1.211-.55 2.121-.55h1.055v-.499c0-.379-.113-.68-.34-.902-.226-.227-.56-.34-1.002-.34-.386 0-.71.098-.972.293-.262.195-.393.432-.393.709h-1.09c0-.316.111-.621.334-.914.227-.297.531-.531.914-.703.387-.172.81-.258 1.272-.258.73 0 1.302.184 1.716.55.415.364.63.866.645 1.507v2.918c0 .582.074 1.044.223 1.388V79h-1.137zm-1.799-.826c.34 0 .662-.088.967-.264.305-.176.525-.404.662-.685v-1.301h-.85c-1.328 0-1.992.388-1.992 1.166 0 .34.114.605.34.797.227.191.518.287.873.287zM15.416 91.412l1.477-4.752h1.16l-2.55 7.319c-.394 1.054-1.02 1.582-1.88 1.582l-.205-.018-.404-.076v-.88l.293.024c.367 0 .652-.074.855-.222.207-.149.377-.42.51-.815l.24-.644-2.262-6.27h1.184l1.582 4.752zm7.705-3.855h-2.924V93h-1.09v-6.34h4.014v.897zm.54 2.215c0-.622.12-1.18.362-1.676a2.758 2.758 0 011.02-1.149 2.79 2.79 0 011.494-.404c.863 0 1.56.299 2.092.896.535.598.803 1.393.803 2.385v.076a3.77 3.77 0 01-.358 1.664 2.67 2.67 0 01-1.014 1.143c-.437.274-.94.41-1.511.41-.86 0-1.557-.299-2.092-.896-.531-.598-.797-1.389-.797-2.373v-.076zm1.089.128c0 .703.162 1.268.486 1.694.328.425.766.638 1.313.638.55 0 .988-.214 1.312-.644.325-.434.487-1.04.487-1.816 0-.696-.166-1.258-.498-1.688a1.564 1.564 0 00-1.313-.65c-.535 0-.967.213-1.295.638-.328.426-.492 1.035-.492 1.828zm11.145-3.24V93h-1.09v-5.443h-2.157l-.129 2.373c-.07 1.09-.253 1.869-.55 2.338-.293.468-.76.713-1.4.732h-.434v-.955l.31-.023c.352-.04.604-.243.756-.61.152-.367.25-1.047.293-2.039l.117-2.713h4.284zm2.923 2.186h1.647c.719.007 1.287.195 1.705.562.418.367.627.865.627 1.494 0 .633-.215 1.141-.645 1.524-.43.383-1.008.574-1.734.574h-2.684v-6.34h1.084v2.186zm0 .885v2.384h1.612c.406 0 .72-.103.943-.31.223-.211.334-.498.334-.862 0-.351-.11-.638-.328-.861-.215-.226-.518-.344-.908-.351h-1.653zM49.33 93h-1.084v-2.707h-2.912V93h-1.09v-6.34h1.09v2.748h2.912V86.66h1.084V93zm2.93-4.154h1.646c.719.007 1.287.195 1.705.562.418.367.627.865.627 1.494 0 .633-.215 1.141-.644 1.524-.43.383-1.008.574-1.735.574h-2.683v-6.34h1.084v2.186zM58.5 93h-1.09v-6.34h1.09V93zm-6.24-3.27v2.385h1.611c.406 0 .72-.103.944-.31.222-.211.333-.498.333-.862 0-.351-.109-.638-.328-.861-.215-.226-.517-.344-.908-.351H52.26zm11.783 1.834l2.156-4.904h1.354V93h-1.084v-4.611L64.418 93h-.75l-2.092-4.71V93h-1.084v-6.34h1.406l2.145 4.904zm-51.422 12.383c0-1.058.205-1.89.615-2.496.41-.605.973-.908 1.688-.908.332 0 .623.057.873.17V98h1.084v2.748a2.12 2.12 0 01.96-.205c.72 0 1.284.303 1.694.908.41.606.615 1.479.615 2.619 0 .934-.205 1.676-.615 2.227-.406.551-.967.826-1.681.826-.38 0-.704-.062-.973-.187v2.502h-1.084v-2.485c-.258.113-.553.17-.885.17-.71 0-1.271-.275-1.682-.826-.406-.551-.609-1.305-.609-2.262v-.088zm6.445 0c0-.797-.136-1.414-.41-1.851-.273-.442-.65-.662-1.13-.662-.247 0-.462.039-.645.117v4.588c.176.066.394.099.656.099.485 0 .86-.187 1.125-.562.27-.375.404-.951.404-1.729zm-5.36.123c0 .711.126 1.25.38 1.618.254.367.62.55 1.096.55.226 0 .431-.035.615-.105v-4.6a1.622 1.622 0 00-.604-.099c-.476 0-.843.212-1.101.638-.258.426-.387 1.092-.387 1.998zm11.958-3.41h1.084V107h-1.084v-4.623L22.74 107h-1.084v-6.34h1.084v4.629l2.924-4.629zm8.021 0V107h-1.09v-5.443H30.44l-.13 2.373c-.07 1.09-.253 1.869-.55 2.338-.293.468-.76.712-1.4.732h-.434v-.955l.31-.024c.352-.039.604-.242.756-.609.152-.367.25-1.047.293-2.039l.117-2.713h4.283zm2.924 2.186h1.647c.719.008 1.287.195 1.705.562.418.367.627.865.627 1.494 0 .633-.215 1.141-.645 1.524-.43.383-1.008.574-1.734.574h-2.684v-6.34h1.084v2.186zm0 .884v2.385h1.612c.406 0 .72-.103.943-.31.223-.211.334-.498.334-.862 0-.351-.11-.638-.328-.861-.215-.227-.518-.344-.908-.352h-1.653zm9.633-2.191h-2.127V107h-1.084v-5.461h-2.086v-.879h5.297v.879zm6.41 2.361c0 .965-.22 1.743-.662 2.332-.441.59-1.039.885-1.793.885-.77 0-1.375-.244-1.816-.732v3.053h-1.084v-8.778h.99l.053.703c.441-.547 1.054-.82 1.84-.82.761 0 1.363.287 1.804.861.446.575.668 1.373.668 2.397v.099zm-1.084-.123c0-.715-.152-1.279-.457-1.693-.304-.414-.722-.621-1.254-.621-.656 0-1.148.291-1.476.873v3.029c.324.578.82.867 1.488.867.52 0 .932-.205 1.236-.615.31-.414.463-1.027.463-1.84zm2.18-.006c0-.621.121-1.179.363-1.675a2.763 2.763 0 011.02-1.149 2.795 2.795 0 011.494-.404c.863 0 1.56.299 2.092.896.535.598.803 1.393.803 2.385v.076a3.77 3.77 0 01-.358 1.664c-.234.489-.572.87-1.014 1.143-.437.273-.941.41-1.511.41-.86 0-1.557-.299-2.092-.896-.531-.598-.797-1.389-.797-2.373v-.077zm1.09.129c0 .704.162 1.268.486 1.694.328.426.766.638 1.313.638.55 0 .988-.214 1.312-.644.324-.434.486-1.039.486-1.817 0-.695-.166-1.257-.498-1.687a1.562 1.562 0 00-1.312-.65c-.535 0-.967.212-1.295.638-.328.426-.492 1.035-.492 1.828zm9.691 1.664l2.157-4.904h1.353V107h-1.084v-4.611L64.905 107h-.75l-2.093-4.711V107h-1.084v-6.34h1.407l2.144 4.904z" fill="#273453"/></svg>