<svg width="85" height="94" fill="none" xmlns="http://www.w3.org/2000/svg"><path fill-rule="evenodd" clip-rule="evenodd" d="M1.901 23.251a15.118 15.118 0 016.231-4.168c6.13-2.19 14.04-.71 20.34.268 7.98 1.237 15.666 2.256 23.741.863 4.273-.74 8.686-1.003 12.82-2.276l1.977-.609 17.904 32.945-2.828.575c-9.027 1.835-17.226 3.245-26.428 1.796-13.621-2.148-23.177-1.04-36.97 1.018l-1.748.26L1 24.245l.898-.994H1.9zm1.831 1.27c9.638-10.665 27.88 1.335 48.936-2.3 4.28-.74 8.763-1.002 13.141-2.35l15.752 28.985c-33.526 6.818-18.614-3.873-63.262 2.792L3.732 24.52z" fill="#273453" stroke="#273453" stroke-width=".008" stroke-miterlimit="22.926"/><path d="M9.221 25.772c-.407.162-.891.003-1.076-.354-.185-.36-.003-.782.404-.947l.672 1.301zm4.171-1.664l-4.17 1.664-.673-1.301 4.172-1.664 1.104.419-.432.88v.002zm-.671-1.301c.407-.162.891-.003 1.076.355.185.36.003.781-.405.946l-.671-1.301zm1.378 5.55l-1.811-4.668 1.54-.46 1.813 4.668-1.542.46zm1.541-.46c.144.374-.082.779-.506.907-.427.129-.888-.072-1.031-.447l1.54-.46h-.003zm9.753-4.255c-.108-.382.163-.768.599-.863.436-.092.879.143.984.525l-1.583.338zm1.09 3.903l-1.09-3.903 1.583-.338 1.089 3.903-.675.874-.908-.536zm1.582-.338c.108.383-.163.768-.599.863-.436.092-.879-.142-.984-.525l1.583-.338zm-6.473.157l5.569-.693.229 1.413-5.57.692-.228-1.412zm.229 1.412c-.446.056-.857-.215-.92-.605-.064-.391.245-.751.69-.807l.23 1.412zm-3.509 5.643c.449.014.8.346.78.74-.019.393-.398.7-.847.686l.064-1.426h.003zm-4.579-.157l4.579.157-.064 1.426-4.579-.156-.773-.81.837-.617zm-.064 1.427c-.448-.014-.799-.346-.78-.74.02-.393.398-.7.847-.687l-.063 1.427h-.004zm1.612-5.5l-.774 4.886-1.611-.196.773-4.885 1.612.195zm-1.612-.195c.061-.391.472-.665.918-.61.445.054.754.414.694.805l-1.612-.195zm11.126 5.902c-.058.39-.465.667-.91.617-.447-.05-.762-.408-.705-.799l1.615.184v-.002zm.582-3.987l-.582 3.987-1.615-.185.583-3.986.99-.604.625.788zm-1.614-.184c.057-.391.465-.668.91-.617.447.05.762.407.705.798l-1.615-.184v.002zm6.107 1.895l-5.48-1.108.363-1.39 5.48 1.108-.363 1.39zm.363-1.39c.44.09.713.472.612.854-.102.383-.538.623-.975.536l.363-1.39zm31.545-8.256c-.108-.382.163-.768.599-.863.436-.092.878.143.984.525l-1.583.338zm1.089 3.903l-1.089-3.903 1.583-.338 1.089 3.904-.675.873-.908-.536zm1.583-.337c.108.382-.163.767-.6.862-.435.092-.878-.142-.983-.525l1.583-.337zm-6.474.156l5.57-.693.229 1.413-5.57.692-.229-1.412zm.23 1.412c-.446.056-.857-.214-.92-.605-.064-.391.245-.751.69-.807l.23 1.412zm12.233 16.646c-.408.162-.892.003-1.076-.355-.185-.36-.004-.781.404-.946l.672 1.301zm4.171-1.664l-4.171 1.664-.672-1.301 4.171-1.664 1.105.419-.433.88v.002zm-.672-1.301c.408-.162.892-.003 1.076.355.185.36.004.781-.404.946l-.672-1.301zm1.379 5.55l-1.812-4.668 1.541-.46 1.812 4.668-1.541.46zm1.54-.46c.144.374-.082.779-.505.907-.427.128-.889-.073-1.032-.447l1.541-.46h-.003zM25.158 43.04c-.109-.382.162-.767.598-.862.437-.092.88.142.984.525l-1.582.337zm1.089 3.903l-1.09-3.903 1.583-.337 1.09 3.903-.676.873-.907-.536zm1.582-.337c.108.382-.162.767-.598.862-.437.092-.88-.142-.984-.525l1.582-.337zm-6.473.156l5.569-.692.23 1.412-5.57.693-.23-1.413zm.23 1.413c-.447.056-.857-.215-.921-.606-.064-.391.245-.751.69-.807l.23 1.413zm48.276-13.148c.45.014.8.347.78.74-.018.394-.397.701-.846.687l.063-1.427h.004zm-4.578-.156l4.578.156-.063 1.427-4.579-.156-.774-.81.838-.617zm-.064 1.427c-.449-.014-.8-.346-.78-.74.02-.394.398-.7.847-.687l-.064 1.427h-.003zm1.611-5.5l-.773 4.886-1.612-.196.774-4.886 1.611.196zm-1.61-.196c.06-.39.47-.664.916-.608.446.053.755.413.694.804l-1.61-.196zm-.832 13.555c-.057.39-.465.667-.91.617-.446-.05-.762-.408-.704-.799l1.614.185v-.003zm.583-3.987l-.583 3.987-1.614-.184.582-3.987.99-.603.625.787zm-1.615-.184c.058-.391.465-.667.911-.617.446.05.761.407.704.798l-1.615-.184v.003zm6.108 1.896l-5.48-1.109.363-1.39 5.48 1.108-.364 1.39zm.362-1.39c.44.089.714.471.612.854-.102.382-.538.622-.974.536l.362-1.39zm-35.308.295c.449.014.8.346.78.74-.019.394-.398.7-.847.687l.064-1.427h.003zm-4.579-.156l4.579.156-.064 1.427-4.578-.157-.774-.81.837-.616zm-.063 1.426c-.45-.014-.8-.346-.78-.74.019-.393.397-.7.846-.686l-.063 1.426h-.003zm1.61-5.5l-.773 4.886-1.611-.195.774-4.886 1.61.195zm-1.61-.195c.06-.39.47-.665.917-.609.445.053.754.413.694.804l-1.611-.195zm20.219-2.736c-.408.162-.892.003-1.077-.354-.184-.36-.003-.782.405-.947l.672 1.301zm4.17-1.664l-4.17 1.664-.672-1.301 4.17-1.664 1.106.419-.433.88v.002zm-.671-1.301c.407-.162.892-.003 1.076.355.185.36.003.781-.404.946l-.672-1.301zm1.379 5.55l-1.812-4.668 1.541-.46 1.812 4.668-1.541.46zm1.54-.46c.144.374-.082.779-.506.907-.426.128-.888-.072-1.031-.447l1.54-.46h-.002zM55.2 40.21c-.108-.383.162-.769.598-.863.436-.093.88.142.984.524l-1.582.338zm1.089 3.902l-1.09-3.903 1.583-.338 1.09 3.904-.676.873-.907-.536zm1.582-.337c.108.382-.162.767-.598.862-.437.092-.88-.142-.984-.525l1.582-.337zm-6.473.156l5.569-.692.23 1.412-5.57.693-.23-1.413zm.23 1.413c-.447.056-.857-.215-.921-.606-.064-.391.245-.751.69-.807l.23 1.413zm-10.056 1.451c-.058.391-.465.668-.91.618-.447-.05-.762-.408-.705-.799l1.615.184v-.003zm.582-3.986l-.582 3.986-1.615-.184.583-3.987.99-.603.624.788zm-1.614-.185c.057-.39.465-.667.91-.617.447.05.762.408.704.799l-1.614-.184v.002zm6.107 1.896l-5.48-1.108.363-1.39 5.48 1.108-.363 1.39zm.363-1.39c.44.09.714.472.612.854-.102.383-.538.623-.975.536l.363-1.39zm-3.11-5.956c.448.014.799.347.78.74-.02.394-.399.701-.847.687l.063-1.427h.003zm-4.58-.156l4.58.156-.064 1.427-4.58-.156-.773-.81.838-.617zm-.063 1.427c-.449-.014-.8-.346-.78-.74.019-.394.398-.7.847-.687l-.064 1.427h-.003zm1.611-5.5l-.774 4.886-1.61-.196.773-4.886 1.611.196zm-1.611-.196c.06-.39.471-.664.917-.608.446.053.755.413.694.804l-1.611-.196z" fill="#273453"/><path fill-rule="evenodd" clip-rule="evenodd" d="M53.133 19.05l-.229-.78c-.484-1.65-1.987-4.034-3.031-5.681-1.08-1.706-3.159-4.526-3.735-5.422-2.06-3.189-2.965-5.634-3.694-6.796-.156-.248-.156-.234-.296-.371-1.2 4.082-4.948 8.753-7.12 12.008-2.556 3.83-5.76 8.56-2.763 13.817 5.527 9.691 23.304 5.676 20.868-6.773v-.003z" fill="#A9CEEE"/><path fill-rule="evenodd" clip-rule="evenodd" d="M41.916 5.927c-.64 3.306-2.723 6.486-3.888 9.64-1.936 5.241.423 6.992-.892 8.298-1.525 1.516-4.677-.418-3.11-5.327.767-2.4 3.648-6.086 5.26-8.37.961-1.36 1.786-3.096 2.63-4.244v.003z" fill="#fff"/><path d="M29.047 69.394h-2.742V77h-1.12v-7.606H22.45v-.925h6.598v.925zm.223 4.377c0-.62.12-1.18.363-1.675a2.758 2.758 0 011.02-1.149 2.79 2.79 0 011.494-.404c.863 0 1.56.299 2.091.896.535.598.803 1.393.803 2.385v.076c0 .618-.12 1.172-.357 1.664a2.67 2.67 0 01-1.014 1.143c-.438.274-.942.41-1.512.41-.86 0-1.556-.299-2.092-.896-.53-.598-.796-1.389-.796-2.373v-.076zm1.09.13c0 .703.162 1.267.486 1.693.328.425.765.638 1.312.638.551 0 .989-.214 1.313-.644.324-.434.486-1.04.486-1.816 0-.696-.166-1.258-.498-1.688a1.564 1.564 0 00-1.313-.65c-.535 0-.966.213-1.294.638-.329.426-.493 1.035-.493 1.828zM41.58 77h-1.084v-2.707h-2.912V77h-1.09v-6.34h1.09v2.748h2.912V70.66h1.084V77zm3.72-2.701h-.79V77h-1.09v-6.34h1.09v2.684h.709l2.133-2.684h1.312l-2.508 3.047L48.875 77h-1.377l-2.197-2.701zm8.608-3.639h1.084V77h-1.084v-4.623L50.984 77H49.9v-6.34h1.084v4.63l2.924-4.63zm6.926 0h1.084V77h-1.084v-4.623L57.91 77h-1.084v-6.34h1.084v4.63l2.924-4.63zm.293-2.308c0 .472-.162.853-.486 1.142-.32.285-.743.428-1.266.428s-.947-.145-1.272-.434c-.324-.289-.486-.668-.486-1.136h.885c0 .273.074.488.223.644.148.152.365.229.65.229.273 0 .486-.077.639-.229.156-.152.234-.367.234-.644h.879zm-38.63 19.595c0-1.058.204-1.89.614-2.496.41-.605.973-.908 1.688-.908.332 0 .623.057.873.17V82h1.084v2.748c.273-.137.594-.205.96-.205.72 0 1.284.303 1.694.908.41.606.615 1.479.615 2.62 0 .933-.205 1.675-.615 2.226-.406.55-.967.826-1.681.826-.38 0-.704-.063-.973-.188v2.502h-1.084v-2.484a2.18 2.18 0 01-.885.17c-.71 0-1.271-.275-1.681-.826-.407-.55-.61-1.305-.61-2.262v-.088zm6.444 0c0-.797-.136-1.414-.41-1.851-.273-.442-.65-.662-1.13-.662-.247 0-.462.039-.645.117v4.588c.176.066.394.1.656.1.485 0 .86-.188 1.125-.563.27-.375.404-.951.404-1.729zm-5.36.123c0 .711.126 1.25.38 1.618.254.367.62.55 1.096.55.226 0 .431-.035.615-.105v-4.6a1.613 1.613 0 00-.604-.1c-.476 0-.843.213-1.101.64-.258.425-.387 1.091-.387 1.997zm11.958-3.41h1.084V91h-1.084v-4.623L32.615 91h-1.084v-6.34h1.084v4.63l2.924-4.63zm8.021 0V91h-1.09v-5.443h-2.155l-.13 2.373c-.07 1.09-.253 1.869-.55 2.338-.293.468-.76.713-1.4.732H37.8v-.955l.31-.023c.352-.04.604-.243.756-.61.153-.367.25-1.047.293-2.039l.117-2.713h4.283zm2.924 2.186h1.647c.719.007 1.287.195 1.705.562.418.367.627.865.627 1.494 0 .633-.215 1.141-.645 1.524-.43.383-1.008.574-1.734.574H45.4v-6.34h1.084v2.186zm0 .885v2.384h1.612c.406 0 .72-.103.943-.31.223-.211.334-.498.334-.862 0-.351-.11-.638-.328-.861-.215-.226-.518-.344-.908-.351h-1.653zm9.633-2.192H53.99V91h-1.084v-5.46H50.82v-.88h5.297v.88zm6.41 2.361c0 .965-.22 1.743-.662 2.332-.441.59-1.039.885-1.793.885-.77 0-1.375-.244-1.816-.732v3.052h-1.084V84.66h.99l.053.703c.441-.547 1.054-.82 1.84-.82.761 0 1.363.287 1.804.861.446.575.668 1.373.668 2.397v.1zm-1.084-.123c0-.715-.152-1.279-.457-1.693-.304-.414-.722-.621-1.254-.621-.656 0-1.148.29-1.476.873v3.03c.324.577.82.866 1.488.866.52 0 .932-.205 1.236-.615.31-.414.463-1.027.463-1.84z" fill="#273453"/></svg>