<svg width="84" height="95" fill="none" xmlns="http://www.w3.org/2000/svg"><path fill-rule="evenodd" clip-rule="evenodd" d="M.896 22.066c1.68-1.938 3.733-3.4 6.234-4.318 6.122-2.278 14.035-.748 20.344.272 7.988 1.292 15.677 2.346 23.74.884 4.293-.782 8.698-1.054 12.804-2.38l1.978-.646 17.918 34.238-2.837.612c-9.034 1.904-17.209 3.366-26.429 1.87-13.624-2.244-23.18-1.088-36.992 1.054l-1.754.272L0 23.12l.896-1.054zm1.829 1.326c9.63-11.084 27.884 1.394 48.937-2.38 4.293-.782 8.772-1.054 13.14-2.448l15.752 30.124c-33.52 7.072-18.627-4.012-63.271 2.89L2.725 23.392z" fill="#273453"/><path d="M5.413 31.314l37.962-12.58m27.25 10.098L41.77 19.244M8.697 36.856l57.15-18.938m9.854 19.21L22.92 18.938M10.975 42.704l57.672-19.108m11.646 21.59L5.15 20.196m8.96 28.084l57.56-19.074m5.487 21.352L2.687 26.146m27.848 24.106L75.03 34.68M63.383 52.054L7.018 34.204M47.295 50.49l30.124-9.996m-42.256 9.792l-24.226-8.16M2.874 26.214l21.8-7.242m44.408 4.488l-12.866-4.284" stroke="#273453" stroke-width="2" stroke-miterlimit="87.658"/><path fill-rule="evenodd" clip-rule="evenodd" d="M52.894 19.822l-.224-.816c-.485-1.7-1.978-4.182-3.023-5.916-1.083-1.768-3.173-4.692-3.733-5.644-2.053-3.298-2.95-5.848-3.696-7.072-.15-.272-.15-.238-.299-.374-1.194 4.25-4.964 9.112-7.13 12.478-2.575 3.978-5.748 8.908-2.761 14.348 5.524 10.098 23.292 5.916 20.866-7.004z" fill="#A0C5EB"/><path fill-rule="evenodd" clip-rule="evenodd" d="M41.658 6.188c-.634 3.434-2.725 6.732-3.882 10.03-1.94 5.44.41 7.276-.896 8.636-1.53 1.564-4.666-.442-3.098-5.542.784-2.482 3.658-6.324 5.263-8.704.933-1.428 1.792-3.23 2.613-4.42z" fill="#fff"/><path d="M17.658 69.469h1.125V78h-1.125v-6.574L13.457 78h-1.13v-8.531h1.13v6.574l4.201-6.574zm6.492 3.925a.835.835 0 00-.34-.703c-.226-.175-.537-.263-.931-.263-.383 0-.703.1-.961.299-.254.199-.38.433-.38.703h-1.079c0-.551.23-1.002.691-1.354.461-.351 1.038-.527 1.729-.527.742 0 1.32.16 1.734.48.414.317.621.77.621 1.36 0 .285-.086.547-.257.785a1.756 1.756 0 01-.733.568c.738.25 1.108.742 1.108 1.477 0 .582-.225 1.043-.674 1.383-.45.34-1.05.51-1.8.51-.73 0-1.333-.178-1.81-.534-.472-.36-.709-.844-.709-1.453h1.078c0 .309.137.574.41.797.278.219.622.328 1.032.328.414 0 .748-.096 1.002-.287a.89.89 0 00.38-.744c0-.356-.107-.61-.322-.762-.21-.156-.54-.234-.99-.234h-1.084v-.914h1.178c.738-.02 1.107-.325 1.107-.915zm6.258 3.17l2.157-4.904h1.353V78h-1.084v-4.611L30.784 78h-.75l-2.093-4.71V78h-1.084v-6.34h1.407l2.144 4.904zm7.887 1.553c-.86 0-1.559-.281-2.098-.844-.539-.566-.808-1.322-.808-2.267v-.2c0-.628.119-1.189.357-1.681a2.815 2.815 0 011.008-1.16 2.536 2.536 0 011.406-.422c.824 0 1.465.271 1.922.814.457.543.686 1.32.686 2.332v.452h-4.295c.015.625.197 1.13.545 1.517.351.383.797.574 1.335.574.383 0 .707-.078.973-.234.266-.156.498-.363.697-.621l.662.516c-.53.816-1.328 1.224-2.39 1.224zm-.135-5.683c-.437 0-.804.16-1.101.48-.297.317-.48.762-.551 1.336h3.176v-.082c-.032-.55-.18-.977-.446-1.277-.265-.305-.625-.457-1.078-.457zM47.207 78h-1.084v-2.707h-2.912V78h-1.09v-6.34h1.09v2.748h2.912V71.66h1.084V78zm4.377.117c-.86 0-1.559-.281-2.098-.844-.539-.566-.808-1.322-.808-2.267v-.2c0-.628.119-1.189.357-1.681a2.814 2.814 0 011.008-1.16 2.535 2.535 0 011.406-.422c.824 0 1.465.271 1.922.814.457.543.686 1.32.686 2.332v.452h-4.295c.015.625.197 1.13.545 1.517.351.383.796.574 1.336.574.382 0 .707-.078.972-.234.266-.156.498-.363.697-.621l.663.516c-.532.816-1.328 1.224-2.391 1.224zm-.135-5.683c-.437 0-.804.16-1.101.48-.297.317-.48.762-.551 1.336h3.176v-.082c-.032-.55-.18-.977-.446-1.277-.265-.305-.625-.457-1.078-.457zM60.496 78h-1.084v-2.707H56.5V78h-1.09v-6.34h1.09v2.748h2.912V71.66h1.084V78zm5.848-6.34h1.084V78h-1.084v-4.623L63.42 78h-1.084v-6.34h1.084v4.63l2.924-4.63zm5.455 6.457c-.86 0-1.559-.281-2.098-.844-.539-.566-.808-1.322-.808-2.267v-.2c0-.628.119-1.189.357-1.681a2.815 2.815 0 011.008-1.16 2.536 2.536 0 011.406-.422c.824 0 1.465.271 1.922.814.457.543.686 1.32.686 2.332v.452h-4.295c.015.625.197 1.13.544 1.517.352.383.797.574 1.336.574.383 0 .707-.078.973-.234.266-.156.498-.363.697-.621l.662.516c-.53.816-1.328 1.224-2.39 1.224zm-.135-5.683c-.437 0-.805.16-1.102.48-.296.317-.48.762-.55 1.336h3.175v-.082c-.03-.55-.18-.977-.445-1.277-.265-.305-.625-.457-1.078-.457zM16.691 88.9c0 .965-.22 1.743-.662 2.332-.441.59-1.039.885-1.793.885-.77 0-1.375-.244-1.816-.732v3.052h-1.084V85.66h.99l.053.703c.441-.547 1.055-.82 1.84-.82.761 0 1.363.287 1.804.861.446.575.668 1.373.668 2.397v.1zm-1.084-.123c0-.715-.152-1.279-.457-1.693-.304-.414-.722-.621-1.254-.621-.656 0-1.148.29-1.476.873v3.03c.324.577.82.866 1.488.866.52 0 .932-.205 1.237-.615.308-.414.462-1.027.462-1.84zM24.801 92H23.67v-3.943h-4.3V92h-1.126v-8.531h1.125v3.668h4.3v-3.668h1.132V92zm4.084-3.182h-2.86v-.884h2.86v.884zm3.843-2.795c.797 0 1.434.268 1.91.803.481.531.721 1.233.721 2.104v.1c0 .597-.115 1.132-.345 1.605-.23.468-.563.834-.996 1.096-.43.257-.926.386-1.489.386-.851 0-1.537-.283-2.056-.85-.52-.57-.78-1.333-.78-2.29v-.528c0-1.332.246-2.39.739-3.176.496-.785 1.226-1.263 2.191-1.435.547-.098.916-.217 1.108-.357a.68.68 0 00.287-.58h.89c0 .488-.111.868-.334 1.142-.218.273-.57.467-1.054.58l-.81.182c-.644.152-1.128.41-1.452.773-.32.36-.53.84-.627 1.441.574-.663 1.273-.996 2.097-.996zm-.21.891c-.532 0-.954.18-1.266.54-.313.355-.469.849-.469 1.482v.093c0 .68.156 1.219.469 1.618.316.394.742.591 1.277.591.54 0 .965-.199 1.278-.597.312-.399.468-.98.468-1.747 0-.597-.158-1.076-.474-1.435-.313-.363-.74-.545-1.283-.545zM40.492 92c-.062-.125-.113-.348-.152-.668-.504.524-1.106.785-1.805.785-.625 0-1.138-.176-1.54-.527a1.728 1.728 0 01-.598-1.348c0-.66.25-1.172.75-1.535.503-.367 1.21-.55 2.12-.55h1.055v-.499c0-.379-.113-.68-.34-.902-.226-.227-.56-.34-1.002-.34-.386 0-.71.098-.972.293-.262.195-.393.432-.393.709h-1.09c0-.316.112-.621.334-.914.227-.297.532-.531.914-.703a3.097 3.097 0 011.272-.258c.73 0 1.303.184 1.717.55.414.364.629.866.644 1.507v2.918c0 .582.075 1.044.223 1.388V92h-1.137zm-1.799-.826c.34 0 .663-.088.967-.264a1.59 1.59 0 00.662-.685v-1.301h-.85c-1.328 0-1.992.388-1.992 1.166 0 .34.114.605.34.797.227.191.518.287.873.287zm9.61-5.514V92h-1.09v-5.443h-2.156l-.13 2.373c-.07 1.09-.253 1.869-.55 2.338-.293.468-.76.713-1.4.732h-.434v-.955l.31-.023c.352-.04.604-.243.756-.61.153-.367.25-1.047.293-2.039l.117-2.713h4.284zM53.957 92c-.063-.125-.113-.348-.152-.668-.504.524-1.106.785-1.805.785-.625 0-1.139-.176-1.541-.527a1.728 1.728 0 01-.598-1.348c0-.66.25-1.172.75-1.535.504-.367 1.211-.55 2.121-.55h1.055v-.499c0-.379-.113-.68-.34-.902-.226-.227-.56-.34-1.002-.34-.386 0-.71.098-.972.293-.262.195-.393.432-.393.709h-1.09c0-.316.112-.621.334-.914.227-.297.532-.531.914-.703.387-.172.81-.258 1.272-.258.73 0 1.303.184 1.717.55.414.364.629.866.644 1.507v2.918c0 .582.074 1.044.223 1.388V92h-1.137zm-1.799-.826c.34 0 .662-.088.967-.264.305-.176.525-.404.662-.685v-1.301h-.85c-1.328 0-1.992.388-1.992 1.166 0 .34.114.605.34.797.227.191.518.287.873.287zM61.75 92h-1.084v-2.707h-2.912V92h-1.09v-6.34h1.09v2.748h2.912V85.66h1.084V92zm4.29-.768c.386 0 .724-.117 1.013-.351.289-.234.449-.528.48-.879h1.026c-.02.363-.145.709-.375 1.037-.23.328-.54.59-.926.785a2.645 2.645 0 01-1.219.293c-.863 0-1.55-.287-2.062-.861-.508-.578-.762-1.367-.762-2.367v-.182c0-.617.113-1.166.34-1.646.226-.48.55-.854.972-1.12.426-.265.928-.398 1.506-.398.711 0 1.301.213 1.77.639.472.425.724.978.756 1.658h-1.026a1.477 1.477 0 00-.469-1.008 1.433 1.433 0 00-1.03-.398c-.552 0-.98.199-1.284.597-.3.395-.451.967-.451 1.717v.205c0 .73.15 1.293.451 1.688.3.394.73.591 1.29.591zm7.65.768c-.062-.125-.113-.348-.152-.668-.504.524-1.105.785-1.805.785-.625 0-1.138-.176-1.54-.527a1.728 1.728 0 01-.598-1.348c0-.66.25-1.172.75-1.535.504-.367 1.21-.55 2.12-.55h1.056v-.499c0-.379-.114-.68-.34-.902-.227-.227-.56-.34-1.002-.34-.387 0-.711.098-.973.293-.262.195-.392.432-.392.709h-1.09c0-.316.11-.621.334-.914.226-.297.53-.531.914-.703.386-.172.81-.258 1.271-.258.73 0 1.303.184 1.717.55.414.364.629.866.645 1.507v2.918c0 .582.074 1.044.222 1.388V92H73.69zm-1.798-.826c.34 0 .662-.088.966-.264.305-.176.526-.404.663-.685v-1.301h-.85c-1.328 0-1.992.388-1.992 1.166 0 .34.113.605.34.797.226.191.517.287.873.287z" fill="#273453"/></svg>