<svg width="96" height="101" fill="none" xmlns="http://www.w3.org/2000/svg"><path fill-rule="evenodd" clip-rule="evenodd" d="M18.672 40.743c-.997 0-3.161-.208-2.572 1.046.253.536 1.118.43 1.944.425.77-.004 1.701.14 1.988-.411.479-.926-.562-1.065-1.36-1.065v.005zm6.134 0c-1.107 0-2.676-.171-2.318.949.22.684 1.222.527 2.07.527.881.005 1.84.116 1.971-.61.16-.894-.87-.866-1.718-.866h-.005zm-3.954 1.851c-.677.38-.424.782-.452 2.096-.016.768.37 1.68 1.41 1.07.49-.292.87-4.184-.958-3.161v-.005zm1.305-3.484v-1.157c0-.658-.59-1.199-1.371-.764-.535.296-.375 1.157-.38 1.819-.006.68-.077 1.425.782 1.499 1.002.083.974-.722.974-1.393l-.005-.005zM58.6 7.277c.522 3.18 2.73 3.855 3.088 4.563-1.404 1.805-4.79 1.652-5.963-.158-.556-.86-.666-2.123.022-3.035.44-.579 1.503-1.61 2.852-1.37zM60.327 7c-.347-2.92 2.175-5.206 5.22-5.503 3.53-.347 6.305 1.856 6.614 4.457.347 2.915-2.192 5.178-5.226 5.488-3.475.356-6.3-1.893-6.602-4.438L60.328 7zm-1.734-1.333c-1.024.324-1.492.139-2.555.694-2.643 1.384-3.238 4.202-1.779 6.127 2.164 2.86 7.098 2.776 9.042.004 2.076.37 2.94.736 5.231.158 4.427-1.11 7.103-5.641 4.207-9.69C69.304-1.844 59.58-.7 58.6 5.662l-.006.005zM71.33 22.229c-.897.388-.556 1.286.374 1.36.419.032 2.737.032 3.03-.055.704-.213.743-1.305-.397-1.403-.617-.05-2.555-.092-3.001.102l-.006-.005zm-7.191-.029c-.77.352-.666 1.315.424 1.384.451.028 2.715.033 3.007-.07.589-.198.842-1.262-.375-1.387-.468-.047-2.764-.056-3.056.074zm4.939 1.916c-.776.375-.517 1.296-.523 2.138-.005.769.039 1.842 1.283 1.402.832-.291.446-3.132.336-3.294-.231-.333-.732-.421-1.096-.245zm-.1-5.946c-.65.394-.412.94-.423 2.189-.006.759.236 1.74 1.343 1.23.65-.3.413-1.494.413-2.183.006-.75-.16-1.944-1.333-1.24v.004zM20.06 21.446c-.447-2.087 1.332-3.739 3.309-4.026 2.428-.351 4.537 1.157 4.78 2.8.693 4.702-7.192 5.437-8.09 1.226zm3.171-5.479c-2.99.408-5.473 2.597-4.917 5.66.44 2.406 3.265 4.526 6.729 4.053 5.556-.758 6.255-6.607 2.637-8.778-1.101-.657-2.72-1.17-4.454-.935h.005zm1.217-13.553c1.349-.366 2.615.462 2.918 1.3.463 1.268-.54 2.235-1.564 2.531-2.863.824-4.652-2.934-1.354-3.827v-.004zM24.195.956c-2.456.495-3.635 2.272-3.194 4.09 1.068 4.392 9.262 3.189 8.122-1.457-.419-1.707-2.45-3.133-4.928-2.633zm4.443 11.634c-.82.263-.771 1.189.027 1.379.358.083 2.6.092 2.935-.005.799-.232.75-1.259-.12-1.398-.403-.064-2.572-.06-2.842.023zm6.487-.033c-.953.204-.793 1.282.038 1.435.391.074 2.467.064 2.825-.028.826-.213.831-1.273-.121-1.407-.17-.023-2.632-.023-2.737 0h-.005zm-2.104-3.651c-.82.305-.572 1.092-.578 1.934-.005.755.017 1.69 1.146 1.43 1.068-.245.605-2.924.435-3.123-.171-.209-.612-.384-1.008-.241h.005zm.144 5.359c-.97.185-.716 1.022-.722 1.832 0 .764-.104 1.666 1.058 1.569.908-.074.704-1.148.71-1.888.005-.667.06-1.726-1.052-1.518l.006.005z" fill="#273453"/><path d="M48.032 20.299l.006.773-.65.023-.611.065-.573.101-.534.135-.501.17-.468.204-.44.232-.414.264-.385.291-.358.32-.336.347-.308.37-.287.398-.264.42-.242.44-.22.463-.204.477-.182.495-.165.509-.143.523-.127.537-.11.546-.1.555-.082.56-.072.564-.055.57-.044.569-.033.569-.027.57-.017.564-.01.56-.006.55h-.92l.006-.56.01-.564.017-.574.028-.579.033-.578.044-.583.06-.583.072-.579.083-.578.099-.574.115-.564.133-.56.154-.546.17-.537.193-.523.215-.509.237-.495.264-.477.292-.458.32-.435.346-.416.375-.389.407-.36.44-.334.474-.3.507-.27.545-.23.578-.195.611-.157.65-.116.683-.074.716-.028.005-.01zm0 0c.253 0 .463.171.463.384s-.204.389-.457.389l-.006-.773zm9.24 13.725h-.92l-.005-.574-.011-.578-.017-.583-.027-.583-.039-.584-.05-.582-.06-.579-.071-.574-.089-.564-.099-.56-.115-.55-.132-.538-.15-.523-.17-.509-.187-.495-.21-.476-.23-.459-.254-.434-.275-.412-.297-.389-.325-.366-.347-.337-.375-.31-.402-.283-.43-.254-.456-.222-.49-.195-.523-.162-.562-.125-.6-.092-.64-.056-.676-.014-.006-.772.744.018.71.06.672.102.633.144.6.185.562.222.528.259.496.291.457.324.424.352.39.38.364.407.33.43.304.454.275.472.248.49.226.51.203.522.182.537.16.55.137.56.121.57.105.578.088.583.072.588.06.592.05.592.038.597.028.593.017.592.01.588.006.583v.009zm0 0c0 .213-.204.384-.457.384s-.457-.171-.457-.384h.92-.006zm-1.14 10.31l-.88-.218.093-.277.088-.282.082-.292.078-.296.071-.296.066-.301.066-.306.06-.31.056-.314.05-.315.043-.32.044-.319.04-.323.038-.324.033-.324.027-.329.028-.328.022-.329.022-.328.016-.329.017-.329.01-.328.012-.329.01-.324.006-.324.006-.323.005-.32.006-.319v-1.245h.92v1.255l-.006.319-.006.324-.005.323-.005.329-.012.328-.01.334-.017.333-.017.333-.016.333-.022.333-.022.334-.028.333-.027.333-.033.333-.039.333-.038.329-.044.328-.05.329-.055.324-.055.324-.06.32-.067.314-.071.314-.077.31-.083.306-.088.3-.094.297-.099.296h.011zm0 0c-.071.204-.325.324-.572.264-.243-.06-.386-.273-.314-.481l.88.217h.006zm-7.913 5.155v-.773l.37-.005.357-.013.347-.023.33-.028.32-.037.308-.047.298-.055.286-.065.275-.074.265-.079.258-.087.248-.098.237-.106.226-.116.22-.125.21-.134.203-.143.198-.153.187-.162.182-.171.176-.18.171-.19.16-.204.154-.213.149-.222.143-.236.137-.245.133-.255.126-.268.121-.278.116-.291.11-.301.881.217-.116.32-.12.31-.127.3-.138.287-.143.278-.149.268-.16.26-.165.25-.176.24-.182.227-.192.217-.204.209-.21.199-.22.19-.23.175-.238.167-.247.157-.26.148-.269.134-.275.125-.287.116-.297.102-.308.092-.314.084-.325.074-.336.06-.347.05-.352.042-.364.033-.374.023-.386.014-.396.004.005.005zm0 0c-.253 0-.457-.176-.457-.389 0-.213.21-.384.463-.384v.773h-.006zm-9.063-15.465h.92v1.819l.005.624.01.63.017.634.028.633.038.635.05.633.06.63.078.62.093.61.11.602.133.588.154.57.176.55.204.532.225.509.254.486.28.458.314.43.342.403.374.37.408.338.446.305.484.273.523.236.568.2.616.157.667.115.715.074.771.028v.773l-.842-.028-.793-.078-.743-.13-.7-.18-.65-.227-.605-.269-.556-.314-.512-.352-.468-.389-.425-.42-.385-.454-.347-.482-.308-.504-.276-.527-.242-.551-.215-.57-.187-.582-.16-.597-.137-.611-.116-.62-.099-.63-.077-.638-.06-.643-.05-.644-.039-.648-.027-.643-.017-.643-.01-.639-.006-.629v-1.823h-.011zm0 0c0-.213.203-.384.457-.384.253 0 .457.171.457.384h-.92.006zm10.297-16.303l.055-.772 1.074.087 1.013.144.958.199.903.25.848.3.793.352.738.398.683.44.633.481.583.518.535.551.49.583.446.611.402.639.363.661.325.685.286.704.254.717.22.736.193.745.165.754.138.763.11.769.088.772.066.773.05.773.032.768.017.764v.758l-.011.745-.022.736-.028.718-.92-.028.028-.713.022-.726.011-.736v-.745l-.016-.754-.033-.755-.05-.759-.066-.758-.088-.755-.11-.75-.132-.74-.16-.731-.187-.722-.215-.708-.242-.69-.276-.67-.308-.648-.341-.625-.38-.597-.413-.569-.452-.541-.495-.51-.534-.471-.579-.44-.622-.398-.672-.36-.721-.32-.776-.278-.832-.231-.886-.185-.947-.135-1.014-.078.006.004zm0 0c-.254-.014-.446-.194-.43-.407.017-.213.232-.375.485-.36l-.055.772v-.005zM35.466 33.876h-.92l.006-.875.022-.865.044-.856.06-.842.084-.829.104-.814.127-.8.148-.783.177-.763.203-.745.232-.727.258-.703.292-.68.325-.657.358-.634.397-.607.435-.578.473-.546.512-.514.55-.481.596-.449.638-.412.683-.37.727-.333.77-.292.821-.245.865-.203.914-.158.964-.11 1.007-.066 1.063-.014 1.112.033-.055.773-1.062-.033-1.008.014-.958.06-.903.107-.854.148-.804.19-.754.226-.71.269-.667.305-.622.338-.584.375-.545.407-.506.44-.468.471-.435.505-.403.537-.368.564-.336.597-.309.62-.275.648-.248.676-.22.698-.198.722-.171.74-.143.76-.121.777-.1.796-.077.815-.06.828-.039.837-.022.852-.005.86-.017-.004zm0 0c0 .213-.203.384-.457.384-.253 0-.457-.171-.457-.384h.92-.006zm11.724 18.2l-.044.773-1.02-.07-.963-.12-.914-.172-.864-.217-.815-.268-.766-.315-.715-.356-.672-.398-.623-.44-.578-.477-.534-.508-.495-.547-.452-.573-.413-.607-.374-.634-.342-.657-.308-.68-.276-.703-.247-.722-.22-.74-.193-.76-.166-.772-.143-.787-.12-.8-.105-.81-.083-.82-.066-.828-.05-.833-.038-.837-.022-.842-.011-.843-.006-.842h.92l.005.833.011.833.022.833.039.828.05.824.066.815.082.805.1.796.12.782.138.768.16.754.187.736.21.717.236.694.264.671.292.648.325.62.352.592.386.565.418.532.457.5.49.467.53.435.566.398.612.361.655.324.7.287.742.245.794.204.847.157.903.111.959.065v.005zm0 0c.253.009.451.19.435.402-.011.213-.226.38-.48.366l.045-.773v.005zm13.76-16.257l.92.028-.044.86-.055.852-.066.843-.077.832-.094.82-.11.81-.127.795-.148.778-.171.763-.193.745-.22.727-.242.703-.276.68-.303.657-.336.634-.368.611-.408.583-.446.551-.484.523-.53.49-.572.454-.617.421-.66.38-.71.342-.755.3-.804.26-.854.213-.903.17-.958.126-1.007.074-1.063.028-1.123-.023.044-.773 1.073.018 1.014-.028.952-.074.898-.115.842-.158.788-.199.738-.236.688-.273.644-.31.6-.347.562-.38.518-.416.484-.449.446-.48.413-.51.38-.541.347-.57.32-.596.286-.625.258-.652.237-.676.21-.699.187-.722.165-.74.143-.759.127-.778.104-.79.094-.81.077-.824.066-.833.055-.842.044-.852v.01zm0 0c.011-.213.22-.379.48-.37.253.01.45.185.44.403l-.92-.028v-.005z" fill="#273453"/><path fill-rule="evenodd" clip-rule="evenodd" d="M39.612 34.029c0-5.882.931-13.286 8.425-13.341 7.803-.06 8.778 7.205 8.778 13.34 0 3.258-.072 7.173-1.124 10.204-1.167 3.369-3.337 4.882-7.472 4.877-8.887-.013-8.607-8.806-8.607-15.076v-.004zm21.79 1.804c.335-7.552-.48-17.908-11.927-18.496-11.9-.61-14.477 7.238-14.471 16.539 0 8.917 1.338 18.153 12.163 18.584 12.021.481 13.827-7.441 14.24-16.627h-.005z" fill="#273453"/><path d="M65.515 48.036l.341.717-.071.028-.066.028-.055.028-.05.027-.044.028-.044.032-.039.033-.033.032-.033.037-.033.037-.027.042-.028.046-.027.046-.028.051-.027.056-.022.06-.022.06-.022.065-.023.07-.022.069-.022.074-.022.074-.022.078-.022.08-.027.083-.028.083-.027.088-.033.088-.039.087-.038.093-.044.093-.05.092-.843-.31.04-.074.032-.074.033-.074.028-.074.027-.074.028-.074.027-.074.022-.074.022-.079.022-.078.022-.08.022-.078.022-.078.028-.08.028-.078.027-.079.033-.078.033-.079.039-.078.044-.08.05-.078.054-.078.06-.075.067-.074.072-.069.082-.07.088-.064.094-.06.099-.056.105-.05.115-.047.121-.042.006.005zm0 0c.237-.079.501.018.595.217.093.2-.022.422-.26.5l-.34-.717h.005zm3.304.712l-.777.417-.038-.05-.044-.047-.044-.042-.05-.042-.05-.041-.049-.037-.055-.037-.055-.032-.06-.033-.061-.028-.066-.028-.066-.023-.066-.023-.072-.018-.072-.019-.071-.014-.077-.014-.077-.009-.078-.009-.077-.005-.077-.004h-.082l-.083.004-.082.005-.083.01-.083.009-.082.013-.083.014-.082.019-.078.018-.077.023-.077.023-.341-.717.11-.032.11-.032.11-.028.11-.023.11-.019.116-.018.116-.014.115-.01.116-.004.116-.005h.115l.116.005.116.01.115.008.11.014.11.019.11.023.11.028.11.027.106.033.104.037.105.041.099.047.099.05.094.056.093.06.088.065.083.07.082.069.078.074.071.079.066.083.006.005zm0 0c.137.181.077.417-.138.533-.215.115-.495.065-.633-.116l.776-.416h-.005zm-.204 2.846l-.677-.518.038-.037.039-.041.038-.047.033-.046.033-.051.034-.05.027-.056.028-.06.022-.06.022-.06.016-.066.017-.064.01-.065.012-.07.005-.069.006-.07v-.139l-.006-.069-.005-.07-.011-.069-.011-.069-.017-.065-.016-.065-.017-.064-.022-.06-.022-.06-.028-.06-.027-.056-.033-.056-.033-.05-.033-.047.776-.416.06.078.056.084.05.083.043.088.04.088.038.088.033.092.027.093.022.092.022.093.017.092.01.093.006.097.006.097v.097l-.006.098-.005.097-.011.097-.017.093-.016.092-.022.093-.028.092-.033.093-.038.088-.039.087-.044.088-.05.084-.055.083-.06.079-.066.078-.072.074-.072.074h.006zm0 0a.524.524 0 01-.65.028c-.187-.143-.204-.389-.033-.546l.677.518h.006zm-2.665.408h-.92l.37-.38.11-.018.11-.014.11-.014.104-.014.105-.014.105-.01.099-.008.099-.01.099-.009.094-.01.093-.008.094-.01.088-.009.088-.01.088-.008.083-.01.082-.014.077-.013.077-.014.072-.014.072-.019.066-.018.066-.019.06-.023.06-.023.056-.023.055-.028.05-.028.05-.027.049-.033.044-.037.044-.037.677.518-.083.07-.082.065-.088.06-.088.055-.094.051-.094.046-.093.042-.094.037-.093.033-.1.027-.099.028-.099.023-.099.023-.099.019-.1.018-.098.014-.1.014-.099.014-.099.01-.099.008-.099.01-.099.009-.099.01-.1.009-.098.009-.094.01-.094.008-.093.01-.094.014-.093.013-.094.014-.093.014.368-.38h.006zm-.369.38c-.248.04-.49-.093-.54-.302-.05-.208.11-.411.358-.453l.182.759v-.005zm-.545 1.47l-.006-1.846h.92l.005 1.847-.556.38-.358-.376-.005-.004zm.92 0c0 .214-.204.39-.458.39-.253 0-.462-.172-.462-.385h.92v-.004zm3.028.547l-.688.513-.072-.065-.066-.055-.066-.05-.066-.047-.066-.042-.066-.037-.066-.032-.067-.028-.066-.028-.066-.023-.071-.018-.072-.019-.077-.018-.077-.014-.083-.014-.082-.014-.088-.01-.088-.009-.094-.009-.094-.01-.099-.008-.104-.01-.105-.009-.11-.01-.11-.008-.116-.01-.121-.009-.121-.014-.127-.014-.126-.018-.133-.019-.132-.023.198-.754.116.018.11.019.11.014.11.014.11.009.105.01.105.008.105.01.104.009.105.01.104.008.105.01.105.009.104.01.105.008.105.014.104.014.105.019.104.018.105.023.11.028.11.033.11.037.11.041.105.047.105.05.104.056.105.065.105.07.099.073.099.083.099.088v.01zm0 0c.17.157.154.402-.039.546a.518.518 0 01-.65-.033l.689-.513zm.176 3.156l-.743-.454.038-.05.039-.056.038-.056.034-.06.032-.065.028-.065.028-.069.022-.07.022-.073.016-.075.017-.074.01-.078.006-.079.006-.078v-.158l-.006-.078-.005-.08-.011-.078-.017-.078-.016-.075-.022-.074-.028-.074-.027-.069-.033-.07-.033-.069-.04-.065-.038-.06-.044-.06-.044-.055-.05-.056-.049-.05.688-.515.083.084.077.088.072.088.066.092.06.093.055.097.05.097.044.102.039.102.033.101.027.102.028.107.022.106.016.106.011.107.006.106v.213l-.006.107-.01.106-.017.106-.022.102-.022.102-.028.102-.033.102-.038.097-.044.097-.05.097-.055.093-.06.092-.067.088-.071.084h.016zm0 0c-.148.17-.435.208-.644.083-.204-.125-.248-.366-.1-.541l.744.453v.005zm-3.601.79l.363-.707.1.032.099.028.099.023.099.019.099.014.094.009.093.01.094.004h.093l.094-.005.088-.005.088-.009.088-.014.088-.014.083-.018.083-.023.082-.023.083-.028.077-.028.077-.032.072-.033.071-.037.066-.037.066-.037.06-.041.061-.042.055-.042.056-.041.05-.042.043-.042.044-.041.039-.042.743.454-.06.069-.067.07-.071.064-.077.065-.077.065-.083.06-.088.06-.088.056-.094.055-.099.051-.099.051-.105.046-.104.046-.11.042-.116.037-.116.037-.12.033-.122.027-.127.024-.126.018-.132.014-.132.01-.133.004h-.137l-.138-.005-.138-.01-.137-.018-.143-.023-.144-.028-.143-.037-.143-.041-.143-.047.022-.004zm0 0c-.231-.082-.341-.31-.242-.508.099-.195.369-.287.605-.204l-.363.708v.005zm-1.278-2.202l.006-.773.446.31.027.116.028.111.022.107.022.101.022.098.022.092.022.093.022.083.022.083.022.079.022.074.022.07.022.064.022.06.022.056.022.05.028.052.028.046.027.042.033.041.033.037.033.037.039.037.044.037.05.037.054.037.06.037.067.037.072.038.082.037.088.036.1.038-.364.707-.121-.046-.116-.046-.11-.05-.105-.052-.099-.055-.093-.056-.088-.06-.083-.065-.077-.065-.072-.069-.066-.07-.06-.074-.055-.074-.05-.078-.05-.079-.044-.078-.038-.08-.033-.083-.033-.083-.028-.083-.027-.083-.022-.088-.022-.088-.022-.088-.022-.093-.022-.092-.022-.097-.022-.098-.023-.101-.022-.107-.027-.106-.028-.111.446.31-.033-.019zm-.446-.31c-.05-.208.11-.412.358-.458.248-.042.49.093.546.3l-.898.158h-.006zm-2.637-.476l3.089.013-.006.773-3.089-.014-.451-.435.457-.337zm-.006.772c-.253 0-.457-.175-.457-.388 0-.213.21-.384.463-.384l-.006.772zm2.511 3.281l-.446.676-.176-.088-.17-.093-.166-.097-.16-.106-.148-.111-.143-.116-.138-.12-.132-.125-.127-.13-.121-.13-.11-.134-.105-.138-.099-.14-.094-.143-.088-.143-.082-.148-.077-.148-.066-.148-.06-.153-.056-.153-.05-.152-.044-.153-.038-.153-.033-.153-.028-.152-.016-.153-.011-.153-.006-.152v-.153l.006-.153.01-.148.017-.148.914.093-.016.12-.011.12-.006.125v.125l.006.125.01.13.017.13.022.129.028.13.033.129.038.13.045.129.05.13.054.13.055.124.06.125.067.125.072.12.077.12.082.116.088.116.094.111.099.106.105.102.104.102.11.097.116.093.121.088.127.083.132.079.138.074.137.07-.01-.015zm0 0c.22.102.303.338.176.523-.12.185-.401.255-.622.148l.446-.675v.004zm8.409-2.873l.908.11-.082.39-.116.37-.143.351-.165.333-.193.31-.215.292-.237.273-.258.25-.281.231-.298.213-.308.195-.325.175-.336.158-.347.139-.352.12-.364.102-.368.083-.375.07-.374.05-.38.037-.38.019-.38.004-.375-.009-.374-.023-.369-.037-.363-.051-.358-.065-.353-.078-.341-.093-.33-.106-.32-.12-.308-.135.446-.675.259.11.27.102.286.093.297.083.308.07.314.06.32.046.325.032.33.024.336.009.336-.005.336-.018.335-.033.33-.046.326-.06.32-.074.313-.088.303-.102.297-.116.287-.13.27-.147.258-.162.243-.176.23-.19.215-.208.199-.222.181-.24.16-.26.138-.278.12-.296.094-.314.072-.338.006-.01zm0 0c.038-.213.27-.357.523-.329.253.032.424.227.39.44l-.908-.111h-.005zm-2.065-4.304l.517.639.05-.607.11.084.11.083.116.083.115.084.116.083.116.083.115.088.116.088.116.093.115.097.116.097.115.102.11.106.11.111.105.116.1.12.099.13.093.134.083.139.077.148.072.153.066.157.055.166.044.176.038.18.028.19.016.195.006.203-.006.213-.01.218-.023.227-.033.236-.908-.111.033-.209.022-.199.01-.19v-.18l-.005-.171-.016-.162-.022-.153-.028-.143-.038-.134-.044-.13-.05-.12-.055-.116-.06-.111-.067-.106-.071-.102-.077-.097-.078-.098-.082-.092-.088-.088-.094-.088-.093-.088-.1-.083-.104-.084-.105-.083-.11-.083-.11-.083-.116-.084-.115-.083-.116-.083-.116-.084-.115-.087-.116-.088.05-.607.01.005zm-.05.606c-.187-.143-.204-.389-.033-.546a.525.525 0 01.65-.028l-.617.574zm-1.42-6.288l.242-.745.38.097.363.115.341.135.325.148.303.166.287.18.264.19.242.204.226.213.204.227.181.231.16.24.138.25.115.255.094.26.072.263.05.264.027.268.005.269-.016.268-.039.268-.066.264-.088.264-.11.259-.132.25-.16.245-.182.236-.203.227-.226.217-.253.208-.276.195-.297.18-.518-.638.242-.148.22-.158.204-.166.182-.176.165-.18.143-.19.127-.195.105-.199.088-.203.066-.208.05-.209.033-.212.016-.213-.005-.213-.022-.213-.039-.213-.06-.208-.078-.209-.093-.203-.11-.2-.127-.193-.149-.19-.165-.18-.182-.176-.198-.167-.215-.157-.23-.148-.254-.135-.27-.125-.286-.11-.303-.098-.325-.083.016.005zm0 0c-.243-.056-.391-.269-.32-.477.066-.204.32-.329.567-.268l-.242.745h-.005zm-7.18 3.586l.01.773-.462-.421.05-.38.065-.36.083-.348.099-.333.116-.32.126-.305.143-.291.16-.273.176-.26.187-.245.204-.231.215-.213.231-.199.242-.185.254-.167.264-.152.275-.14.287-.12.297-.106.303-.092.314-.075.32-.06.324-.046.33-.032.336-.019.342-.005.347.01.352.023.353.037.357.05.364.066.363.078-.242.745-.33-.07-.325-.06-.32-.046-.314-.032-.308-.023-.303-.01h-.297l-.292.015-.28.027-.276.037-.264.051-.26.065-.247.074-.242.088-.231.097-.226.111-.215.125-.204.139-.198.148-.187.162-.176.176-.171.19-.16.203-.148.218-.138.236-.127.25-.11.263-.1.283-.087.296-.072.314-.06.329-.044.347-.463-.421-.01.014zm.462.42c-.022.214-.243.371-.496.353-.253-.019-.44-.204-.419-.417l.915.065zm2.5.32l-2.952.033-.01-.773 2.95-.033.425.542-.413.231zm-.011-.773c.253-.004.462.167.468.38.005.213-.199.389-.452.393l-.011-.773h-.005z" fill="#273453"/><path fill-rule="evenodd" clip-rule="evenodd" d="M64.337 50.493c.468-.884.286-1.744 1.343-2.1.986-.33 2.192-.167 2.742.56.513.67.474 1.8-.154 2.378-.65.597-1.707.48-2.786.666l.005 1.846c1.333.246 2.258-.032 3.145.806.732.69.754 1.97.148 2.674-.512.593-1.75 1.134-3.045.662-1.217-.44-1.156-1.004-1.459-2.235l-3.09-.014c-.208 1.411.568 3.202 2.286 4.007 2.93 1.365 8.403.824 9.086-3.156.418-2.438-1.074-3.128-2.263-4.04 3-1.711 2.252-5.483-1.608-6.371-3.728-.856-6.889.402-7.296 4.345l2.951-.032-.005.004z" fill="#273453"/><path d="M15.932 80.01c0 .836-.141 1.566-.422 2.191-.281.621-.68 1.096-1.195 1.424-.516.328-1.118.492-1.805.492-.672 0-1.268-.164-1.787-.492-.52-.332-.924-.803-1.213-1.412-.285-.613-.432-1.322-.44-2.127v-.615c0-.82.143-1.545.428-2.174.285-.629.688-1.11 1.207-1.441.524-.337 1.121-.504 1.793-.504.684 0 1.285.166 1.805.498.523.328.925.806 1.207 1.435.281.625.422 1.354.422 2.186v.539zm-1.12-.551c0-1.012-.203-1.787-.609-2.326-.406-.543-.974-.815-1.705-.815-.71 0-1.271.272-1.682.815-.406.539-.615 1.289-.627 2.25v.627c0 .98.206 1.752.616 2.314.414.559.982.838 1.705.838.726 0 1.289-.264 1.687-.79.399-.532.604-1.292.616-2.28v-.633zm6.124-.065a.835.835 0 00-.34-.703c-.227-.175-.537-.263-.932-.263-.383 0-.703.1-.96.299-.255.199-.382.433-.382.703h-1.078c0-.551.23-1.002.692-1.354.46-.351 1.037-.527 1.728-.527.742 0 1.32.16 1.734.48.415.317.622.77.622 1.36 0 .285-.086.547-.258.785a1.756 1.756 0 01-.733.568c.739.25 1.108.742 1.108 1.477 0 .582-.225 1.043-.674 1.383-.45.34-1.049.51-1.799.51-.73 0-1.334-.178-1.81-.534-.473-.36-.71-.844-.71-1.453h1.079c0 .309.136.574.41.797.277.219.62.328 1.031.328.414 0 .748-.096 1.002-.287a.891.891 0 00.38-.744c0-.356-.107-.61-.321-.762-.211-.156-.541-.234-.99-.234H18.65v-.914h1.178c.738-.02 1.108-.325 1.108-.915zm2.32 1.377c0-.62.121-1.18.363-1.675a2.758 2.758 0 011.02-1.149 2.79 2.79 0 011.494-.404c.863 0 1.56.299 2.092.896.535.598.802 1.393.802 2.385v.076c0 .618-.119 1.172-.357 1.664a2.67 2.67 0 01-1.014 1.143c-.437.274-.941.41-1.511.41-.86 0-1.557-.299-2.092-.896-.532-.598-.797-1.389-.797-2.373v-.076zm1.09.13c0 .703.162 1.267.486 1.693.328.425.766.638 1.313.638.55 0 .988-.214 1.312-.644.324-.434.486-1.04.486-1.816 0-.696-.166-1.258-.498-1.688a1.564 1.564 0 00-1.312-.65c-.535 0-.967.213-1.295.638-.328.426-.492 1.035-.492 1.828zM35.566 84h-1.084v-2.707H31.57V84h-1.09v-6.34h1.09v2.748h2.912V77.66h1.084V84zm5.848-6.34h1.084V84h-1.084v-4.623L38.49 84h-1.084v-6.34h1.084v4.63l2.924-4.63zm8.18 3.24c0 .965-.221 1.743-.662 2.332-.442.59-1.04.885-1.793.885-.77 0-1.375-.244-1.817-.732v3.052h-1.084V77.66h.99l.053.703c.442-.547 1.055-.82 1.84-.82.762 0 1.363.287 1.805.861.445.575.668 1.373.668 2.397v.1zm-1.084-.123c0-.715-.153-1.279-.457-1.693-.305-.414-.723-.621-1.254-.621-.656 0-1.149.29-1.477.873v3.03c.325.577.82.866 1.488.866.52 0 .932-.205 1.237-.615.309-.414.463-1.027.463-1.84zm2.18-.005c0-.622.12-1.18.363-1.676a2.758 2.758 0 011.02-1.149 2.79 2.79 0 011.493-.404c.864 0 1.561.299 2.092.896.535.598.803 1.393.803 2.385v.076a3.77 3.77 0 01-.358 1.664 2.67 2.67 0 01-1.013 1.143c-.438.274-.942.41-1.512.41-.86 0-1.556-.299-2.092-.896-.53-.598-.796-1.389-.796-2.373v-.076zm1.09.128c0 .703.161 1.268.486 1.694.328.425.765.638 1.312.638.55 0 .988-.214 1.313-.644.324-.434.486-1.04.486-1.816 0-.696-.166-1.258-.498-1.688a1.564 1.564 0 00-1.313-.65c-.535 0-.966.213-1.294.638-.329.426-.493 1.035-.493 1.828zm6.14 3.1v-6.34h2.473c.843 0 1.49.149 1.939.446.453.292.68.724.68 1.294 0 .293-.088.559-.264.797-.176.235-.435.414-.78.54.384.09.69.265.92.527.235.261.352.574.352.937 0 .582-.215 1.028-.644 1.336-.426.309-1.03.463-1.81.463H57.92zm1.084-2.783v1.91h1.793c.453 0 .79-.084 1.014-.252.226-.168.34-.404.34-.709 0-.633-.466-.95-1.395-.95h-1.752zm0-.867h1.4c1.016 0 1.524-.297 1.524-.891 0-.594-.48-.9-1.442-.92h-1.482v1.81zM68.59 84c-.063-.125-.113-.348-.153-.668-.503.524-1.105.785-1.804.785-.625 0-1.139-.176-1.541-.527a1.728 1.728 0 01-.598-1.348c0-.66.25-1.172.75-1.535.504-.367 1.211-.55 2.121-.55h1.055v-.499c0-.379-.113-.68-.34-.902-.227-.227-.56-.34-1.002-.34-.387 0-.71.098-.972.293-.262.195-.393.432-.393.709h-1.09c0-.316.111-.621.334-.914.227-.297.531-.531.914-.703.387-.172.81-.258 1.272-.258.73 0 1.302.184 1.716.55.414.364.63.866.645 1.507v2.918c0 .582.074 1.044.223 1.388V84H68.59zm-1.799-.826c.34 0 .662-.088.967-.264.305-.176.525-.404.662-.685v-1.301h-.85c-1.328 0-1.992.388-1.992 1.166 0 .34.113.605.34.797.226.191.517.287.873.287zm9.592.826h-1.084v-2.707h-2.912V84h-1.09v-6.34h1.09v2.748h2.912V77.66h1.084V84zm5.848-6.34h1.084V84H82.23v-4.623L79.306 84h-1.084v-6.34h1.084v4.63l2.924-4.63zm5.455 6.457c-.86 0-1.559-.281-2.098-.844-.54-.566-.809-1.322-.809-2.267v-.2c0-.628.12-1.189.358-1.681a2.815 2.815 0 011.007-1.16 2.536 2.536 0 011.407-.422c.824 0 1.465.271 1.922.814.457.543.685 1.32.685 2.332v.452h-4.295c.016.625.198 1.13.545 1.517.352.383.797.574 1.336.574.383 0 .707-.078.973-.234.265-.156.498-.363.697-.621l.662.516c-.531.816-1.328 1.224-2.39 1.224zm-.135-5.683c-.438 0-.805.16-1.102.48-.297.317-.48.762-.55 1.336h3.175v-.082c-.031-.55-.18-.977-.445-1.277-.266-.305-.625-.457-1.078-.457zm-59.819 13.59c.797 0 1.434.267 1.91.802.481.531.721 1.233.721 2.104v.1c0 .597-.115 1.132-.345 1.605-.23.468-.563.834-.997 1.096-.43.257-.925.386-1.488.386-.851 0-1.537-.283-2.056-.85-.52-.57-.78-1.333-.78-2.29v-.528c0-1.332.246-2.39.739-3.176.496-.785 1.226-1.263 2.191-1.435.547-.098.916-.217 1.107-.357a.68.68 0 00.287-.58h.891c0 .488-.111.868-.334 1.142-.219.273-.57.467-1.055.58l-.808.182c-.645.152-1.13.41-1.453.773-.32.36-.53.84-.627 1.441.574-.663 1.273-.996 2.097-.996zm-.21.89c-.532 0-.954.18-1.266.54-.313.355-.469.849-.469 1.482v.093c0 .68.156 1.219.469 1.618.316.394.742.591 1.277.591.54 0 .965-.199 1.277-.597.313-.399.47-.98.47-1.747 0-.597-.159-1.076-.475-1.435-.313-.363-.74-.545-1.284-.545zm6.134 3.498l1.477-4.752h1.16l-2.549 7.319c-.394 1.054-1.021 1.582-1.88 1.582l-.206-.018-.404-.076v-.88l.293.024c.367 0 .652-.074.855-.222.207-.149.377-.42.51-.815l.24-.644-2.261-6.27h1.183l1.582 4.752zm8.32-3.873H39.85V98h-1.084v-5.46H36.68v-.88h5.297v.88zm2.239 1.307h1.646c.72.007 1.287.195 1.705.562.418.367.627.865.627 1.494 0 .633-.215 1.141-.644 1.524-.43.383-1.008.574-1.734.574H43.13v-6.34h1.084v2.186zM50.455 98h-1.09v-6.34h1.09V98zm-6.24-3.27v2.385h1.611c.406 0 .72-.103.944-.31.222-.211.333-.498.333-.862 0-.351-.109-.638-.328-.861-.215-.226-.517-.344-.908-.351h-1.652zm13.33-3.07V98h-1.09v-5.443H54.3l-.13 2.373c-.07 1.09-.253 1.869-.55 2.338-.293.468-.76.713-1.4.732h-.434v-.955l.31-.023c.352-.04.604-.243.757-.61.152-.367.25-1.047.293-2.039l.117-2.713h4.283zm3.715 3.64h-.791V98h-1.09v-6.34h1.09v2.684h.709l2.133-2.684h1.312l-2.508 3.047L64.834 98h-1.377l-2.197-2.701zm8.607-3.639h1.084V98h-1.084v-4.623L66.943 98H65.86v-6.34h1.084v4.63l2.924-4.63z" fill="#273453"/></svg>