<svg width="87" height="109" fill="none" xmlns="http://www.w3.org/2000/svg"><path d="M30.416 70.394h-2.742V78h-1.12v-7.606h-2.736v-.925h6.598v.925zm.223 4.377c0-.62.12-1.18.363-1.675a2.757 2.757 0 011.02-1.149 2.79 2.79 0 011.494-.404c.863 0 1.56.299 2.091.896.536.598.803 1.393.803 2.385v.076c0 .618-.119 1.172-.357 1.664a2.67 2.67 0 01-1.014 1.143c-.437.274-.941.41-1.512.41-.859 0-1.556-.299-2.091-.896-.532-.598-.797-1.389-.797-2.373v-.076zm1.09.13c0 .703.162 1.267.486 1.693.328.425.765.638 1.312.638.551 0 .989-.214 1.313-.644.324-.434.486-1.04.486-1.816 0-.696-.166-1.258-.498-1.688a1.564 1.564 0 00-1.312-.65c-.535 0-.967.213-1.295.638-.328.426-.492 1.035-.492 1.828zM42.949 78h-1.084v-2.707h-2.912V78h-1.09v-6.34h1.09v2.748h2.912V71.66h1.084V78zm3.72-2.701h-.79V78h-1.09v-6.34h1.09v2.684h.709l2.133-2.684h1.312l-2.508 3.047L50.245 78h-1.378l-2.197-2.701zM55.09 78c-.062-.125-.112-.348-.151-.668-.504.524-1.106.785-1.805.785-.625 0-1.139-.176-1.541-.527a1.728 1.728 0 01-.598-1.348c0-.66.25-1.172.75-1.535.504-.367 1.211-.55 2.121-.55h1.055v-.499c0-.379-.113-.68-.34-.902-.227-.227-.56-.34-1.002-.34-.387 0-.71.098-.973.293-.261.195-.392.432-.392.709h-1.09c0-.316.111-.621.334-.914.227-.297.531-.531.914-.703.387-.172.81-.258 1.272-.258.73 0 1.302.184 1.716.55.414.364.63.866.645 1.507v2.918c0 .582.074 1.044.223 1.388V78H55.09zm-1.798-.826c.34 0 .662-.088.967-.264.304-.176.525-.404.662-.685v-1.301h-.85c-1.328 0-1.992.388-1.992 1.166 0 .34.113.605.34.797.227.191.517.287.873.287zm9.258-5.514V78h-1.09v-2.467h-1.635L58.33 78h-1.172l1.594-2.63c-.406-.15-.719-.378-.938-.686a1.876 1.876 0 01-.322-1.09c0-.578.217-1.043.65-1.395.434-.355 1.014-.535 1.74-.539h2.667zm-3.967 1.946c0 .308.105.558.316.75.211.187.49.283.838.287h1.723v-2.104H59.9c-.402 0-.722.1-.96.299a.945.945 0 00-.358.768zM7.787 90.565l2.156-4.905h1.354V92h-1.084v-4.611L8.163 92h-.75L5.32 87.29V92H4.236v-6.34h1.407l2.144 4.904zm7.887 1.552c-.86 0-1.559-.281-2.098-.844-.539-.566-.808-1.322-.808-2.267v-.2c0-.628.119-1.189.357-1.681a2.815 2.815 0 011.008-1.16 2.536 2.536 0 011.406-.422c.824 0 1.465.271 1.922.814.457.543.686 1.32.686 2.332v.452h-4.295c.015.625.197 1.13.544 1.517.352.383.797.574 1.336.574.383 0 .707-.078.973-.234.266-.156.498-.363.697-.621l.662.516c-.53.816-1.328 1.224-2.39 1.224zm-.135-5.683c-.437 0-.805.16-1.101.48-.297.317-.481.762-.551 1.336h3.175v-.082c-.03-.55-.18-.977-.445-1.277-.265-.305-.625-.457-1.078-.457zm5.994 1.54l1.406-2.314h1.266l-2.074 3.135L24.27 92h-1.254l-1.465-2.373L20.086 92h-1.26l2.139-3.205-2.074-3.135h1.254l1.388 2.315zM29.273 92c-.062-.125-.113-.348-.152-.668-.504.524-1.105.785-1.805.785-.625 0-1.138-.176-1.54-.527a1.728 1.728 0 01-.598-1.348c0-.66.25-1.172.75-1.535.504-.367 1.21-.55 2.12-.55h1.056v-.499c0-.379-.114-.68-.34-.902-.227-.227-.56-.34-1.002-.34-.387 0-.711.098-.973.293-.262.195-.393.432-.393.709h-1.09c0-.316.112-.621.335-.914.226-.297.53-.531.914-.703.386-.172.81-.258 1.271-.258.73 0 1.303.184 1.717.55.414.364.629.866.645 1.507v2.918c0 .582.074 1.044.222 1.388V92h-1.137zm-1.798-.826c.34 0 .662-.088.966-.264.305-.176.526-.404.663-.685v-1.301h-.85c-1.328 0-1.992.388-1.992 1.166 0 .34.113.605.34.797.226.191.517.287.873.287zm9.591.826h-1.084v-2.707H33.07V92h-1.09v-6.34h1.09v2.748h2.912V85.66h1.084V92zm5.848-6.34h1.084V92h-1.084v-4.623L39.99 92h-1.084v-6.34h1.084v4.63l2.924-4.63zM50.525 92h-1.09v-2.297a5.749 5.749 0 01-1.464.188c-.793 0-1.399-.204-1.817-.61-.414-.406-.625-.984-.633-1.734v-1.893h1.084v1.928c.02.945.475 1.418 1.366 1.418.5 0 .988-.063 1.465-.188V85.66h1.09V92zm4.372.117c-.86 0-1.56-.281-2.098-.844-.54-.566-.809-1.322-.809-2.267v-.2c0-.628.12-1.189.358-1.681a2.814 2.814 0 011.008-1.16 2.535 2.535 0 011.406-.422c.824 0 1.465.271 1.922.814.457.543.685 1.32.685 2.332v.452h-4.295c.016.625.198 1.13.545 1.517.352.383.797.574 1.336.574.383 0 .707-.078.973-.234.265-.156.498-.363.697-.621l.662.516c-.531.816-1.328 1.224-2.39 1.224zm-.135-5.683c-.438 0-.805.16-1.102.48-.297.317-.48.762-.55 1.336h3.175v-.082c-.031-.55-.18-.977-.445-1.277-.266-.305-.625-.457-1.078-.457zm6.41 4.798c.387 0 .725-.117 1.014-.351.289-.234.449-.528.48-.879h1.025c-.02.363-.144.709-.375 1.037-.23.328-.539.59-.925.785a2.645 2.645 0 01-1.22.293c-.862 0-1.55-.287-2.062-.861-.507-.578-.761-1.367-.761-2.367v-.182c0-.617.113-1.166.34-1.646.226-.48.55-.854.972-1.12.426-.265.928-.398 1.506-.398.711 0 1.3.213 1.77.639.472.425.724.978.755 1.658h-1.025a1.477 1.477 0 00-.469-1.008 1.433 1.433 0 00-1.031-.398c-.55 0-.978.199-1.283.597-.301.395-.451.967-.451 1.717v.205c0 .73.15 1.293.45 1.688.302.394.731.591 1.29.591zm5.713-1.933h-.791V92h-1.09v-6.34h1.09v2.684h.709l2.133-2.684h1.312l-2.508 3.047L70.46 92h-1.377l-2.197-2.701zM75.305 92c-.063-.125-.114-.348-.153-.668-.504.524-1.105.785-1.804.785-.625 0-1.139-.176-1.541-.527a1.728 1.728 0 01-.598-1.348c0-.66.25-1.172.75-1.535.504-.367 1.21-.55 2.121-.55h1.055v-.499c0-.379-.114-.68-.34-.902-.227-.227-.56-.34-1.002-.34-.387 0-.711.098-.973.293-.261.195-.392.432-.392.709h-1.09c0-.316.111-.621.334-.914a2.31 2.31 0 01.914-.703c.387-.172.81-.258 1.271-.258.73 0 1.303.184 1.717.55.414.364.63.866.645 1.507v2.918c0 .582.074 1.044.222 1.388V92h-1.136zm-1.8-.826c.34 0 .663-.088.968-.264.304-.176.525-.404.662-.685v-1.301h-.85c-1.328 0-1.992.388-1.992 1.166 0 .34.113.605.34.797.226.191.517.287.873.287zm9.259-5.514V92h-1.09v-2.467h-1.635L78.545 92h-1.172l1.594-2.63c-.406-.15-.719-.378-.938-.686a1.877 1.877 0 01-.322-1.09c0-.578.217-1.043.65-1.395.434-.355 1.014-.535 1.74-.539h2.667zm-3.967 1.946c0 .308.105.558.316.75.211.187.49.283.838.287h1.723v-2.104h-1.559c-.402 0-.722.1-.96.299a.945.945 0 00-.358.768zm-57.44 15.165c0-.621.122-1.179.364-1.675a2.76 2.76 0 011.02-1.149 2.79 2.79 0 011.493-.404c.864 0 1.56.299 2.092.896.535.598.803 1.393.803 2.385v.076a3.77 3.77 0 01-.358 1.664c-.234.489-.572.87-1.013 1.143-.438.273-.942.41-1.512.41-.86 0-1.556-.299-2.092-.896-.531-.598-.797-1.389-.797-2.373v-.077zm1.09.129c0 .704.162 1.268.487 1.694.328.426.765.638 1.312.638.55 0 .988-.214 1.313-.644.324-.434.486-1.039.486-1.817 0-.695-.166-1.257-.498-1.687a1.562 1.562 0 00-1.313-.65c-.535 0-.966.212-1.295.638-.328.426-.492 1.035-.492 1.828zm10.828 3.1h-1.09v-2.297a5.75 5.75 0 01-1.464.188c-.793 0-1.399-.203-1.817-.61-.414-.406-.625-.984-.633-1.734v-1.893h1.084v1.928c.02.945.475 1.418 1.366 1.418.5 0 .988-.062 1.464-.188V99.66h1.09V106zm5.842-6.34h1.084V106h-1.084v-4.623L36.193 106H35.11v-6.34h1.084v4.629l2.924-4.629zm5.367 5.572c.387 0 .725-.117 1.014-.351.29-.235.45-.527.48-.879h1.026c-.02.363-.145.709-.375 1.037-.23.328-.54.59-.926.785a2.636 2.636 0 01-1.219.293c-.863 0-1.55-.287-2.062-.861-.508-.578-.762-1.367-.762-2.367v-.182c0-.617.113-1.166.34-1.646.227-.481.55-.854.973-1.12.425-.265.927-.398 1.505-.398.712 0 1.301.213 1.77.639.473.425.725.978.756 1.658h-1.026a1.479 1.479 0 00-.468-1.008 1.431 1.431 0 00-1.032-.398c-.55 0-.978.199-1.283.597-.3.395-.45.967-.45 1.717v.205c0 .731.15 1.293.45 1.688.301.394.73.591 1.29.591zm8.45-4.693h-2.127V106h-1.084v-5.461h-2.086v-.879h5.297v.879zm3.029 2.76h-.791V106h-1.09v-6.34h1.09v2.684h.709l2.133-2.684h1.312l-2.508 3.047 2.72 3.293H58.16l-2.197-2.701zm8.42 2.701c-.063-.125-.114-.348-.152-.668-.504.523-1.106.785-1.805.785-.625 0-1.139-.176-1.541-.527a1.73 1.73 0 01-.598-1.348c0-.66.25-1.172.75-1.535.504-.367 1.211-.551 2.121-.551h1.055v-.498c0-.379-.113-.679-.34-.902-.226-.227-.56-.34-1.002-.34-.387 0-.71.098-.973.293-.261.195-.392.432-.392.709h-1.09c0-.316.111-.621.334-.914.227-.297.531-.531.914-.703.387-.172.81-.258 1.271-.258.731 0 1.303.184 1.717.551.414.363.63.865.645 1.506v2.918c0 .582.074 1.044.222 1.388V106h-1.136zm-1.799-.826c.34 0 .662-.088.967-.264.304-.176.525-.404.662-.685v-1.301h-.85c-1.328 0-1.992.388-1.992 1.166 0 .34.113.605.34.797.227.191.517.287.873.287z" fill="#273453"/><path fill-rule="evenodd" clip-rule="evenodd" d="M1.901 19.292c1.675-1.963 3.73-3.465 6.232-4.413 6.13-2.317 14.04-.752 20.343.286 7.98 1.311 15.665 2.385 23.74.913 4.273-.782 8.685-1.061 12.819-2.41l1.976-.644 17.903 34.877-2.83.61c-9.026 1.942-17.225 3.435-26.426 1.902-13.624-2.272-23.177-1.1-36.968 1.08l-1.749.274L1 20.347l.898-1.052.003-.003zm1.828 1.346c9.641-11.293 27.88 1.412 48.936-2.436 4.278-.781 8.762-1.06 13.143-2.489l15.75 30.689c-33.525 7.218-18.613-4.099-63.26 2.955L3.728 20.641v-.003z" fill="#273453"/><path clip-rule="evenodd" d="M9.197 20.49c.912 0 1.654.687 1.654 1.536 0 .848-.739 1.536-1.654 1.536-.913 0-1.655-.686-1.655-1.536 0-.847.74-1.536 1.655-1.536v0z" stroke="#273453" stroke-width=".058" stroke-miterlimit="22.926"/><path fill-rule="evenodd" clip-rule="evenodd" d="M9.197 20.49c.912 0 1.654.687 1.654 1.536 0 .848-.739 1.536-1.654 1.536-.913 0-1.655-.686-1.655-1.536 0-.847.74-1.536 1.655-1.536z" fill="#273453"/><path clip-rule="evenodd" d="M21.32 19.173c.912 0 1.654.687 1.654 1.536 0 .848-.74 1.536-1.655 1.536-.912 0-1.654-.686-1.654-1.536 0-.847.739-1.536 1.654-1.536z" stroke="#273453" stroke-width=".058" stroke-miterlimit="22.926"/><path fill-rule="evenodd" clip-rule="evenodd" d="M21.32 19.173c.912 0 1.654.687 1.654 1.536 0 .848-.74 1.536-1.655 1.536-.912 0-1.654-.686-1.654-1.536 0-.847.739-1.536 1.654-1.536z" fill="#273453"/><path clip-rule="evenodd" d="M15.972 25.417c.912 0 1.655.687 1.655 1.536 0 .848-.74 1.536-1.655 1.536-.913 0-1.655-.686-1.655-1.536 0-.847.74-1.536 1.655-1.536z" stroke="#273453" stroke-width=".058" stroke-miterlimit="22.926"/><path fill-rule="evenodd" clip-rule="evenodd" d="M15.972 25.417c.912 0 1.655.687 1.655 1.536 0 .848-.74 1.536-1.655 1.536-.913 0-1.655-.686-1.655-1.536 0-.847.74-1.536 1.655-1.536z" fill="#273453"/><path clip-rule="evenodd" d="M26.292 30.606c.913 0 1.655.686 1.655 1.536 0 .847-.74 1.536-1.655 1.536-.912 0-1.652-.686-1.652-1.536 0-.847.74-1.536 1.652-1.536v0z" stroke="#273453" stroke-width=".058" stroke-miterlimit="22.926"/><path fill-rule="evenodd" clip-rule="evenodd" d="M26.292 30.606c.913 0 1.655.686 1.655 1.536 0 .847-.74 1.536-1.655 1.536-.912 0-1.652-.686-1.652-1.536 0-.847.74-1.536 1.652-1.536z" fill="#273453"/><path clip-rule="evenodd" d="M38.583 33.359c.913 0 1.655.686 1.655 1.536 0 .847-.74 1.536-1.655 1.536-.913 0-1.655-.686-1.655-1.536 0-.847.74-1.536 1.655-1.536z" stroke="#273453" stroke-width=".058" stroke-miterlimit="22.926"/><path fill-rule="evenodd" clip-rule="evenodd" d="M38.583 33.359c.913 0 1.655.686 1.655 1.536 0 .847-.74 1.536-1.655 1.536-.913 0-1.655-.686-1.655-1.536 0-.847.74-1.536 1.655-1.536z" fill="#273453"/><path clip-rule="evenodd" d="M51.97 32.174c.913 0 1.656.686 1.656 1.536 0 .847-.74 1.536-1.655 1.536-.913 0-1.655-.686-1.655-1.536 0-.847.74-1.536 1.655-1.536z" stroke="#273453" stroke-width=".058" stroke-miterlimit="22.926"/><path fill-rule="evenodd" clip-rule="evenodd" d="M51.97 32.174c.913 0 1.656.686 1.656 1.536 0 .847-.74 1.536-1.655 1.536-.913 0-1.655-.686-1.655-1.536 0-.847.74-1.536 1.655-1.536z" fill="#273453"/><path clip-rule="evenodd" d="M27.947 23.882c.912 0 1.654.686 1.654 1.536 0 .847-.739 1.536-1.654 1.536-.913 0-1.655-.686-1.655-1.536 0-.847.74-1.536 1.655-1.536z" stroke="#273453" stroke-width=".058" stroke-miterlimit="22.926"/><path fill-rule="evenodd" clip-rule="evenodd" d="M27.947 23.882c.912 0 1.654.686 1.654 1.536 0 .847-.739 1.536-1.654 1.536-.913 0-1.655-.686-1.655-1.536 0-.847.74-1.536 1.655-1.536z" fill="#273453"/><path clip-rule="evenodd" d="M63.048 20.269c.912 0 1.654.686 1.654 1.536 0 .847-.739 1.533-1.654 1.533-.913 0-1.655-.686-1.655-1.533 0-.847.74-1.536 1.655-1.536v0z" stroke="#273453" stroke-width=".058" stroke-miterlimit="22.926"/><path fill-rule="evenodd" clip-rule="evenodd" d="M63.048 20.269c.912 0 1.654.686 1.654 1.536 0 .847-.739 1.533-1.654 1.533-.913 0-1.655-.686-1.655-1.533 0-.847.74-1.536 1.655-1.536z" fill="#273453"/><path clip-rule="evenodd" d="M69.584 28.674c.912 0 1.654.687 1.654 1.537 0 .847-.739 1.535-1.654 1.535-.913 0-1.655-.686-1.655-1.535 0-.848.74-1.537 1.655-1.537z" stroke="#273453" stroke-width=".058" stroke-miterlimit="22.926"/><path fill-rule="evenodd" clip-rule="evenodd" d="M69.584 28.674c.912 0 1.654.687 1.654 1.537 0 .847-.739 1.535-1.654 1.535-.913 0-1.655-.686-1.655-1.535 0-.848.74-1.537 1.655-1.537z" fill="#273453"/><path clip-rule="evenodd" d="M60.133 29.041c.913 0 1.655.687 1.655 1.537 0 .847-.74 1.536-1.654 1.536-.913 0-1.655-.687-1.655-1.536 0-.848.739-1.537 1.654-1.537z" stroke="#273453" stroke-width=".058" stroke-miterlimit="22.926"/><path fill-rule="evenodd" clip-rule="evenodd" d="M60.133 29.041c.913 0 1.655.687 1.655 1.537 0 .847-.74 1.536-1.654 1.536-.913 0-1.655-.687-1.655-1.536 0-.848.739-1.537 1.654-1.537z" fill="#273453"/><path clip-rule="evenodd" d="M75.881 42.414c.913 0 1.655.686 1.655 1.536 0 .847-.74 1.536-1.655 1.536-.912 0-1.654-.686-1.654-1.536 0-.847.739-1.536 1.654-1.536z" stroke="#273453" stroke-width=".058" stroke-miterlimit="22.926"/><path fill-rule="evenodd" clip-rule="evenodd" d="M75.881 42.414c.913 0 1.655.686 1.655 1.536 0 .847-.74 1.536-1.655 1.536-.912 0-1.654-.686-1.654-1.536 0-.847.739-1.536 1.654-1.536z" fill="#273453"/><path clip-rule="evenodd" d="M66.985 36.86c.913 0 1.655.687 1.655 1.537 0 .847-.74 1.536-1.655 1.536-.912 0-1.654-.686-1.654-1.536 0-.847.739-1.536 1.654-1.536z" stroke="#273453" stroke-width=".058" stroke-miterlimit="22.926"/><path fill-rule="evenodd" clip-rule="evenodd" d="M66.985 36.86c.913 0 1.655.687 1.655 1.537 0 .847-.74 1.536-1.655 1.536-.912 0-1.654-.686-1.654-1.536 0-.847.739-1.536 1.654-1.536z" fill="#273453"/><path clip-rule="evenodd" d="M59.033 42.707c.913 0 1.655.686 1.655 1.536 0 .847-.74 1.536-1.655 1.536-.913 0-1.655-.686-1.655-1.536 0-.847.74-1.536 1.655-1.536z" stroke="#273453" stroke-width=".058" stroke-miterlimit="22.926"/><path fill-rule="evenodd" clip-rule="evenodd" d="M59.033 42.707c.913 0 1.655.686 1.655 1.536 0 .847-.74 1.536-1.655 1.536-.913 0-1.655-.686-1.655-1.536 0-.847.74-1.536 1.655-1.536z" fill="#273453"/><path clip-rule="evenodd" d="M45.096 40.075c.913 0 1.655.687 1.655 1.536 0 .848-.739 1.536-1.654 1.536-.913 0-1.655-.686-1.655-1.536 0-.847.739-1.536 1.654-1.536z" stroke="#273453" stroke-width=".058" stroke-miterlimit="22.926"/><path fill-rule="evenodd" clip-rule="evenodd" d="M45.096 40.075c.913 0 1.655.687 1.655 1.536 0 .848-.739 1.536-1.654 1.536-.913 0-1.655-.686-1.655-1.536 0-.847.739-1.536 1.654-1.536z" fill="#273453"/><path clip-rule="evenodd" d="M22.659 42.27c.912 0 1.654.685 1.654 1.535 0 .847-.739 1.536-1.654 1.536-.913 0-1.655-.686-1.655-1.536 0-.847.74-1.536 1.655-1.536v0z" stroke="#273453" stroke-width=".058" stroke-miterlimit="22.926"/><path fill-rule="evenodd" clip-rule="evenodd" d="M22.659 42.27c.912 0 1.654.685 1.654 1.535 0 .847-.739 1.536-1.654 1.536-.913 0-1.655-.686-1.655-1.536 0-.847.74-1.536 1.655-1.536z" fill="#273453"/><path clip-rule="evenodd" d="M19.037 34.961c.912 0 1.654.686 1.654 1.536 0 .847-.739 1.536-1.654 1.536-.913 0-1.652-.686-1.652-1.536 0-.847.739-1.536 1.651-1.536z" stroke="#273453" stroke-width=".058" stroke-miterlimit="22.926"/><path fill-rule="evenodd" clip-rule="evenodd" d="M19.037 34.961c.912 0 1.654.686 1.654 1.536 0 .847-.739 1.536-1.654 1.536-.913 0-1.652-.686-1.652-1.536 0-.847.739-1.536 1.651-1.536z" fill="#273453"/><path clip-rule="evenodd" d="M33.897 39.598c.913 0 1.655.686 1.655 1.536 0 .847-.74 1.536-1.655 1.536-.912 0-1.654-.686-1.654-1.536 0-.847.739-1.536 1.654-1.536z" stroke="#273453" stroke-width=".058" stroke-miterlimit="22.926"/><path fill-rule="evenodd" clip-rule="evenodd" d="M33.897 39.598c.913 0 1.655.686 1.655 1.536 0 .847-.74 1.536-1.655 1.536-.912 0-1.654-.686-1.654-1.536 0-.847.739-1.536 1.654-1.536z" fill="#273453"/><path fill-rule="evenodd" clip-rule="evenodd" d="M53.484 19.803l-.228-.81c-.483-1.716-1.987-4.196-3.03-5.906-1.08-1.773-3.155-4.706-3.735-5.637-2.061-3.314-2.962-5.859-3.693-7.064C42.642.13 42.645.143 42.5 0c-1.2 4.245-4.947 9.098-7.118 12.483-2.556 3.98-5.76 8.896-2.763 14.361 5.526 10.073 23.298 5.9 20.865-7.04z" fill="#4683C9"/><path fill-rule="evenodd" clip-rule="evenodd" d="M42.268 6.278c-.64 3.5-2.72 6.868-3.886 10.206-1.936 5.547.423 7.403-.893 8.786-1.524 1.604-4.677-.444-3.11-5.637.767-2.542 3.647-6.445 5.26-8.86.96-1.438 1.788-3.278 2.63-4.495z" fill="#fff"/></svg>