<svg width="93" height="91" viewBox="0 0 93 91" fill="none" xmlns="http://www.w3.org/2000/svg">
<path fill-rule="evenodd" clip-rule="evenodd" d="M4.90033 22.0591C6.57586 20.1325 8.62983 18.6591 11.1324 17.7306C17.2608 15.4566 25.1715 16.9939 31.4738 18.0086C39.4547 19.2958 47.1365 20.3522 55.215 18.9038C59.4877 18.1365 63.9009 17.8613 68.0332 16.5408L70.0109 15.9098L87.9137 50.1312L85.0846 50.7289C76.0599 52.636 67.8593 54.1011 58.6576 52.5943C45.0367 50.3648 35.4841 51.5157 21.6892 53.6535L19.9404 53.9231L4 23.0932L4.89728 22.0591H4.90033ZM6.72845 23.3795C16.3666 12.2986 34.6051 24.764 55.6606 20.9888C59.9394 20.2215 64.4228 19.9463 68.8023 18.5479L84.5535 48.6579C51.0308 55.7385 65.9396 44.6352 21.2955 51.5574L6.72845 23.3795Z" fill="#273453"/>
<path d="M16.7703 27.3607C16.1996 27.4469 15.6625 27.4079 15.1589 27.2495C14.6553 27.0882 14.2372 26.8269 13.9045 26.4627C13.5719 26.0986 13.3582 25.6621 13.2667 25.1562C13.1751 24.6502 13.227 24.1748 13.4193 23.7328C13.6116 23.2908 13.9167 22.9211 14.3379 22.6236C14.7591 22.3261 15.2535 22.1343 15.8273 22.0509C16.2912 21.9814 16.7276 21.9925 17.1366 22.0843C17.5455 22.176 17.9087 22.34 18.2231 22.5819L17.6462 23.2658C17.164 22.9238 16.6238 22.796 16.0226 22.8877C15.635 22.9461 15.2993 23.074 15.0185 23.2741C14.7377 23.4743 14.5363 23.7245 14.4142 24.0275C14.2921 24.3277 14.2616 24.653 14.3227 25.0033C14.3867 25.3535 14.5271 25.651 14.7499 25.9012C14.9727 26.1514 15.2505 26.3293 15.5862 26.4405C15.9219 26.5489 16.2851 26.5739 16.6727 26.5183C17.2709 26.4294 17.7409 26.1514 18.0766 25.6816L18.8609 26.1708C18.6473 26.4905 18.3604 26.7519 18.0003 26.9576C17.6401 27.1633 17.2281 27.2995 16.7642 27.369L16.7703 27.3607ZM20.8203 22.593C21.4581 22.4985 21.9678 22.5652 22.3554 22.7932C22.743 23.0211 22.9872 23.4159 23.0879 23.9747L23.503 26.282L22.5477 26.4238L22.4622 25.9457C22.3676 26.1375 22.215 26.2932 22.0014 26.4183C21.7878 26.5434 21.5192 26.6295 21.1957 26.6768C20.8722 26.7241 20.5792 26.7157 20.3198 26.6518C20.0603 26.5878 19.8467 26.4739 19.6819 26.3154C19.5171 26.1569 19.4164 25.9624 19.3737 25.7372C19.3096 25.3841 19.4042 25.0783 19.6544 24.8198C19.9047 24.564 20.3411 24.3889 20.9607 24.2971L22.0777 24.1303L22.0685 24.072C22.0197 23.7967 21.8915 23.5994 21.684 23.4771C21.4765 23.3575 21.1957 23.3214 20.8386 23.377C20.5944 23.4131 20.3625 23.4826 20.1397 23.5855C19.9169 23.6883 19.7368 23.8134 19.5964 23.9608L19.0807 23.3492C19.279 23.1574 19.5293 22.9961 19.8345 22.8655C20.1366 22.7348 20.4663 22.6431 20.8233 22.5902L20.8203 22.593ZM21.2872 25.9763C21.5406 25.9373 21.7572 25.8512 21.9343 25.7177C22.1113 25.5815 22.2242 25.4119 22.27 25.2034L22.1876 24.7475L21.1438 24.9032C20.5609 24.9894 20.3015 25.209 20.3625 25.5565C20.393 25.7233 20.4876 25.8456 20.6524 25.9234C20.8172 26.0013 21.0278 26.0179 21.2872 25.9818V25.9763Z" fill="#273453"/>
<path d="M21.635 35.3253L21.9829 36.6152L23.3746 37.4075L22.7428 38.3277L17.3012 35.228L17.9329 34.3078L20.7224 35.898L19.6146 31.8587L20.3257 30.8245L21.3298 34.2939L25.8558 33.7991L25.1173 34.8749L21.638 35.3253H21.635Z" fill="#273453"/>
<path d="M29.2466 46.7229L27.1255 44.1014L27.4459 47.2289L27.0858 47.4707L23.9331 46.2864L26.0207 48.8774L25.2516 49.3917L22.0623 45.4302L22.7276 44.9854L26.57 46.456L26.1519 42.6975L26.8172 42.2527L30.0127 46.2086L29.2497 46.7201L29.2466 46.7229ZM31.969 40.2567L34.0321 42.8198C34.8897 43.8845 34.7218 44.8131 33.5285 45.6109C33.2111 45.825 32.8784 45.989 32.5336 46.1058C32.1887 46.2225 31.8682 46.2753 31.5692 46.2586L31.4898 45.4942C31.7218 45.5081 31.9781 45.4719 32.2528 45.3885C32.5275 45.3051 32.7777 45.1884 33.0066 45.0382C33.3698 44.7936 33.5773 44.5406 33.6262 44.2765C33.675 44.0124 33.5743 43.7261 33.324 43.4147L33.1959 43.2563C33.1684 43.4759 33.089 43.6844 32.9517 43.879C32.8144 44.0736 32.6343 44.2487 32.4054 44.3988C32.091 44.6101 31.7553 44.738 31.4043 44.7853C31.0503 44.8325 30.7116 44.7936 30.385 44.6713C30.0584 44.5462 29.7807 44.3405 29.5488 44.0541C29.3168 43.7678 29.1856 43.4648 29.155 43.1451C29.1245 42.8254 29.1886 42.5224 29.3443 42.2305C29.503 41.9386 29.738 41.6884 30.0523 41.4799C30.2934 41.3186 30.5406 41.2102 30.794 41.1491C31.0473 41.0907 31.3006 41.0879 31.5508 41.1463L31.2273 40.746L31.9659 40.2511L31.969 40.2567ZM32.0392 43.7261C32.3321 43.5287 32.5092 43.2869 32.5702 43.0033C32.6282 42.717 32.5549 42.4445 32.3505 42.1888C32.146 41.9358 31.8866 41.794 31.5722 41.7606C31.2548 41.7273 30.9496 41.8107 30.6566 42.0053C30.3575 42.2054 30.1775 42.4473 30.1195 42.7309C30.0584 43.0144 30.1286 43.2841 30.3331 43.5371C30.5406 43.7928 30.8031 43.9401 31.1205 43.9735C31.4379 44.0069 31.7462 43.9262 32.0453 43.7261H32.0392Z" fill="#273453"/>
<path d="M46.1148 42.0528L46.9846 46.8955L46.1728 47.0178L42.6539 44.1739L43.2429 47.4542L42.2632 47.5988L41.3934 42.7561L42.2053 42.6338L45.7242 45.4777L45.1351 42.1973L46.1148 42.0528ZM49.2004 42.7311C49.7985 42.6421 50.2777 42.7033 50.6409 42.9173C51.0041 43.1314 51.233 43.5011 51.3276 44.0265L51.7152 46.1921L50.8179 46.3256L50.7385 45.8752C50.65 46.0531 50.5066 46.2033 50.3082 46.32C50.1098 46.4368 49.8565 46.5174 49.5513 46.5647C49.2461 46.6091 48.9745 46.6036 48.7273 46.5424C48.4831 46.4813 48.2817 46.3756 48.1291 46.2255C47.9735 46.0754 47.8789 45.8947 47.8392 45.6834C47.7781 45.3526 47.8666 45.0635 48.1017 44.8244C48.3367 44.5825 48.7456 44.4185 49.3285 44.3323L50.3754 44.1767L50.3662 44.1211C50.3204 43.8625 50.1983 43.6763 50.0061 43.5651C49.8107 43.4511 49.5483 43.4205 49.2126 43.4705C48.9837 43.5039 48.767 43.5706 48.5564 43.6679C48.3489 43.7652 48.1779 43.882 48.0467 44.021L47.5615 43.4455C47.7476 43.2676 47.9826 43.1147 48.2665 42.9924C48.5503 42.8701 48.8616 42.7839 49.1942 42.7338L49.2004 42.7311ZM49.6368 45.9058C49.8748 45.8697 50.0763 45.789 50.2441 45.6639C50.412 45.5361 50.5157 45.3748 50.5585 45.1802L50.4822 44.7521L49.5025 44.8967C48.9562 44.9773 48.712 45.183 48.77 45.511C48.7975 45.6667 48.8891 45.7835 49.0417 45.853C49.1942 45.9253 49.3926 45.9419 49.6368 45.9058Z" fill="#273453"/>
<path d="M36.3517 37.8049C35.784 37.6965 35.2987 37.4852 34.8928 37.1711C34.4869 36.857 34.2 36.4761 34.0322 36.0258C33.8643 35.5754 33.8368 35.1 33.9528 34.5996C34.0688 34.0965 34.3038 33.6711 34.6578 33.3208C35.0119 32.9706 35.4452 32.7259 35.9549 32.5869C36.4646 32.4479 37.0017 32.4313 37.5694 32.5397C38.0302 32.6286 38.4331 32.7815 38.781 32.9984C39.129 33.218 39.4006 33.4904 39.599 33.8185L38.7932 34.2688C38.4789 33.7907 38.0241 33.496 37.429 33.382C37.0445 33.3097 36.6813 33.3208 36.3395 33.4154C35.9976 33.5099 35.7108 33.6795 35.4788 33.9185C35.2438 34.1576 35.0882 34.4523 35.0088 34.797C34.9294 35.1445 34.9447 35.4698 35.0515 35.7756C35.1614 36.0814 35.3506 36.3399 35.6192 36.5512C35.8878 36.7625 36.2174 36.9042 36.6019 36.9793C37.1971 37.0933 37.7434 36.9849 38.2439 36.6596L38.7841 37.374C38.4575 37.602 38.0882 37.7521 37.6701 37.8272C37.255 37.8995 36.8156 37.8939 36.3547 37.8049H36.3517ZM42.0131 34.6858C42.6448 34.8054 43.0965 35.0361 43.3681 35.3752C43.6398 35.7144 43.71 36.162 43.5848 36.718L43.0599 39.0059L42.1138 38.8252L42.2236 38.3498C42.0619 38.4972 41.8574 38.5945 41.6072 38.6417C41.3599 38.689 41.0731 38.6806 40.7526 38.6195C40.4321 38.5583 40.1605 38.4555 39.9438 38.3081C39.7271 38.1636 39.5715 37.9884 39.483 37.7855C39.3914 37.5825 39.3731 37.3685 39.425 37.1433C39.5043 36.793 39.7119 36.5373 40.0476 36.3816C40.3833 36.2231 40.8594 36.2037 41.4729 36.3204L42.5807 36.5317L42.5929 36.4733C42.657 36.2009 42.6143 35.9729 42.4678 35.7922C42.3213 35.6115 42.071 35.4892 41.7201 35.4197C41.479 35.3725 41.2348 35.3641 40.9845 35.3864C40.7373 35.4114 40.5176 35.467 40.3284 35.5587L40.0873 34.8193C40.3467 34.7053 40.6458 34.6386 40.9815 34.6163C41.3172 34.5941 41.659 34.6163 42.0131 34.683V34.6858ZM41.1097 37.994C41.3599 38.0412 41.598 38.0329 41.8177 37.9634C42.0375 37.8967 42.2084 37.7716 42.3335 37.5937L42.4373 37.1405L41.4027 36.9432C40.8258 36.832 40.4962 36.9515 40.4169 37.2962C40.3803 37.463 40.4199 37.6076 40.542 37.7327C40.6641 37.8578 40.8533 37.9439 41.1097 37.994Z" fill="#273453"/>
<path d="M32.9028 30.0626L31.0197 27.2966L31.0655 30.4379L30.684 30.652L27.6473 29.2426L29.4998 31.978L28.688 32.434L25.8558 28.2557L26.5577 27.8609L30.2567 29.6067L30.1682 25.8287L30.8702 25.434L33.7085 29.6095L32.9028 30.0626ZM36.1806 23.8133L38.0148 26.5182C38.7748 27.6413 38.5275 28.5559 37.2671 29.2648C36.9314 29.4538 36.5865 29.5956 36.2325 29.6873C35.8784 29.7791 35.5519 29.8069 35.2558 29.7707L35.2436 29.0035C35.4756 29.0341 35.7319 29.0174 36.0127 28.9562C36.2935 28.8951 36.5529 28.795 36.794 28.6615C37.1786 28.4447 37.4075 28.2084 37.4777 27.9471C37.5479 27.6858 37.4746 27.3939 37.2518 27.0686L37.1389 26.9018C37.0931 27.1187 36.9955 27.3216 36.8429 27.5051C36.6903 27.6885 36.4949 27.8498 36.2538 27.986C35.9212 28.1723 35.5763 28.2779 35.2223 28.3001C34.8652 28.3224 34.5295 28.2584 34.2151 28.1111C33.9008 27.9638 33.6413 27.7386 33.4369 27.4356C33.2324 27.1326 33.1286 26.8212 33.1256 26.5015C33.1225 26.1818 33.2141 25.8816 33.3941 25.6036C33.5773 25.3256 33.8336 25.092 34.1663 24.9058C34.4196 24.764 34.676 24.6723 34.9354 24.6306C35.1948 24.5889 35.4451 24.6083 35.6923 24.6834L35.4054 24.2608L36.1867 23.8216L36.1806 23.8133ZM35.9486 27.2771C36.2599 27.102 36.4553 26.874 36.5407 26.5932C36.6262 26.3125 36.5743 26.0372 36.3912 25.7648C36.2111 25.4979 35.9639 25.3367 35.6526 25.2811C35.3413 25.2255 35.03 25.2866 34.7187 25.459C34.4043 25.6369 34.2029 25.8649 34.1175 26.1429C34.032 26.4209 34.0808 26.6961 34.2609 26.9602C34.444 27.2299 34.6943 27.3939 35.0056 27.4522C35.3199 27.5106 35.6343 27.4495 35.9486 27.2715V27.2771Z" fill="#273453"/>
<path fill-rule="evenodd" clip-rule="evenodd" d="M56.9676 19.7879L56.7387 18.9789C56.2534 17.2636 54.7519 14.7867 53.7081 13.077C52.6277 11.3062 50.5524 8.37328 49.9725 7.44477C47.9124 4.13382 47.009 1.59015 46.2796 0.386416C46.124 0.130659 46.124 0.144559 45.9805 0C44.7811 4.24224 41.0333 9.0933 38.8603 12.4737C36.3028 16.4519 33.0982 21.3641 36.0983 26.8268C41.6254 36.893 59.4 32.7231 56.9645 19.7906L56.9676 19.7879Z" fill="#A3C8ED"/>
<path fill-rule="evenodd" clip-rule="evenodd" d="M45.7517 6.15755C45.1108 9.59082 43.0294 12.8962 41.8635 16.1738C39.9286 21.617 42.2847 23.4379 40.9724 24.7945C39.4494 26.368 36.2937 24.3581 37.8594 19.2624C38.6254 16.7687 41.5065 12.9407 43.1179 10.5694C44.0793 9.15715 44.9063 7.35294 45.7487 6.16033L45.7517 6.15755Z" fill="white"/>
<path d="M56.3939 35.9591L54.5108 33.193L54.5566 36.3344L54.1751 36.5484L51.1384 35.139L52.991 37.8745L52.1791 38.3304L49.3469 34.1521L50.0489 33.7573L53.7478 35.5032L53.6593 31.7252L54.3613 31.3304L57.1996 35.506L56.3939 35.9591ZM59.6748 29.7097L61.509 32.4146C62.2689 33.5377 62.0217 34.4523 60.7613 35.1612C60.4255 35.3503 60.0807 35.4921 59.7266 35.5838C59.3726 35.6755 59.0461 35.7033 58.75 35.6672L58.7378 34.8999C58.9698 34.9305 59.2261 34.9138 59.5069 34.8527C59.7877 34.7915 60.0471 34.6914 60.2882 34.558C60.6727 34.3411 60.9016 34.1048 60.9718 33.8435C61.042 33.5822 60.9688 33.2903 60.746 32.9651L60.6331 32.7983C60.5873 33.0151 60.4896 33.218 60.337 33.4015C60.1844 33.585 59.9891 33.7462 59.748 33.8824C59.4153 34.0687 59.0705 34.1743 58.7164 34.1966C58.3594 34.2188 58.0236 34.1549 57.7093 34.0075C57.3949 33.8602 57.1355 33.635 56.931 33.332C56.7266 33.029 56.6228 32.7176 56.6197 32.3979C56.6167 32.0782 56.7082 31.778 56.8883 31.5C57.0714 31.222 57.3278 30.9885 57.6605 30.8022C57.9138 30.6605 58.1701 30.5687 58.4296 30.527C58.689 30.4853 58.9392 30.5048 59.1864 30.5798L58.8996 30.1573L59.6809 29.718L59.6748 29.7097ZM59.4428 33.1736C59.7541 32.9984 59.9494 32.7705 60.0349 32.4897C60.1203 32.2089 60.0685 31.9337 59.8853 31.6612C59.7053 31.3944 59.4581 31.2331 59.1468 31.1775C58.8355 31.1219 58.5242 31.1831 58.2129 31.3554C57.8985 31.5334 57.6971 31.7613 57.6116 32.0393C57.5262 32.3173 57.575 32.5925 57.7551 32.8566C57.9382 33.1263 58.1884 33.2903 58.4997 33.3487C58.8141 33.4071 59.1285 33.3459 59.4428 33.168V33.1736Z" fill="#273453"/>
<path d="M65.8582 22.6513L65.0311 27.4996L64.2162 27.3856L61.8418 23.6855L61.2802 26.9686L60.3006 26.8296L61.1276 21.9813L61.9425 22.0953L64.3169 25.7955L64.8785 22.5123L65.8582 22.6513ZM68.5592 24.1692C69.1574 24.2526 69.5938 24.45 69.8654 24.7558C70.137 25.0616 70.2286 25.4785 70.1401 26.004L69.7708 28.1723L68.8735 28.0445L68.9498 27.5941C68.8064 27.7387 68.6172 27.8387 68.3883 27.8943C68.1594 27.9499 67.8908 27.9555 67.5856 27.911C67.2804 27.8665 67.024 27.7831 66.8104 27.6553C66.5998 27.5274 66.4442 27.3717 66.3496 27.1855C66.2549 26.9992 66.2244 26.799 66.2611 26.5878C66.319 26.2542 66.4991 26.0067 66.8043 25.8455C67.1095 25.6843 67.5551 25.6426 68.138 25.726L69.1879 25.8733L69.197 25.8177C69.2398 25.5592 69.1909 25.3479 69.0444 25.1866C68.8979 25.0254 68.6568 24.9198 68.3242 24.8725C68.0953 24.8392 67.8664 24.8419 67.6344 24.8753C67.4025 24.9087 67.2011 24.9726 67.0301 25.0671L66.7646 24.3832C67.0027 24.2665 67.2774 24.1886 67.5917 24.1525C67.903 24.1164 68.2265 24.1219 68.5622 24.1692H68.5592ZM67.8908 27.3106C68.1288 27.3439 68.3486 27.3245 68.55 27.2522C68.7515 27.1799 68.9071 27.0548 69.0139 26.8824L69.0872 26.4543L68.1075 26.3153C67.5612 26.2375 67.259 26.3626 67.2011 26.6906C67.1736 26.8491 67.2224 26.9825 67.3414 27.0937C67.4635 27.2049 67.6436 27.2772 67.8877 27.3133L67.8908 27.3106Z" fill="#273453"/>
<path d="M69.4623 34.2826L68.1835 34.9248L67.7074 36.3565L66.566 36.0395L68.4338 30.4462L69.5752 30.7631L68.6169 33.6321L72.6089 31.6027L73.8907 31.9585L70.4756 33.7461L72.1816 37.5963L70.8479 37.2266L69.4623 34.2854V34.2826Z" fill="#273453"/>
<path d="M57.6848 45.0689C57.1294 44.916 56.6655 44.6658 56.2931 44.3211C55.9208 43.9763 55.6705 43.5732 55.5484 43.1118C55.4264 42.6503 55.4447 42.1749 55.6095 41.6829C55.7743 41.1908 56.049 40.7877 56.4366 40.468C56.8242 40.1483 57.2789 39.9398 57.7977 39.8425C58.3196 39.7452 58.8568 39.773 59.4122 39.9259C59.8609 40.051 60.2485 40.2345 60.572 40.4819C60.8955 40.7266 61.1396 41.0212 61.3075 41.3659L60.459 41.7468C60.1905 41.2464 59.7693 40.9156 59.1864 40.7544C58.811 40.6487 58.4478 40.632 58.0999 40.6988C57.752 40.7655 57.4498 40.91 57.1934 41.1296C56.9371 41.3493 56.7509 41.63 56.638 41.9692C56.5251 42.3084 56.5068 42.6336 56.5861 42.9478C56.6655 43.2619 56.8272 43.5343 57.0744 43.7678C57.3216 44.0014 57.636 44.1682 58.0114 44.2738C58.5912 44.435 59.1467 44.3711 59.6777 44.0875L60.1447 44.8409C59.7968 45.0411 59.4122 45.1606 58.9911 45.2023C58.5699 45.2412 58.1334 45.1995 57.6848 45.0744V45.0689ZM63.627 42.4196C64.2435 42.5891 64.6708 42.856 64.9088 43.2146C65.1469 43.5732 65.1743 44.0264 64.9912 44.5685L64.2435 46.8064L63.3187 46.5506L63.4744 46.0863C63.2974 46.2198 63.0837 46.3004 62.8335 46.3254C62.5832 46.3532 62.2994 46.3226 61.985 46.2337C61.6707 46.1475 61.4143 46.0224 61.2098 45.8584C61.0084 45.6944 60.8711 45.5081 60.8009 45.2996C60.7307 45.0911 60.7337 44.8771 60.8039 44.6574C60.9199 44.3155 61.1488 44.0792 61.4998 43.9485C61.8477 43.8179 62.3238 43.8373 62.925 44.0041L64.0085 44.3044L64.0268 44.246C64.1153 43.9791 64.097 43.7512 63.9688 43.5593C63.8406 43.3675 63.6056 43.223 63.2607 43.1284C63.0257 43.0645 62.7816 43.0312 62.5313 43.0367C62.2811 43.0395 62.0583 43.0812 61.8629 43.1563L61.6951 42.4001C61.9667 42.3084 62.2689 42.2639 62.6046 42.2694C62.9403 42.275 63.2821 42.325 63.627 42.4196ZM62.4062 45.6415C62.6534 45.711 62.8884 45.7194 63.1143 45.6693C63.3401 45.6193 63.5232 45.5109 63.6636 45.3413L63.8101 44.8993L62.7969 44.6185C62.2322 44.4628 61.8935 44.5518 61.7805 44.891C61.7256 45.0522 61.7531 45.2023 61.8629 45.3358C61.9728 45.4692 62.1529 45.572 62.4031 45.6415H62.4062Z" fill="#273453"/>
<path d="M73.6253 45.6446L74.6569 42.5282L72.1024 44.6354L71.6751 44.5159L70.8267 41.508L69.8012 44.5826L68.8887 44.3296L70.4574 39.6315L71.2448 39.8511L72.255 43.5346L75.307 40.977L76.0944 41.1966L74.5318 45.8975L73.6253 45.6473V45.6446ZM80.9409 43.7542L79.9246 46.7955C79.5034 48.0576 78.5848 48.494 77.1687 48.1021C76.7902 47.9964 76.4454 47.8546 76.1371 47.6739C75.8258 47.4932 75.5908 47.2875 75.423 47.0623L76.0456 46.5453C76.1737 46.7232 76.3569 46.8872 76.5949 47.0373C76.833 47.1874 77.0863 47.3014 77.3548 47.3765C77.7882 47.496 78.1331 47.4932 78.3956 47.3709C78.658 47.2486 78.8473 47.0012 78.9724 46.6342L79.0365 46.4452C78.8259 46.5592 78.597 46.6231 78.3437 46.6426C78.0904 46.6593 77.8279 46.6315 77.5593 46.5564C77.187 46.4535 76.8726 46.2867 76.6193 46.0588C76.366 45.8308 76.1951 45.5584 76.1096 45.247C76.0242 44.9357 76.0364 44.6076 76.1493 44.2685C76.2622 43.9293 76.4515 43.6513 76.7139 43.4373C76.9764 43.2232 77.2816 43.087 77.6326 43.0286C77.9835 42.9702 78.3437 42.9897 78.7191 43.0953C79.0029 43.1732 79.2501 43.2899 79.4546 43.4373C79.6591 43.5874 79.8117 43.7709 79.9093 43.9877L80.068 43.5123L80.944 43.7542H80.9409ZM77.9347 45.8836C78.2826 45.9809 78.6031 45.9643 78.89 45.8364C79.1769 45.7085 79.3722 45.4917 79.4729 45.1886C79.5736 44.8884 79.5431 44.6132 79.3813 44.363C79.2196 44.1128 78.9663 43.9404 78.6153 43.8431C78.2613 43.7458 77.9408 43.7597 77.6539 43.8848C77.3671 44.0099 77.1748 44.224 77.0741 44.5242C76.9733 44.8273 77.0008 45.108 77.1626 45.3582C77.3213 45.6112 77.5807 45.7863 77.9347 45.8836Z" fill="#273453"/>
<path d="M3.41016 75.4688L6.19922 82.4297L8.98828 75.4688H10.4473V84H9.32227V80.6777L9.42773 77.0918L6.62695 84H5.76562L2.9707 77.1094L3.08203 80.6777V84H1.95703V75.4688H3.41016ZM16.3652 77.6602H17.4492V84H16.3652V79.377L13.4414 84H12.3574V77.6602H13.4414V82.2891L16.3652 77.6602ZM24.3691 84H23.2852V81.293H20.373V84H19.2832V77.6602H20.373V80.4082H23.2852V77.6602H24.3691V84ZM28.7461 84.1172C27.8867 84.1172 27.1875 83.8359 26.6484 83.2734C26.1094 82.707 25.8398 81.9512 25.8398 81.0059V80.8066C25.8398 80.1777 25.959 79.6172 26.1973 79.125C26.4395 78.6289 26.7754 78.2422 27.2051 77.9648C27.6387 77.6836 28.1074 77.543 28.6113 77.543C29.4355 77.543 30.0762 77.8145 30.5332 78.3574C30.9902 78.9004 31.2188 79.6777 31.2188 80.6895V81.1406H26.9238C26.9395 81.7656 27.1211 82.2715 27.4688 82.6582C27.8203 83.041 28.2656 83.2324 28.8047 83.2324C29.1875 83.2324 29.5117 83.1543 29.7773 82.998C30.043 82.8418 30.2754 82.6348 30.4746 82.377L31.1367 82.8926C30.6055 83.709 29.8086 84.1172 28.7461 84.1172ZM28.6113 78.4336C28.1738 78.4336 27.8066 78.5938 27.5098 78.9141C27.2129 79.2305 27.0293 79.6758 26.959 80.25H30.1348V80.168C30.1035 79.6172 29.9551 79.1914 29.6895 78.8906C29.4238 78.5859 29.0645 78.4336 28.6113 78.4336ZM37.834 80.9004C37.834 81.8652 37.6133 82.6426 37.1719 83.2324C36.7305 83.8223 36.1328 84.1172 35.3789 84.1172C34.6094 84.1172 34.0039 83.873 33.5625 83.3848V86.4375H32.4785V77.6602H33.4688L33.5215 78.3633C33.9629 77.8164 34.5762 77.543 35.3613 77.543C36.123 77.543 36.7246 77.8301 37.166 78.4043C37.6113 78.9785 37.834 79.7773 37.834 80.8008V80.9004ZM36.75 80.7773C36.75 80.0625 36.5977 79.498 36.293 79.084C35.9883 78.6699 35.5703 78.4629 35.0391 78.4629C34.3828 78.4629 33.8906 78.7539 33.5625 79.3359V82.3652C33.8867 82.9434 34.3828 83.2324 35.0508 83.2324C35.5703 83.2324 35.9824 83.0273 36.2871 82.6172C36.5957 82.2031 36.75 81.5898 36.75 80.7773ZM43.1309 84C43.0684 83.875 43.0176 83.6523 42.9785 83.332C42.4746 83.8555 41.873 84.1172 41.1738 84.1172C40.5488 84.1172 40.0352 83.9414 39.6328 83.5898C39.2344 83.2344 39.0352 82.7852 39.0352 82.2422C39.0352 81.582 39.2852 81.0703 39.7852 80.707C40.2891 80.3398 40.9961 80.1562 41.9062 80.1562H42.9609V79.6582C42.9609 79.2793 42.8477 78.9785 42.6211 78.7559C42.3945 78.5293 42.0605 78.416 41.6191 78.416C41.2324 78.416 40.9082 78.5137 40.6465 78.709C40.3848 78.9043 40.2539 79.1406 40.2539 79.418H39.1641C39.1641 79.1016 39.2754 78.7969 39.498 78.5039C39.7246 78.207 40.0293 77.9727 40.4121 77.8008C40.7988 77.6289 41.2227 77.543 41.6836 77.543C42.4141 77.543 42.9863 77.7266 43.4004 78.0938C43.8145 78.457 44.0293 78.959 44.0449 79.5996V82.5176C44.0449 83.0996 44.1191 83.5625 44.2676 83.9062V84H43.1309ZM41.332 83.1738C41.6719 83.1738 41.9941 83.0859 42.2988 82.9102C42.6035 82.7344 42.8242 82.5059 42.9609 82.2246V80.9238H42.1113C40.7832 80.9238 40.1191 81.3125 40.1191 82.0898C40.1191 82.4297 40.2324 82.6953 40.459 82.8867C40.6855 83.0781 40.9766 83.1738 41.332 83.1738ZM50.9414 77.6602V84H49.8516V78.5566H47.6953L47.5664 80.9297C47.4961 82.0195 47.3125 82.7988 47.0156 83.2676C46.7227 83.7363 46.2559 83.9805 45.6152 84H45.1816V83.0449L45.4922 83.0215C45.8438 82.9824 46.0957 82.7793 46.248 82.4121C46.4004 82.0449 46.498 81.3652 46.541 80.373L46.6582 77.6602H50.9414ZM56.7832 77.6602H57.8672V84H56.7832V79.377L53.8594 84H52.7754V77.6602H53.8594V82.2891L56.7832 77.6602ZM63.0938 79.3945C63.0938 79.0977 62.9805 78.8633 62.7539 78.6914C62.5273 78.5156 62.2168 78.4277 61.8223 78.4277C61.4395 78.4277 61.1191 78.5273 60.8613 78.7266C60.6074 78.9258 60.4805 79.1602 60.4805 79.4297H59.4023C59.4023 78.8789 59.6328 78.4277 60.0938 78.0762C60.5547 77.7246 61.1309 77.5488 61.8223 77.5488C62.5645 77.5488 63.1426 77.709 63.5566 78.0293C63.9707 78.3457 64.1777 78.7988 64.1777 79.3887C64.1777 79.6738 64.0918 79.9355 63.9199 80.1738C63.748 80.4121 63.5039 80.6016 63.1875 80.7422C63.9258 80.9922 64.2949 81.4844 64.2949 82.2188C64.2949 82.8008 64.0703 83.2617 63.6211 83.6016C63.1719 83.9414 62.5723 84.1113 61.8223 84.1113C61.0918 84.1113 60.4883 83.9336 60.0117 83.5781C59.5391 83.2188 59.3027 82.7344 59.3027 82.125H60.3809C60.3809 82.4336 60.5176 82.6992 60.791 82.9219C61.0684 83.1406 61.4121 83.25 61.8223 83.25C62.2363 83.25 62.5703 83.1543 62.8242 82.9629C63.0781 82.7715 63.2051 82.5234 63.2051 82.2188C63.2051 81.8633 63.0977 81.6094 62.8828 81.457C62.6719 81.3008 62.3418 81.2227 61.8926 81.2227H60.8086V80.3086H61.9863C62.7246 80.2891 63.0938 79.9844 63.0938 79.3945ZM69.6152 84C69.5527 83.875 69.502 83.6523 69.4629 83.332C68.959 83.8555 68.3574 84.1172 67.6582 84.1172C67.0332 84.1172 66.5195 83.9414 66.1172 83.5898C65.7188 83.2344 65.5195 82.7852 65.5195 82.2422C65.5195 81.582 65.7695 81.0703 66.2695 80.707C66.7734 80.3398 67.4805 80.1562 68.3906 80.1562H69.4453V79.6582C69.4453 79.2793 69.332 78.9785 69.1055 78.7559C68.8789 78.5293 68.5449 78.416 68.1035 78.416C67.7168 78.416 67.3926 78.5137 67.1309 78.709C66.8691 78.9043 66.7383 79.1406 66.7383 79.418H65.6484C65.6484 79.1016 65.7598 78.7969 65.9824 78.5039C66.209 78.207 66.5137 77.9727 66.8965 77.8008C67.2832 77.6289 67.707 77.543 68.168 77.543C68.8984 77.543 69.4707 77.7266 69.8848 78.0938C70.2988 78.457 70.5137 78.959 70.5293 79.5996V82.5176C70.5293 83.0996 70.6035 83.5625 70.752 83.9062V84H69.6152ZM67.8164 83.1738C68.1562 83.1738 68.4785 83.0859 68.7832 82.9102C69.0879 82.7344 69.3086 82.5059 69.4453 82.2246V80.9238H68.5957C67.2676 80.9238 66.6035 81.3125 66.6035 82.0898C66.6035 82.4297 66.7168 82.6953 66.9434 82.8867C67.1699 83.0781 67.4609 83.1738 67.8164 83.1738ZM72.3223 77.6602H73.4121V83.1152H76.3301V77.6602H77.4141V83.1152H78.1699L78.0645 85.8809H77.0918V84H72.3223V77.6602ZM83.4434 77.6602H84.5273V84H83.4434V79.377L80.5195 84H79.4355V77.6602H80.5195V82.2891L83.4434 77.6602ZM91.1133 77.6602V84H90.0234V81.5332H88.3887L86.8945 84H85.7227L87.3164 81.3691C86.9102 81.2207 86.5977 80.9922 86.3789 80.6836C86.1641 80.3711 86.0566 80.0078 86.0566 79.5938C86.0566 79.0156 86.2734 78.5508 86.707 78.1992C87.1406 77.8438 87.7207 77.6641 88.4473 77.6602H91.1133ZM87.1465 79.6055C87.1465 79.9141 87.252 80.1641 87.4629 80.3555C87.6738 80.543 87.9531 80.6387 88.3008 80.6426H90.0234V78.5391H88.4648C88.0625 78.5391 87.7422 78.6387 87.5039 78.8379C87.2656 79.0332 87.1465 79.2891 87.1465 79.6055Z" fill="#273453"/>
</svg>
