<svg width="84" height="90" viewBox="0 0 84 90" fill="none" xmlns="http://www.w3.org/2000/svg">
<path fill-rule="evenodd" clip-rule="evenodd" d="M0.898825 20.5916C2.57492 18.7075 4.62847 17.2651 7.13302 16.3558C13.2649 14.1296 21.172 15.6347 27.4733 16.6295C35.454 17.8865 43.1372 18.9212 51.2138 17.5046C55.4872 16.7549 59.8982 16.487 64.034 15.1929L66.0108 14.5743L83.9137 48.0557L81.0861 48.64C72.0595 50.5042 63.8581 51.938 54.6588 50.4672C41.0357 48.2866 31.4812 49.4096 17.6886 51.5019L15.9421 51.767L0 21.6035L0.898825 20.5916ZM2.72846 21.8829C12.3692 11.0426 30.608 23.2397 51.6648 19.5426C55.9446 18.793 60.426 18.525 64.8081 17.154L80.5583 46.6133C47.0332 53.5428 61.9421 42.6797 17.2952 49.4495L2.72526 21.88L2.72846 21.8829Z" fill="#273453"/>
<path fill-rule="evenodd" clip-rule="evenodd" d="M62.0479 22.4243C62.4062 22.4243 62.7005 22.6837 62.7005 23.0058C62.7005 23.325 62.4094 23.5873 62.0479 23.5873C61.6897 23.5873 61.3954 23.3279 61.3954 23.0058C61.3954 22.6865 61.6865 22.4243 62.0479 22.4243Z" fill="#273453"/>
<path fill-rule="evenodd" clip-rule="evenodd" d="M56.9208 26.1728C57.279 26.1728 57.5733 26.4322 57.5733 26.7543C57.5733 27.0736 57.2822 27.3358 56.9208 27.3358C56.5625 27.3358 56.2682 27.0764 56.2682 26.7543C56.2682 26.4351 56.5593 26.1728 56.9208 26.1728Z" fill="#273453"/>
<path fill-rule="evenodd" clip-rule="evenodd" d="M64.6965 29.1623C65.0548 29.1623 65.3491 29.4217 65.3491 29.7438C65.3491 30.0631 65.058 30.3253 64.6965 30.3253C64.3383 30.3253 64.044 30.0659 64.044 29.7438C64.044 29.4246 64.3351 29.1623 64.6965 29.1623Z" fill="#273453"/>
<path fill-rule="evenodd" clip-rule="evenodd" d="M67.7928 24.8069C68.1511 24.8069 68.4454 25.0663 68.4454 25.3884C68.4454 25.7077 68.1543 25.9699 67.7928 25.9699C67.4346 25.9699 67.1403 25.7105 67.1403 25.3884C67.1403 25.0692 67.4314 24.8069 67.7928 24.8069Z" fill="#273453"/>
<path fill-rule="evenodd" clip-rule="evenodd" d="M55.1264 31.4576C55.4846 31.4576 55.7789 31.717 55.7789 32.0391C55.7789 32.3584 55.4878 32.6206 55.1264 32.6206C54.7681 32.6206 54.4738 32.3612 54.4738 32.0391C54.4738 31.7199 54.7649 31.4576 55.1264 31.4576Z" fill="#273453"/>
<path fill-rule="evenodd" clip-rule="evenodd" d="M48.5207 32.8257C48.879 32.8257 49.1733 33.0851 49.1733 33.4072C49.1733 33.7265 48.8822 33.9887 48.5207 33.9887C48.1625 33.9887 47.8682 33.7293 47.8682 33.4072C47.8682 33.088 48.1593 32.8257 48.5207 32.8257Z" fill="#273453"/>
<path fill-rule="evenodd" clip-rule="evenodd" d="M60.7969 34.958C61.1552 34.958 61.4495 35.2174 61.4495 35.5395C61.4495 35.8587 61.1584 36.121 60.7969 36.121C60.4387 36.121 60.1444 35.8616 60.1444 35.5395C60.1444 35.2202 60.4355 34.958 60.7969 34.958Z" fill="#273453"/>
<path fill-rule="evenodd" clip-rule="evenodd" d="M69.2228 32.7543C69.5811 32.7543 69.8754 33.0137 69.8754 33.3358C69.8754 33.655 69.5843 33.9173 69.2228 33.9173C68.8646 33.9173 68.5703 33.6579 68.5703 33.3358C68.5703 33.0165 68.8614 32.7543 69.2228 32.7543Z" fill="#273453"/>
<path fill-rule="evenodd" clip-rule="evenodd" d="M66.8811 38.2015C67.2394 38.2015 67.5337 38.4608 67.5337 38.7829C67.5337 39.1022 67.2426 39.3644 66.8811 39.3644C66.5229 39.3644 66.2286 39.105 66.2286 38.7829C66.2286 38.4637 66.5197 38.2015 66.8811 38.2015Z" fill="#273453"/>
<path fill-rule="evenodd" clip-rule="evenodd" d="M71.3557 43.3008C71.714 43.3008 72.0082 43.5602 72.0082 43.8823C72.0082 44.2015 71.7172 44.4638 71.3557 44.4638C70.9975 44.4638 70.7032 44.2044 70.7032 43.8823C70.7032 43.563 70.9943 43.3008 71.3557 43.3008Z" fill="#273453"/>
<path fill-rule="evenodd" clip-rule="evenodd" d="M74.1645 37.2497C74.5228 37.2497 74.8171 37.5091 74.8171 37.8312C74.8171 38.1504 74.526 38.4127 74.1645 38.4127C73.8063 38.4127 73.512 38.1533 73.512 37.8312C73.512 37.5119 73.8031 37.2497 74.1645 37.2497Z" fill="#273453"/>
<path fill-rule="evenodd" clip-rule="evenodd" d="M78.2205 45.0622C78.5787 45.0622 78.873 45.3216 78.873 45.6437C78.873 45.9629 78.5819 46.2251 78.2205 46.2251C77.8622 46.2251 77.5679 45.9658 77.5679 45.6437C77.5679 45.3244 77.859 45.0622 78.2205 45.0622Z" fill="#273453"/>
<path fill-rule="evenodd" clip-rule="evenodd" d="M65.7168 46.7499C66.075 46.7499 66.3693 47.0093 66.3693 47.3314C66.3693 47.6506 66.0782 47.9129 65.7168 47.9129C65.3585 47.9129 65.0642 47.6535 65.0642 47.3314C65.0642 47.0121 65.3553 46.7499 65.7168 46.7499Z" fill="#273453"/>
<path fill-rule="evenodd" clip-rule="evenodd" d="M61.1078 42.6507C61.4661 42.6507 61.7604 42.9101 61.7604 43.2322C61.7604 43.5514 61.4693 43.8137 61.1078 43.8137C60.7496 43.8137 60.4553 43.5543 60.4553 43.2322C60.4553 42.9129 60.7464 42.6507 61.1078 42.6507Z" fill="#273453"/>
<path fill-rule="evenodd" clip-rule="evenodd" d="M54.0867 38.156C54.445 38.156 54.7392 38.4154 54.7392 38.7375C54.7392 39.0567 54.4482 39.319 54.0867 39.319C53.7285 39.319 53.4342 39.0596 53.4342 38.7375C53.4342 38.4182 53.7253 38.156 54.0867 38.156Z" fill="#273453"/>
<path fill-rule="evenodd" clip-rule="evenodd" d="M54.243 44.5037C54.6013 44.5037 54.8956 44.7631 54.8956 45.0852C54.8956 45.4044 54.6045 45.6666 54.243 45.6666C53.8848 45.6666 53.5905 45.4073 53.5905 45.0852C53.5905 44.7659 53.8816 44.5037 54.243 44.5037Z" fill="#273453"/>
<path fill-rule="evenodd" clip-rule="evenodd" d="M47.4365 41.3598C47.7948 41.3598 48.089 41.6191 48.089 41.9412C48.089 42.2605 47.798 42.5227 47.4365 42.5227C47.0783 42.5227 46.784 42.2633 46.784 41.9412C46.784 41.622 47.0751 41.3598 47.4365 41.3598Z" fill="#273453"/>
<path fill-rule="evenodd" clip-rule="evenodd" d="M43.528 36.6248C43.8862 36.6248 44.1805 36.8842 44.1805 37.2063C44.1805 37.5256 43.8894 37.7878 43.528 37.7878C43.1697 37.7878 42.8755 37.5284 42.8755 37.2063C42.8755 36.8871 43.1665 36.6248 43.528 36.6248Z" fill="#273453"/>
<path fill-rule="evenodd" clip-rule="evenodd" d="M36.3498 32.4065C36.7081 32.4065 37.0023 32.6659 37.0023 32.988C37.0023 33.3073 36.7113 33.5695 36.3498 33.5695C35.9916 33.5695 35.6973 33.3101 35.6973 32.988C35.6973 32.6687 35.9884 32.4065 36.3498 32.4065Z" fill="#273453"/>
<path fill-rule="evenodd" clip-rule="evenodd" d="M36.4551 38.8516C36.8134 38.8516 37.1077 39.111 37.1077 39.4331C37.1077 39.7523 36.8166 40.0146 36.4551 40.0146C36.0969 40.0146 35.8026 39.7552 35.8026 39.4331C35.8026 39.1138 36.0937 38.8516 36.4551 38.8516Z" fill="#273453"/>
<path fill-rule="evenodd" clip-rule="evenodd" d="M40.8762 44.1335C41.2344 44.1335 41.5287 44.3929 41.5287 44.715C41.5287 45.0342 41.2376 45.2965 40.8762 45.2965C40.5179 45.2965 40.2236 45.0371 40.2236 44.715C40.2236 44.3957 40.5147 44.1335 40.8762 44.1335Z" fill="#273453"/>
<path fill-rule="evenodd" clip-rule="evenodd" d="M58.5168 19.3114C58.875 19.3114 59.1693 19.5708 59.1693 19.8929C59.1693 20.2122 58.8782 20.4744 58.5168 20.4744C58.1585 20.4744 57.8642 20.215 57.8642 19.8929C57.8642 19.5737 58.1553 19.3114 58.5168 19.3114Z" fill="#273453"/>
<path fill-rule="evenodd" clip-rule="evenodd" d="M23.1296 19.3114C23.4878 19.3114 23.7821 19.5708 23.7821 19.8929C23.7821 20.2122 23.491 20.4744 23.1296 20.4744C22.7713 20.4744 22.4771 20.215 22.4771 19.8929C22.4771 19.5737 22.7681 19.3114 23.1296 19.3114Z" fill="#273453"/>
<path fill-rule="evenodd" clip-rule="evenodd" d="M26.2072 25.7277C26.5655 25.7277 26.8598 25.987 26.8598 26.3091C26.8598 26.6284 26.5687 26.8906 26.2072 26.8906C25.849 26.8906 25.5547 26.6312 25.5547 26.3091C25.5547 25.9899 25.8458 25.7277 26.2072 25.7277Z" fill="#273453"/>
<path fill-rule="evenodd" clip-rule="evenodd" d="M19.3935 23.9721C19.7517 23.9721 20.046 24.2315 20.046 24.5536C20.046 24.8728 19.7549 25.135 19.3935 25.135C19.0352 25.135 18.741 24.8757 18.741 24.5536C18.741 24.2343 19.032 23.9721 19.3935 23.9721Z" fill="#273453"/>
<path fill-rule="evenodd" clip-rule="evenodd" d="M13.9846 18.9182C14.3428 18.9182 14.6371 19.1776 14.6371 19.4997C14.6371 19.8189 14.346 20.0812 13.9846 20.0812C13.6263 20.0812 13.3321 19.8218 13.3321 19.4997C13.3321 19.1804 13.6231 18.9182 13.9846 18.9182Z" fill="#273453"/>
<path fill-rule="evenodd" clip-rule="evenodd" d="M10.706 27.401C11.0643 27.401 11.3586 27.6604 11.3586 27.9825C11.3586 28.3017 11.0675 28.564 10.706 28.564C10.3478 28.564 10.0535 28.3046 10.0535 27.9825C10.0535 27.6632 10.3446 27.401 10.706 27.401Z" fill="#273453"/>
<path fill-rule="evenodd" clip-rule="evenodd" d="M6.59915 21.4696C6.9574 21.4696 7.25168 21.729 7.25168 22.0511C7.25168 22.3704 6.9606 22.6326 6.59915 22.6326C6.2409 22.6326 5.94662 22.3732 5.94662 22.0511C5.94662 21.7319 6.2377 21.4696 6.59915 21.4696Z" fill="#273453"/>
<path fill-rule="evenodd" clip-rule="evenodd" d="M12.0591 23.091C12.4173 23.091 12.7116 23.3504 12.7116 23.6725C12.7116 23.9918 12.4205 24.254 12.0591 24.254C11.7008 24.254 11.4066 23.9946 11.4066 23.6725C11.4066 23.3533 11.6976 23.091 12.0591 23.091Z" fill="#273453"/>
<path fill-rule="evenodd" clip-rule="evenodd" d="M16.8445 29.4877C17.2028 29.4877 17.4971 29.7471 17.4971 30.0692C17.4971 30.3885 17.206 30.6507 16.8445 30.6507C16.4863 30.6507 16.192 30.3913 16.192 30.0692C16.192 29.75 16.4831 29.4877 16.8445 29.4877Z" fill="#273453"/>
<path fill-rule="evenodd" clip-rule="evenodd" d="M23.1296 29.8211C23.4878 29.8211 23.7821 30.0805 23.7821 30.4026C23.7821 30.7219 23.491 30.9841 23.1296 30.9841C22.7713 30.9841 22.4771 30.7247 22.4771 30.4026C22.4771 30.0834 22.7681 29.8211 23.1296 29.8211Z" fill="#273453"/>
<path fill-rule="evenodd" clip-rule="evenodd" d="M12.5262 33.5408C12.8845 33.5408 13.1788 33.8002 13.1788 34.1223C13.1788 34.4416 12.8877 34.7038 12.5262 34.7038C12.168 34.7038 11.8737 34.4444 11.8737 34.1223C11.8737 33.8031 12.1648 33.5408 12.5262 33.5408Z" fill="#273453"/>
<path fill-rule="evenodd" clip-rule="evenodd" d="M20.5805 37.4207C20.9388 37.4207 21.2331 37.6801 21.2331 38.0022C21.2331 38.3214 20.942 38.5837 20.5805 38.5837C20.2223 38.5837 19.928 38.3243 19.928 38.0022C19.928 37.6829 20.2191 37.4207 20.5805 37.4207Z" fill="#273453"/>
<path fill-rule="evenodd" clip-rule="evenodd" d="M26.562 33.7118C26.9202 33.7118 27.2145 33.9712 27.2145 34.2933C27.2145 34.6126 26.9234 34.8748 26.562 34.8748C26.2037 34.8748 25.9095 34.6154 25.9095 34.2933C25.9095 33.9741 26.2005 33.7118 26.562 33.7118Z" fill="#273453"/>
<path fill-rule="evenodd" clip-rule="evenodd" d="M27.566 39.1821C27.9243 39.1821 28.2186 39.4414 28.2186 39.7635C28.2186 40.0828 27.9275 40.345 27.566 40.345C27.2078 40.345 26.9135 40.0856 26.9135 39.7635C26.9135 39.4443 27.2046 39.1821 27.566 39.1821Z" fill="#273453"/>
<path fill-rule="evenodd" clip-rule="evenodd" d="M16.2817 40.7125C16.64 40.7125 16.9343 40.9719 16.9343 41.294C16.9343 41.6133 16.6432 41.8755 16.2817 41.8755C15.9235 41.8755 15.6292 41.6161 15.6292 41.294C15.6292 40.9748 15.9203 40.7125 16.2817 40.7125Z" fill="#273453"/>
<path fill-rule="evenodd" clip-rule="evenodd" d="M19.6462 45.3334C20.0044 45.3334 20.2987 45.5928 20.2987 45.9149C20.2987 46.2342 20.0076 46.4964 19.6462 46.4964C19.2879 46.4964 18.9936 46.237 18.9936 45.9149C18.9936 45.5957 19.2847 45.3334 19.6462 45.3334Z" fill="#273453"/>
<path fill-rule="evenodd" clip-rule="evenodd" d="M30.6818 44.4127C31.0401 44.4127 31.3343 44.6721 31.3343 44.9942C31.3343 45.3135 31.0433 45.5757 30.6818 45.5757C30.3236 45.5757 30.0293 45.3163 30.0293 44.9942C30.0293 44.675 30.3204 44.4127 30.6818 44.4127Z" fill="#273453"/>
<path fill-rule="evenodd" clip-rule="evenodd" d="M52.8835 19.3631L52.6564 18.5707C52.1734 16.8918 50.6668 14.4689 49.6273 12.7985C48.5493 11.0654 46.4702 8.19789 45.8912 7.28575C43.8313 4.04479 42.9261 1.5592 42.1968 0.37911C42.04 0.12827 42.0432 0.142522 41.8993 0C40.6998 4.15025 36.951 8.89625 34.7791 12.2028C32.2201 16.0965 29.0183 20.9023 32.0154 26.2441C37.5427 36.0924 55.3209 32.0134 52.8835 19.3602V19.3631Z" fill="#4683C9"/>
<path fill-rule="evenodd" clip-rule="evenodd" d="M41.666 6.02872C41.0263 9.38655 38.9439 12.6218 37.7796 15.8286C35.8444 21.156 38.2018 22.9347 36.8872 24.263C35.3646 25.8023 32.2107 23.8383 33.7749 18.85C34.5426 16.4101 37.4214 12.6646 39.0367 10.3443C39.9963 8.96183 40.8247 7.1974 41.666 6.03157V6.02872Z" fill="white"/>
<path d="M21.1113 71.0098C21.1113 71.8457 20.9707 72.5762 20.6895 73.2012C20.4082 73.8223 20.0098 74.2969 19.4941 74.625C18.9785 74.9531 18.377 75.1172 17.6895 75.1172C17.0176 75.1172 16.4219 74.9531 15.9023 74.625C15.3828 74.293 14.9785 73.8223 14.6895 73.2129C14.4043 72.5996 14.2578 71.8906 14.25 71.0859V70.4707C14.25 69.6504 14.3926 68.9258 14.6777 68.2969C14.9629 67.668 15.3652 67.1875 15.8848 66.8555C16.4082 66.5195 17.0059 66.3516 17.6777 66.3516C18.3613 66.3516 18.9629 66.5176 19.4824 66.8496C20.0059 67.1777 20.4082 67.6562 20.6895 68.2852C20.9707 68.9102 21.1113 69.6387 21.1113 70.4707V71.0098ZM19.9922 70.459C19.9922 69.4473 19.7891 68.6719 19.3828 68.1328C18.9766 67.5898 18.4082 67.3184 17.6777 67.3184C16.9668 67.3184 16.4062 67.5898 15.9961 68.1328C15.5898 68.6719 15.3809 69.4219 15.3691 70.3828V71.0098C15.3691 71.9902 15.5742 72.7617 15.9844 73.3242C16.3984 73.8828 16.9668 74.1621 17.6895 74.1621C18.416 74.1621 18.9785 73.8984 19.377 73.3711C19.7754 72.8398 19.9805 72.0801 19.9922 71.0918V70.459ZM25.4121 69.0234C26.209 69.0234 26.8457 69.291 27.3223 69.8262C27.8027 70.3574 28.043 71.0586 28.043 71.9297V72.0293C28.043 72.627 27.9277 73.1621 27.6973 73.6348C27.4668 74.1035 27.1348 74.4688 26.7012 74.7305C26.2715 74.9883 25.7754 75.1172 25.2129 75.1172C24.3613 75.1172 23.6758 74.834 23.1562 74.2676C22.6367 73.6973 22.377 72.9336 22.377 71.9766V71.4492C22.377 70.1172 22.623 69.0586 23.1152 68.2734C23.6113 67.4883 24.3418 67.0098 25.3066 66.8379C25.8535 66.7402 26.2227 66.6211 26.4141 66.4805C26.6055 66.3398 26.7012 66.1465 26.7012 65.9004H27.5918C27.5918 66.3887 27.4805 66.7695 27.2578 67.043C27.0391 67.3164 26.6875 67.5098 26.2031 67.623L25.3945 67.8047C24.75 67.957 24.2656 68.2148 23.9414 68.5781C23.6211 68.9375 23.4121 69.418 23.3145 70.0195C23.8887 69.3555 24.5879 69.0234 25.4121 69.0234ZM25.2012 69.9141C24.6699 69.9141 24.248 70.0938 23.9355 70.4531C23.623 70.8086 23.4668 71.3027 23.4668 71.9355V72.0293C23.4668 72.709 23.623 73.248 23.9355 73.6465C24.252 74.041 24.6777 74.2383 25.2129 74.2383C25.752 74.2383 26.1777 74.0391 26.4902 73.6406C26.8027 73.2422 26.959 72.6602 26.959 71.8945C26.959 71.2969 26.8008 70.8184 26.4844 70.459C26.1719 70.0957 25.7441 69.9141 25.2012 69.9141ZM34.5117 71.9004C34.5117 72.8652 34.291 73.6426 33.8496 74.2324C33.4082 74.8223 32.8105 75.1172 32.0566 75.1172C31.2871 75.1172 30.6816 74.873 30.2402 74.3848V77.4375H29.1562V68.6602H30.1465L30.1992 69.3633C30.6406 68.8164 31.2539 68.543 32.0391 68.543C32.8008 68.543 33.4023 68.8301 33.8438 69.4043C34.2891 69.9785 34.5117 70.7773 34.5117 71.8008V71.9004ZM33.4277 71.7773C33.4277 71.0625 33.2754 70.498 32.9707 70.084C32.666 69.6699 32.248 69.4629 31.7168 69.4629C31.0605 69.4629 30.5684 69.7539 30.2402 70.3359V73.3652C30.5645 73.9434 31.0605 74.2324 31.7285 74.2324C32.248 74.2324 32.6602 74.0273 32.9648 73.6172C33.2734 73.2031 33.4277 72.5898 33.4277 71.7773ZM39.8086 75C39.7461 74.875 39.6953 74.6523 39.6562 74.332C39.1523 74.8555 38.5508 75.1172 37.8516 75.1172C37.2266 75.1172 36.7129 74.9414 36.3105 74.5898C35.9121 74.2344 35.7129 73.7852 35.7129 73.2422C35.7129 72.582 35.9629 72.0703 36.4629 71.707C36.9668 71.3398 37.6738 71.1562 38.584 71.1562H39.6387V70.6582C39.6387 70.2793 39.5254 69.9785 39.2988 69.7559C39.0723 69.5293 38.7383 69.416 38.2969 69.416C37.9102 69.416 37.5859 69.5137 37.3242 69.709C37.0625 69.9043 36.9316 70.1406 36.9316 70.418H35.8418C35.8418 70.1016 35.9531 69.7969 36.1758 69.5039C36.4023 69.207 36.707 68.9727 37.0898 68.8008C37.4766 68.6289 37.9004 68.543 38.3613 68.543C39.0918 68.543 39.6641 68.7266 40.0781 69.0938C40.4922 69.457 40.707 69.959 40.7227 70.5996V73.5176C40.7227 74.0996 40.7969 74.5625 40.9453 74.9062V75H39.8086ZM38.0098 74.1738C38.3496 74.1738 38.6719 74.0859 38.9766 73.9102C39.2812 73.7344 39.502 73.5059 39.6387 73.2246V71.9238H38.7891C37.4609 71.9238 36.7969 72.3125 36.7969 73.0898C36.7969 73.4297 36.9102 73.6953 37.1367 73.8867C37.3633 74.0781 37.6543 74.1738 38.0098 74.1738ZM47.0391 69.5391H44.9121V75H43.8281V69.5391H41.7422V68.6602H47.0391V69.5391ZM53.2734 75H52.1895V72.293H49.2773V75H48.1875V68.6602H49.2773V71.4082H52.1895V68.6602H53.2734V75ZM56.2031 70.8457H57.8496C58.5684 70.8535 59.1367 71.041 59.5547 71.4082C59.9727 71.7754 60.1816 72.2734 60.1816 72.9023C60.1816 73.5352 59.9668 74.043 59.5371 74.4258C59.1074 74.8086 58.5293 75 57.8027 75H55.1191V68.6602H56.2031V70.8457ZM62.4434 75H61.3535V68.6602H62.4434V75ZM56.2031 71.7305V74.1152H57.8145C58.2207 74.1152 58.5352 74.0117 58.7578 73.8047C58.9805 73.5938 59.0918 73.3066 59.0918 72.9434C59.0918 72.5918 58.9824 72.3047 58.7637 72.082C58.5488 71.8555 58.2461 71.7383 57.8555 71.7305H56.2031ZM68.4375 68.6602H69.5215V75H68.4375V70.377L65.5137 75H64.4297V68.6602H65.5137V73.2891L68.4375 68.6602ZM68.7305 66.3516C68.7305 66.8242 68.5684 67.2051 68.2441 67.4941C67.9238 67.7793 67.502 67.9219 66.9785 67.9219C66.4551 67.9219 66.0312 67.7773 65.707 67.4883C65.3828 67.1992 65.2207 66.8203 65.2207 66.3516H66.1055C66.1055 66.625 66.1797 66.8398 66.3281 66.9961C66.4766 67.1484 66.6934 67.2246 66.9785 67.2246C67.252 67.2246 67.4648 67.1484 67.6172 66.9961C67.7734 66.8438 67.8516 66.6289 67.8516 66.3516H68.7305ZM24.9551 85.7715C24.9551 85.1504 25.0762 84.5918 25.3184 84.0957C25.5645 83.5996 25.9043 83.2168 26.3379 82.9473C26.7754 82.6777 27.2734 82.543 27.832 82.543C28.6953 82.543 29.3926 82.8418 29.9238 83.4395C30.459 84.0371 30.7266 84.832 30.7266 85.8242V85.9004C30.7266 86.5176 30.6074 87.0723 30.3691 87.5645C30.1348 88.0527 29.7969 88.4336 29.3555 88.707C28.918 88.9805 28.4141 89.1172 27.8438 89.1172C26.9844 89.1172 26.2871 88.8184 25.752 88.2207C25.2207 87.623 24.9551 86.832 24.9551 85.8477V85.7715ZM26.0449 85.9004C26.0449 86.6035 26.207 87.168 26.5312 87.5938C26.8594 88.0195 27.2969 88.2324 27.8438 88.2324C28.3945 88.2324 28.832 88.0176 29.1562 87.5879C29.4805 87.1543 29.6426 86.5488 29.6426 85.7715C29.6426 85.0762 29.4766 84.5137 29.1445 84.084C28.8164 83.6504 28.3789 83.4336 27.832 83.4336C27.2969 83.4336 26.8652 83.6465 26.5371 84.0723C26.209 84.498 26.0449 85.1074 26.0449 85.9004ZM34.6289 88.2324C35.0156 88.2324 35.3535 88.1152 35.6426 87.8809C35.9316 87.6465 36.0918 87.3535 36.123 87.002H37.1484C37.1289 87.3652 37.0039 87.7109 36.7734 88.0391C36.543 88.3672 36.2344 88.6289 35.8477 88.8242C35.4648 89.0195 35.0586 89.1172 34.6289 89.1172C33.7656 89.1172 33.0781 88.8301 32.5664 88.2559C32.0586 87.6777 31.8047 86.8887 31.8047 85.8887V85.707C31.8047 85.0898 31.918 84.541 32.1445 84.0605C32.3711 83.5801 32.6953 83.207 33.1172 82.9414C33.543 82.6758 34.0449 82.543 34.623 82.543C35.334 82.543 35.9238 82.7559 36.3926 83.1816C36.8652 83.6074 37.1172 84.1602 37.1484 84.8398H36.123C36.0918 84.4297 35.9355 84.0938 35.6543 83.832C35.377 83.5664 35.0332 83.4336 34.623 83.4336C34.0723 83.4336 33.6445 83.6328 33.3398 84.0312C33.0391 84.4258 32.8887 84.998 32.8887 85.748V85.9531C32.8887 86.6836 33.0391 87.2461 33.3398 87.6406C33.6406 88.0352 34.0703 88.2324 34.6289 88.2324ZM42.0176 87.5645L44.1738 82.6602H45.5273V89H44.4434V84.3887L42.3926 89H41.6426L39.5508 84.2891V89H38.4668V82.6602H39.873L42.0176 87.5645ZM46.9863 85.7715C46.9863 85.1504 47.1074 84.5918 47.3496 84.0957C47.5957 83.5996 47.9355 83.2168 48.3691 82.9473C48.8066 82.6777 49.3047 82.543 49.8633 82.543C50.7266 82.543 51.4238 82.8418 51.9551 83.4395C52.4902 84.0371 52.7578 84.832 52.7578 85.8242V85.9004C52.7578 86.5176 52.6387 87.0723 52.4004 87.5645C52.166 88.0527 51.8281 88.4336 51.3867 88.707C50.9492 88.9805 50.4453 89.1172 49.875 89.1172C49.0156 89.1172 48.3184 88.8184 47.7832 88.2207C47.252 87.623 46.9863 86.832 46.9863 85.8477V85.7715ZM48.0762 85.9004C48.0762 86.6035 48.2383 87.168 48.5625 87.5938C48.8906 88.0195 49.3281 88.2324 49.875 88.2324C50.4258 88.2324 50.8633 88.0176 51.1875 87.5879C51.5117 87.1543 51.6738 86.5488 51.6738 85.7715C51.6738 85.0762 51.5078 84.5137 51.1758 84.084C50.8477 83.6504 50.4102 83.4336 49.8633 83.4336C49.3281 83.4336 48.8965 83.6465 48.5684 84.0723C48.2402 84.498 48.0762 85.1074 48.0762 85.9004ZM56.6602 88.2324C57.0469 88.2324 57.3848 88.1152 57.6738 87.8809C57.9629 87.6465 58.123 87.3535 58.1543 87.002H59.1797C59.1602 87.3652 59.0352 87.7109 58.8047 88.0391C58.5742 88.3672 58.2656 88.6289 57.8789 88.8242C57.4961 89.0195 57.0898 89.1172 56.6602 89.1172C55.7969 89.1172 55.1094 88.8301 54.5977 88.2559C54.0898 87.6777 53.8359 86.8887 53.8359 85.8887V85.707C53.8359 85.0898 53.9492 84.541 54.1758 84.0605C54.4023 83.5801 54.7266 83.207 55.1484 82.9414C55.5742 82.6758 56.0762 82.543 56.6543 82.543C57.3652 82.543 57.9551 82.7559 58.4238 83.1816C58.8965 83.6074 59.1484 84.1602 59.1797 84.8398H58.1543C58.123 84.4297 57.9668 84.0938 57.6855 83.832C57.4082 83.5664 57.0645 83.4336 56.6543 83.4336C56.1035 83.4336 55.6758 83.6328 55.3711 84.0312C55.0703 84.4258 54.9199 84.998 54.9199 85.748V85.9531C54.9199 86.6836 55.0703 87.2461 55.3711 87.6406C55.6719 88.0352 56.1016 88.2324 56.6602 88.2324Z" fill="#273453"/>
</svg>
