<svg width="85" height="94" viewBox="0 0 85 94" fill="none" xmlns="http://www.w3.org/2000/svg">
<path fill-rule="evenodd" clip-rule="evenodd" d="M1.9011 23.2511C3.57594 21.3973 5.62968 19.9762 8.13238 19.0828C14.2618 16.8939 22.1711 18.3736 28.4724 19.3508C36.4518 20.5876 44.1382 21.6067 52.213 20.2135C56.4861 19.4736 60.8993 19.2112 65.0322 17.9381L67.0096 17.3294L84.9137 50.2741L82.0863 50.8492C73.0593 52.6835 64.8603 54.0935 55.6582 52.6445C42.0367 50.4975 32.4812 51.6059 18.6877 53.6635L16.9396 53.9232L1 24.245L1.89792 23.2511H1.9011ZM3.73196 24.5214C13.3702 13.8563 31.6119 25.856 52.6684 22.2209C56.9478 21.481 61.431 21.2186 65.8091 19.8701L81.5609 48.8558C48.0355 55.6737 62.9466 44.9834 18.2992 51.6477L3.73196 24.5214Z" fill="#273453" stroke="#273453" stroke-width="0.00785173" stroke-miterlimit="22.9256"/>
<path d="M9.22134 25.7721C8.81377 25.934 8.32979 25.7749 8.14511 25.4175C7.96043 25.0573 8.14193 24.6358 8.54949 24.471L9.22134 25.7721ZM13.3925 24.1081L9.22134 25.7721L8.54949 24.471L12.7207 22.807L13.8255 23.2258L13.3925 24.1053V24.1081ZM12.7207 22.807C13.1282 22.6451 13.6122 22.8043 13.7969 23.1616C13.9816 23.5218 13.8001 23.9434 13.3925 24.1081L12.7207 22.807ZM14.0994 28.3574L12.2876 23.6893L13.8287 23.2286L15.6405 27.8967L14.0994 28.3574ZM15.6405 27.8967C15.7838 28.2708 15.5577 28.6757 15.1342 28.8041C14.7075 28.9325 14.2458 28.7315 14.1026 28.3574L15.6437 27.8967H15.6405Z" fill="#273453"/>
<path d="M25.3934 23.6421C25.2851 23.2596 25.5558 22.8743 25.992 22.7794C26.4282 22.6873 26.8708 22.9218 26.9759 23.3043L25.3934 23.6421ZM26.4823 27.5452L25.3934 23.6421L26.9759 23.3043L28.0648 27.2074L27.3898 28.0813L26.4823 27.5452ZM28.0648 27.2074C28.1731 27.5899 27.9024 27.9752 27.4662 28.0701C27.03 28.1622 26.5874 27.9277 26.4823 27.5452L28.0648 27.2074ZM21.5916 27.3637L27.1606 26.6713L27.3898 28.084L21.8208 28.7764L21.5916 27.3637ZM21.8208 28.7764C21.375 28.8323 20.9643 28.5615 20.9006 28.1706C20.8369 27.7797 21.1458 27.4196 21.5916 27.3637L21.8208 28.7764Z" fill="#273453"/>
<path d="M18.312 34.4186C18.7609 34.4326 19.1112 34.7648 19.0921 35.1585C19.073 35.5522 18.694 35.8593 18.2451 35.8453L18.3088 34.4186H18.312ZM13.7332 34.2623L18.312 34.4186L18.2483 35.8453L13.6695 35.689L12.8958 34.8793L13.7332 34.2623ZM13.6695 35.689C13.2206 35.675 12.8703 35.3428 12.8894 34.9491C12.9085 34.5555 13.2874 34.2483 13.7364 34.2623L13.6727 35.689H13.6695ZM15.2807 30.1889L14.507 35.0747L12.8958 34.8793L13.6695 29.9935L15.2807 30.1889ZM13.6695 29.9935C13.73 29.6026 14.1408 29.329 14.5866 29.3848C15.0323 29.4379 15.3412 29.798 15.2807 30.1889L13.6695 29.9935Z" fill="#273453"/>
<path d="M24.7948 35.8956C24.7375 36.2865 24.3299 36.5629 23.8841 36.5126C23.4383 36.4624 23.1231 36.105 23.1804 35.7142L24.7948 35.8984V35.8956ZM25.3775 31.9088L24.7948 35.8956L23.1804 35.7114L23.7631 31.7245L24.7534 31.1214L25.3775 31.9088ZM23.7631 31.7245C23.8204 31.3336 24.228 31.0572 24.6738 31.1075C25.1196 31.1577 25.4348 31.5151 25.3775 31.906L23.7631 31.7217V31.7245ZM29.8702 33.6202L24.3904 32.5118L24.7534 31.1214L30.2332 32.2298L29.8702 33.6202ZM30.2332 32.2298C30.6726 32.3192 30.9465 32.7017 30.8446 33.0842C30.7427 33.4667 30.3065 33.7068 29.8702 33.6202L30.2332 32.2298Z" fill="#273453"/>
<path d="M61.7781 23.9742C61.6698 23.5917 61.9405 23.2064 62.3767 23.1115C62.8129 23.0193 63.2555 23.2539 63.3606 23.6364L61.7781 23.9742ZM62.867 27.8773L61.7781 23.9742L63.3606 23.6364L64.4495 27.5395L63.7745 28.4133L62.867 27.8773ZM64.4495 27.5395C64.5578 27.922 64.2871 28.3072 63.8509 28.4022C63.4147 28.4943 62.9721 28.2598 62.867 27.8773L64.4495 27.5395ZM57.9763 27.6958L63.5452 27.0034L63.7745 28.4161L58.2055 29.1085L57.9763 27.6958ZM58.2055 29.1085C57.7597 29.1644 57.349 28.8936 57.2853 28.5027C57.2216 28.1118 57.5305 27.7517 57.9763 27.6958L58.2055 29.1085Z" fill="#273453"/>
<path d="M70.4388 45.754C70.0312 45.9159 69.5473 45.7567 69.3626 45.3994C69.1779 45.0392 69.3594 44.6176 69.767 44.4529L70.4388 45.754ZM74.61 44.09L70.4388 45.754L69.767 44.4529L73.9381 42.7889L75.043 43.2077L74.61 44.0872V44.09ZM73.9381 42.7889C74.3457 42.627 74.8297 42.7861 75.0144 43.1435C75.199 43.5037 75.0175 43.9252 74.61 44.09L73.9381 42.7889ZM75.3168 48.3393L73.5051 43.6712L75.0462 43.2105L76.8579 47.8786L75.3168 48.3393ZM76.8579 47.8786C77.0012 48.2527 76.7752 48.6576 76.3517 48.786C75.925 48.9144 75.4633 48.7134 75.32 48.3393L76.8611 47.8786H76.8579Z" fill="#273453"/>
<path d="M25.1578 43.0403C25.0495 42.6578 25.3201 42.2726 25.7564 42.1776C26.1926 42.0855 26.6352 42.32 26.7403 42.7025L25.1578 43.0403ZM26.2467 46.9434L25.1578 43.0403L26.7403 42.7025L27.8292 46.6056L27.1542 47.4795L26.2467 46.9434ZM27.8292 46.6056C27.9375 46.9881 27.6668 47.3734 27.2306 47.4683C26.7944 47.5605 26.3518 47.3259 26.2467 46.9434L27.8292 46.6056ZM21.3559 46.762L26.9249 46.0696L27.1542 47.4823L21.5852 48.1747L21.3559 46.762ZM21.5852 48.1747C21.1394 48.2305 20.7287 47.9597 20.665 47.5688C20.6013 47.178 20.9102 46.8178 21.3559 46.762L21.5852 48.1747Z" fill="#273453"/>
<path d="M69.8625 35.0274C70.3115 35.0413 70.6617 35.3736 70.6426 35.7672C70.6235 36.1609 70.2446 36.468 69.7956 36.4541L69.8593 35.0274H69.8625ZM65.2838 34.871L69.8625 35.0274L69.7988 36.4541L65.2201 36.2977L64.4464 35.4881L65.2838 34.871ZM65.2201 36.2977C64.7711 36.2838 64.4209 35.9515 64.44 35.5579C64.4591 35.1642 64.838 34.8571 65.287 34.871L65.2233 36.2977H65.2201ZM66.8312 30.7976L66.0575 35.6835L64.4464 35.4881L65.2201 30.6022L66.8312 30.7976ZM65.2201 30.6022C65.2806 30.2113 65.6913 29.9377 66.1371 29.9935C66.5829 30.0466 66.8917 30.4068 66.8312 30.7976L65.2201 30.6022Z" fill="#273453"/>
<path d="M64.389 44.157C64.3317 44.5478 63.9242 44.8242 63.4784 44.774C63.0326 44.7237 62.7174 44.3664 62.7747 43.9755L64.389 44.1598V44.157ZM64.9717 40.1701L64.389 44.157L62.7747 43.9727L63.3574 39.9858L64.3476 39.3828L64.9717 40.1701ZM63.3574 39.9858C63.4147 39.595 63.8223 39.3186 64.268 39.3688C64.7138 39.4191 65.029 39.7764 64.9717 40.1673L63.3574 39.983V39.9858ZM69.4645 41.8815L63.9847 40.7731L64.3476 39.3828L69.8275 40.4912L69.4645 41.8815ZM69.8275 40.4912C70.2669 40.5805 70.5407 40.963 70.4388 41.3455C70.3369 41.728 69.9007 41.9681 69.4645 41.8815L69.8275 40.4912Z" fill="#273453"/>
<path d="M34.519 40.7871C34.968 40.8011 35.3182 41.1333 35.2991 41.527C35.28 41.9207 34.9011 42.2278 34.4521 42.2138L34.5158 40.7871H34.519ZM29.9403 40.6308L34.519 40.7871L34.4553 42.2138L29.8766 42.0575L29.1029 41.2478L29.9403 40.6308ZM29.8766 42.0575C29.4276 42.0435 29.0774 41.7113 29.0965 41.3176C29.1156 40.9239 29.4945 40.6168 29.9435 40.6308L29.8798 42.0575H29.8766ZM31.4877 36.5574L30.714 41.4432L29.1029 41.2478L29.8766 36.3619L31.4877 36.5574ZM29.8766 36.3619C29.9371 35.9711 30.3478 35.6975 30.7936 35.7533C31.2394 35.8063 31.5482 36.1665 31.4877 36.5574L29.8766 36.3619Z" fill="#273453"/>
<path d="M50.0956 33.6261C49.688 33.788 49.2041 33.6288 49.0194 33.2715C48.8347 32.9113 49.0162 32.4897 49.4238 32.325L50.0956 33.6261ZM54.2668 31.9621L50.0956 33.6261L49.4238 32.325L53.5949 30.661L54.6998 31.0798L54.2668 31.9593V31.9621ZM53.5949 30.661C54.0025 30.4991 54.4865 30.6582 54.6712 31.0156C54.8558 31.3758 54.6743 31.7973 54.2668 31.9621L53.5949 30.661ZM54.9736 36.2114L53.1619 31.5433L54.703 31.0826L56.5147 35.7507L54.9736 36.2114ZM56.5147 35.7507C56.658 36.1248 56.432 36.5297 56.0085 36.6581C55.5818 36.7865 55.1201 36.5855 54.9768 36.2114L56.5179 35.7507H56.5147Z" fill="#273453"/>
<path d="M55.1997 40.2093C55.0915 39.8268 55.3621 39.4415 55.7983 39.3466C56.2345 39.2545 56.6771 39.489 56.7822 39.8715L55.1997 40.2093ZM56.2887 44.1124L55.1997 40.2093L56.7822 39.8715L57.8712 43.7746L57.1961 44.6485L56.2887 44.1124ZM57.8712 43.7746C57.9794 44.1571 57.7088 44.5424 57.2726 44.6373C56.8363 44.7294 56.3938 44.4949 56.2887 44.1124L57.8712 43.7746ZM51.3979 43.931L56.9669 43.2386L57.1961 44.6513L51.6272 45.3437L51.3979 43.931ZM51.6272 45.3437C51.1814 45.3995 50.7706 45.1287 50.707 44.7378C50.6433 44.3469 50.9521 43.9868 51.3979 43.931L51.6272 45.3437Z" fill="#273453"/>
<path d="M41.5718 46.7955C41.5145 47.1864 41.1069 47.4628 40.6611 47.4126C40.2154 47.3623 39.9001 47.0049 39.9574 46.6141L41.5718 46.7983V46.7955ZM42.1545 42.8087L41.5718 46.7955L39.9574 46.6113L40.5401 42.6244L41.5304 42.0214L42.1545 42.8087ZM40.5401 42.6244C40.5974 42.2335 41.005 41.9571 41.4508 42.0074C41.8966 42.0577 42.2118 42.415 42.1545 42.8059L40.5401 42.6216V42.6244ZM46.6472 44.5201L41.1674 43.4117L41.5304 42.0214L47.0102 43.1298L46.6472 44.5201ZM47.0102 43.1298C47.4496 43.2191 47.7235 43.6016 47.6216 43.9841C47.5197 44.3666 47.0835 44.6067 46.6472 44.5201L47.0102 43.1298Z" fill="#273453"/>
<path d="M43.8994 37.1744C44.3483 37.1884 44.6986 37.5206 44.6795 37.9143C44.6604 38.3079 44.2814 38.6151 43.8325 38.6011L43.8962 37.1744H43.8994ZM39.3206 37.0181L43.8994 37.1744L43.8357 38.6011L39.2569 38.4447L38.4832 37.6351L39.3206 37.0181ZM39.2569 38.4447C38.808 38.4308 38.4577 38.0985 38.4768 37.7049C38.4959 37.3112 38.8748 37.0041 39.3238 37.0181L39.2601 38.4447H39.2569ZM40.8681 32.9447L40.0944 37.8305L38.4832 37.6351L39.2569 32.7492L40.8681 32.9447ZM39.2569 32.7492C39.3174 32.3584 39.7282 32.0847 40.174 32.1406C40.6197 32.1936 40.9286 32.5538 40.8681 32.9447L39.2569 32.7492Z" fill="#273453"/>
<path fill-rule="evenodd" clip-rule="evenodd" d="M53.1332 19.0493L52.904 18.2703C52.42 16.6203 50.9171 14.236 49.8727 12.5888C48.7933 10.8829 46.7141 8.06307 46.1378 7.16686C44.0777 3.97849 43.1734 1.53276 42.4442 0.371325C42.2882 0.122845 42.2882 0.136804 42.1481 0C40.9477 4.08179 37.2 8.75267 35.0285 12.0081C32.4716 15.8386 29.2684 20.5681 32.2647 25.8253C37.7923 35.516 55.5691 31.5012 53.1332 19.0521V19.0493Z" fill="#A9CEEE"/>
<path fill-rule="evenodd" clip-rule="evenodd" d="M41.9157 5.92728C41.2757 9.23291 39.1933 12.4129 38.0279 15.5678C36.0919 20.8082 38.4514 22.5588 37.1363 23.8654C35.6111 25.3814 32.4589 23.4466 34.0255 18.5384C34.7928 16.1373 37.6744 12.452 39.2856 10.1682C40.2472 8.80854 41.0719 7.07196 41.9157 5.92448V5.92728Z" fill="white"/>
<path d="M29.0469 69.3945H26.3047V77H25.1855V69.3945H22.4492V68.4688H29.0469V69.3945ZM29.2695 73.7715C29.2695 73.1504 29.3906 72.5918 29.6328 72.0957C29.8789 71.5996 30.2188 71.2168 30.6523 70.9473C31.0898 70.6777 31.5879 70.543 32.1465 70.543C33.0098 70.543 33.707 70.8418 34.2383 71.4395C34.7734 72.0371 35.041 72.832 35.041 73.8242V73.9004C35.041 74.5176 34.9219 75.0723 34.6836 75.5645C34.4492 76.0527 34.1113 76.4336 33.6699 76.707C33.2324 76.9805 32.7285 77.1172 32.1582 77.1172C31.2988 77.1172 30.6016 76.8184 30.0664 76.2207C29.5352 75.623 29.2695 74.832 29.2695 73.8477V73.7715ZM30.3594 73.9004C30.3594 74.6035 30.5215 75.168 30.8457 75.5938C31.1738 76.0195 31.6113 76.2324 32.1582 76.2324C32.709 76.2324 33.1465 76.0176 33.4707 75.5879C33.7949 75.1543 33.957 74.5488 33.957 73.7715C33.957 73.0762 33.791 72.5137 33.459 72.084C33.1309 71.6504 32.6934 71.4336 32.1465 71.4336C31.6113 71.4336 31.1797 71.6465 30.8516 72.0723C30.5234 72.498 30.3594 73.1074 30.3594 73.9004ZM41.5801 77H40.4961V74.293H37.584V77H36.4941V70.6602H37.584V73.4082H40.4961V70.6602H41.5801V77ZM45.3008 74.2988H44.5098V77H43.4199V70.6602H44.5098V73.3438H45.2188L47.3516 70.6602H48.6641L46.1562 73.707L48.875 77H47.498L45.3008 74.2988ZM53.9082 70.6602H54.9922V77H53.9082V72.377L50.9844 77H49.9004V70.6602H50.9844V75.2891L53.9082 70.6602ZM60.834 70.6602H61.918V77H60.834V72.377L57.9102 77H56.8262V70.6602H57.9102V75.2891L60.834 70.6602ZM61.127 68.3516C61.127 68.8242 60.9648 69.2051 60.6406 69.4941C60.3203 69.7793 59.8984 69.9219 59.375 69.9219C58.8516 69.9219 58.4277 69.7773 58.1035 69.4883C57.7793 69.1992 57.6172 68.8203 57.6172 68.3516H58.502C58.502 68.625 58.5762 68.8398 58.7246 68.9961C58.873 69.1484 59.0898 69.2246 59.375 69.2246C59.6484 69.2246 59.8613 69.1484 60.0137 68.9961C60.1699 68.8438 60.248 68.6289 60.248 68.3516H61.127ZM22.4961 87.9473C22.4961 86.8887 22.7012 86.0566 23.1113 85.4512C23.5215 84.8457 24.084 84.543 24.7988 84.543C25.1309 84.543 25.4219 84.5996 25.6719 84.7129V82H26.7559V84.748C27.0293 84.6113 27.3496 84.543 27.7168 84.543C28.4355 84.543 29 84.8457 29.4102 85.4512C29.8203 86.0566 30.0254 86.9297 30.0254 88.0703C30.0254 89.0039 29.8203 89.7461 29.4102 90.2969C29.0039 90.8477 28.4434 91.123 27.7285 91.123C27.3496 91.123 27.0254 91.0605 26.7559 90.9355V93.4375H25.6719V90.9531C25.4141 91.0664 25.1191 91.123 24.7871 91.123C24.0762 91.123 23.5156 90.8477 23.1055 90.2969C22.6992 89.7461 22.4961 88.9922 22.4961 88.0352V87.9473ZM28.9414 87.9473C28.9414 87.1504 28.8047 86.5332 28.5312 86.0957C28.2578 85.6543 27.8809 85.4336 27.4004 85.4336C27.1543 85.4336 26.9395 85.4727 26.7559 85.5508V90.1387C26.9316 90.2051 27.1504 90.2383 27.4121 90.2383C27.8965 90.2383 28.2715 90.0508 28.5371 89.6758C28.8066 89.3008 28.9414 88.7246 28.9414 87.9473ZM23.5801 88.0703C23.5801 88.7812 23.707 89.3203 23.9609 89.6875C24.2148 90.0547 24.5801 90.2383 25.0566 90.2383C25.2832 90.2383 25.4883 90.2031 25.6719 90.1328V85.5332C25.5078 85.4668 25.3066 85.4336 25.0684 85.4336C24.5918 85.4336 24.2246 85.6465 23.9668 86.0723C23.709 86.498 23.5801 87.1641 23.5801 88.0703ZM35.5391 84.6602H36.623V91H35.5391V86.377L32.6152 91H31.5312V84.6602H32.6152V89.2891L35.5391 84.6602ZM43.5605 84.6602V91H42.4707V85.5566H40.3145L40.1855 87.9297C40.1152 89.0195 39.9316 89.7988 39.6348 90.2676C39.3418 90.7363 38.875 90.9805 38.2344 91H37.8008V90.0449L38.1113 90.0215C38.4629 89.9824 38.7148 89.7793 38.8672 89.4121C39.0195 89.0449 39.1172 88.3652 39.1602 87.373L39.2773 84.6602H43.5605ZM46.4844 86.8457H48.1309C48.8496 86.8535 49.418 87.041 49.8359 87.4082C50.2539 87.7754 50.4629 88.2734 50.4629 88.9023C50.4629 89.5352 50.248 90.043 49.8184 90.4258C49.3887 90.8086 48.8105 91 48.084 91H45.4004V84.6602H46.4844V86.8457ZM46.4844 87.7305V90.1152H48.0957C48.502 90.1152 48.8164 90.0117 49.0391 89.8047C49.2617 89.5938 49.373 89.3066 49.373 88.9434C49.373 88.5918 49.2637 88.3047 49.0449 88.082C48.8301 87.8555 48.5273 87.7383 48.1367 87.7305H46.4844ZM56.1172 85.5391H53.9902V91H52.9062V85.5391H50.8203V84.6602H56.1172V85.5391ZM62.5273 87.9004C62.5273 88.8652 62.3066 89.6426 61.8652 90.2324C61.4238 90.8223 60.8262 91.1172 60.0723 91.1172C59.3027 91.1172 58.6973 90.873 58.2559 90.3848V93.4375H57.1719V84.6602H58.1621L58.2148 85.3633C58.6562 84.8164 59.2695 84.543 60.0547 84.543C60.8164 84.543 61.418 84.8301 61.8594 85.4043C62.3047 85.9785 62.5273 86.7773 62.5273 87.8008V87.9004ZM61.4434 87.7773C61.4434 87.0625 61.291 86.498 60.9863 86.084C60.6816 85.6699 60.2637 85.4629 59.7324 85.4629C59.0762 85.4629 58.584 85.7539 58.2559 86.3359V89.3652C58.5801 89.9434 59.0762 90.2324 59.7441 90.2324C60.2637 90.2324 60.6758 90.0273 60.9805 89.6172C61.2891 89.2031 61.4434 88.5898 61.4434 87.7773Z" fill="#273453"/>
</svg>
