<svg width="87" height="109" viewBox="0 0 87 109" fill="none" xmlns="http://www.w3.org/2000/svg">
<path d="M30.416 70.3945H27.6738V78H26.5547V70.3945H23.8184V69.4688H30.416V70.3945ZM30.6387 74.7715C30.6387 74.1504 30.7598 73.5918 31.002 73.0957C31.248 72.5996 31.5879 72.2168 32.0215 71.9473C32.459 71.6777 32.957 71.543 33.5156 71.543C34.3789 71.543 35.0762 71.8418 35.6074 72.4395C36.1426 73.0371 36.4102 73.832 36.4102 74.8242V74.9004C36.4102 75.5176 36.291 76.0723 36.0527 76.5645C35.8184 77.0527 35.4805 77.4336 35.0391 77.707C34.6016 77.9805 34.0977 78.1172 33.5273 78.1172C32.668 78.1172 31.9707 77.8184 31.4355 77.2207C30.9043 76.623 30.6387 75.832 30.6387 74.8477V74.7715ZM31.7285 74.9004C31.7285 75.6035 31.8906 76.168 32.2148 76.5938C32.543 77.0195 32.9805 77.2324 33.5273 77.2324C34.0781 77.2324 34.5156 77.0176 34.8398 76.5879C35.1641 76.1543 35.3262 75.5488 35.3262 74.7715C35.3262 74.0762 35.1602 73.5137 34.8281 73.084C34.5 72.6504 34.0625 72.4336 33.5156 72.4336C32.9805 72.4336 32.5488 72.6465 32.2207 73.0723C31.8926 73.498 31.7285 74.1074 31.7285 74.9004ZM42.9492 78H41.8652V75.293H38.9531V78H37.8633V71.6602H38.9531V74.4082H41.8652V71.6602H42.9492V78ZM46.6699 75.2988H45.8789V78H44.7891V71.6602H45.8789V74.3438H46.5879L48.7207 71.6602H50.0332L47.5254 74.707L50.2441 78H48.8672L46.6699 75.2988ZM55.0898 78C55.0273 77.875 54.9766 77.6523 54.9375 77.332C54.4336 77.8555 53.832 78.1172 53.1328 78.1172C52.5078 78.1172 51.9941 77.9414 51.5918 77.5898C51.1934 77.2344 50.9941 76.7852 50.9941 76.2422C50.9941 75.582 51.2441 75.0703 51.7441 74.707C52.248 74.3398 52.9551 74.1562 53.8652 74.1562H54.9199V73.6582C54.9199 73.2793 54.8066 72.9785 54.5801 72.7559C54.3535 72.5293 54.0195 72.416 53.5781 72.416C53.1914 72.416 52.8672 72.5137 52.6055 72.709C52.3438 72.9043 52.2129 73.1406 52.2129 73.418H51.123C51.123 73.1016 51.2344 72.7969 51.457 72.5039C51.6836 72.207 51.9883 71.9727 52.3711 71.8008C52.7578 71.6289 53.1816 71.543 53.6426 71.543C54.373 71.543 54.9453 71.7266 55.3594 72.0938C55.7734 72.457 55.9883 72.959 56.0039 73.5996V76.5176C56.0039 77.0996 56.0781 77.5625 56.2266 77.9062V78H55.0898ZM53.291 77.1738C53.6309 77.1738 53.9531 77.0859 54.2578 76.9102C54.5625 76.7344 54.7832 76.5059 54.9199 76.2246V74.9238H54.0703C52.7422 74.9238 52.0781 75.3125 52.0781 76.0898C52.0781 76.4297 52.1914 76.6953 52.418 76.8867C52.6445 77.0781 52.9355 77.1738 53.291 77.1738ZM62.5488 71.6602V78H61.459V75.5332H59.8242L58.3301 78H57.1582L58.752 75.3691C58.3457 75.2207 58.0332 74.9922 57.8145 74.6836C57.5996 74.3711 57.4922 74.0078 57.4922 73.5938C57.4922 73.0156 57.709 72.5508 58.1426 72.1992C58.5762 71.8438 59.1562 71.6641 59.8828 71.6602H62.5488ZM58.582 73.6055C58.582 73.9141 58.6875 74.1641 58.8984 74.3555C59.1094 74.543 59.3887 74.6387 59.7363 74.6426H61.459V72.5391H59.9004C59.498 72.5391 59.1777 72.6387 58.9395 72.8379C58.7012 73.0332 58.582 73.2891 58.582 73.6055ZM7.78711 90.5645L9.94336 85.6602H11.2969V92H10.2129V87.3887L8.16211 92H7.41211L5.32031 87.2891V92H4.23633V85.6602H5.64258L7.78711 90.5645ZM15.6738 92.1172C14.8145 92.1172 14.1152 91.8359 13.5762 91.2734C13.0371 90.707 12.7676 89.9512 12.7676 89.0059V88.8066C12.7676 88.1777 12.8867 87.6172 13.125 87.125C13.3672 86.6289 13.7031 86.2422 14.1328 85.9648C14.5664 85.6836 15.0352 85.543 15.5391 85.543C16.3633 85.543 17.0039 85.8145 17.4609 86.3574C17.918 86.9004 18.1465 87.6777 18.1465 88.6895V89.1406H13.8516C13.8672 89.7656 14.0488 90.2715 14.3965 90.6582C14.748 91.041 15.1934 91.2324 15.7324 91.2324C16.1152 91.2324 16.4395 91.1543 16.7051 90.998C16.9707 90.8418 17.2031 90.6348 17.4023 90.377L18.0645 90.8926C17.5332 91.709 16.7363 92.1172 15.6738 92.1172ZM15.5391 86.4336C15.1016 86.4336 14.7344 86.5938 14.4375 86.9141C14.1406 87.2305 13.957 87.6758 13.8867 88.25H17.0625V88.168C17.0312 87.6172 16.8828 87.1914 16.6172 86.8906C16.3516 86.5859 15.9922 86.4336 15.5391 86.4336ZM21.5332 87.9746L22.9395 85.6602H24.2051L22.1309 88.7949L24.2695 92H23.0156L21.5508 89.627L20.0859 92H18.8262L20.9648 88.7949L18.8906 85.6602H20.1445L21.5332 87.9746ZM29.2734 92C29.2109 91.875 29.1602 91.6523 29.1211 91.332C28.6172 91.8555 28.0156 92.1172 27.3164 92.1172C26.6914 92.1172 26.1777 91.9414 25.7754 91.5898C25.377 91.2344 25.1777 90.7852 25.1777 90.2422C25.1777 89.582 25.4277 89.0703 25.9277 88.707C26.4316 88.3398 27.1387 88.1562 28.0488 88.1562H29.1035V87.6582C29.1035 87.2793 28.9902 86.9785 28.7637 86.7559C28.5371 86.5293 28.2031 86.416 27.7617 86.416C27.375 86.416 27.0508 86.5137 26.7891 86.709C26.5273 86.9043 26.3965 87.1406 26.3965 87.418H25.3066C25.3066 87.1016 25.418 86.7969 25.6406 86.5039C25.8672 86.207 26.1719 85.9727 26.5547 85.8008C26.9414 85.6289 27.3652 85.543 27.8262 85.543C28.5566 85.543 29.1289 85.7266 29.543 86.0938C29.957 86.457 30.1719 86.959 30.1875 87.5996V90.5176C30.1875 91.0996 30.2617 91.5625 30.4102 91.9062V92H29.2734ZM27.4746 91.1738C27.8145 91.1738 28.1367 91.0859 28.4414 90.9102C28.7461 90.7344 28.9668 90.5059 29.1035 90.2246V88.9238H28.2539C26.9258 88.9238 26.2617 89.3125 26.2617 90.0898C26.2617 90.4297 26.375 90.6953 26.6016 90.8867C26.8281 91.0781 27.1191 91.1738 27.4746 91.1738ZM37.0664 92H35.9824V89.293H33.0703V92H31.9805V85.6602H33.0703V88.4082H35.9824V85.6602H37.0664V92ZM42.9141 85.6602H43.998V92H42.9141V87.377L39.9902 92H38.9062V85.6602H39.9902V90.2891L42.9141 85.6602ZM50.5254 92H49.4355V89.7031C48.959 89.8281 48.4707 89.8906 47.9707 89.8906C47.1777 89.8906 46.5723 89.6875 46.1543 89.2812C45.7402 88.875 45.5293 88.2969 45.5215 87.5469V85.6543H46.6055V87.582C46.625 88.5273 47.0801 89 47.9707 89C48.4707 89 48.959 88.9375 49.4355 88.8125V85.6602H50.5254V92ZM54.8965 92.1172C54.0371 92.1172 53.3379 91.8359 52.7988 91.2734C52.2598 90.707 51.9902 89.9512 51.9902 89.0059V88.8066C51.9902 88.1777 52.1094 87.6172 52.3477 87.125C52.5898 86.6289 52.9258 86.2422 53.3555 85.9648C53.7891 85.6836 54.2578 85.543 54.7617 85.543C55.5859 85.543 56.2266 85.8145 56.6836 86.3574C57.1406 86.9004 57.3691 87.6777 57.3691 88.6895V89.1406H53.0742C53.0898 89.7656 53.2715 90.2715 53.6191 90.6582C53.9707 91.041 54.416 91.2324 54.9551 91.2324C55.3379 91.2324 55.6621 91.1543 55.9277 90.998C56.1934 90.8418 56.4258 90.6348 56.625 90.377L57.2871 90.8926C56.7559 91.709 55.959 92.1172 54.8965 92.1172ZM54.7617 86.4336C54.3242 86.4336 53.957 86.5938 53.6602 86.9141C53.3633 87.2305 53.1797 87.6758 53.1094 88.25H56.2852V88.168C56.2539 87.6172 56.1055 87.1914 55.8398 86.8906C55.5742 86.5859 55.2148 86.4336 54.7617 86.4336ZM61.1719 91.2324C61.5586 91.2324 61.8965 91.1152 62.1855 90.8809C62.4746 90.6465 62.6348 90.3535 62.666 90.002H63.6914C63.6719 90.3652 63.5469 90.7109 63.3164 91.0391C63.0859 91.3672 62.7773 91.6289 62.3906 91.8242C62.0078 92.0195 61.6016 92.1172 61.1719 92.1172C60.3086 92.1172 59.6211 91.8301 59.1094 91.2559C58.6016 90.6777 58.3477 89.8887 58.3477 88.8887V88.707C58.3477 88.0898 58.4609 87.541 58.6875 87.0605C58.9141 86.5801 59.2383 86.207 59.6602 85.9414C60.0859 85.6758 60.5879 85.543 61.166 85.543C61.877 85.543 62.4668 85.7559 62.9355 86.1816C63.4082 86.6074 63.6602 87.1602 63.6914 87.8398H62.666C62.6348 87.4297 62.4785 87.0938 62.1973 86.832C61.9199 86.5664 61.5762 86.4336 61.166 86.4336C60.6152 86.4336 60.1875 86.6328 59.8828 87.0312C59.582 87.4258 59.4316 87.998 59.4316 88.748V88.9531C59.4316 89.6836 59.582 90.2461 59.8828 90.6406C60.1836 91.0352 60.6133 91.2324 61.1719 91.2324ZM66.8848 89.2988H66.0938V92H65.0039V85.6602H66.0938V88.3438H66.8027L68.9355 85.6602H70.248L67.7402 88.707L70.459 92H69.082L66.8848 89.2988ZM75.3047 92C75.2422 91.875 75.1914 91.6523 75.1523 91.332C74.6484 91.8555 74.0469 92.1172 73.3477 92.1172C72.7227 92.1172 72.209 91.9414 71.8066 91.5898C71.4082 91.2344 71.209 90.7852 71.209 90.2422C71.209 89.582 71.459 89.0703 71.959 88.707C72.4629 88.3398 73.1699 88.1562 74.0801 88.1562H75.1348V87.6582C75.1348 87.2793 75.0215 86.9785 74.7949 86.7559C74.5684 86.5293 74.2344 86.416 73.793 86.416C73.4062 86.416 73.082 86.5137 72.8203 86.709C72.5586 86.9043 72.4277 87.1406 72.4277 87.418H71.3379C71.3379 87.1016 71.4492 86.7969 71.6719 86.5039C71.8984 86.207 72.2031 85.9727 72.5859 85.8008C72.9727 85.6289 73.3965 85.543 73.8574 85.543C74.5879 85.543 75.1602 85.7266 75.5742 86.0938C75.9883 86.457 76.2031 86.959 76.2188 87.5996V90.5176C76.2188 91.0996 76.293 91.5625 76.4414 91.9062V92H75.3047ZM73.5059 91.1738C73.8457 91.1738 74.168 91.0859 74.4727 90.9102C74.7773 90.7344 74.998 90.5059 75.1348 90.2246V88.9238H74.2852C72.957 88.9238 72.293 89.3125 72.293 90.0898C72.293 90.4297 72.4062 90.6953 72.6328 90.8867C72.8594 91.0781 73.1504 91.1738 73.5059 91.1738ZM82.7637 85.6602V92H81.6738V89.5332H80.0391L78.5449 92H77.373L78.9668 89.3691C78.5605 89.2207 78.248 88.9922 78.0293 88.6836C77.8145 88.3711 77.707 88.0078 77.707 87.5938C77.707 87.0156 77.9238 86.5508 78.3574 86.1992C78.791 85.8438 79.3711 85.6641 80.0977 85.6602H82.7637ZM78.7969 87.6055C78.7969 87.9141 78.9023 88.1641 79.1133 88.3555C79.3242 88.543 79.6035 88.6387 79.9512 88.6426H81.6738V86.5391H80.1152C79.7129 86.5391 79.3926 86.6387 79.1543 86.8379C78.916 87.0332 78.7969 87.2891 78.7969 87.6055ZM21.3574 102.771C21.3574 102.15 21.4785 101.592 21.7207 101.096C21.9668 100.6 22.3066 100.217 22.7402 99.9473C23.1777 99.6777 23.6758 99.543 24.2344 99.543C25.0977 99.543 25.7949 99.8418 26.3262 100.439C26.8613 101.037 27.1289 101.832 27.1289 102.824V102.9C27.1289 103.518 27.0098 104.072 26.7715 104.564C26.5371 105.053 26.1992 105.434 25.7578 105.707C25.3203 105.98 24.8164 106.117 24.2461 106.117C23.3867 106.117 22.6895 105.818 22.1543 105.221C21.623 104.623 21.3574 103.832 21.3574 102.848V102.771ZM22.4473 102.9C22.4473 103.604 22.6094 104.168 22.9336 104.594C23.2617 105.02 23.6992 105.232 24.2461 105.232C24.7969 105.232 25.2344 105.018 25.5586 104.588C25.8828 104.154 26.0449 103.549 26.0449 102.771C26.0449 102.076 25.8789 101.514 25.5469 101.084C25.2188 100.65 24.7812 100.434 24.2344 100.434C23.6992 100.434 23.2676 100.646 22.9395 101.072C22.6113 101.498 22.4473 102.107 22.4473 102.9ZM33.2754 106H32.1855V103.703C31.709 103.828 31.2207 103.891 30.7207 103.891C29.9277 103.891 29.3223 103.688 28.9043 103.281C28.4902 102.875 28.2793 102.297 28.2715 101.547V99.6543H29.3555V101.582C29.375 102.527 29.8301 103 30.7207 103C31.2207 103 31.709 102.938 32.1855 102.812V99.6602H33.2754V106ZM39.1172 99.6602H40.2012V106H39.1172V101.377L36.1934 106H35.1094V99.6602H36.1934V104.289L39.1172 99.6602ZM44.4844 105.232C44.8711 105.232 45.209 105.115 45.498 104.881C45.7871 104.646 45.9473 104.354 45.9785 104.002H47.0039C46.9844 104.365 46.8594 104.711 46.6289 105.039C46.3984 105.367 46.0898 105.629 45.7031 105.824C45.3203 106.02 44.9141 106.117 44.4844 106.117C43.6211 106.117 42.9336 105.83 42.4219 105.256C41.9141 104.678 41.6602 103.889 41.6602 102.889V102.707C41.6602 102.09 41.7734 101.541 42 101.061C42.2266 100.58 42.5508 100.207 42.9727 99.9414C43.3984 99.6758 43.9004 99.543 44.4785 99.543C45.1895 99.543 45.7793 99.7559 46.248 100.182C46.7207 100.607 46.9727 101.16 47.0039 101.84H45.9785C45.9473 101.43 45.791 101.094 45.5098 100.832C45.2324 100.566 44.8887 100.434 44.4785 100.434C43.9277 100.434 43.5 100.633 43.1953 101.031C42.8945 101.426 42.7441 101.998 42.7441 102.748V102.953C42.7441 103.684 42.8945 104.246 43.1953 104.641C43.4961 105.035 43.9258 105.232 44.4844 105.232ZM52.9336 100.539H50.8066V106H49.7227V100.539H47.6367V99.6602H52.9336V100.539ZM55.9629 103.299H55.1719V106H54.082V99.6602H55.1719V102.344H55.8809L58.0137 99.6602H59.3262L56.8184 102.707L59.5371 106H58.1602L55.9629 103.299ZM64.3828 106C64.3203 105.875 64.2695 105.652 64.2305 105.332C63.7266 105.855 63.125 106.117 62.4258 106.117C61.8008 106.117 61.2871 105.941 60.8848 105.59C60.4863 105.234 60.2871 104.785 60.2871 104.242C60.2871 103.582 60.5371 103.07 61.0371 102.707C61.541 102.34 62.248 102.156 63.1582 102.156H64.2129V101.658C64.2129 101.279 64.0996 100.979 63.873 100.756C63.6465 100.529 63.3125 100.416 62.8711 100.416C62.4844 100.416 62.1602 100.514 61.8984 100.709C61.6367 100.904 61.5059 101.141 61.5059 101.418H60.416C60.416 101.102 60.5273 100.797 60.75 100.504C60.9766 100.207 61.2812 99.9727 61.6641 99.8008C62.0508 99.6289 62.4746 99.543 62.9355 99.543C63.666 99.543 64.2383 99.7266 64.6523 100.094C65.0664 100.457 65.2812 100.959 65.2969 101.6V104.518C65.2969 105.1 65.3711 105.562 65.5195 105.906V106H64.3828ZM62.584 105.174C62.9238 105.174 63.2461 105.086 63.5508 104.91C63.8555 104.734 64.0762 104.506 64.2129 104.225V102.924H63.3633C62.0352 102.924 61.3711 103.312 61.3711 104.09C61.3711 104.43 61.4844 104.695 61.7109 104.887C61.9375 105.078 62.2285 105.174 62.584 105.174Z" fill="#273453"/>
<path fill-rule="evenodd" clip-rule="evenodd" d="M1.90126 19.2921C3.57584 17.3286 5.63139 15.8269 8.13331 14.8794C14.263 12.5623 22.1725 14.1273 28.4756 15.1645C36.4562 16.4761 44.141 17.5503 52.2154 16.0776C56.4885 15.2964 60.901 15.0167 65.0349 13.6681L67.0108 13.0241L84.9137 47.9006L82.0849 48.5103C73.0581 50.4527 64.8586 51.9464 55.6584 50.4131C42.0343 48.1408 32.4815 49.3126 18.6897 51.4925L16.9412 51.767L1 20.3478L1.89842 19.2948L1.90126 19.2921ZM3.72936 20.6381C13.3703 9.34512 31.6087 22.05 52.6646 18.2021C56.9434 17.4209 61.427 17.1412 65.8082 15.7134L81.5589 46.4016C48.0332 53.6197 62.9452 42.303 18.2973 49.3574L3.72936 20.6407V20.6381Z" fill="#273453"/>
<path fill-rule="evenodd" clip-rule="evenodd" d="M9.19673 20.4904C10.1094 20.4904 10.8514 21.1766 10.8514 22.0264C10.8514 22.8735 10.1122 23.5624 9.19673 23.5624C8.2841 23.5624 7.54205 22.8762 7.54205 22.0264C7.54205 21.1792 8.28126 20.4904 9.19673 20.4904V20.4904Z" stroke="#273453" stroke-width="0.0581783" stroke-miterlimit="22.9256"/>
<path fill-rule="evenodd" clip-rule="evenodd" d="M9.19673 20.4904C10.1094 20.4904 10.8514 21.1766 10.8514 22.0264C10.8514 22.8735 10.1122 23.5624 9.19673 23.5624C8.2841 23.5624 7.54205 22.8762 7.54205 22.0264C7.54205 21.1792 8.28126 20.4904 9.19673 20.4904Z" fill="#273453"/>
<path fill-rule="evenodd" clip-rule="evenodd" d="M21.3194 19.1734C22.232 19.1734 22.9741 19.8595 22.9741 20.7094C22.9741 21.5565 22.2349 22.2453 21.3194 22.2453C20.4067 22.2453 19.6647 21.5592 19.6647 20.7094C19.6647 19.8622 20.4039 19.1734 21.3194 19.1734Z" stroke="#273453" stroke-width="0.0581783" stroke-miterlimit="22.9256"/>
<path fill-rule="evenodd" clip-rule="evenodd" d="M21.3194 19.1734C22.232 19.1734 22.9741 19.8595 22.9741 20.7094C22.9741 21.5565 22.2349 22.2453 21.3194 22.2453C20.4067 22.2453 19.6647 21.5592 19.6647 20.7094C19.6647 19.8622 20.4039 19.1734 21.3194 19.1734Z" fill="#273453"/>
<path fill-rule="evenodd" clip-rule="evenodd" d="M15.9718 25.4174C16.8844 25.4174 17.6265 26.1036 17.6265 26.9534C17.6265 27.8006 16.8873 28.4894 15.9718 28.4894C15.0592 28.4894 14.3171 27.8032 14.3171 26.9534C14.3171 26.1062 15.0563 25.4174 15.9718 25.4174Z" stroke="#273453" stroke-width="0.0581783" stroke-miterlimit="22.9256"/>
<path fill-rule="evenodd" clip-rule="evenodd" d="M15.9718 25.4174C16.8844 25.4174 17.6265 26.1036 17.6265 26.9534C17.6265 27.8006 16.8873 28.4894 15.9718 28.4894C15.0592 28.4894 14.3171 27.8032 14.3171 26.9534C14.3171 26.1062 15.0563 25.4174 15.9718 25.4174Z" fill="#273453"/>
<path fill-rule="evenodd" clip-rule="evenodd" d="M26.2922 30.6063C27.2049 30.6063 27.9469 31.2925 27.9469 32.1423C27.9469 32.9895 27.2077 33.6783 26.2922 33.6783C25.3796 33.6783 24.6404 32.9921 24.6404 32.1423C24.6404 31.2951 25.3796 30.6063 26.2922 30.6063V30.6063Z" stroke="#273453" stroke-width="0.0581783" stroke-miterlimit="22.9256"/>
<path fill-rule="evenodd" clip-rule="evenodd" d="M26.2922 30.6063C27.2049 30.6063 27.9469 31.2925 27.9469 32.1423C27.9469 32.9895 27.2077 33.6783 26.2922 33.6783C25.3796 33.6783 24.6404 32.9921 24.6404 32.1423C24.6404 31.2951 25.3796 30.6063 26.2922 30.6063Z" fill="#273453"/>
<path fill-rule="evenodd" clip-rule="evenodd" d="M38.583 33.359C39.4956 33.359 40.2376 34.0452 40.2376 34.895C40.2376 35.7421 39.4984 36.431 38.583 36.431C37.6703 36.431 36.9283 35.7448 36.9283 34.895C36.9283 34.0478 37.6675 33.359 38.583 33.359Z" stroke="#273453" stroke-width="0.0581783" stroke-miterlimit="22.9256"/>
<path fill-rule="evenodd" clip-rule="evenodd" d="M38.583 33.359C39.4956 33.359 40.2376 34.0452 40.2376 34.895C40.2376 35.7421 39.4984 36.431 38.583 36.431C37.6703 36.431 36.9283 35.7448 36.9283 34.895C36.9283 34.0478 37.6675 33.359 38.583 33.359Z" fill="#273453"/>
<path fill-rule="evenodd" clip-rule="evenodd" d="M51.9709 32.174C52.8835 32.174 53.6256 32.8602 53.6256 33.71C53.6256 34.5572 52.8864 35.246 51.9709 35.246C51.0583 35.246 50.3162 34.5598 50.3162 33.71C50.3162 32.8629 51.0554 32.174 51.9709 32.174Z" stroke="#273453" stroke-width="0.0581783" stroke-miterlimit="22.9256"/>
<path fill-rule="evenodd" clip-rule="evenodd" d="M51.9709 32.174C52.8835 32.174 53.6256 32.8602 53.6256 33.71C53.6256 34.5572 52.8864 35.246 51.9709 35.246C51.0583 35.246 50.3162 34.5598 50.3162 33.71C50.3162 32.8629 51.0554 32.174 51.9709 32.174Z" fill="#273453"/>
<path fill-rule="evenodd" clip-rule="evenodd" d="M27.9466 23.8818C28.8592 23.8818 29.6013 24.5679 29.6013 25.4177C29.6013 26.2649 28.8621 26.9537 27.9466 26.9537C27.034 26.9537 26.2919 26.2676 26.2919 25.4177C26.2919 24.5706 27.0311 23.8818 27.9466 23.8818Z" stroke="#273453" stroke-width="0.0581783" stroke-miterlimit="22.9256"/>
<path fill-rule="evenodd" clip-rule="evenodd" d="M27.9466 23.8818C28.8592 23.8818 29.6013 24.5679 29.6013 25.4177C29.6013 26.2649 28.8621 26.9537 27.9466 26.9537C27.034 26.9537 26.2919 26.2676 26.2919 25.4177C26.2919 24.5706 27.0311 23.8818 27.9466 23.8818Z" fill="#273453"/>
<path fill-rule="evenodd" clip-rule="evenodd" d="M63.0477 20.2687C63.9604 20.2687 64.7024 20.9549 64.7024 21.8047C64.7024 22.6519 63.9632 23.3381 63.0477 23.3381C62.1351 23.3381 61.393 22.6519 61.393 21.8047C61.393 20.9576 62.1322 20.2687 63.0477 20.2687V20.2687Z" stroke="#273453" stroke-width="0.0581783" stroke-miterlimit="22.9256"/>
<path fill-rule="evenodd" clip-rule="evenodd" d="M63.0477 20.2687C63.9604 20.2687 64.7024 20.9549 64.7024 21.8047C64.7024 22.6519 63.9632 23.3381 63.0477 23.3381C62.1351 23.3381 61.393 22.6519 61.393 21.8047C61.393 20.9576 62.1322 20.2687 63.0477 20.2687Z" fill="#273453"/>
<path fill-rule="evenodd" clip-rule="evenodd" d="M69.5838 28.6745C70.4964 28.6745 71.2384 29.3607 71.2384 30.2105C71.2384 31.0576 70.4992 31.7464 69.5838 31.7464C68.6711 31.7464 67.9291 31.0603 67.9291 30.2105C67.9291 29.3633 68.6683 28.6745 69.5838 28.6745Z" stroke="#273453" stroke-width="0.0581783" stroke-miterlimit="22.9256"/>
<path fill-rule="evenodd" clip-rule="evenodd" d="M69.5838 28.6745C70.4964 28.6745 71.2384 29.3607 71.2384 30.2105C71.2384 31.0576 70.4992 31.7464 69.5838 31.7464C68.6711 31.7464 67.9291 31.0603 67.9291 30.2105C67.9291 29.3633 68.6683 28.6745 69.5838 28.6745Z" fill="#273453"/>
<path fill-rule="evenodd" clip-rule="evenodd" d="M60.1335 29.0415C61.0461 29.0415 61.7881 29.7277 61.7881 30.5775C61.7881 31.4247 61.0489 32.1135 60.1335 32.1135C59.2208 32.1135 58.4788 31.4274 58.4788 30.5775C58.4788 29.7304 59.218 29.0415 60.1335 29.0415Z" stroke="#273453" stroke-width="0.0581783" stroke-miterlimit="22.9256"/>
<path fill-rule="evenodd" clip-rule="evenodd" d="M60.1335 29.0415C61.0461 29.0415 61.7881 29.7277 61.7881 30.5775C61.7881 31.4247 61.0489 32.1135 60.1335 32.1135C59.2208 32.1135 58.4788 31.4274 58.4788 30.5775C58.4788 29.7304 59.218 29.0415 60.1335 29.0415Z" fill="#273453"/>
<path fill-rule="evenodd" clip-rule="evenodd" d="M75.8814 42.4139C76.794 42.4139 77.5361 43.1001 77.5361 43.9499C77.5361 44.7971 76.7969 45.4859 75.8814 45.4859C74.9688 45.4859 74.2267 44.7997 74.2267 43.9499C74.2267 43.1027 74.9659 42.4139 75.8814 42.4139Z" stroke="#273453" stroke-width="0.0581783" stroke-miterlimit="22.9256"/>
<path fill-rule="evenodd" clip-rule="evenodd" d="M75.8814 42.4139C76.794 42.4139 77.5361 43.1001 77.5361 43.9499C77.5361 44.7971 76.7969 45.4859 75.8814 45.4859C74.9688 45.4859 74.2267 44.7997 74.2267 43.9499C74.2267 43.1027 74.9659 42.4139 75.8814 42.4139Z" fill="#273453"/>
<path fill-rule="evenodd" clip-rule="evenodd" d="M66.9853 36.8608C67.8979 36.8608 68.64 37.547 68.64 38.3968C68.64 39.244 67.9008 39.9328 66.9853 39.9328C66.0727 39.9328 65.3306 39.2466 65.3306 38.3968C65.3306 37.5496 66.0698 36.8608 66.9853 36.8608Z" stroke="#273453" stroke-width="0.0581783" stroke-miterlimit="22.9256"/>
<path fill-rule="evenodd" clip-rule="evenodd" d="M66.9853 36.8608C67.8979 36.8608 68.64 37.547 68.64 38.3968C68.64 39.244 67.9008 39.9328 66.9853 39.9328C66.0727 39.9328 65.3306 39.2466 65.3306 38.3968C65.3306 37.5496 66.0698 36.8608 66.9853 36.8608Z" fill="#273453"/>
<path fill-rule="evenodd" clip-rule="evenodd" d="M59.033 42.7071C59.9457 42.7071 60.6877 43.3933 60.6877 44.2431C60.6877 45.0903 59.9485 45.7791 59.033 45.7791C58.1204 45.7791 57.3784 45.0929 57.3784 44.2431C57.3784 43.3959 58.1176 42.7071 59.033 42.7071Z" stroke="#273453" stroke-width="0.0581783" stroke-miterlimit="22.9256"/>
<path fill-rule="evenodd" clip-rule="evenodd" d="M59.033 42.7071C59.9457 42.7071 60.6877 43.3933 60.6877 44.2431C60.6877 45.0903 59.9485 45.7791 59.033 45.7791C58.1204 45.7791 57.3784 45.0929 57.3784 44.2431C57.3784 43.3959 58.1176 42.7071 59.033 42.7071Z" fill="#273453"/>
<path fill-rule="evenodd" clip-rule="evenodd" d="M45.0965 40.0754C46.0091 40.0754 46.7512 40.7616 46.7512 41.6114C46.7512 42.4585 46.012 43.1474 45.0965 43.1474C44.1839 43.1474 43.4418 42.4612 43.4418 41.6114C43.4418 40.7642 44.181 40.0754 45.0965 40.0754Z" stroke="#273453" stroke-width="0.0581783" stroke-miterlimit="22.9256"/>
<path fill-rule="evenodd" clip-rule="evenodd" d="M45.0965 40.0754C46.0091 40.0754 46.7512 40.7616 46.7512 41.6114C46.7512 42.4585 46.012 43.1474 45.0965 43.1474C44.1839 43.1474 43.4418 42.4612 43.4418 41.6114C43.4418 40.7642 44.181 40.0754 45.0965 40.0754Z" fill="#273453"/>
<path fill-rule="evenodd" clip-rule="evenodd" d="M22.6586 42.2691C23.5712 42.2691 24.3133 42.9553 24.3133 43.8051C24.3133 44.6522 23.5741 45.3411 22.6586 45.3411C21.746 45.3411 21.0039 44.6549 21.0039 43.8051C21.0039 42.9579 21.7431 42.2691 22.6586 42.2691V42.2691Z" stroke="#273453" stroke-width="0.0581783" stroke-miterlimit="22.9256"/>
<path fill-rule="evenodd" clip-rule="evenodd" d="M22.6586 42.2691C23.5712 42.2691 24.3133 42.9553 24.3133 43.8051C24.3133 44.6522 23.5741 45.3411 22.6586 45.3411C21.746 45.3411 21.0039 44.6549 21.0039 43.8051C21.0039 42.9579 21.7431 42.2691 22.6586 42.2691Z" fill="#273453"/>
<path fill-rule="evenodd" clip-rule="evenodd" d="M19.0365 34.961C19.9491 34.961 20.6912 35.6472 20.6912 36.497C20.6912 37.3442 19.952 38.033 19.0365 38.033C18.1238 38.033 17.3846 37.3468 17.3846 36.497C17.3846 35.6498 18.1238 34.961 19.0365 34.961Z" stroke="#273453" stroke-width="0.0581783" stroke-miterlimit="22.9256"/>
<path fill-rule="evenodd" clip-rule="evenodd" d="M19.0365 34.961C19.9491 34.961 20.6912 35.6472 20.6912 36.497C20.6912 37.3442 19.952 38.033 19.0365 38.033C18.1238 38.033 17.3846 37.3468 17.3846 36.497C17.3846 35.6498 18.1238 34.961 19.0365 34.961Z" fill="#273453"/>
<path fill-rule="evenodd" clip-rule="evenodd" d="M33.8974 39.5978C34.8101 39.5978 35.5521 40.284 35.5521 41.1338C35.5521 41.981 34.8129 42.6698 33.8974 42.6698C32.9848 42.6698 32.2427 41.9836 32.2427 41.1338C32.2427 40.2866 32.9819 39.5978 33.8974 39.5978Z" stroke="#273453" stroke-width="0.0581783" stroke-miterlimit="22.9256"/>
<path fill-rule="evenodd" clip-rule="evenodd" d="M33.8974 39.5978C34.8101 39.5978 35.5521 40.284 35.5521 41.1338C35.5521 41.981 34.8129 42.6698 33.8974 42.6698C32.9848 42.6698 32.2427 41.9836 32.2427 41.1338C32.2427 40.2866 32.9819 39.5978 33.8974 39.5978Z" fill="#273453"/>
<path fill-rule="evenodd" clip-rule="evenodd" d="M53.4836 19.8034L53.2562 18.9923C52.7729 17.2768 51.2692 14.7968 50.2259 13.0865C49.1457 11.314 47.0706 8.38055 46.4907 7.45025C44.4298 4.13586 43.5287 1.59111 42.7981 0.386117C42.6418 0.129569 42.6446 0.142526 42.4996 0C41.3 4.2447 37.5534 9.09837 35.3817 12.4827C32.8261 16.4631 29.6225 21.379 32.6186 26.8442C38.1447 36.9169 55.9169 32.7448 53.4836 19.8034Z" fill="#4683C9"/>
<path fill-rule="evenodd" clip-rule="evenodd" d="M42.2682 6.27839C41.6285 9.77792 39.5473 13.1455 38.3817 16.484C36.4455 22.0315 38.8053 23.8869 37.4889 25.2698C35.965 26.8744 32.8121 24.8264 34.3786 19.6325C35.1462 17.091 38.0263 13.1877 39.6383 10.7729C40.5993 9.33454 41.4266 7.49504 42.2682 6.27839Z" fill="white"/>
</svg>
