<svg xmlns="http://www.w3.org/2000/svg" viewBox="0 0 100 125"><path fill="none" d="M34.915 93.043h31.081l11.26-86.087H22.755l12.16 86.087zm-7.608-66.855l.631-.28c.292-.129 7.189-3.155 12.351-3.155 3.444 0 6.429 1.418 9.315 2.788 2.512 1.194 4.879 2.32 7.371 2.446.332.016.683.026 1.04.026 5.66-.001 12.432-2.09 12.717-2.179l1.368-.432a.978.978 0 011.265 1.054l-7.994 63.753a.978.978 0 01-.971.857H36.129a.979.979 0 01-.97-.848l-8.425-63.004a.98.98 0 01.573-1.026z"/><path fill="none" d="M63.539 89.108l7.697-61.383c-.871.266-7.542 2.242-13.22 2.243-.39 0-.773-.01-1.138-.028-2.883-.147-5.421-1.353-8.108-2.63-2.695-1.28-5.477-2.601-8.48-2.601-4.616 0-10.907 2.703-11.519 2.97l8.214 61.429h26.554z"/><path d="M79.107 5.333A.978.978 0 0078.371 5H21.629a.979.979 0 00-.968 1.115l12.437 88.043c.067.483.48.842.968.842h32.79a.978.978 0 00.97-.851L79.342 6.105a.983.983 0 00-.235-.772zm-13.11 87.71H34.915L22.755 6.957h54.502l-11.26 86.086z"/><path d="M35.159 90.217c.065.485.48.848.97.848h28.274a.98.98 0 00.971-.857l7.994-63.753a.977.977 0 00-1.265-1.054l-1.368.432c-.285.089-7.057 2.178-12.717 2.179-.357 0-.708-.01-1.04-.026-2.492-.126-4.86-1.251-7.371-2.446-2.886-1.37-5.871-2.788-9.315-2.788-5.162 0-12.059 3.026-12.351 3.155l-.631.28a.978.978 0 00-.573 1.024l8.422 63.006zm5.131-65.508c3.003 0 5.785 1.321 8.48 2.601 2.687 1.277 5.225 2.483 8.108 2.63.365.018.748.028 1.138.028 5.678-.001 12.349-1.978 13.22-2.243l-7.697 61.383H36.985L28.77 27.68c.613-.268 6.904-2.971 11.52-2.971z"/><text y="115" font-size="5" font-weight="bold" font-family="'Helvetica Neue', Helvetica, Arial-Unicode, Arial, Sans-serif">Created by Natalia</text><text y="120" font-size="5" font-weight="bold" font-family="'Helvetica Neue', Helvetica, Arial-Unicode, Arial, Sans-serif">from the Noun Project</text></svg>