<?xml version="1.0" standalone="no"?>
<!DOCTYPE svg PUBLIC "-//W3C//DTD SVG 1.1//EN" "http://www.w3.org/Graphics/SVG/1.1/DTD/svg11.dtd" >
<svg>
<metadata>
Created by FontForge 20090914 at Mon Feb  1 12:28:54 2021
 By www-data
&#194;&#169; 2015-2017 Apple Inc. All rights reserved.
</metadata>
<defs>
<font id="SFCompactText-Semibold" horiz-adv-x="1800" >
  <font-face 
    font-family="SF Compact Text"
    font-weight="600"
    font-stretch="normal"
    units-per-em="2048"
    panose-1="2 1 6 4 3 2 2 6 2 4"
    ascent="1638"
    descent="-410"
    x-height="1063"
    cap-height="1365"
    bbox="-542 -504 2502 2113"
    underline-thickness="78"
    underline-position="-238"
    unicode-range="U+0020-U+1F189"
  />
<missing-glyph horiz-adv-x="2048" 
d="M100 -494v217h1848v-217h-1848zM100 -49v217h1848v-217h-1848zM100 397v217h1848v-217h-1848zM100 842v217h1848v-217h-1848zM100 1288v217h1848v-217h-1848zM100 1733v217h1848v-217h-1848z" />
    <glyph glyph-name="uni2460" unicode="&#x31;&#x25cb;" 
d="M1019 363h-179v489h-9l-149 -100v158l158 106h179v-653zM900 107c104.667 0 200.671 25.5 288.004 76.5s156.166 120.667 206.499 209s75.5 185.5 75.5 291.5c0 79.333 -14.833 154.666 -44.5 225.999s-69.667 132.666 -120 183.999s-110.833 92 -181.5 122
s-145.334 45 -224.001 45s-153.334 -15 -224.001 -45s-131.167 -70.667 -181.5 -122s-90.333 -112.666 -120 -183.999s-44.5 -146.666 -44.5 -225.999c0 -106 25.167 -203.167 75.5 -291.5s119.166 -158 206.499 -209s183.333 -76.5 288 -76.5zM900.004 -50
c-100 0 -195.333 19.167 -286 57.5s-168.834 90.166 -234.501 155.499s-117.667 143.333 -156 234s-57.5 186.334 -57.5 287.001s19.167 196.334 57.5 287.001s90.333 168.667 156 234s143.834 117.166 234.501 155.499s186 57.5 286 57.5s195.333 -19.167 286 -57.5
s168.834 -90.166 234.501 -155.499s117.667 -143.333 156 -234s57.5 -186.334 57.5 -287.001s-19.167 -196.334 -57.5 -287.001s-90.333 -168.667 -156 -234s-143.834 -117.166 -234.501 -155.499s-186 -57.5 -286 -57.5z" />
    <glyph glyph-name="uni2461" unicode="&#x32;&#x25cb;" 
d="M816 804l-166.999 -0.00195312v3c0 64 22.333 116.667 67 158s106.334 62 185.001 62c73.333 0 132.666 -17.833 177.999 -53.5s68 -81.834 68 -138.501c0 -35.333 -9.83301 -68 -29.5 -98s-50.834 -65.333 -93.501 -106l-121 -117v-7h255v-144h-499v113l239 228
c25.333 24.667 43.666 45.334 54.999 62.001s17 34.334 17 53.001c0 20 -7 36 -21 48s-32 18 -54 18c-24.667 0 -44.167 -7.16699 -58.5 -21.5s-21.166 -33.166 -20.499 -56.499v-3zM900.001 106.998c104.667 0 200.671 25.5 288.004 76.5s156.166 120.667 206.499 209
s75.5 185.5 75.5 291.5c0 79.333 -14.833 154.666 -44.5 225.999s-69.667 132.666 -120 183.999s-110.833 92 -181.5 122s-145.334 45 -224.001 45s-153.334 -15 -224.001 -45s-131.167 -70.667 -181.5 -122s-90.333 -112.666 -120 -183.999s-44.5 -146.666 -44.5 -225.999
c0 -106 25.167 -203.167 75.5 -291.5s119.166 -158 206.499 -209s183.333 -76.5 288 -76.5zM900.005 -50.002c-100 0 -195.333 19.167 -286 57.5s-168.834 90.166 -234.501 155.499s-117.667 143.333 -156 234s-57.5 186.334 -57.5 287.001s19.167 196.334 57.5 287.001
s90.333 168.667 156 234s143.834 117.166 234.501 155.499s186 57.5 286 57.5s195.333 -19.167 286 -57.5s168.834 -90.166 234.501 -155.499s117.667 -143.333 156 -234s57.5 -186.334 57.5 -287.001s-19.167 -196.334 -57.5 -287.001s-90.333 -168.667 -156 -234
s-143.834 -117.166 -234.501 -155.499s-186 -57.5 -286 -57.5z" />
    <glyph glyph-name="uni2462" unicode="&#x33;&#x25cb;" 
d="M829 628l-0.00488281 134.003h66c24.667 0 45 6.5 61 19.5s24 29.833 24 50.5c-0.666992 19.333 -8.66699 34.833 -24 46.5s-35.666 17.5 -60.999 17.5c-26 0 -47 -6.83301 -63 -20.5s-24.667 -31.167 -26 -52.5h-165c2.66699 63.333 26.167 113.166 70.5 149.499
s106.5 54.5 186.5 54.5c76 0 136.833 -16 182.5 -48s68.834 -74 69.501 -126c0.666992 -36.667 -12 -68.334 -38 -95.001s-54.667 -42.334 -86 -47.001v-9c37.333 -3.33301 70.333 -18.833 99 -46.5s43.334 -63.5 44.001 -107.5c0.666992 -60 -24.333 -107.667 -75 -143
s-116.667 -53 -198 -53c-79.333 0 -142.666 19 -189.999 57s-71.666 87.333 -72.999 148h164c1.33301 -20.667 11 -37.5 29 -50.5s41 -19.5 69 -19.5c30 0 54 6.5 72 19.5s27 30.167 27 51.5c-0.666992 21.333 -9.5 38.333 -26.5 51s-40.5 19 -70.5 19h-68zM899.995 107.003
c104.667 0 200.671 25.5 288.004 76.5s156.166 120.667 206.499 209s75.5 185.5 75.5 291.5c0 79.333 -14.833 154.666 -44.5 225.999s-69.667 132.666 -120 183.999s-110.833 92 -181.5 122s-145.334 45 -224.001 45s-153.334 -15 -224.001 -45
s-131.167 -70.667 -181.5 -122s-90.333 -112.666 -120 -183.999s-44.5 -146.666 -44.5 -225.999c0 -106 25.167 -203.167 75.5 -291.5s119.166 -158 206.499 -209s183.333 -76.5 288 -76.5zM899.999 -49.9971c-100 0 -195.333 19.167 -286 57.5
s-168.834 90.166 -234.501 155.499s-117.667 143.333 -156 234s-57.5 186.334 -57.5 287.001s19.167 196.334 57.5 287.001s90.333 168.667 156 234s143.834 117.166 234.501 155.499s186 57.5 286 57.5s195.333 -19.167 286 -57.5s168.834 -90.166 234.501 -155.499
s117.667 -143.333 156 -234s57.5 -186.334 57.5 -287.001s-19.167 -196.334 -57.5 -287.001s-90.333 -168.667 -156 -234s-143.834 -117.166 -234.501 -155.499s-186 -57.5 -286 -57.5z" />
    <glyph glyph-name="uni2463" unicode="&#x34;&#x25cb;" 
d="M834 1016h244v-408h90v-137h-90v-108h-152v108h-327v140c42.667 82 121 217 235 405zM754 608h172v281h-12c-82.667 -140 -136 -233 -160 -279v-2zM900 107c104.667 0 200.671 25.5 288.004 76.5s156.166 120.667 206.499 209s75.5 185.5 75.5 291.5
c0 79.333 -14.833 154.666 -44.5 225.999s-69.667 132.666 -120 183.999s-110.833 92 -181.5 122s-145.334 45 -224.001 45s-153.334 -15 -224.001 -45s-131.167 -70.667 -181.5 -122s-90.333 -112.666 -120 -183.999s-44.5 -146.666 -44.5 -225.999
c0 -106 25.167 -203.167 75.5 -291.5s119.166 -158 206.499 -209s183.333 -76.5 288 -76.5zM900.004 -50c-100 0 -195.333 19.167 -286 57.5s-168.834 90.166 -234.501 155.499s-117.667 143.333 -156 234s-57.5 186.334 -57.5 287.001s19.167 196.334 57.5 287.001
s90.333 168.667 156 234s143.834 117.166 234.501 155.499s186 57.5 286 57.5s195.333 -19.167 286 -57.5s168.834 -90.166 234.501 -155.499s117.667 -143.333 156 -234s57.5 -186.334 57.5 -287.001s-19.167 -196.334 -57.5 -287.001s-90.333 -168.667 -156 -234
s-143.834 -117.166 -234.501 -155.499s-186 -57.5 -286 -57.5z" />
    <glyph glyph-name="uni2464" unicode="&#x35;&#x25cb;" 
d="M650 555l165.001 -0.000976562c4 -19.333 15 -34.5 33 -45.5s38.667 -16.5 62 -16.5c26.667 0 49.667 8.83301 69 26.5s29 40.834 29 69.501c0 26.667 -9.5 48.5 -28.5 65.5s-42.167 25.5 -69.5 25.5c-40.667 0 -70.334 -15.667 -89.001 -47h-158l26 388h448v-132h-312
l-12 -146h9c9.33301 16.667 26.5 31 51.5 43s54.5 18 88.5 18c63.333 0 115.333 -19 156 -57s61 -89 61 -153c0 -72.667 -24.5 -130.5 -73.5 -173.5s-114.5 -64.5 -196.5 -64.5c-75.333 0 -137 18.667 -185 56s-72.667 85 -74 143zM900.001 106.999
c104.667 0 200.671 25.5 288.004 76.5s156.166 120.667 206.499 209s75.5 185.5 75.5 291.5c0 79.333 -14.833 154.666 -44.5 225.999s-69.667 132.666 -120 183.999s-110.833 92 -181.5 122s-145.334 45 -224.001 45s-153.334 -15 -224.001 -45
s-131.167 -70.667 -181.5 -122s-90.333 -112.666 -120 -183.999s-44.5 -146.666 -44.5 -225.999c0 -106 25.167 -203.167 75.5 -291.5s119.166 -158 206.499 -209s183.333 -76.5 288 -76.5zM900.005 -50.001c-100 0 -195.333 19.167 -286 57.5
s-168.834 90.166 -234.501 155.499s-117.667 143.333 -156 234s-57.5 186.334 -57.5 287.001s19.167 196.334 57.5 287.001s90.333 168.667 156 234s143.834 117.166 234.501 155.499s186 57.5 286 57.5s195.333 -19.167 286 -57.5s168.834 -90.166 234.501 -155.499
s117.667 -143.333 156 -234s57.5 -186.334 57.5 -287.001s-19.167 -196.334 -57.5 -287.001s-90.333 -168.667 -156 -234s-143.834 -117.166 -234.501 -155.499s-186 -57.5 -286 -57.5z" />
    <glyph glyph-name="uni2465" unicode="&#x36;&#x25cb;" 
d="M1168 590c0 -72 -23.999 -129.666 -71.999 -172.999s-112.333 -65 -193 -65c-82 0 -147.667 22.667 -197 68s-74 105.666 -74 180.999s32 159.333 96 252c19.333 31.333 60.666 86 123.999 164h205c-15.333 -15.333 -44.666 -49.666 -87.999 -102.999
s-72 -90.333 -86 -111c-13.333 -20.667 -21.333 -33.667 -24 -39l10 -1c26 24.667 59.667 37 101 37c57.333 0 104.666 -19.833 141.999 -59.5s56 -89.834 56 -150.501zM801.001 584.001c0 -27.333 9.5 -50.166 28.5 -68.499s42.833 -27.5 71.5 -27.5
s52.667 9.16699 72 27.5s29 41.166 29 68.499s-9.66699 50.333 -29 69s-43.333 28 -72 28s-52.5 -9.33301 -71.5 -28s-28.5 -41.667 -28.5 -69zM900.001 107.001c104.667 0 200.671 25.5 288.004 76.5s156.166 120.667 206.499 209s75.5 185.5 75.5 291.5
c0 79.333 -14.833 154.666 -44.5 225.999s-69.667 132.666 -120 183.999s-110.833 92 -181.5 122s-145.334 45 -224.001 45s-153.334 -15 -224.001 -45s-131.167 -70.667 -181.5 -122s-90.333 -112.666 -120 -183.999s-44.5 -146.666 -44.5 -225.999
c0 -106 25.167 -203.167 75.5 -291.5s119.166 -158 206.499 -209s183.333 -76.5 288 -76.5zM900.005 -49.999c-100 0 -195.333 19.167 -286 57.5s-168.834 90.166 -234.501 155.499s-117.667 143.333 -156 234s-57.5 186.334 -57.5 287.001s19.167 196.334 57.5 287.001
s90.333 168.667 156 234s143.834 117.166 234.501 155.499s186 57.5 286 57.5s195.333 -19.167 286 -57.5s168.834 -90.166 234.501 -155.499s117.667 -143.333 156 -234s57.5 -186.334 57.5 -287.001s-19.167 -196.334 -57.5 -287.001s-90.333 -168.667 -156 -234
s-143.834 -117.166 -234.501 -155.499s-186 -57.5 -286 -57.5z" />
    <glyph glyph-name="uni2466" unicode="&#x37;&#x25cb;" 
d="M658 1011h505v-145l-261 -508h-191l271 503v6h-324v144zM900 107c104.667 0 200.671 25.5 288.004 76.5s156.166 120.667 206.499 209s75.5 185.5 75.5 291.5c0 79.333 -14.833 154.666 -44.5 225.999s-69.667 132.666 -120 183.999s-110.833 92 -181.5 122
s-145.334 45 -224.001 45s-153.334 -15 -224.001 -45s-131.167 -70.667 -181.5 -122s-90.333 -112.666 -120 -183.999s-44.5 -146.666 -44.5 -225.999c0 -106 25.167 -203.167 75.5 -291.5s119.166 -158 206.499 -209s183.333 -76.5 288 -76.5zM900.004 -50
c-100 0 -195.333 19.167 -286 57.5s-168.834 90.166 -234.501 155.499s-117.667 143.333 -156 234s-57.5 186.334 -57.5 287.001s19.167 196.334 57.5 287.001s90.333 168.667 156 234s143.834 117.166 234.501 155.499s186 57.5 286 57.5s195.333 -19.167 286 -57.5
s168.834 -90.166 234.501 -155.499s117.667 -143.333 156 -234s57.5 -186.334 57.5 -287.001s-19.167 -196.334 -57.5 -287.001s-90.333 -168.667 -156 -234s-143.834 -117.166 -234.501 -155.499s-186 -57.5 -286 -57.5z" />
    <glyph glyph-name="uni2467" unicode="&#x38;&#x25cb;" 
d="M900 473c29.333 0 53.667 8.16699 73 24.5s29 37.166 29 62.499s-9.5 46.166 -28.5 62.499s-43.5 24.5 -73.5 24.5s-54.667 -8.16699 -74 -24.5s-29 -37.166 -29 -62.499s9.66699 -46.166 29 -62.499s44 -24.5 74 -24.5zM900.001 758c24.667 0 44.834 7 60.501 21
s23.5 31.667 23.5 53s-7.83301 38.833 -23.5 52.5s-35.834 20.5 -60.501 20.5s-44.834 -6.83301 -60.501 -20.5s-23.5 -31.167 -23.5 -52.5s7.83301 -39 23.5 -53s35.834 -21 60.501 -21zM899.001 352c-86 0 -154.5 17.667 -205.5 53s-76.5 82.666 -76.5 141.999
c0 41.333 13.167 76.166 39.5 104.499s61.833 45.833 106.5 52.5v8c-79.333 22.667 -119 69.334 -119 140.001c0 52.667 23.5 95 70.5 127s108.833 48 185.5 48s138.5 -16 185.5 -48s70.5 -74.333 70.5 -127c0 -70.667 -39.667 -117.334 -119 -140.001v-8
c44.667 -6.66699 80.167 -24.167 106.5 -52.5s39.5 -63.166 39.5 -104.499c0 -59.333 -25.833 -106.666 -77.5 -141.999s-120.5 -53 -206.5 -53zM900.001 107c104.667 0 200.671 25.5 288.004 76.5s156.166 120.667 206.499 209s75.5 185.5 75.5 291.5
c0 79.333 -14.833 154.666 -44.5 225.999s-69.667 132.666 -120 183.999s-110.833 92 -181.5 122s-145.334 45 -224.001 45s-153.334 -15 -224.001 -45s-131.167 -70.667 -181.5 -122s-90.333 -112.666 -120 -183.999s-44.5 -146.666 -44.5 -225.999
c0 -106 25.167 -203.167 75.5 -291.5s119.166 -158 206.499 -209s183.333 -76.5 288 -76.5zM900.005 -50c-100 0 -195.333 19.167 -286 57.5s-168.834 90.166 -234.501 155.499s-117.667 143.333 -156 234s-57.5 186.334 -57.5 287.001s19.167 196.334 57.5 287.001
s90.333 168.667 156 234s143.834 117.166 234.501 155.499s186 57.5 286 57.5s195.333 -19.167 286 -57.5s168.834 -90.166 234.501 -155.499s117.667 -143.333 156 -234s57.5 -186.334 57.5 -287.001s-19.167 -196.334 -57.5 -287.001s-90.333 -168.667 -156 -234
s-143.834 -117.166 -234.501 -155.499s-186 -57.5 -286 -57.5z" />
    <glyph glyph-name="uni2468" unicode="&#x39;&#x25cb;" 
d="M634 789c0 72 24 129.668 72 173.001s112 65 192 65c82 0 147.833 -22.5 197.5 -67.5s74.5 -105.5 74.5 -181.5c0 -72 -29.667 -151.667 -89 -239c-15.333 -26 -59 -85 -131 -177h-205c16.667 17.333 47 53.166 91 107.499s72.333 91.5 85 111.5
c10.667 16 18 27.333 22 34l-10 1c-25.333 -24 -59.333 -36 -102 -36c-56.667 0 -103.667 19.833 -141 59.5s-56 89.5 -56 149.5zM1001 795.001c0 27.333 -9.5 50.166 -28.5 68.499s-42.833 27.5 -71.5 27.5s-52.667 -9.16699 -72 -27.5s-29 -41.166 -29 -68.499
s9.66699 -50.166 29 -68.499s43.333 -27.5 72 -27.5s52.5 9.16699 71.5 27.5s28.5 41.166 28.5 68.499zM900 107.001c104.667 0 200.671 25.5 288.004 76.5s156.166 120.667 206.499 209s75.5 185.5 75.5 291.5c0 79.333 -14.833 154.666 -44.5 225.999
s-69.667 132.666 -120 183.999s-110.833 92 -181.5 122s-145.334 45 -224.001 45s-153.334 -15 -224.001 -45s-131.167 -70.667 -181.5 -122s-90.333 -112.666 -120 -183.999s-44.5 -146.666 -44.5 -225.999c0 -106 25.167 -203.167 75.5 -291.5s119.166 -158 206.499 -209
s183.333 -76.5 288 -76.5zM900.004 -49.999c-100 0 -195.333 19.167 -286 57.5s-168.834 90.166 -234.501 155.499s-117.667 143.333 -156 234s-57.5 186.334 -57.5 287.001s19.167 196.334 57.5 287.001s90.333 168.667 156 234s143.834 117.166 234.501 155.499
s186 57.5 286 57.5s195.333 -19.167 286 -57.5s168.834 -90.166 234.501 -155.499s117.667 -143.333 156 -234s57.5 -186.334 57.5 -287.001s-19.167 -196.334 -57.5 -287.001s-90.333 -168.667 -156 -234s-143.834 -117.166 -234.501 -155.499s-186 -57.5 -286 -57.5z" />
    <glyph glyph-name="uni24B6" unicode="A&#x25cb;" 
d="M825 652h150l-68 232h-14zM753 388h-176l215 653h216l215 -653h-176l-41 134h-212zM900 107c104.667 0 200.671 25.5 288.004 76.5s156.166 120.667 206.499 209s75.5 185.5 75.5 291.5c0 79.333 -14.833 154.666 -44.5 225.999s-69.667 132.666 -120 183.999
s-110.833 92 -181.5 122s-145.334 45 -224.001 45s-153.334 -15 -224.001 -45s-131.167 -70.667 -181.5 -122s-90.333 -112.666 -120 -183.999s-44.5 -146.666 -44.5 -225.999c0 -106 25.167 -203.167 75.5 -291.5s119.166 -158 206.499 -209s183.333 -76.5 288 -76.5z
M900.004 -50c-100 0 -195.333 19.167 -286 57.5s-168.834 90.166 -234.501 155.499s-117.667 143.333 -156 234s-57.5 186.334 -57.5 287.001s19.167 196.334 57.5 287.001s90.333 168.667 156 234s143.834 117.166 234.501 155.499s186 57.5 286 57.5
s195.333 -19.167 286 -57.5s168.834 -90.166 234.501 -155.499s117.667 -143.333 156 -234s57.5 -186.334 57.5 -287.001s-19.167 -196.334 -57.5 -287.001s-90.333 -168.667 -156 -234s-143.834 -117.166 -234.501 -155.499s-186 -57.5 -286 -57.5z" />
    <glyph glyph-name="uni24B7" unicode="B&#x25cb;" 
d="M652 363l-0.000976562 653h317c62.667 0 112.167 -14.167 148.5 -42.5s54.5 -67.5 54.5 -117.5c0 -37.333 -11.167 -68.5 -33.5 -93.5s-52.166 -41.167 -89.499 -48.5v-8c46.667 -5.33301 84 -22 112 -50s42 -65.333 42 -112c0 -54 -21.333 -97.667 -64 -131
s-97.667 -50 -165 -50h-322zM819.999 899l0.000976562 -147h77c72 0 108 25 108 75c0 22 -7.83301 39.5 -23.5 52.5s-36.834 19.5 -63.501 19.5h-98zM819 649v-162h86c81.333 0 122 26.667 122 80c0 25.333 -9 45.333 -27 60s-43.333 22 -76 22h-105zM900 107
c104.667 0 200.671 25.5 288.004 76.5s156.166 120.667 206.499 209s75.5 185.5 75.5 291.5c0 79.333 -14.833 154.666 -44.5 225.999s-69.667 132.666 -120 183.999s-110.833 92 -181.5 122s-145.334 45 -224.001 45s-153.334 -15 -224.001 -45
s-131.167 -70.667 -181.5 -122s-90.333 -112.666 -120 -183.999s-44.5 -146.666 -44.5 -225.999c0 -106 25.167 -203.167 75.5 -291.5s119.166 -158 206.499 -209s183.333 -76.5 288 -76.5zM900.004 -50c-100 0 -195.333 19.167 -286 57.5s-168.834 90.166 -234.501 155.499
s-117.667 143.333 -156 234s-57.5 186.334 -57.5 287.001s19.167 196.334 57.5 287.001s90.333 168.667 156 234s143.834 117.166 234.501 155.499s186 57.5 286 57.5s195.333 -19.167 286 -57.5s168.834 -90.166 234.501 -155.499s117.667 -143.333 156 -234
s57.5 -186.334 57.5 -287.001s-19.167 -196.334 -57.5 -287.001s-90.333 -168.667 -156 -234s-143.834 -117.166 -234.501 -155.499s-186 -57.5 -286 -57.5z" />
    <glyph glyph-name="uni24B8" unicode="C&#x25cb;" 
d="M795 722v-66c0 -49.333 10.167 -87.333 30.5 -114s49.166 -40 86.499 -40c33.333 0 59.833 9.66699 79.5 29s29.5 45 29.5 77h172v-18c0 -70 -26.333 -127.167 -79 -171.5s-120.667 -66.5 -204 -66.5c-94 0 -166.833 26.667 -218.5 80s-77.5 128 -77.5 224v66
c0 96 26 170.833 78 224.5s124.667 80.5 218 80.5c83.333 0 151.333 -22.5 204 -67.5s79 -103.5 79 -175.5v-17h-172c0 33.333 -9.83301 60 -29.5 80s-46.167 30 -79.5 30c-37.333 0 -66.166 -13.5 -86.499 -40.5s-30.5 -65.167 -30.5 -114.5zM900 107
c104.667 0 200.671 25.5 288.004 76.5s156.166 120.667 206.499 209s75.5 185.5 75.5 291.5c0 79.333 -14.833 154.666 -44.5 225.999s-69.667 132.666 -120 183.999s-110.833 92 -181.5 122s-145.334 45 -224.001 45s-153.334 -15 -224.001 -45
s-131.167 -70.667 -181.5 -122s-90.333 -112.666 -120 -183.999s-44.5 -146.666 -44.5 -225.999c0 -106 25.167 -203.167 75.5 -291.5s119.166 -158 206.499 -209s183.333 -76.5 288 -76.5zM900.004 -50c-100 0 -195.333 19.167 -286 57.5s-168.834 90.166 -234.501 155.499
s-117.667 143.333 -156 234s-57.5 186.334 -57.5 287.001s19.167 196.334 57.5 287.001s90.333 168.667 156 234s143.834 117.166 234.501 155.499s186 57.5 286 57.5s195.333 -19.167 286 -57.5s168.834 -90.166 234.501 -155.499s117.667 -143.333 156 -234
s57.5 -186.334 57.5 -287.001s-19.167 -196.334 -57.5 -287.001s-90.333 -168.667 -156 -234s-143.834 -117.166 -234.501 -155.499s-186 -57.5 -286 -57.5z" />
    <glyph glyph-name="uni24B9" unicode="D&#x25cb;" 
d="M651 1016l274.999 -0.000976562c100.667 0 176.834 -27.833 228.501 -83.5s77.5 -136.5 77.5 -242.5c0 -105.333 -26 -186.166 -78 -242.499s-128 -84.5 -228 -84.5h-275v653zM822.999 875.999v-372h76c52.667 0 91.167 14.833 115.5 44.5s36.5 76.5 36.5 140.5
s-12.167 111.167 -36.5 141.5s-62.833 45.5 -115.5 45.5h-76zM899.999 106.999c104.667 0 200.671 25.5 288.004 76.5s156.166 120.667 206.499 209s75.5 185.5 75.5 291.5c0 79.333 -14.833 154.666 -44.5 225.999s-69.667 132.666 -120 183.999s-110.833 92 -181.5 122
s-145.334 45 -224.001 45s-153.334 -15 -224.001 -45s-131.167 -70.667 -181.5 -122s-90.333 -112.666 -120 -183.999s-44.5 -146.666 -44.5 -225.999c0 -106 25.167 -203.167 75.5 -291.5s119.166 -158 206.499 -209s183.333 -76.5 288 -76.5zM900.003 -50.001
c-100 0 -195.333 19.167 -286 57.5s-168.834 90.166 -234.501 155.499s-117.667 143.333 -156 234s-57.5 186.334 -57.5 287.001s19.167 196.334 57.5 287.001s90.333 168.667 156 234s143.834 117.166 234.501 155.499s186 57.5 286 57.5s195.333 -19.167 286 -57.5
s168.834 -90.166 234.501 -155.499s117.667 -143.333 156 -234s57.5 -186.334 57.5 -287.001s-19.167 -196.334 -57.5 -287.001s-90.333 -168.667 -156 -234s-143.834 -117.166 -234.501 -155.499s-186 -57.5 -286 -57.5z" />
    <glyph glyph-name="uni24BA" unicode="E&#x25cb;" 
d="M1141 502v-139h-463v653h463v-138h-292v-125h274v-121h-274v-130h292zM900 107c104.667 0 200.671 25.5 288.004 76.5s156.166 120.667 206.499 209s75.5 185.5 75.5 291.5c0 79.333 -14.833 154.666 -44.5 225.999s-69.667 132.666 -120 183.999s-110.833 92 -181.5 122
s-145.334 45 -224.001 45s-153.334 -15 -224.001 -45s-131.167 -70.667 -181.5 -122s-90.333 -112.666 -120 -183.999s-44.5 -146.666 -44.5 -225.999c0 -106 25.167 -203.167 75.5 -291.5s119.166 -158 206.499 -209s183.333 -76.5 288 -76.5zM900.004 -50
c-100 0 -195.333 19.167 -286 57.5s-168.834 90.166 -234.501 155.499s-117.667 143.333 -156 234s-57.5 186.334 -57.5 287.001s19.167 196.334 57.5 287.001s90.333 168.667 156 234s143.834 117.166 234.501 155.499s186 57.5 286 57.5s195.333 -19.167 286 -57.5
s168.834 -90.166 234.501 -155.499s117.667 -143.333 156 -234s57.5 -186.334 57.5 -287.001s-19.167 -196.334 -57.5 -287.001s-90.333 -168.667 -156 -234s-143.834 -117.166 -234.501 -155.499s-186 -57.5 -286 -57.5z" />
    <glyph glyph-name="uni24BB" unicode="F&#x25cb;" 
d="M875 363h-178v653h460v-140h-282v-135h257v-139h-257v-239zM900 107c104.667 0 200.671 25.5 288.004 76.5s156.166 120.667 206.499 209s75.5 185.5 75.5 291.5c0 79.333 -14.833 154.666 -44.5 225.999s-69.667 132.666 -120 183.999s-110.833 92 -181.5 122
s-145.334 45 -224.001 45s-153.334 -15 -224.001 -45s-131.167 -70.667 -181.5 -122s-90.333 -112.666 -120 -183.999s-44.5 -146.666 -44.5 -225.999c0 -106 25.167 -203.167 75.5 -291.5s119.166 -158 206.499 -209s183.333 -76.5 288 -76.5zM900.004 -50
c-100 0 -195.333 19.167 -286 57.5s-168.834 90.166 -234.501 155.499s-117.667 143.333 -156 234s-57.5 186.334 -57.5 287.001s19.167 196.334 57.5 287.001s90.333 168.667 156 234s143.834 117.166 234.501 155.499s186 57.5 286 57.5s195.333 -19.167 286 -57.5
s168.834 -90.166 234.501 -155.499s117.667 -143.333 156 -234s57.5 -186.334 57.5 -287.001s-19.167 -196.334 -57.5 -287.001s-90.333 -168.667 -156 -234s-143.834 -117.166 -234.501 -155.499s-186 -57.5 -286 -57.5z" />
    <glyph glyph-name="uni24BC" unicode="G&#x25cb;" 
d="M1195 798l-170 -0.000976562c-5.33301 28 -18.333 49.833 -39 65.5s-47 23.5 -79 23.5c-40 0 -71.167 -14 -93.5 -42s-33.5 -67.667 -33.5 -119v-79c0 -50.667 11.167 -90 33.5 -118s55.5 -42 99.5 -42c35.333 0 63.166 8.33301 83.499 25s31.5 38.667 33.5 66v26h-126
v121h291v-121c0 -75.333 -25.167 -136.166 -75.5 -182.499s-120.166 -69.5 -209.499 -69.5c-96.667 0 -171.5 27.167 -224.5 81.5s-79.5 128.166 -79.5 221.499v75c0 90.667 27.167 162.834 81.5 216.501s128.833 80.5 223.5 80.5c82.667 0 150.167 -21.667 202.5 -65
s79.5 -98 81.5 -164zM900 106.999c104.667 0 200.671 25.5 288.004 76.5s156.166 120.667 206.499 209s75.5 185.5 75.5 291.5c0 79.333 -14.833 154.666 -44.5 225.999s-69.667 132.666 -120 183.999s-110.833 92 -181.5 122s-145.334 45 -224.001 45
s-153.334 -15 -224.001 -45s-131.167 -70.667 -181.5 -122s-90.333 -112.666 -120 -183.999s-44.5 -146.666 -44.5 -225.999c0 -106 25.167 -203.167 75.5 -291.5s119.166 -158 206.499 -209s183.333 -76.5 288 -76.5zM900.004 -50.001c-100 0 -195.333 19.167 -286 57.5
s-168.834 90.166 -234.501 155.499s-117.667 143.333 -156 234s-57.5 186.334 -57.5 287.001s19.167 196.334 57.5 287.001s90.333 168.667 156 234s143.834 117.166 234.501 155.499s186 57.5 286 57.5s195.333 -19.167 286 -57.5s168.834 -90.166 234.501 -155.499
s117.667 -143.333 156 -234s57.5 -186.334 57.5 -287.001s-19.167 -196.334 -57.5 -287.001s-90.333 -168.667 -156 -234s-143.834 -117.166 -234.501 -155.499s-186 -57.5 -286 -57.5z" />
    <glyph glyph-name="uni24BD" unicode="H&#x25cb;" 
d="M1190 363h-169v255h-241v-255h-169v653h169v-251h241v251h169v-653zM900 107c104.667 0 200.671 25.5 288.004 76.5s156.166 120.667 206.499 209s75.5 185.5 75.5 291.5c0 79.333 -14.833 154.666 -44.5 225.999s-69.667 132.666 -120 183.999s-110.833 92 -181.5 122
s-145.334 45 -224.001 45s-153.334 -15 -224.001 -45s-131.167 -70.667 -181.5 -122s-90.333 -112.666 -120 -183.999s-44.5 -146.666 -44.5 -225.999c0 -106 25.167 -203.167 75.5 -291.5s119.166 -158 206.499 -209s183.333 -76.5 288 -76.5zM900.004 -50
c-100 0 -195.333 19.167 -286 57.5s-168.834 90.166 -234.501 155.499s-117.667 143.333 -156 234s-57.5 186.334 -57.5 287.001s19.167 196.334 57.5 287.001s90.333 168.667 156 234s143.834 117.166 234.501 155.499s186 57.5 286 57.5s195.333 -19.167 286 -57.5
s168.834 -90.166 234.501 -155.499s117.667 -143.333 156 -234s57.5 -186.334 57.5 -287.001s-19.167 -196.334 -57.5 -287.001s-90.333 -168.667 -156 -234s-143.834 -117.166 -234.501 -155.499s-186 -57.5 -286 -57.5z" />
    <glyph glyph-name="uni24BE" unicode="I&#x25cb;" 
d="M995 363h-190v653h190v-653zM900 107c104.667 0 200.671 25.5 288.004 76.5s156.166 120.667 206.499 209s75.5 185.5 75.5 291.5c0 79.333 -14.833 154.666 -44.5 225.999s-69.667 132.666 -120 183.999s-110.833 92 -181.5 122s-145.334 45 -224.001 45
s-153.334 -15 -224.001 -45s-131.167 -70.667 -181.5 -122s-90.333 -112.666 -120 -183.999s-44.5 -146.666 -44.5 -225.999c0 -106 25.167 -203.167 75.5 -291.5s119.166 -158 206.499 -209s183.333 -76.5 288 -76.5zM900.004 -50c-100 0 -195.333 19.167 -286 57.5
s-168.834 90.166 -234.501 155.499s-117.667 143.333 -156 234s-57.5 186.334 -57.5 287.001s19.167 196.334 57.5 287.001s90.333 168.667 156 234s143.834 117.166 234.501 155.499s186 57.5 286 57.5s195.333 -19.167 286 -57.5s168.834 -90.166 234.501 -155.499
s117.667 -143.333 156 -234s57.5 -186.334 57.5 -287.001s-19.167 -196.334 -57.5 -287.001s-90.333 -168.667 -156 -234s-143.834 -117.166 -234.501 -155.499s-186 -57.5 -286 -57.5z" />
    <glyph glyph-name="uni24BF" unicode="J&#x25cb;" 
d="M622 581h172.998c0.666992 -24.667 7.33398 -43.667 20.001 -57s30.334 -20 53.001 -20c50 0 75 29 75 87v416h179v-418c0 -77.333 -22.167 -137.833 -66.5 -181.5s-105.5 -65.5 -183.5 -65.5s-139.167 21.833 -183.5 65.5s-66.5 101.5 -66.5 173.5zM899.998 107
c104.667 0 200.671 25.5 288.004 76.5s156.166 120.667 206.499 209s75.5 185.5 75.5 291.5c0 79.333 -14.833 154.666 -44.5 225.999s-69.667 132.666 -120 183.999s-110.833 92 -181.5 122s-145.334 45 -224.001 45s-153.334 -15 -224.001 -45
s-131.167 -70.667 -181.5 -122s-90.333 -112.666 -120 -183.999s-44.5 -146.666 -44.5 -225.999c0 -106 25.167 -203.167 75.5 -291.5s119.166 -158 206.499 -209s183.333 -76.5 288 -76.5zM900.002 -50c-100 0 -195.333 19.167 -286 57.5s-168.834 90.166 -234.501 155.499
s-117.667 143.333 -156 234s-57.5 186.334 -57.5 287.001s19.167 196.334 57.5 287.001s90.333 168.667 156 234s143.834 117.166 234.501 155.499s186 57.5 286 57.5s195.333 -19.167 286 -57.5s168.834 -90.166 234.501 -155.499s117.667 -143.333 156 -234
s57.5 -186.334 57.5 -287.001s-19.167 -196.334 -57.5 -287.001s-90.333 -168.667 -156 -234s-143.834 -117.166 -234.501 -155.499s-186 -57.5 -286 -57.5z" />
    <glyph glyph-name="uni24C0" unicode="K&#x25cb;" 
d="M1214 1016l-221 -294l228 -359h-204l-156 248l-63 -71v-177h-164v653h164v-264h12l212 264h192zM900 107c104.667 0 200.671 25.5 288.004 76.5s156.166 120.667 206.499 209s75.5 185.5 75.5 291.5c0 79.333 -14.833 154.666 -44.5 225.999
s-69.667 132.666 -120 183.999s-110.833 92 -181.5 122s-145.334 45 -224.001 45s-153.334 -15 -224.001 -45s-131.167 -70.667 -181.5 -122s-90.333 -112.666 -120 -183.999s-44.5 -146.666 -44.5 -225.999c0 -106 25.167 -203.167 75.5 -291.5s119.166 -158 206.499 -209
s183.333 -76.5 288 -76.5zM900.004 -50c-100 0 -195.333 19.167 -286 57.5s-168.834 90.166 -234.501 155.499s-117.667 143.333 -156 234s-57.5 186.334 -57.5 287.001s19.167 196.334 57.5 287.001s90.333 168.667 156 234s143.834 117.166 234.501 155.499
s186 57.5 286 57.5s195.333 -19.167 286 -57.5s168.834 -90.166 234.501 -155.499s117.667 -143.333 156 -234s57.5 -186.334 57.5 -287.001s-19.167 -196.334 -57.5 -287.001s-90.333 -168.667 -156 -234s-143.834 -117.166 -234.501 -155.499s-186 -57.5 -286 -57.5z" />
    <glyph glyph-name="uni24C1" unicode="L&#x25cb;" 
d="M1166 525v-152h-454v653h181v-501h273zM900 107c104.667 0 200.671 25.5 288.004 76.5s156.166 120.667 206.499 209s75.5 185.5 75.5 291.5c0 79.333 -14.833 154.666 -44.5 225.999s-69.667 132.666 -120 183.999s-110.833 92 -181.5 122s-145.334 45 -224.001 45
s-153.334 -15 -224.001 -45s-131.167 -70.667 -181.5 -122s-90.333 -112.666 -120 -183.999s-44.5 -146.666 -44.5 -225.999c0 -106 25.167 -203.167 75.5 -291.5s119.166 -158 206.499 -209s183.333 -76.5 288 -76.5zM900.004 -50c-100 0 -195.333 19.167 -286 57.5
s-168.834 90.166 -234.501 155.499s-117.667 143.333 -156 234s-57.5 186.334 -57.5 287.001s19.167 196.334 57.5 287.001s90.333 168.667 156 234s143.834 117.166 234.501 155.499s186 57.5 286 57.5s195.333 -19.167 286 -57.5s168.834 -90.166 234.501 -155.499
s117.667 -143.333 156 -234s57.5 -186.334 57.5 -287.001s-19.167 -196.334 -57.5 -287.001s-90.333 -168.667 -156 -234s-143.834 -117.166 -234.501 -155.499s-186 -57.5 -286 -57.5z" />
    <glyph glyph-name="uni24C2" unicode="M&#x25cb;" 
d="M714 363h-147v653h171l160 -369h5l161 369h169v-653h-149v399h-13l-121 -308h-101l-121 308h-14v-399zM900 107c104.667 0 200.671 25.5 288.004 76.5s156.166 120.667 206.499 209s75.5 185.5 75.5 291.5c0 79.333 -14.833 154.666 -44.5 225.999
s-69.667 132.666 -120 183.999s-110.833 92 -181.5 122s-145.334 45 -224.001 45s-153.334 -15 -224.001 -45s-131.167 -70.667 -181.5 -122s-90.333 -112.666 -120 -183.999s-44.5 -146.666 -44.5 -225.999c0 -106 25.167 -203.167 75.5 -291.5s119.166 -158 206.499 -209
s183.333 -76.5 288 -76.5zM900.004 -50c-100 0 -195.333 19.167 -286 57.5s-168.834 90.166 -234.501 155.499s-117.667 143.333 -156 234s-57.5 186.334 -57.5 287.001s19.167 196.334 57.5 287.001s90.333 168.667 156 234s143.834 117.166 234.501 155.499
s186 57.5 286 57.5s195.333 -19.167 286 -57.5s168.834 -90.166 234.501 -155.499s117.667 -143.333 156 -234s57.5 -186.334 57.5 -287.001s-19.167 -196.334 -57.5 -287.001s-90.333 -168.667 -156 -234s-143.834 -117.166 -234.501 -155.499s-186 -57.5 -286 -57.5z" />
    <glyph glyph-name="uni24C3" unicode="N&#x25cb;" 
d="M772 363h-155v653h131l268 -371h12v371h155v-653h-130l-270 376h-11v-376zM900 107c104.667 0 200.671 25.5 288.004 76.5s156.166 120.667 206.499 209s75.5 185.5 75.5 291.5c0 79.333 -14.833 154.666 -44.5 225.999s-69.667 132.666 -120 183.999
s-110.833 92 -181.5 122s-145.334 45 -224.001 45s-153.334 -15 -224.001 -45s-131.167 -70.667 -181.5 -122s-90.333 -112.666 -120 -183.999s-44.5 -146.666 -44.5 -225.999c0 -106 25.167 -203.167 75.5 -291.5s119.166 -158 206.499 -209s183.333 -76.5 288 -76.5z
M900.004 -50c-100 0 -195.333 19.167 -286 57.5s-168.834 90.166 -234.501 155.499s-117.667 143.333 -156 234s-57.5 186.334 -57.5 287.001s19.167 196.334 57.5 287.001s90.333 168.667 156 234s143.834 117.166 234.501 155.499s186 57.5 286 57.5
s195.333 -19.167 286 -57.5s168.834 -90.166 234.501 -155.499s117.667 -143.333 156 -234s57.5 -186.334 57.5 -287.001s-19.167 -196.334 -57.5 -287.001s-90.333 -168.667 -156 -234s-143.834 -117.166 -234.501 -155.499s-186 -57.5 -286 -57.5z" />
    <glyph glyph-name="uni24C4" unicode="O&#x25cb;" 
d="M900 499c39.333 0 70.166 13.667 92.499 41s33.5 65 33.5 113v72c0 48.667 -11.167 86.667 -33.5 114s-53.166 41 -92.499 41s-70.166 -13.667 -92.499 -41s-33.5 -65.333 -33.5 -114v-72c0 -48 11.167 -85.667 33.5 -113s53.166 -41 92.499 -41zM900 352
c-96 0 -171.167 26.833 -225.5 80.5s-81.5 127.834 -81.5 222.501v68c0 95.333 27.167 169.833 81.5 223.5s129.5 80.5 225.5 80.5s171.167 -26.833 225.5 -80.5s81.5 -128.167 81.5 -223.5v-68c0 -94.667 -27.167 -168.834 -81.5 -222.501s-129.5 -80.5 -225.5 -80.5z
M900 107c104.667 0 200.671 25.5 288.004 76.5s156.166 120.667 206.499 209s75.5 185.5 75.5 291.5c0 79.333 -14.833 154.666 -44.5 225.999s-69.667 132.666 -120 183.999s-110.833 92 -181.5 122s-145.334 45 -224.001 45s-153.334 -15 -224.001 -45
s-131.167 -70.667 -181.5 -122s-90.333 -112.666 -120 -183.999s-44.5 -146.666 -44.5 -225.999c0 -106 25.167 -203.167 75.5 -291.5s119.166 -158 206.499 -209s183.333 -76.5 288 -76.5zM900.004 -50c-100 0 -195.333 19.167 -286 57.5s-168.834 90.166 -234.501 155.499
s-117.667 143.333 -156 234s-57.5 186.334 -57.5 287.001s19.167 196.334 57.5 287.001s90.333 168.667 156 234s143.834 117.166 234.501 155.499s186 57.5 286 57.5s195.333 -19.167 286 -57.5s168.834 -90.166 234.501 -155.499s117.667 -143.333 156 -234
s57.5 -186.334 57.5 -287.001s-19.167 -196.334 -57.5 -287.001s-90.333 -168.667 -156 -234s-143.834 -117.166 -234.501 -155.499s-186 -57.5 -286 -57.5z" />
    <glyph glyph-name="uni24C5" unicode="P&#x25cb;" 
d="M969 1016c74 0 132.5 -21.668 175.5 -65.001s64.5 -100 64.5 -170c0 -69.333 -21.667 -125.166 -65 -167.499s-102.333 -63.5 -177 -63.5h-110v-187h-181v653h293zM1035 780.999c0 32 -8.5 56.333 -25.5 73s-41.167 25 -72.5 25h-89v-195h89
c31.333 0 55.5 8.33301 72.5 25s25.5 40.667 25.5 72zM900 106.999c104.667 0 200.671 25.5 288.004 76.5s156.166 120.667 206.499 209s75.5 185.5 75.5 291.5c0 79.333 -14.833 154.666 -44.5 225.999s-69.667 132.666 -120 183.999s-110.833 92 -181.5 122
s-145.334 45 -224.001 45s-153.334 -15 -224.001 -45s-131.167 -70.667 -181.5 -122s-90.333 -112.666 -120 -183.999s-44.5 -146.666 -44.5 -225.999c0 -106 25.167 -203.167 75.5 -291.5s119.166 -158 206.499 -209s183.333 -76.5 288 -76.5zM900.004 -50.001
c-100 0 -195.333 19.167 -286 57.5s-168.834 90.166 -234.501 155.499s-117.667 143.333 -156 234s-57.5 186.334 -57.5 287.001s19.167 196.334 57.5 287.001s90.333 168.667 156 234s143.834 117.166 234.501 155.499s186 57.5 286 57.5s195.333 -19.167 286 -57.5
s168.834 -90.166 234.501 -155.499s117.667 -143.333 156 -234s57.5 -186.334 57.5 -287.001s-19.167 -196.334 -57.5 -287.001s-90.333 -168.667 -156 -234s-143.834 -117.166 -234.501 -155.499s-186 -57.5 -286 -57.5z" />
    <glyph glyph-name="uni24C6" unicode="Q&#x25cb;" 
d="M1193 304l-178 -0.000976562l-36 57c-24 -6 -50.333 -9 -79 -9c-96 0 -171.167 26.833 -225.5 80.5s-81.5 127.834 -81.5 222.501v68c0 95.333 27.167 169.833 81.5 223.5s129.5 80.5 225.5 80.5s171.167 -26.833 225.5 -80.5s81.5 -128.167 81.5 -223.5v-68
c0 -104.667 -32.333 -183.667 -97 -237zM887 486.999c10.667 0 19.999 1 27.999 3l-55 83h119l25 -31c17.333 27.333 26 63.333 26 108v69c0 53.333 -11.333 94.5 -34 123.5s-54.667 43.5 -96 43.5s-73.333 -14.5 -96 -43.5s-34 -70.167 -34 -123.5v-69
c0 -49.333 10.333 -88 31 -116s49.334 -43.667 86.001 -47zM899.999 106.999c104.667 0 200.671 25.5 288.004 76.5s156.166 120.667 206.499 209s75.5 185.5 75.5 291.5c0 79.333 -14.833 154.666 -44.5 225.999s-69.667 132.666 -120 183.999s-110.833 92 -181.5 122
s-145.334 45 -224.001 45s-153.334 -15 -224.001 -45s-131.167 -70.667 -181.5 -122s-90.333 -112.666 -120 -183.999s-44.5 -146.666 -44.5 -225.999c0 -106 25.167 -203.167 75.5 -291.5s119.166 -158 206.499 -209s183.333 -76.5 288 -76.5zM900.003 -50.001
c-100 0 -195.333 19.167 -286 57.5s-168.834 90.166 -234.501 155.499s-117.667 143.333 -156 234s-57.5 186.334 -57.5 287.001s19.167 196.334 57.5 287.001s90.333 168.667 156 234s143.834 117.166 234.501 155.499s186 57.5 286 57.5s195.333 -19.167 286 -57.5
s168.834 -90.166 234.501 -155.499s117.667 -143.333 156 -234s57.5 -186.334 57.5 -287.001s-19.167 -196.334 -57.5 -287.001s-90.333 -168.667 -156 -234s-143.834 -117.166 -234.501 -155.499s-186 -57.5 -286 -57.5z" />
    <glyph glyph-name="uni24C7" unicode="R&#x25cb;" 
d="M934 1016c81.333 0 144.333 -18.667 189 -56s67 -89 67 -155c0 -44.667 -11.667 -83 -35 -115s-54 -54.333 -92 -67l141 -260h-188l-112 229h-95v-229h-164v653h289zM809 712l104.001 -0.000976562c31.333 0 55.666 7.33301 72.999 22s26 35.334 26 62.001
c0 27.333 -8.66699 48.5 -26 63.5s-41 22.5 -71 22.5h-106v-170zM900.001 106.999c104.667 0 200.671 25.5 288.004 76.5s156.166 120.667 206.499 209s75.5 185.5 75.5 291.5c0 79.333 -14.833 154.666 -44.5 225.999s-69.667 132.666 -120 183.999s-110.833 92 -181.5 122
s-145.334 45 -224.001 45s-153.334 -15 -224.001 -45s-131.167 -70.667 -181.5 -122s-90.333 -112.666 -120 -183.999s-44.5 -146.666 -44.5 -225.999c0 -106 25.167 -203.167 75.5 -291.5s119.166 -158 206.499 -209s183.333 -76.5 288 -76.5zM900.005 -50.001
c-100 0 -195.333 19.167 -286 57.5s-168.834 90.166 -234.501 155.499s-117.667 143.333 -156 234s-57.5 186.334 -57.5 287.001s19.167 196.334 57.5 287.001s90.333 168.667 156 234s143.834 117.166 234.501 155.499s186 57.5 286 57.5s195.333 -19.167 286 -57.5
s168.834 -90.166 234.501 -155.499s117.667 -143.333 156 -234s57.5 -186.334 57.5 -287.001s-19.167 -196.334 -57.5 -287.001s-90.333 -168.667 -156 -234s-143.834 -117.166 -234.501 -155.499s-186 -57.5 -286 -57.5z" />
    <glyph glyph-name="uni24C8" unicode="S&#x25cb;" 
d="M621 554l170 -0.000976562c2.66699 -21.333 14.167 -38.333 34.5 -51s46.833 -19 79.5 -19c32 0 57.5 6.16699 76.5 18.5s28.5 28.833 28.5 49.5c0 16.667 -7.5 30 -22.5 40s-41.5 18.333 -79.5 25l-90 17c-60 10.667 -105.667 31.834 -137 63.501s-47 72.167 -47 121.5
c0 62.667 24.5 113 73.5 151s113.833 57 194.5 57c76 0 138.333 -18 187 -54s74.667 -83.333 78 -142h-165c-2.66699 20.667 -13 37 -31 49s-41.333 18 -70 18s-51.667 -6 -69 -18s-26 -27.667 -26 -47c0 -30.667 31.333 -51 94 -61l94 -18c124 -22 186 -84.333 186 -187
c0 -65.333 -25.5 -117.5 -76.5 -156.5s-119.833 -58.5 -206.5 -58.5c-82.667 0 -148.667 18 -198 54s-75.333 85.333 -78 148zM900 106.999c104.667 0 200.671 25.5 288.004 76.5s156.166 120.667 206.499 209s75.5 185.5 75.5 291.5
c0 79.333 -14.833 154.666 -44.5 225.999s-69.667 132.666 -120 183.999s-110.833 92 -181.5 122s-145.334 45 -224.001 45s-153.334 -15 -224.001 -45s-131.167 -70.667 -181.5 -122s-90.333 -112.666 -120 -183.999s-44.5 -146.666 -44.5 -225.999
c0 -106 25.167 -203.167 75.5 -291.5s119.166 -158 206.499 -209s183.333 -76.5 288 -76.5zM900.004 -50.001c-100 0 -195.333 19.167 -286 57.5s-168.834 90.166 -234.501 155.499s-117.667 143.333 -156 234s-57.5 186.334 -57.5 287.001s19.167 196.334 57.5 287.001
s90.333 168.667 156 234s143.834 117.166 234.501 155.499s186 57.5 286 57.5s195.333 -19.167 286 -57.5s168.834 -90.166 234.501 -155.499s117.667 -143.333 156 -234s57.5 -186.334 57.5 -287.001s-19.167 -196.334 -57.5 -287.001s-90.333 -168.667 -156 -234
s-143.834 -117.166 -234.501 -155.499s-186 -57.5 -286 -57.5z" />
    <glyph glyph-name="uni24C9" unicode="T&#x25cb;" 
d="M991 341h-182v505h-186v148h554v-148h-186v-505zM900 107c104.667 0 200.671 25.5 288.004 76.5s156.166 120.667 206.499 209s75.5 185.5 75.5 291.5c0 79.333 -14.833 154.666 -44.5 225.999s-69.667 132.666 -120 183.999s-110.833 92 -181.5 122
s-145.334 45 -224.001 45s-153.334 -15 -224.001 -45s-131.167 -70.667 -181.5 -122s-90.333 -112.666 -120 -183.999s-44.5 -146.666 -44.5 -225.999c0 -106 25.167 -203.167 75.5 -291.5s119.166 -158 206.499 -209s183.333 -76.5 288 -76.5zM900.004 -50
c-100 0 -195.333 19.167 -286 57.5s-168.834 90.166 -234.501 155.499s-117.667 143.333 -156 234s-57.5 186.334 -57.5 287.001s19.167 196.334 57.5 287.001s90.333 168.667 156 234s143.834 117.166 234.501 155.499s186 57.5 286 57.5s195.333 -19.167 286 -57.5
s168.834 -90.166 234.501 -155.499s117.667 -143.333 156 -234s57.5 -186.334 57.5 -287.001s-19.167 -196.334 -57.5 -287.001s-90.333 -168.667 -156 -234s-143.834 -117.166 -234.501 -155.499s-186 -57.5 -286 -57.5z" />
    <glyph glyph-name="uni24CA" unicode="U&#x25cb;" 
d="M900 477c34 0 61 9.33301 81 28s30 44.334 30 77.001v412h176v-437c0 -68.667 -26.167 -123.834 -78.5 -165.501s-121.833 -62.5 -208.5 -62.5s-156.167 20.833 -208.5 62.5s-78.5 96.834 -78.5 165.501v437h176v-412c0 -32.667 10 -58.334 30 -77.001s47 -28 81 -28z
M900 107c104.667 0 200.671 25.5 288.004 76.5s156.166 120.667 206.499 209s75.5 185.5 75.5 291.5c0 79.333 -14.833 154.666 -44.5 225.999s-69.667 132.666 -120 183.999s-110.833 92 -181.5 122s-145.334 45 -224.001 45s-153.334 -15 -224.001 -45
s-131.167 -70.667 -181.5 -122s-90.333 -112.666 -120 -183.999s-44.5 -146.666 -44.5 -225.999c0 -106 25.167 -203.167 75.5 -291.5s119.166 -158 206.499 -209s183.333 -76.5 288 -76.5zM900.004 -50c-100 0 -195.333 19.167 -286 57.5s-168.834 90.166 -234.501 155.499
s-117.667 143.333 -156 234s-57.5 186.334 -57.5 287.001s19.167 196.334 57.5 287.001s90.333 168.667 156 234s143.834 117.166 234.501 155.499s186 57.5 286 57.5s195.333 -19.167 286 -57.5s168.834 -90.166 234.501 -155.499s117.667 -143.333 156 -234
s57.5 -186.334 57.5 -287.001s-19.167 -196.334 -57.5 -287.001s-90.333 -168.667 -156 -234s-143.834 -117.166 -234.501 -155.499s-186 -57.5 -286 -57.5z" />
    <glyph glyph-name="uni24CB" unicode="V&#x25cb;" 
d="M782 336l-206 653h203l112 -462h18l112 462h203l-206 -653h-236zM900 107c104.667 0 200.671 25.5 288.004 76.5s156.166 120.667 206.499 209s75.5 185.5 75.5 291.5c0 79.333 -14.833 154.666 -44.5 225.999s-69.667 132.666 -120 183.999s-110.833 92 -181.5 122
s-145.334 45 -224.001 45s-153.334 -15 -224.001 -45s-131.167 -70.667 -181.5 -122s-90.333 -112.666 -120 -183.999s-44.5 -146.666 -44.5 -225.999c0 -106 25.167 -203.167 75.5 -291.5s119.166 -158 206.499 -209s183.333 -76.5 288 -76.5zM900.004 -50
c-100 0 -195.333 19.167 -286 57.5s-168.834 90.166 -234.501 155.499s-117.667 143.333 -156 234s-57.5 186.334 -57.5 287.001s19.167 196.334 57.5 287.001s90.333 168.667 156 234s143.834 117.166 234.501 155.499s186 57.5 286 57.5s195.333 -19.167 286 -57.5
s168.834 -90.166 234.501 -155.499s117.667 -143.333 156 -234s57.5 -186.334 57.5 -287.001s-19.167 -196.334 -57.5 -287.001s-90.333 -168.667 -156 -234s-143.834 -117.166 -234.501 -155.499s-186 -57.5 -286 -57.5z" />
    <glyph glyph-name="uni24CC" unicode="W&#x25cb;" 
d="M897 751l-103 -410h-152l-157 653h163l81 -443h8l100 443h126l100 -443h8l81 443h163l-157 -653h-152l-103 410h-6zM900 107c104.667 0 200.671 25.5 288.004 76.5s156.166 120.667 206.499 209s75.5 185.5 75.5 291.5c0 79.333 -14.833 154.666 -44.5 225.999
s-69.667 132.666 -120 183.999s-110.833 92 -181.5 122s-145.334 45 -224.001 45s-153.334 -15 -224.001 -45s-131.167 -70.667 -181.5 -122s-90.333 -112.666 -120 -183.999s-44.5 -146.666 -44.5 -225.999c0 -106 25.167 -203.167 75.5 -291.5s119.166 -158 206.499 -209
s183.333 -76.5 288 -76.5zM900.004 -50c-100 0 -195.333 19.167 -286 57.5s-168.834 90.166 -234.501 155.499s-117.667 143.333 -156 234s-57.5 186.334 -57.5 287.001s19.167 196.334 57.5 287.001s90.333 168.667 156 234s143.834 117.166 234.501 155.499
s186 57.5 286 57.5s195.333 -19.167 286 -57.5s168.834 -90.166 234.501 -155.499s117.667 -143.333 156 -234s57.5 -186.334 57.5 -287.001s-19.167 -196.334 -57.5 -287.001s-90.333 -168.667 -156 -234s-143.834 -117.166 -234.501 -155.499s-186 -57.5 -286 -57.5z" />
    <glyph glyph-name="uni24CD" unicode="X&#x25cb;" 
d="M1219 1016l-203 -325l203 -328h-204l-117 199h-7l-117 -199h-193l196 329l-196 324h212l109 -206h7l108 206h202zM900 107c104.667 0 200.671 25.5 288.004 76.5s156.166 120.667 206.499 209s75.5 185.5 75.5 291.5c0 79.333 -14.833 154.666 -44.5 225.999
s-69.667 132.666 -120 183.999s-110.833 92 -181.5 122s-145.334 45 -224.001 45s-153.334 -15 -224.001 -45s-131.167 -70.667 -181.5 -122s-90.333 -112.666 -120 -183.999s-44.5 -146.666 -44.5 -225.999c0 -106 25.167 -203.167 75.5 -291.5s119.166 -158 206.499 -209
s183.333 -76.5 288 -76.5zM900.004 -50c-100 0 -195.333 19.167 -286 57.5s-168.834 90.166 -234.501 155.499s-117.667 143.333 -156 234s-57.5 186.334 -57.5 287.001s19.167 196.334 57.5 287.001s90.333 168.667 156 234s143.834 117.166 234.501 155.499
s186 57.5 286 57.5s195.333 -19.167 286 -57.5s168.834 -90.166 234.501 -155.499s117.667 -143.333 156 -234s57.5 -186.334 57.5 -287.001s-19.167 -196.334 -57.5 -287.001s-90.333 -168.667 -156 -234s-143.834 -117.166 -234.501 -155.499s-186 -57.5 -286 -57.5z" />
    <glyph glyph-name="uni24CE" unicode="Y&#x25cb;" 
d="M994 349h-187v218l-225 435h197l119 -261h6l118 261h196l-224 -434v-219zM900 107c104.667 0 200.671 25.5 288.004 76.5s156.166 120.667 206.499 209s75.5 185.5 75.5 291.5c0 79.333 -14.833 154.666 -44.5 225.999s-69.667 132.666 -120 183.999
s-110.833 92 -181.5 122s-145.334 45 -224.001 45s-153.334 -15 -224.001 -45s-131.167 -70.667 -181.5 -122s-90.333 -112.666 -120 -183.999s-44.5 -146.666 -44.5 -225.999c0 -106 25.167 -203.167 75.5 -291.5s119.166 -158 206.499 -209s183.333 -76.5 288 -76.5z
M900.004 -50c-100 0 -195.333 19.167 -286 57.5s-168.834 90.166 -234.501 155.499s-117.667 143.333 -156 234s-57.5 186.334 -57.5 287.001s19.167 196.334 57.5 287.001s90.333 168.667 156 234s143.834 117.166 234.501 155.499s186 57.5 286 57.5
s195.333 -19.167 286 -57.5s168.834 -90.166 234.501 -155.499s117.667 -143.333 156 -234s57.5 -186.334 57.5 -287.001s-19.167 -196.334 -57.5 -287.001s-90.333 -168.667 -156 -234s-143.834 -117.166 -234.501 -155.499s-186 -57.5 -286 -57.5z" />
    <glyph glyph-name="uni24CF" unicode="Z&#x25cb;" 
d="M644 363v116l286 384v9h-285v144h506v-116l-286 -383v-9h296v-145h-517zM900 107c104.667 0 200.671 25.5 288.004 76.5s156.166 120.667 206.499 209s75.5 185.5 75.5 291.5c0 79.333 -14.833 154.666 -44.5 225.999s-69.667 132.666 -120 183.999
s-110.833 92 -181.5 122s-145.334 45 -224.001 45s-153.334 -15 -224.001 -45s-131.167 -70.667 -181.5 -122s-90.333 -112.666 -120 -183.999s-44.5 -146.666 -44.5 -225.999c0 -106 25.167 -203.167 75.5 -291.5s119.166 -158 206.499 -209s183.333 -76.5 288 -76.5z
M900.004 -50c-100 0 -195.333 19.167 -286 57.5s-168.834 90.166 -234.501 155.499s-117.667 143.333 -156 234s-57.5 186.334 -57.5 287.001s19.167 196.334 57.5 287.001s90.333 168.667 156 234s143.834 117.166 234.501 155.499s186 57.5 286 57.5
s195.333 -19.167 286 -57.5s168.834 -90.166 234.501 -155.499s117.667 -143.333 156 -234s57.5 -186.334 57.5 -287.001s-19.167 -196.334 -57.5 -287.001s-90.333 -168.667 -156 -234s-143.834 -117.166 -234.501 -155.499s-186 -57.5 -286 -57.5z" />
    <glyph glyph-name="uni24EA" unicode="&#x30;&#x25cb;" 
d="M802 708v-34.999c0 -58.667 8.5 -103.167 25.5 -133.5s41.167 -45.5 72.5 -45.5c30.667 0 54.834 15.333 72.501 46s26.5 75 26.5 133v35c0 57.333 -8.83301 101.166 -26.5 131.499s-41.834 45.5 -72.501 45.5c-31.333 0 -55.5 -15 -72.5 -45s-25.5 -74 -25.5 -132z
M627 673.001v34.999c0 96 24.667 173.167 74 231.5s116.333 87.5 201 87.5s151 -28.667 199 -86s72 -135 72 -233v-35c0 -95.333 -24.833 -172.666 -74.5 -231.999s-116.5 -89 -200.5 -89s-150.167 29 -198.5 87s-72.5 136 -72.5 234zM900 107
c104.667 0 200.671 25.5 288.004 76.5s156.166 120.667 206.499 209s75.5 185.5 75.5 291.5c0 79.333 -14.833 154.666 -44.5 225.999s-69.667 132.666 -120 183.999s-110.833 92 -181.5 122s-145.334 45 -224.001 45s-153.334 -15 -224.001 -45
s-131.167 -70.667 -181.5 -122s-90.333 -112.666 -120 -183.999s-44.5 -146.666 -44.5 -225.999c0 -106 25.167 -203.167 75.5 -291.5s119.166 -158 206.499 -209s183.333 -76.5 288 -76.5zM900.004 -50c-100 0 -195.333 19.167 -286 57.5s-168.834 90.166 -234.501 155.499
s-117.667 143.333 -156 234s-57.5 186.334 -57.5 287.001s19.167 196.334 57.5 287.001s90.333 168.667 156 234s143.834 117.166 234.501 155.499s186 57.5 286 57.5s195.333 -19.167 286 -57.5s168.834 -90.166 234.501 -155.499s117.667 -143.333 156 -234
s57.5 -186.334 57.5 -287.001s-19.167 -196.334 -57.5 -287.001s-90.333 -168.667 -156 -234s-143.834 -117.166 -234.501 -155.499s-186 -57.5 -286 -57.5z" />
    <glyph glyph-name="uni1F130" unicode="A&#x25a1;" 
d="M825 630h150l-68 232h-14zM753 366h-176l215 653h216l215 -653h-176l-41 133h-212zM436 1397h928c68.667 0 127.167 -23.833 175.5 -71.5s72.5 -105.167 72.5 -172.5v-938c0 -67.333 -24.167 -124.833 -72.5 -172.5s-106.833 -71.5 -175.5 -71.5h-928
c-68.667 0 -127.167 23.833 -175.5 71.5s-72.5 105.167 -72.5 172.5v938c0 67.333 24.167 124.833 72.5 172.5s106.833 71.5 175.5 71.5zM1451 1123c0 34.667 -12.333 63.667 -37 87s-55 35 -91 35h-846c-36 0 -66.333 -11.833 -91 -35.5s-37 -52.5 -37 -86.5v-878
c0 -33.333 12.667 -62.166 38 -86.499s55.333 -36.5 90 -36.5h846c35.333 0 65.5 12.167 90.5 36.5s37.5 53.166 37.5 86.499v878z" />
    <glyph glyph-name="uni1F131" unicode="B&#x25a1;" 
d="M652 366l-0.000976562 652.999h317c62.667 0 112.167 -14.333 148.5 -43s54.5 -68 54.5 -118c0 -36.667 -11.167 -67.5 -33.5 -92.5s-52.166 -41.167 -89.499 -48.5v-8c46.667 -5.33301 84 -22.166 112 -50.499s42 -65.5 42 -111.5c0 -54.667 -21.333 -98.5 -64 -131.5
s-97.667 -49.5 -165 -49.5h-322zM819.999 900.999l0.000976562 -146h77c72 0 108 24.667 108 74c0 22 -7.83301 39.5 -23.5 52.5s-36.834 19.5 -63.501 19.5h-98zM819 650.999v-161h86c81.333 0 122 26.333 122 79c0 26 -9 46.167 -27 60.5s-43.333 21.5 -76 21.5h-105z
M436 1397h928c68.667 0 127.167 -23.833 175.5 -71.5s72.5 -105.167 72.5 -172.5v-938c0 -67.333 -24.167 -124.833 -72.5 -172.5s-106.833 -71.5 -175.5 -71.5h-928c-68.667 0 -127.167 23.833 -175.5 71.5s-72.5 105.167 -72.5 172.5v938
c0 67.333 24.167 124.833 72.5 172.5s106.833 71.5 175.5 71.5zM1451 1123c0 34.667 -12.333 63.667 -37 87s-55 35 -91 35h-846c-36 0 -66.333 -11.833 -91 -35.5s-37 -52.5 -37 -86.5v-878c0 -33.333 12.667 -62.166 38 -86.499s55.333 -36.5 90 -36.5h846
c35.333 0 65.5 12.167 90.5 36.5s37.5 53.166 37.5 86.499v878z" />
    <glyph glyph-name="uni1F132" unicode="C&#x25a1;" 
d="M795 719v-66.001c0 -48.667 10.167 -86.334 30.5 -113.001s49.166 -40 86.499 -40c33.333 0 59.833 9.5 79.5 28.5s29.5 44.833 29.5 77.5h172v-18c0 -70.667 -26.333 -128.167 -79 -172.5s-120.667 -66.5 -204 -66.5c-94 0 -166.833 26.833 -218.5 80.5
s-77.5 128.5 -77.5 224.5v66c0 96 26 170.833 78 224.5s124.667 80.5 218 80.5c83.333 0 151.333 -22.667 204 -68s79 -103.666 79 -174.999v-17h-172c0 33.333 -9.83301 60 -29.5 80s-46.167 30 -79.5 30c-37.333 0 -66.166 -13.667 -86.499 -41
s-30.5 -65.666 -30.5 -114.999zM436 1397h928c68.667 0 127.167 -23.833 175.5 -71.5s72.5 -105.167 72.5 -172.5v-938c0 -67.333 -24.167 -124.833 -72.5 -172.5s-106.833 -71.5 -175.5 -71.5h-928c-68.667 0 -127.167 23.833 -175.5 71.5s-72.5 105.167 -72.5 172.5v938
c0 67.333 24.167 124.833 72.5 172.5s106.833 71.5 175.5 71.5zM1451 1123c0 34.667 -12.333 63.667 -37 87s-55 35 -91 35h-846c-36 0 -66.333 -11.833 -91 -35.5s-37 -52.5 -37 -86.5v-878c0 -33.333 12.667 -62.166 38 -86.499s55.333 -36.5 90 -36.5h846
c35.333 0 65.5 12.167 90.5 36.5s37.5 53.166 37.5 86.499v878z" />
    <glyph glyph-name="uni1F133" unicode="D&#x25a1;" 
d="M631 1019h276c100 0 175.833 -28 227.5 -84s77.5 -136.667 77.5 -242c0 -106 -25.833 -187 -77.5 -243s-127.5 -84 -227.5 -84h-276v653zM804 878v-372h75c52.667 0 91.167 15 115.5 45s36.5 77 36.5 141s-12.167 111 -36.5 141s-62.833 45 -115.5 45h-75zM436 1397h928
c68.667 0 127.167 -23.833 175.5 -71.5s72.5 -105.167 72.5 -172.5v-938c0 -67.333 -24.167 -124.833 -72.5 -172.5s-106.833 -71.5 -175.5 -71.5h-928c-68.667 0 -127.167 23.833 -175.5 71.5s-72.5 105.167 -72.5 172.5v938c0 67.333 24.167 124.833 72.5 172.5
s106.833 71.5 175.5 71.5zM1451 1123c0 34.667 -12.333 63.667 -37 87s-55 35 -91 35h-846c-36 0 -66.333 -11.833 -91 -35.5s-37 -52.5 -37 -86.5v-878c0 -33.333 12.667 -62.166 38 -86.499s55.333 -36.5 90 -36.5h846c35.333 0 65.5 12.167 90.5 36.5
s37.5 53.166 37.5 86.499v878z" />
    <glyph glyph-name="uni1F134" unicode="E&#x25a1;" 
d="M1136 499v-138h-463v653h463v-138h-292v-126h274v-120h-274v-131h292zM436 1397h928c68.667 0 127.167 -23.833 175.5 -71.5s72.5 -105.167 72.5 -172.5v-938c0 -67.333 -24.167 -124.833 -72.5 -172.5s-106.833 -71.5 -175.5 -71.5h-928
c-68.667 0 -127.167 23.833 -175.5 71.5s-72.5 105.167 -72.5 172.5v938c0 67.333 24.167 124.833 72.5 172.5s106.833 71.5 175.5 71.5zM1451 1123c0 34.667 -12.333 63.667 -37 87s-55 35 -91 35h-846c-36 0 -66.333 -11.833 -91 -35.5s-37 -52.5 -37 -86.5v-878
c0 -33.333 12.667 -62.166 38 -86.499s55.333 -36.5 90 -36.5h846c35.333 0 65.5 12.167 90.5 36.5s37.5 53.166 37.5 86.499v878z" />
    <glyph glyph-name="uni1F135" unicode="F&#x25a1;" 
d="M875 366h-178v653h460v-141h-282v-135h257v-139h-257v-238zM436 1397h928c68.667 0 127.167 -23.833 175.5 -71.5s72.5 -105.167 72.5 -172.5v-938c0 -67.333 -24.167 -124.833 -72.5 -172.5s-106.833 -71.5 -175.5 -71.5h-928c-68.667 0 -127.167 23.833 -175.5 71.5
s-72.5 105.167 -72.5 172.5v938c0 67.333 24.167 124.833 72.5 172.5s106.833 71.5 175.5 71.5zM1451 1123c0 34.667 -12.333 63.667 -37 87s-55 35 -91 35h-846c-36 0 -66.333 -11.833 -91 -35.5s-37 -52.5 -37 -86.5v-878c0 -33.333 12.667 -62.166 38 -86.499
s55.333 -36.5 90 -36.5h846c35.333 0 65.5 12.167 90.5 36.5s37.5 53.166 37.5 86.499v878z" />
    <glyph glyph-name="uni1F136" unicode="G&#x25a1;" 
d="M1195 800l-170 0.00195312c-5.33301 28 -18.5 50 -39.5 66s-47.167 24 -78.5 24c-40 0 -71.167 -14.167 -93.5 -42.5s-33.5 -68.166 -33.5 -119.499v-79c0 -50.667 11.167 -89.834 33.5 -117.501s55.5 -41.5 99.5 -41.5c35.333 0 63.166 8.16699 83.499 24.5
s31.5 38.166 33.5 65.499v26h-126v122h291v-121c0 -76 -25.167 -137.167 -75.5 -183.5s-120.166 -69.5 -209.499 -69.5c-96 0 -170.667 27.167 -224 81.5s-80 128.166 -80 221.499v75c0 90.667 27.333 163 82 217s129 81 223 81c82.667 0 150.167 -21.833 202.5 -65.5
s79.5 -98.5 81.5 -164.5zM436 1397h928c68.667 0 127.167 -23.833 175.5 -71.5s72.5 -105.167 72.5 -172.5v-938c0 -67.333 -24.167 -124.833 -72.5 -172.5s-106.833 -71.5 -175.5 -71.5h-928c-68.667 0 -127.167 23.833 -175.5 71.5s-72.5 105.167 -72.5 172.5v938
c0 67.333 24.167 124.833 72.5 172.5s106.833 71.5 175.5 71.5zM1451 1123c0 34.667 -12.333 63.667 -37 87s-55 35 -91 35h-846c-36 0 -66.333 -11.833 -91 -35.5s-37 -52.5 -37 -86.5v-878c0 -33.333 12.667 -62.166 38 -86.499s55.333 -36.5 90 -36.5h846
c35.333 0 65.5 12.167 90.5 36.5s37.5 53.166 37.5 86.499v878z" />
    <glyph glyph-name="uni1F137" unicode="H&#x25a1;" 
d="M1192 366h-169v255h-245v-255h-169v653h169v-251h245v251h169v-653zM436 1397h928c68.667 0 127.167 -23.833 175.5 -71.5s72.5 -105.167 72.5 -172.5v-938c0 -67.333 -24.167 -124.833 -72.5 -172.5s-106.833 -71.5 -175.5 -71.5h-928
c-68.667 0 -127.167 23.833 -175.5 71.5s-72.5 105.167 -72.5 172.5v938c0 67.333 24.167 124.833 72.5 172.5s106.833 71.5 175.5 71.5zM1451 1123c0 34.667 -12.333 63.667 -37 87s-55 35 -91 35h-846c-36 0 -66.333 -11.833 -91 -35.5s-37 -52.5 -37 -86.5v-878
c0 -33.333 12.667 -62.166 38 -86.499s55.333 -36.5 90 -36.5h846c35.333 0 65.5 12.167 90.5 36.5s37.5 53.166 37.5 86.499v878z" />
    <glyph glyph-name="uni1F138" unicode="I&#x25a1;" 
d="M995 366h-190v653h190v-653zM436 1397h928c68.667 0 127.167 -23.833 175.5 -71.5s72.5 -105.167 72.5 -172.5v-938c0 -67.333 -24.167 -124.833 -72.5 -172.5s-106.833 -71.5 -175.5 -71.5h-928c-68.667 0 -127.167 23.833 -175.5 71.5s-72.5 105.167 -72.5 172.5v938
c0 67.333 24.167 124.833 72.5 172.5s106.833 71.5 175.5 71.5zM1451 1123c0 34.667 -12.333 63.667 -37 87s-55 35 -91 35h-846c-36 0 -66.333 -11.833 -91 -35.5s-37 -52.5 -37 -86.5v-878c0 -33.333 12.667 -62.166 38 -86.499s55.333 -36.5 90 -36.5h846
c35.333 0 65.5 12.167 90.5 36.5s37.5 53.166 37.5 86.499v878z" />
    <glyph glyph-name="uni1F139" unicode="J&#x25a1;" 
d="M624 593l172.998 0.000976562c0.666992 -24.667 7.33398 -43.834 20.001 -57.501s30.667 -20.5 54 -20.5c49.333 0 74 29.333 74 88v416h179v-418c0 -77.333 -22.167 -137.833 -66.5 -181.5s-105.166 -65.5 -182.499 -65.5c-78 0 -139.333 21.833 -184 65.5
s-67 101.5 -67 173.5zM435.998 1397h928c68.667 0 127.167 -23.833 175.5 -71.5s72.5 -105.167 72.5 -172.5v-938c0 -67.333 -24.167 -124.833 -72.5 -172.5s-106.833 -71.5 -175.5 -71.5h-928c-68.667 0 -127.167 23.833 -175.5 71.5s-72.5 105.167 -72.5 172.5v938
c0 67.333 24.167 124.833 72.5 172.5s106.833 71.5 175.5 71.5zM1451 1123c0 34.667 -12.333 63.667 -37 87s-55 35 -91 35h-846c-36 0 -66.333 -11.833 -91 -35.5s-37 -52.5 -37 -86.5v-878c0 -33.333 12.667 -62.166 38 -86.499s55.333 -36.5 90 -36.5h846
c35.333 0 65.5 12.167 90.5 36.5s37.5 53.166 37.5 86.499v878z" />
    <glyph glyph-name="uni1F13A" unicode="K&#x25a1;" 
d="M1218 1019l-221 -294l228 -359h-203l-157 247l-63 -71v-176h-164v653h164v-265h13l211 265h192zM436 1397h928c68.667 0 127.167 -23.833 175.5 -71.5s72.5 -105.167 72.5 -172.5v-938c0 -67.333 -24.167 -124.833 -72.5 -172.5s-106.833 -71.5 -175.5 -71.5h-928
c-68.667 0 -127.167 23.833 -175.5 71.5s-72.5 105.167 -72.5 172.5v938c0 67.333 24.167 124.833 72.5 172.5s106.833 71.5 175.5 71.5zM1451 1123c0 34.667 -12.333 63.667 -37 87s-55 35 -91 35h-846c-36 0 -66.333 -11.833 -91 -35.5s-37 -52.5 -37 -86.5v-878
c0 -33.333 12.667 -62.166 38 -86.499s55.333 -36.5 90 -36.5h846c35.333 0 65.5 12.167 90.5 36.5s37.5 53.166 37.5 86.499v878z" />
    <glyph glyph-name="uni1F13B" unicode="L&#x25a1;" 
d="M1167 518v-152h-454v653h182v-501h272zM436 1397h928c68.667 0 127.167 -23.833 175.5 -71.5s72.5 -105.167 72.5 -172.5v-938c0 -67.333 -24.167 -124.833 -72.5 -172.5s-106.833 -71.5 -175.5 -71.5h-928c-68.667 0 -127.167 23.833 -175.5 71.5
s-72.5 105.167 -72.5 172.5v938c0 67.333 24.167 124.833 72.5 172.5s106.833 71.5 175.5 71.5zM1451 1123c0 34.667 -12.333 63.667 -37 87s-55 35 -91 35h-846c-36 0 -66.333 -11.833 -91 -35.5s-37 -52.5 -37 -86.5v-878c0 -33.333 12.667 -62.166 38 -86.499
s55.333 -36.5 90 -36.5h846c35.333 0 65.5 12.167 90.5 36.5s37.5 53.166 37.5 86.499v878z" />
    <glyph glyph-name="uni1F13C" unicode="M&#x25a1;" 
d="M714 366h-147v653h171l160 -370h5l161 370h169v-653h-149v399h-13l-121 -309h-101l-121 309h-14v-399zM436 1397h928c68.667 0 127.167 -23.833 175.5 -71.5s72.5 -105.167 72.5 -172.5v-938c0 -67.333 -24.167 -124.833 -72.5 -172.5s-106.833 -71.5 -175.5 -71.5h-928
c-68.667 0 -127.167 23.833 -175.5 71.5s-72.5 105.167 -72.5 172.5v938c0 67.333 24.167 124.833 72.5 172.5s106.833 71.5 175.5 71.5zM1451 1123c0 34.667 -12.333 63.667 -37 87s-55 35 -91 35h-846c-36 0 -66.333 -11.833 -91 -35.5s-37 -52.5 -37 -86.5v-878
c0 -33.333 12.667 -62.166 38 -86.499s55.333 -36.5 90 -36.5h846c35.333 0 65.5 12.167 90.5 36.5s37.5 53.166 37.5 86.499v878z" />
    <glyph glyph-name="uni1F13D" unicode="N&#x25a1;" 
d="M780 366h-167v653h140l259 -353h8v353h167v-653h-139l-261 357h-7v-357zM436 1397h928c68.667 0 127.167 -23.833 175.5 -71.5s72.5 -105.167 72.5 -172.5v-938c0 -67.333 -24.167 -124.833 -72.5 -172.5s-106.833 -71.5 -175.5 -71.5h-928
c-68.667 0 -127.167 23.833 -175.5 71.5s-72.5 105.167 -72.5 172.5v938c0 67.333 24.167 124.833 72.5 172.5s106.833 71.5 175.5 71.5zM1451 1123c0 34.667 -12.333 63.667 -37 87s-55 35 -91 35h-846c-36 0 -66.333 -11.833 -91 -35.5s-37 -52.5 -37 -86.5v-878
c0 -33.333 12.667 -62.166 38 -86.499s55.333 -36.5 90 -36.5h846c35.333 0 65.5 12.167 90.5 36.5s37.5 53.166 37.5 86.499v878z" />
    <glyph glyph-name="uni1F13E" unicode="O&#x25a1;" 
d="M900 501c39.333 0 70.166 13.667 92.499 41s33.5 65.333 33.5 114v72c0 48 -11.167 85.667 -33.5 113s-53.166 41 -92.499 41s-70.166 -13.667 -92.499 -41s-33.5 -65 -33.5 -113v-72c0 -48.667 11.167 -86.667 33.5 -114s53.166 -41 92.499 -41zM900 354
c-96 0 -171.167 26.833 -225.5 80.5s-81.5 127.834 -81.5 222.501v69c0 94.667 27.167 169 81.5 223s129.5 81 225.5 81s171.167 -27 225.5 -81s81.5 -128.333 81.5 -223v-69c0 -94.667 -27.167 -168.834 -81.5 -222.501s-129.5 -80.5 -225.5 -80.5zM436 1397h928
c68.667 0 127.167 -23.833 175.5 -71.5s72.5 -105.167 72.5 -172.5v-938c0 -67.333 -24.167 -124.833 -72.5 -172.5s-106.833 -71.5 -175.5 -71.5h-928c-68.667 0 -127.167 23.833 -175.5 71.5s-72.5 105.167 -72.5 172.5v938c0 67.333 24.167 124.833 72.5 172.5
s106.833 71.5 175.5 71.5zM1451 1123c0 34.667 -12.333 63.667 -37 87s-55 35 -91 35h-846c-36 0 -66.333 -11.833 -91 -35.5s-37 -52.5 -37 -86.5v-878c0 -33.333 12.667 -62.166 38 -86.499s55.333 -36.5 90 -36.5h846c35.333 0 65.5 12.167 90.5 36.5
s37.5 53.166 37.5 86.499v878z" />
    <glyph glyph-name="uni1F13F" unicode="P&#x25a1;" 
d="M969 1019c73.333 0 131.667 -21.667 175 -65s65 -100 65 -170s-21.667 -126.167 -65 -168.5s-102.333 -63.5 -177 -63.5h-110v-186h-181v653h293zM1035 784c0 64.667 -32.667 97 -98 97h-89v-194h89c31.333 0 55.5 8.33301 72.5 25s25.5 40.667 25.5 72zM436.001 1397
h928c68.667 0 127.167 -23.833 175.5 -71.5s72.5 -105.167 72.5 -172.5v-938c0 -67.333 -24.167 -124.833 -72.5 -172.5s-106.833 -71.5 -175.5 -71.5h-928c-68.667 0 -127.167 23.833 -175.5 71.5s-72.5 105.167 -72.5 172.5v938c0 67.333 24.167 124.833 72.5 172.5
s106.833 71.5 175.5 71.5zM1451 1123c0 34.667 -12.333 63.667 -37 87s-55 35 -91 35h-846c-36 0 -66.333 -11.833 -91 -35.5s-37 -52.5 -37 -86.5v-878c0 -33.333 12.667 -62.166 38 -86.499s55.333 -36.5 90 -36.5h846c35.333 0 65.5 12.167 90.5 36.5
s37.5 53.166 37.5 86.499v878z" />
    <glyph glyph-name="uni1F140" unicode="Q&#x25a1;" 
d="M1193 307l-178 -0.000976562l-36 57c-22.667 -6.66699 -49 -10 -79 -10c-96 0 -171.167 26.833 -225.5 80.5s-81.5 127.834 -81.5 222.501v69c0 94.667 27.167 169 81.5 223s129.5 81 225.5 81s171.167 -27 225.5 -81s81.5 -128.333 81.5 -223v-69
c0 -104.667 -32.333 -183.667 -97 -237zM887 488.999c10.667 0 19.999 0.998047 27.999 2.99805l-55 84h119l25 -31c17.333 26.667 26 62.667 26 108v68c0 54 -11.333 95.333 -34 124s-54.667 43 -96 43s-73.333 -14.333 -96 -43s-34 -70 -34 -124v-68
c0 -49.333 10.333 -88.166 31 -116.499s49.334 -44.166 86.001 -47.499zM435.999 1397h928c68.667 0 127.167 -23.833 175.5 -71.5s72.5 -105.167 72.5 -172.5v-938c0 -67.333 -24.167 -124.833 -72.5 -172.5s-106.833 -71.5 -175.5 -71.5h-928
c-68.667 0 -127.167 23.833 -175.5 71.5s-72.5 105.167 -72.5 172.5v938c0 67.333 24.167 124.833 72.5 172.5s106.833 71.5 175.5 71.5zM1451 1123c0 34.667 -12.333 63.667 -37 87s-55 35 -91 35h-846c-36 0 -66.333 -11.833 -91 -35.5s-37 -52.5 -37 -86.5v-878
c0 -33.333 12.667 -62.166 38 -86.499s55.333 -36.5 90 -36.5h846c35.333 0 65.5 12.167 90.5 36.5s37.5 53.166 37.5 86.499v878z" />
    <glyph glyph-name="uni1F141" unicode="R&#x25a1;" 
d="M934 1019c81.333 0 144.333 -18.667 189 -56s67 -89 67 -155c0 -44.667 -11.667 -83 -35 -115s-54 -54.333 -92 -67l141 -260h-188l-112 228h-95v-228h-164v653h289zM809 714h104.001c31.333 0 55.666 7.33301 72.999 22s26 35.334 26 62.001
c0 27.333 -8.66699 48.666 -26 63.999s-41 23 -71 23h-106v-171zM436.001 1397h928c68.667 0 127.167 -23.833 175.5 -71.5s72.5 -105.167 72.5 -172.5v-938c0 -67.333 -24.167 -124.833 -72.5 -172.5s-106.833 -71.5 -175.5 -71.5h-928
c-68.667 0 -127.167 23.833 -175.5 71.5s-72.5 105.167 -72.5 172.5v938c0 67.333 24.167 124.833 72.5 172.5s106.833 71.5 175.5 71.5zM1451 1123c0 34.667 -12.333 63.667 -37 87s-55 35 -91 35h-846c-36 0 -66.333 -11.833 -91 -35.5s-37 -52.5 -37 -86.5v-878
c0 -33.333 12.667 -62.166 38 -86.499s55.333 -36.5 90 -36.5h846c35.333 0 65.5 12.167 90.5 36.5s37.5 53.166 37.5 86.499v878z" />
    <glyph glyph-name="uni1F142" unicode="S&#x25a1;" 
d="M621 556l170 -0.00195312c2.66699 -21.333 14.334 -38.333 35.001 -51s47 -19 79 -19s57.5 6.16699 76.5 18.5s28.5 28.833 28.5 49.5c0 17.333 -7.5 30.833 -22.5 40.5s-41.5 17.834 -79.5 24.501l-90 17c-60 10.667 -105.667 32 -137 64s-47 72.667 -47 122
c0 62.667 24.5 113 73.5 151s113.833 57 194.5 57c76 0 138.333 -18 187 -54s74.667 -83.667 78 -143h-165c-3.33301 21.333 -13.833 38 -31.5 50s-40.834 18 -69.501 18s-51.667 -6 -69 -18s-26 -27.667 -26 -47c0 -31.333 31.333 -52 94 -62l94 -18
c124 -22 186 -84.333 186 -187c0 -65.333 -25.5 -117.333 -76.5 -156s-119.833 -58 -206.5 -58c-83.333 0 -149.5 17.833 -198.5 53.5s-74.833 84.834 -77.5 147.501zM436 1397h928c68.667 0 127.167 -23.833 175.5 -71.5s72.5 -105.167 72.5 -172.5v-938
c0 -67.333 -24.167 -124.833 -72.5 -172.5s-106.833 -71.5 -175.5 -71.5h-928c-68.667 0 -127.167 23.833 -175.5 71.5s-72.5 105.167 -72.5 172.5v938c0 67.333 24.167 124.833 72.5 172.5s106.833 71.5 175.5 71.5zM1451 1123c0 34.667 -12.333 63.667 -37 87
s-55 35 -91 35h-846c-36 0 -66.333 -11.833 -91 -35.5s-37 -52.5 -37 -86.5v-878c0 -33.333 12.667 -62.166 38 -86.499s55.333 -36.5 90 -36.5h846c35.333 0 65.5 12.167 90.5 36.5s37.5 53.166 37.5 86.499v878z" />
    <glyph glyph-name="uni1F143" unicode="T&#x25a1;" 
d="M991 366h-182v504h-186v149h554v-149h-186v-504zM436 1397h928c68.667 0 127.167 -23.833 175.5 -71.5s72.5 -105.167 72.5 -172.5v-938c0 -67.333 -24.167 -124.833 -72.5 -172.5s-106.833 -71.5 -175.5 -71.5h-928c-68.667 0 -127.167 23.833 -175.5 71.5
s-72.5 105.167 -72.5 172.5v938c0 67.333 24.167 124.833 72.5 172.5s106.833 71.5 175.5 71.5zM1451 1123c0 34.667 -12.333 63.667 -37 87s-55 35 -91 35h-846c-36 0 -66.333 -11.833 -91 -35.5s-37 -52.5 -37 -86.5v-878c0 -33.333 12.667 -62.166 38 -86.499
s55.333 -36.5 90 -36.5h846c35.333 0 65.5 12.167 90.5 36.5s37.5 53.166 37.5 86.499v878z" />
    <glyph glyph-name="uni1F144" unicode="U&#x25a1;" 
d="M900 502c34 0 61 9.16699 81 27.5s30 44.166 30 77.499v412h176v-437c0 -68.667 -26.167 -123.834 -78.5 -165.501s-121.833 -62.5 -208.5 -62.5s-156.167 20.833 -208.5 62.5s-78.5 96.834 -78.5 165.501v437h176v-412c0 -33.333 10 -59.166 30 -77.499
s47 -27.5 81 -27.5zM436 1397h928c68.667 0 127.167 -23.833 175.5 -71.5s72.5 -105.167 72.5 -172.5v-938c0 -67.333 -24.167 -124.833 -72.5 -172.5s-106.833 -71.5 -175.5 -71.5h-928c-68.667 0 -127.167 23.833 -175.5 71.5s-72.5 105.167 -72.5 172.5v938
c0 67.333 24.167 124.833 72.5 172.5s106.833 71.5 175.5 71.5zM1451 1123c0 34.667 -12.333 63.667 -37 87s-55 35 -91 35h-846c-36 0 -66.333 -11.833 -91 -35.5s-37 -52.5 -37 -86.5v-878c0 -33.333 12.667 -62.166 38 -86.499s55.333 -36.5 90 -36.5h846
c35.333 0 65.5 12.167 90.5 36.5s37.5 53.166 37.5 86.499v878z" />
    <glyph glyph-name="uni1F145" unicode="V&#x25a1;" 
d="M782 366l-206 653h203l112 -463h18l112 463h203l-206 -653h-236zM436 1397h928c68.667 0 127.167 -23.833 175.5 -71.5s72.5 -105.167 72.5 -172.5v-938c0 -67.333 -24.167 -124.833 -72.5 -172.5s-106.833 -71.5 -175.5 -71.5h-928
c-68.667 0 -127.167 23.833 -175.5 71.5s-72.5 105.167 -72.5 172.5v938c0 67.333 24.167 124.833 72.5 172.5s106.833 71.5 175.5 71.5zM1451 1123c0 34.667 -12.333 63.667 -37 87s-55 35 -91 35h-846c-36 0 -66.333 -11.833 -91 -35.5s-37 -52.5 -37 -86.5v-878
c0 -33.333 12.667 -62.166 38 -86.499s55.333 -36.5 90 -36.5h846c35.333 0 65.5 12.167 90.5 36.5s37.5 53.166 37.5 86.499v878z" />
    <glyph glyph-name="uni1F146" unicode="W&#x25a1;" 
d="M897 778l-103 -410h-152l-157 653h163l81 -443h8l100 443h126l100 -443h8l81 443h163l-157 -653h-152l-103 410h-6zM436 1397h928c68.667 0 127.167 -23.833 175.5 -71.5s72.5 -105.167 72.5 -172.5v-938c0 -67.333 -24.167 -124.833 -72.5 -172.5
s-106.833 -71.5 -175.5 -71.5h-928c-68.667 0 -127.167 23.833 -175.5 71.5s-72.5 105.167 -72.5 172.5v938c0 67.333 24.167 124.833 72.5 172.5s106.833 71.5 175.5 71.5zM1451 1123c0 34.667 -12.333 63.667 -37 87s-55 35 -91 35h-846c-36 0 -66.333 -11.833 -91 -35.5
s-37 -52.5 -37 -86.5v-878c0 -33.333 12.667 -62.166 38 -86.499s55.333 -36.5 90 -36.5h846c35.333 0 65.5 12.167 90.5 36.5s37.5 53.166 37.5 86.499v878z" />
    <glyph glyph-name="uni1F147" unicode="X&#x25a1;" 
d="M1219 1019l-203 -326l203 -327h-204l-117 198h-7l-117 -198h-193l196 328l-196 325h212l109 -207h7l108 207h202zM436 1397h928c68.667 0 127.167 -23.833 175.5 -71.5s72.5 -105.167 72.5 -172.5v-938c0 -67.333 -24.167 -124.833 -72.5 -172.5
s-106.833 -71.5 -175.5 -71.5h-928c-68.667 0 -127.167 23.833 -175.5 71.5s-72.5 105.167 -72.5 172.5v938c0 67.333 24.167 124.833 72.5 172.5s106.833 71.5 175.5 71.5zM1451 1123c0 34.667 -12.333 63.667 -37 87s-55 35 -91 35h-846c-36 0 -66.333 -11.833 -91 -35.5
s-37 -52.5 -37 -86.5v-878c0 -33.333 12.667 -62.166 38 -86.499s55.333 -36.5 90 -36.5h846c35.333 0 65.5 12.167 90.5 36.5s37.5 53.166 37.5 86.499v878z" />
    <glyph glyph-name="uni1F148" unicode="Y&#x25a1;" 
d="M994 366h-187v218l-225 435h197l119 -262h6l118 262h196l-224 -434v-219zM436 1397h928c68.667 0 127.167 -23.833 175.5 -71.5s72.5 -105.167 72.5 -172.5v-938c0 -67.333 -24.167 -124.833 -72.5 -172.5s-106.833 -71.5 -175.5 -71.5h-928
c-68.667 0 -127.167 23.833 -175.5 71.5s-72.5 105.167 -72.5 172.5v938c0 67.333 24.167 124.833 72.5 172.5s106.833 71.5 175.5 71.5zM1451 1123c0 34.667 -12.333 63.667 -37 87s-55 35 -91 35h-846c-36 0 -66.333 -11.833 -91 -35.5s-37 -52.5 -37 -86.5v-878
c0 -33.333 12.667 -62.166 38 -86.499s55.333 -36.5 90 -36.5h846c35.333 0 65.5 12.167 90.5 36.5s37.5 53.166 37.5 86.499v878z" />
    <glyph glyph-name="uni1F149" unicode="Z&#x25a1;" 
d="M644 366v116l286 384v8h-285v145h506v-116l-286 -384v-9h296v-144h-517zM436 1397h928c68.667 0 127.167 -23.833 175.5 -71.5s72.5 -105.167 72.5 -172.5v-938c0 -67.333 -24.167 -124.833 -72.5 -172.5s-106.833 -71.5 -175.5 -71.5h-928
c-68.667 0 -127.167 23.833 -175.5 71.5s-72.5 105.167 -72.5 172.5v938c0 67.333 24.167 124.833 72.5 172.5s106.833 71.5 175.5 71.5zM1451 1123c0 34.667 -12.333 63.667 -37 87s-55 35 -91 35h-846c-36 0 -66.333 -11.833 -91 -35.5s-37 -52.5 -37 -86.5v-878
c0 -33.333 12.667 -62.166 38 -86.499s55.333 -36.5 90 -36.5h846c35.333 0 65.5 12.167 90.5 36.5s37.5 53.166 37.5 86.499v878z" />
    <glyph glyph-name="plus.uc.whitecircle" unicode="&#x2b;&#x25cb;" 
d="M977 612v-189h-154v189h-187v152h187v187h154v-187h187v-152h-187zM900 107c104.667 0 200.671 25.5 288.004 76.5s156.166 120.667 206.499 209s75.5 185.5 75.5 291.5c0 79.333 -14.833 154.666 -44.5 225.999s-69.667 132.666 -120 183.999s-110.833 92 -181.5 122
s-145.334 45 -224.001 45s-153.334 -15 -224.001 -45s-131.167 -70.667 -181.5 -122s-90.333 -112.666 -120 -183.999s-44.5 -146.666 -44.5 -225.999c0 -106 25.167 -203.167 75.5 -291.5s119.166 -158 206.499 -209s183.333 -76.5 288 -76.5zM900.004 -50
c-100 0 -195.333 19.167 -286 57.5s-168.834 90.166 -234.501 155.499s-117.667 143.333 -156 234s-57.5 186.334 -57.5 287.001s19.167 196.334 57.5 287.001s90.333 168.667 156 234s143.834 117.166 234.501 155.499s186 57.5 286 57.5s195.333 -19.167 286 -57.5
s168.834 -90.166 234.501 -155.499s117.667 -143.333 156 -234s57.5 -186.334 57.5 -287.001s-19.167 -196.334 -57.5 -287.001s-90.333 -168.667 -156 -234s-143.834 -117.166 -234.501 -155.499s-186 -57.5 -286 -57.5z" />
    <glyph glyph-name="minus.uc.whitecircle" unicode="&#x2212;&#x25cb;" 
d="M1141 608h-482v157h482v-157zM900 107c104.667 0 200.671 25.5 288.004 76.5s156.166 120.667 206.499 209s75.5 185.5 75.5 291.5c0 79.333 -14.833 154.666 -44.5 225.999s-69.667 132.666 -120 183.999s-110.833 92 -181.5 122s-145.334 45 -224.001 45
s-153.334 -15 -224.001 -45s-131.167 -70.667 -181.5 -122s-90.333 -112.666 -120 -183.999s-44.5 -146.666 -44.5 -225.999c0 -106 25.167 -203.167 75.5 -291.5s119.166 -158 206.499 -209s183.333 -76.5 288 -76.5zM900.004 -50c-100 0 -195.333 19.167 -286 57.5
s-168.834 90.166 -234.501 155.499s-117.667 143.333 -156 234s-57.5 186.334 -57.5 287.001s19.167 196.334 57.5 287.001s90.333 168.667 156 234s143.834 117.166 234.501 155.499s186 57.5 286 57.5s195.333 -19.167 286 -57.5s168.834 -90.166 234.501 -155.499
s117.667 -143.333 156 -234s57.5 -186.334 57.5 -287.001s-19.167 -196.334 -57.5 -287.001s-90.333 -168.667 -156 -234s-143.834 -117.166 -234.501 -155.499s-186 -57.5 -286 -57.5z" />
    <glyph glyph-name="multiply.uc.whitecircle" unicode="&#xd7;&#x25cb;" 
d="M900 798l145 140l109 -111l-144 -140l144 -141l-108 -111l-146 141l-145 -141l-109 111l145 141l-145 140l109 111zM900 107c104.667 0 200.671 25.5 288.004 76.5s156.166 120.667 206.499 209s75.5 185.5 75.5 291.5c0 79.333 -14.833 154.666 -44.5 225.999
s-69.667 132.666 -120 183.999s-110.833 92 -181.5 122s-145.334 45 -224.001 45s-153.334 -15 -224.001 -45s-131.167 -70.667 -181.5 -122s-90.333 -112.666 -120 -183.999s-44.5 -146.666 -44.5 -225.999c0 -106 25.167 -203.167 75.5 -291.5s119.166 -158 206.499 -209
s183.333 -76.5 288 -76.5zM900.004 -50c-100 0 -195.333 19.167 -286 57.5s-168.834 90.166 -234.501 155.499s-117.667 143.333 -156 234s-57.5 186.334 -57.5 287.001s19.167 196.334 57.5 287.001s90.333 168.667 156 234s143.834 117.166 234.501 155.499
s186 57.5 286 57.5s195.333 -19.167 286 -57.5s168.834 -90.166 234.501 -155.499s117.667 -143.333 156 -234s57.5 -186.334 57.5 -287.001s-19.167 -196.334 -57.5 -287.001s-90.333 -168.667 -156 -234s-143.834 -117.166 -234.501 -155.499s-186 -57.5 -286 -57.5z" />
    <glyph glyph-name="divide.uc.whitecircle" unicode="&#xf7;&#x25cb;" 
d="M1141 624h-482v125h482v-125zM810 893c0 24.667 8.5 45 25.5 61s38.167 24 63.5 24c26.667 0 48.5 -8 65.5 -24s25.5 -36.333 25.5 -61s-8.66699 -45 -26 -61s-39 -24 -65 -24c-25.333 0 -46.5 8 -63.5 24s-25.5 36.333 -25.5 61zM810 479c0 25.333 8.5 45.833 25.5 61.5
s38.5 23.5 64.5 23.5s47.667 -8 65 -24s26 -36.333 26 -61s-8.66699 -44.834 -26 -60.501s-39 -23.5 -65 -23.5s-47.5 7.83301 -64.5 23.5s-25.5 35.834 -25.5 60.501zM900 107c104.667 0 200.671 25.5 288.004 76.5s156.166 120.667 206.499 209s75.5 185.5 75.5 291.5
c0 79.333 -14.833 154.666 -44.5 225.999s-69.667 132.666 -120 183.999s-110.833 92 -181.5 122s-145.334 45 -224.001 45s-153.334 -15 -224.001 -45s-131.167 -70.667 -181.5 -122s-90.333 -112.666 -120 -183.999s-44.5 -146.666 -44.5 -225.999
c0 -106 25.167 -203.167 75.5 -291.5s119.166 -158 206.499 -209s183.333 -76.5 288 -76.5zM900.004 -50c-100 0 -195.333 19.167 -286 57.5s-168.834 90.166 -234.501 155.499s-117.667 143.333 -156 234s-57.5 186.334 -57.5 287.001s19.167 196.334 57.5 287.001
s90.333 168.667 156 234s143.834 117.166 234.501 155.499s186 57.5 286 57.5s195.333 -19.167 286 -57.5s168.834 -90.166 234.501 -155.499s117.667 -143.333 156 -234s57.5 -186.334 57.5 -287.001s-19.167 -196.334 -57.5 -287.001s-90.333 -168.667 -156 -234
s-143.834 -117.166 -234.501 -155.499s-186 -57.5 -286 -57.5z" />
    <glyph glyph-name="equal.uc.whitecircle" unicode="&#x3d;&#x25cb;" 
d="M1153 494h-505v139h505v-139zM1153 738h-505v139h505v-139zM900 107c104.667 0 200.671 25.5 288.004 76.5s156.166 120.667 206.499 209s75.5 185.5 75.5 291.5c0 79.333 -14.833 154.666 -44.5 225.999s-69.667 132.666 -120 183.999s-110.833 92 -181.5 122
s-145.334 45 -224.001 45s-153.334 -15 -224.001 -45s-131.167 -70.667 -181.5 -122s-90.333 -112.666 -120 -183.999s-44.5 -146.666 -44.5 -225.999c0 -106 25.167 -203.167 75.5 -291.5s119.166 -158 206.499 -209s183.333 -76.5 288 -76.5zM900.004 -50
c-100 0 -195.333 19.167 -286 57.5s-168.834 90.166 -234.501 155.499s-117.667 143.333 -156 234s-57.5 186.334 -57.5 287.001s19.167 196.334 57.5 287.001s90.333 168.667 156 234s143.834 117.166 234.501 155.499s186 57.5 286 57.5s195.333 -19.167 286 -57.5
s168.834 -90.166 234.501 -155.499s117.667 -143.333 156 -234s57.5 -186.334 57.5 -287.001s-19.167 -196.334 -57.5 -287.001s-90.333 -168.667 -156 -234s-143.834 -117.166 -234.501 -155.499s-186 -57.5 -286 -57.5z" />
    <glyph glyph-name="greater.uc.whitecircle" unicode="&#x3e;&#x25cb;" 
d="M1169 734v-101l-486 -238v169l276 119v6l-276 116v173zM900 107c104.667 0 200.671 25.5 288.004 76.5s156.166 120.667 206.499 209s75.5 185.5 75.5 291.5c0 79.333 -14.833 154.666 -44.5 225.999s-69.667 132.666 -120 183.999s-110.833 92 -181.5 122
s-145.334 45 -224.001 45s-153.334 -15 -224.001 -45s-131.167 -70.667 -181.5 -122s-90.333 -112.666 -120 -183.999s-44.5 -146.666 -44.5 -225.999c0 -106 25.167 -203.167 75.5 -291.5s119.166 -158 206.499 -209s183.333 -76.5 288 -76.5zM900.004 -50
c-100 0 -195.333 19.167 -286 57.5s-168.834 90.166 -234.501 155.499s-117.667 143.333 -156 234s-57.5 186.334 -57.5 287.001s19.167 196.334 57.5 287.001s90.333 168.667 156 234s143.834 117.166 234.501 155.499s186 57.5 286 57.5s195.333 -19.167 286 -57.5
s168.834 -90.166 234.501 -155.499s117.667 -143.333 156 -234s57.5 -186.334 57.5 -287.001s-19.167 -196.334 -57.5 -287.001s-90.333 -168.667 -156 -234s-143.834 -117.166 -234.501 -155.499s-186 -57.5 -286 -57.5z" />
    <glyph glyph-name="less.uc.whitecircle" unicode="&#x3c;&#x25cb;" 
d="M631 633v101l486 244v-173l-276 -116v-6l276 -119v-169zM900 107c104.667 0 200.671 25.5 288.004 76.5s156.166 120.667 206.499 209s75.5 185.5 75.5 291.5c0 79.333 -14.833 154.666 -44.5 225.999s-69.667 132.666 -120 183.999s-110.833 92 -181.5 122
s-145.334 45 -224.001 45s-153.334 -15 -224.001 -45s-131.167 -70.667 -181.5 -122s-90.333 -112.666 -120 -183.999s-44.5 -146.666 -44.5 -225.999c0 -106 25.167 -203.167 75.5 -291.5s119.166 -158 206.499 -209s183.333 -76.5 288 -76.5zM900.004 -50
c-100 0 -195.333 19.167 -286 57.5s-168.834 90.166 -234.501 155.499s-117.667 143.333 -156 234s-57.5 186.334 -57.5 287.001s19.167 196.334 57.5 287.001s90.333 168.667 156 234s143.834 117.166 234.501 155.499s186 57.5 286 57.5s195.333 -19.167 286 -57.5
s168.834 -90.166 234.501 -155.499s117.667 -143.333 156 -234s57.5 -186.334 57.5 -287.001s-19.167 -196.334 -57.5 -287.001s-90.333 -168.667 -156 -234s-143.834 -117.166 -234.501 -155.499s-186 -57.5 -286 -57.5z" />
    <glyph glyph-name="numbersign.whitecircle" unicode="&#x23;&#x25cb;" 
d="M1177 738h-96l-20 -94h95l-24 -120h-95l-35 -163h-125l34 163h-92l-35 -163h-125l34 163h-92l23 120h93l21 94h-93l23 121h92l32 155h125l-32 -155h93l31 155h126l-32 -155h96zM854 748l-25 -122h115l25 122h-115zM900 107c104.667 0 200.671 25.5 288.004 76.5
s156.166 120.667 206.499 209s75.5 185.5 75.5 291.5c0 79.333 -14.833 154.666 -44.5 225.999s-69.667 132.666 -120 183.999s-110.833 92 -181.5 122s-145.334 45 -224.001 45s-153.334 -15 -224.001 -45s-131.167 -70.667 -181.5 -122s-90.333 -112.666 -120 -183.999
s-44.5 -146.666 -44.5 -225.999c0 -106 25.167 -203.167 75.5 -291.5s119.166 -158 206.499 -209s183.333 -76.5 288 -76.5zM900.004 -50c-100 0 -195.333 19.167 -286 57.5s-168.834 90.166 -234.501 155.499s-117.667 143.333 -156 234s-57.5 186.334 -57.5 287.001
s19.167 196.334 57.5 287.001s90.333 168.667 156 234s143.834 117.166 234.501 155.499s186 57.5 286 57.5s195.333 -19.167 286 -57.5s168.834 -90.166 234.501 -155.499s117.667 -143.333 156 -234s57.5 -186.334 57.5 -287.001s-19.167 -196.334 -57.5 -287.001
s-90.333 -168.667 -156 -234s-143.834 -117.166 -234.501 -155.499s-186 -57.5 -286 -57.5z" />
    <glyph glyph-name="uni25BC.whitecircle" unicode="&#x25bc;&#x25cb;" 
d="M1208 891l-308 -534l-307 534h615zM900 107c104.667 0 200.671 25.5 288.004 76.5s156.166 120.667 206.499 209s75.5 185.5 75.5 291.5c0 79.333 -14.833 154.666 -44.5 225.999s-69.667 132.666 -120 183.999s-110.833 92 -181.5 122s-145.334 45 -224.001 45
s-153.334 -15 -224.001 -45s-131.167 -70.667 -181.5 -122s-90.333 -112.666 -120 -183.999s-44.5 -146.666 -44.5 -225.999c0 -106 25.167 -203.167 75.5 -291.5s119.166 -158 206.499 -209s183.333 -76.5 288 -76.5zM900.004 -50c-100 0 -195.333 19.167 -286 57.5
s-168.834 90.166 -234.501 155.499s-117.667 143.333 -156 234s-57.5 186.334 -57.5 287.001s19.167 196.334 57.5 287.001s90.333 168.667 156 234s143.834 117.166 234.501 155.499s186 57.5 286 57.5s195.333 -19.167 286 -57.5s168.834 -90.166 234.501 -155.499
s117.667 -143.333 156 -234s57.5 -186.334 57.5 -287.001s-19.167 -196.334 -57.5 -287.001s-90.333 -168.667 -156 -234s-143.834 -117.166 -234.501 -155.499s-186 -57.5 -286 -57.5z" />
    <glyph glyph-name="uni25B2.whitecircle" unicode="&#x25b2;&#x25cb;" 
d="M1208 482h-615l307 535zM900 107c104.667 0 200.671 25.5 288.004 76.5s156.166 120.667 206.499 209s75.5 185.5 75.5 291.5c0 79.333 -14.833 154.666 -44.5 225.999s-69.667 132.666 -120 183.999s-110.833 92 -181.5 122s-145.334 45 -224.001 45
s-153.334 -15 -224.001 -45s-131.167 -70.667 -181.5 -122s-90.333 -112.666 -120 -183.999s-44.5 -146.666 -44.5 -225.999c0 -106 25.167 -203.167 75.5 -291.5s119.166 -158 206.499 -209s183.333 -76.5 288 -76.5zM900.004 -50c-100 0 -195.333 19.167 -286 57.5
s-168.834 90.166 -234.501 155.499s-117.667 143.333 -156 234s-57.5 186.334 -57.5 287.001s19.167 196.334 57.5 287.001s90.333 168.667 156 234s143.834 117.166 234.501 155.499s186 57.5 286 57.5s195.333 -19.167 286 -57.5s168.834 -90.166 234.501 -155.499
s117.667 -143.333 156 -234s57.5 -186.334 57.5 -287.001s-19.167 -196.334 -57.5 -287.001s-90.333 -168.667 -156 -234s-143.834 -117.166 -234.501 -155.499s-186 -57.5 -286 -57.5z" />
    <glyph glyph-name="uni25C0.whitecircle" unicode="&#x25c0;&#x25cb;" 
d="M1102 380l-532 309l532 308v-617zM900 107c104.667 0 200.671 25.5 288.004 76.5s156.166 120.667 206.499 209s75.5 185.5 75.5 291.5c0 79.333 -14.833 154.666 -44.5 225.999s-69.667 132.666 -120 183.999s-110.833 92 -181.5 122s-145.334 45 -224.001 45
s-153.334 -15 -224.001 -45s-131.167 -70.667 -181.5 -122s-90.333 -112.666 -120 -183.999s-44.5 -146.666 -44.5 -225.999c0 -106 25.167 -203.167 75.5 -291.5s119.166 -158 206.499 -209s183.333 -76.5 288 -76.5zM900.004 -50c-100 0 -195.333 19.167 -286 57.5
s-168.834 90.166 -234.501 155.499s-117.667 143.333 -156 234s-57.5 186.334 -57.5 287.001s19.167 196.334 57.5 287.001s90.333 168.667 156 234s143.834 117.166 234.501 155.499s186 57.5 286 57.5s195.333 -19.167 286 -57.5s168.834 -90.166 234.501 -155.499
s117.667 -143.333 156 -234s57.5 -186.334 57.5 -287.001s-19.167 -196.334 -57.5 -287.001s-90.333 -168.667 -156 -234s-143.834 -117.166 -234.501 -155.499s-186 -57.5 -286 -57.5z" />
    <glyph glyph-name="uni25B6.whitecircle" unicode="&#x25b6;&#x25cb;" 
d="M698 380v617l532 -308zM900 107c104.667 0 200.671 25.5 288.004 76.5s156.166 120.667 206.499 209s75.5 185.5 75.5 291.5c0 79.333 -14.833 154.666 -44.5 225.999s-69.667 132.666 -120 183.999s-110.833 92 -181.5 122s-145.334 45 -224.001 45
s-153.334 -15 -224.001 -45s-131.167 -70.667 -181.5 -122s-90.333 -112.666 -120 -183.999s-44.5 -146.666 -44.5 -225.999c0 -106 25.167 -203.167 75.5 -291.5s119.166 -158 206.499 -209s183.333 -76.5 288 -76.5zM900.004 -50c-100 0 -195.333 19.167 -286 57.5
s-168.834 90.166 -234.501 155.499s-117.667 143.333 -156 234s-57.5 186.334 -57.5 287.001s19.167 196.334 57.5 287.001s90.333 168.667 156 234s143.834 117.166 234.501 155.499s186 57.5 286 57.5s195.333 -19.167 286 -57.5s168.834 -90.166 234.501 -155.499
s117.667 -143.333 156 -234s57.5 -186.334 57.5 -287.001s-19.167 -196.334 -57.5 -287.001s-90.333 -168.667 -156 -234s-143.834 -117.166 -234.501 -155.499s-186 -57.5 -286 -57.5z" />
    <glyph glyph-name="question.whitecircle" unicode="&#x3f;&#x25cb;" 
d="M787 436c0 26 9.5 46.5 28.5 61.5s44.5 22.5 76.5 22.5s57.333 -7.5 76 -22.5s28 -35.5 28 -61.5c0 -25.333 -9.16699 -45.5 -27.5 -60.5s-43.833 -22.5 -76.5 -22.5c-32 0 -57.5 7.5 -76.5 22.5s-28.5 35.167 -28.5 60.5zM809 568
c-1.33301 6.66699 -1.99805 18.3389 -1.99805 35.0059c-1.33301 55.333 26.667 102.666 84 141.999c2 1.33301 6.83301 4.83301 14.5 10.5l15 11l12.5 9c6 4.33301 9.83301 7.66602 11.5 9.99902s4.5 5.66602 8.5 9.99902s6.5 8.16602 7.5 11.499l3.5 11.5
c1.33301 4.33301 2 8.83301 2 13.5c0 19.333 -6.33301 34.166 -19 44.499s-29 15.5 -49 15.5c-22 0 -39.167 -6.33301 -51.5 -19s-18.833 -29 -19.5 -49h-160c-0.666992 67.333 21.666 118 66.999 152s104.666 51 177.999 51c67.333 0 122.833 -16.5 166.5 -49.5
s65.5 -78.5 65.5 -136.5c0 -26.667 -5.16699 -50.667 -15.5 -72s-21.5 -37.333 -33.5 -48s-28 -22.334 -48 -35.001c-37.333 -24.667 -60 -41.667 -68 -51c-12 -14 -18 -31.667 -18 -53v-14h-152zM900.002 107.005c104.667 0 200.671 25.5 288.004 76.5
s156.166 120.667 206.499 209s75.5 185.5 75.5 291.5c0 79.333 -14.833 154.666 -44.5 225.999s-69.667 132.666 -120 183.999s-110.833 92 -181.5 122s-145.334 45 -224.001 45s-153.334 -15 -224.001 -45s-131.167 -70.667 -181.5 -122s-90.333 -112.666 -120 -183.999
s-44.5 -146.666 -44.5 -225.999c0 -106 25.167 -203.167 75.5 -291.5s119.166 -158 206.499 -209s183.333 -76.5 288 -76.5zM900.006 -49.9951c-100 0 -195.333 19.167 -286 57.5s-168.834 90.166 -234.501 155.499s-117.667 143.333 -156 234s-57.5 186.334 -57.5 287.001
s19.167 196.334 57.5 287.001s90.333 168.667 156 234s143.834 117.166 234.501 155.499s186 57.5 286 57.5s195.333 -19.167 286 -57.5s168.834 -90.166 234.501 -155.499s117.667 -143.333 156 -234s57.5 -186.334 57.5 -287.001s-19.167 -196.334 -57.5 -287.001
s-90.333 -168.667 -156 -234s-143.834 -117.166 -234.501 -155.499s-186 -57.5 -286 -57.5z" />
    <glyph glyph-name="exclam.whitecircle" unicode="&#x21;&#x25cb;" 
d="M798 436c0 26 9.5 46.5 28.5 61.5s44.5 22.5 76.5 22.5c32.667 0 58.167 -7.5 76.5 -22.5s27.5 -35.5 27.5 -61.5c0 -25.333 -9.16699 -45.5 -27.5 -60.5s-43.833 -22.5 -76.5 -22.5c-32 0 -57.5 7.5 -76.5 22.5s-28.5 35.167 -28.5 60.5zM808 1016h191l-20 -430h-151z
M900 107c104.667 0 200.671 25.5 288.004 76.5s156.166 120.667 206.499 209s75.5 185.5 75.5 291.5c0 79.333 -14.833 154.666 -44.5 225.999s-69.667 132.666 -120 183.999s-110.833 92 -181.5 122s-145.334 45 -224.001 45s-153.334 -15 -224.001 -45
s-131.167 -70.667 -181.5 -122s-90.333 -112.666 -120 -183.999s-44.5 -146.666 -44.5 -225.999c0 -106 25.167 -203.167 75.5 -291.5s119.166 -158 206.499 -209s183.333 -76.5 288 -76.5zM900.004 -50c-100 0 -195.333 19.167 -286 57.5s-168.834 90.166 -234.501 155.499
s-117.667 143.333 -156 234s-57.5 186.334 -57.5 287.001s19.167 196.334 57.5 287.001s90.333 168.667 156 234s143.834 117.166 234.501 155.499s186 57.5 286 57.5s195.333 -19.167 286 -57.5s168.834 -90.166 234.501 -155.499s117.667 -143.333 156 -234
s57.5 -186.334 57.5 -287.001s-19.167 -196.334 -57.5 -287.001s-90.333 -168.667 -156 -234s-143.834 -117.166 -234.501 -155.499s-186 -57.5 -286 -57.5z" />
    <glyph glyph-name="uni2717.whitecircle" unicode="&#x2717;&#x25cb;" 
d="M904 794l217 215l108 -110l-218 -215l218 -214l-108 -111l-217 214l-218 -215l-108 111l218 215l-218 215l107 111zM900 107c104.667 0 200.671 25.5 288.004 76.5s156.166 120.667 206.499 209s75.5 185.5 75.5 291.5c0 79.333 -14.833 154.666 -44.5 225.999
s-69.667 132.666 -120 183.999s-110.833 92 -181.5 122s-145.334 45 -224.001 45s-153.334 -15 -224.001 -45s-131.167 -70.667 -181.5 -122s-90.333 -112.666 -120 -183.999s-44.5 -146.666 -44.5 -225.999c0 -106 25.167 -203.167 75.5 -291.5s119.166 -158 206.499 -209
s183.333 -76.5 288 -76.5zM900.004 -50c-100 0 -195.333 19.167 -286 57.5s-168.834 90.166 -234.501 155.499s-117.667 143.333 -156 234s-57.5 186.334 -57.5 287.001s19.167 196.334 57.5 287.001s90.333 168.667 156 234s143.834 117.166 234.501 155.499
s186 57.5 286 57.5s195.333 -19.167 286 -57.5s168.834 -90.166 234.501 -155.499s117.667 -143.333 156 -234s57.5 -186.334 57.5 -287.001s-19.167 -196.334 -57.5 -287.001s-90.333 -168.667 -156 -234s-143.834 -117.166 -234.501 -155.499s-186 -57.5 -286 -57.5z" />
    <glyph glyph-name="uni2713.whitecircle" unicode="&#x2713;&#x25cb;" 
d="M1302 862l-512 -503l-289 287l112 114l179 -178l401 397zM900 107c104.667 0 200.671 25.5 288.004 76.5s156.166 120.667 206.499 209s75.5 185.5 75.5 291.5c0 79.333 -14.833 154.666 -44.5 225.999s-69.667 132.666 -120 183.999s-110.833 92 -181.5 122
s-145.334 45 -224.001 45s-153.334 -15 -224.001 -45s-131.167 -70.667 -181.5 -122s-90.333 -112.666 -120 -183.999s-44.5 -146.666 -44.5 -225.999c0 -106 25.167 -203.167 75.5 -291.5s119.166 -158 206.499 -209s183.333 -76.5 288 -76.5zM900.004 -50
c-100 0 -195.333 19.167 -286 57.5s-168.834 90.166 -234.501 155.499s-117.667 143.333 -156 234s-57.5 186.334 -57.5 287.001s19.167 196.334 57.5 287.001s90.333 168.667 156 234s143.834 117.166 234.501 155.499s186 57.5 286 57.5s195.333 -19.167 286 -57.5
s168.834 -90.166 234.501 -155.499s117.667 -143.333 156 -234s57.5 -186.334 57.5 -287.001s-19.167 -196.334 -57.5 -287.001s-90.333 -168.667 -156 -234s-143.834 -117.166 -234.501 -155.499s-186 -57.5 -286 -57.5z" />
    <glyph glyph-name="zero.whitesquare" unicode="&#x30;&#x25a1;" 
d="M802 710v-34c0 -58.667 8.5 -103.167 25.5 -133.5s41.167 -45.5 72.5 -45.5s55.666 15.333 72.999 46s26 75 26 133v34c0 57.333 -8.66699 101.333 -26 132s-41.666 46 -72.999 46s-55.5 -15 -72.5 -45s-25.5 -74.333 -25.5 -133zM627 676v34
c0 96.667 24.667 174.167 74 232.5s116.333 87.5 201 87.5s151 -28.833 199 -86.5s72 -135.5 72 -233.5v-34c0 -95.333 -24.833 -172.833 -74.5 -232.5s-116.5 -89.5 -200.5 -89.5s-150.167 29 -198.5 87s-72.5 136.333 -72.5 235zM436 1397h928
c68.667 0 127.167 -23.833 175.5 -71.5s72.5 -105.167 72.5 -172.5v-938c0 -67.333 -24.167 -124.833 -72.5 -172.5s-106.833 -71.5 -175.5 -71.5h-928c-68.667 0 -127.167 23.833 -175.5 71.5s-72.5 105.167 -72.5 172.5v938c0 67.333 24.167 124.833 72.5 172.5
s106.833 71.5 175.5 71.5zM1451 1123c0 34.667 -12.333 63.667 -37 87s-55 35 -91 35h-846c-36 0 -66.333 -11.833 -91 -35.5s-37 -52.5 -37 -86.5v-878c0 -33.333 12.667 -62.166 38 -86.499s55.333 -36.5 90 -36.5h846c35.333 0 65.5 12.167 90.5 36.5
s37.5 53.166 37.5 86.499v878z" />
    <glyph glyph-name="one.whitesquare" unicode="&#x31;&#x25a1;" 
d="M1025 366h-179v489h-9l-150 -101v159l159 106h179v-653zM436 1397h928c68.667 0 127.167 -23.833 175.5 -71.5s72.5 -105.167 72.5 -172.5v-938c0 -67.333 -24.167 -124.833 -72.5 -172.5s-106.833 -71.5 -175.5 -71.5h-928c-68.667 0 -127.167 23.833 -175.5 71.5
s-72.5 105.167 -72.5 172.5v938c0 67.333 24.167 124.833 72.5 172.5s106.833 71.5 175.5 71.5zM1451 1123c0 34.667 -12.333 63.667 -37 87s-55 35 -91 35h-846c-36 0 -66.333 -11.833 -91 -35.5s-37 -52.5 -37 -86.5v-878c0 -33.333 12.667 -62.166 38 -86.499
s55.333 -36.5 90 -36.5h846c35.333 0 65.5 12.167 90.5 36.5s37.5 53.166 37.5 86.499v878z" />
    <glyph glyph-name="two.whitesquare" unicode="&#x32;&#x25a1;" 
d="M816 807l-167.001 0.00390625v3c0 63.333 22.333 115.833 67 157.5s106.334 62.5 185.001 62.5c73.333 0 132.666 -18 177.999 -54s68 -82.333 68 -139c0 -35.333 -10 -68 -30 -98s-51 -65 -93 -105l-121 -117v-8h255v-143h-499v113l239 227
c25.333 25.333 43.666 46.166 54.999 62.499s17 34.166 17 53.499s-7.16699 35.166 -21.5 47.499s-32.166 18.5 -53.499 18.5c-24.667 0 -44.167 -7.33301 -58.5 -22s-21.166 -33.334 -20.499 -56.001v-3zM435.999 1397h928c68.667 0 127.167 -23.833 175.5 -71.5
s72.5 -105.167 72.5 -172.5v-938c0 -67.333 -24.167 -124.833 -72.5 -172.5s-106.833 -71.5 -175.5 -71.5h-928c-68.667 0 -127.167 23.833 -175.5 71.5s-72.5 105.167 -72.5 172.5v938c0 67.333 24.167 124.833 72.5 172.5s106.833 71.5 175.5 71.5zM1451 1123
c0 34.667 -12.333 63.667 -37 87s-55 35 -91 35h-846c-36 0 -66.333 -11.833 -91 -35.5s-37 -52.5 -37 -86.5v-878c0 -33.333 12.667 -62.166 38 -86.499s55.333 -36.5 90 -36.5h846c35.333 0 65.5 12.167 90.5 36.5s37.5 53.166 37.5 86.499v878z" />
    <glyph glyph-name="three.whitesquare" unicode="&#x33;&#x25a1;" 
d="M829 631l-0.00390625 134h66c25.333 0 45.833 6.33301 61.5 19s23.5 29.334 23.5 50.001c-0.666992 19.333 -8.66699 34.833 -24 46.5s-35.666 17.5 -60.999 17.5c-26 0 -47 -6.83301 -63 -20.5s-24.667 -30.834 -26 -51.501h-165c2.66699 63.333 26.167 113 70.5 149
s106.5 54.333 186.5 55c76.667 -0.666992 137.667 -16.834 183 -48.501s68.333 -73.5 69 -125.5c0.666992 -36.667 -12 -68.5 -38 -95.5s-54.667 -42.833 -86 -47.5v-8c37.333 -3.33301 70.333 -19 99 -47s43.334 -64 44.001 -108
c0.666992 -59.333 -24.333 -106.666 -75 -141.999s-116.667 -53 -198 -53c-79.333 0 -142.666 19 -189.999 57s-71.666 87.333 -72.999 148h164c1.33301 -21.333 11 -38.5 29 -51.5s41 -19.5 69 -19.5c30 0 54 6.5 72 19.5s27 30.167 27 51.5
c-0.666992 22 -9.5 39.333 -26.5 52s-40.5 19 -70.5 19h-68zM435.996 1397h928c68.667 0 127.167 -23.833 175.5 -71.5s72.5 -105.167 72.5 -172.5v-938c0 -67.333 -24.167 -124.833 -72.5 -172.5s-106.833 -71.5 -175.5 -71.5h-928c-68.667 0 -127.167 23.833 -175.5 71.5
s-72.5 105.167 -72.5 172.5v938c0 67.333 24.167 124.833 72.5 172.5s106.833 71.5 175.5 71.5zM1451 1123c0 34.667 -12.333 63.667 -37 87s-55 35 -91 35h-846c-36 0 -66.333 -11.833 -91 -35.5s-37 -52.5 -37 -86.5v-878c0 -33.333 12.667 -62.166 38 -86.499
s55.333 -36.5 90 -36.5h846c35.333 0 65.5 12.167 90.5 36.5s37.5 53.166 37.5 86.499v878z" />
    <glyph glyph-name="four.whitesquare" unicode="&#x34;&#x25a1;" 
d="M845 1019h257v-408h77v-142h-77v-103h-168v103h-324v144c22 40 58.5 103 109.5 189zM763 611h171v277h-9c-74.667 -121.333 -128.667 -213 -162 -275v-2zM436 1397h928c68.667 0 127.167 -23.833 175.5 -71.5s72.5 -105.167 72.5 -172.5v-938
c0 -67.333 -24.167 -124.833 -72.5 -172.5s-106.833 -71.5 -175.5 -71.5h-928c-68.667 0 -127.167 23.833 -175.5 71.5s-72.5 105.167 -72.5 172.5v938c0 67.333 24.167 124.833 72.5 172.5s106.833 71.5 175.5 71.5zM1451 1123c0 34.667 -12.333 63.667 -37 87
s-55 35 -91 35h-846c-36 0 -66.333 -11.833 -91 -35.5s-37 -52.5 -37 -86.5v-878c0 -33.333 12.667 -62.166 38 -86.499s55.333 -36.5 90 -36.5h846c35.333 0 65.5 12.167 90.5 36.5s37.5 53.166 37.5 86.499v878z" />
    <glyph glyph-name="five.whitesquare" unicode="&#x35;&#x25a1;" 
d="M650 553l165 -0.000976562c4 -20 15 -35.5 33 -46.5s38.667 -16.5 62 -16.5c26.667 0 49.667 8.83301 69 26.5s29 40.834 29 69.501c0 26.667 -9.5 48.5 -28.5 65.5s-42.167 25.5 -69.5 25.5c-41.333 0 -71 -15.667 -89 -47h-158l26 389h448v-133h-312l-12 -145h9
c9.33301 16.667 26.5 31 51.5 43s54.5 18 88.5 18c63.333 0 115.333 -19 156 -57s61 -89 61 -153c0 -72.667 -24.5 -130.5 -73.5 -173.5s-114.5 -64.5 -196.5 -64.5c-75.333 0 -137 18.667 -185 56s-72.667 85 -74 143zM436 1397h928c68.667 0 127.167 -23.833 175.5 -71.5
s72.5 -105.167 72.5 -172.5v-938c0 -67.333 -24.167 -124.833 -72.5 -172.5s-106.833 -71.5 -175.5 -71.5h-928c-68.667 0 -127.167 23.833 -175.5 71.5s-72.5 105.167 -72.5 172.5v938c0 67.333 24.167 124.833 72.5 172.5s106.833 71.5 175.5 71.5zM1451 1123
c0 34.667 -12.333 63.667 -37 87s-55 35 -91 35h-846c-36 0 -66.333 -11.833 -91 -35.5s-37 -52.5 -37 -86.5v-878c0 -33.333 12.667 -62.166 38 -86.499s55.333 -36.5 90 -36.5h846c35.333 0 65.5 12.167 90.5 36.5s37.5 53.166 37.5 86.499v878z" />
    <glyph glyph-name="six.whitesquare" unicode="&#x36;&#x25a1;" 
d="M1168 590c0 -72 -23.999 -129.665 -71.999 -172.998s-112.333 -65 -193 -65c-82 0 -147.667 22.667 -197 68s-74 105.666 -74 180.999c0 76 31.667 159.333 95 250c14 22.667 55.667 78 125 166h205c-16 -16 -45.667 -50.833 -89 -104.5s-72 -90.5 -86 -110.5
c-2.66699 -4.66699 -6.66699 -11.167 -12 -19.5s-9 -14.5 -11 -18.5l10 -1c26 24.667 59.667 37 101 37c57.333 0 104.666 -19.833 141.999 -59.5s56 -89.834 56 -150.501zM801.001 584.002c0 -27.333 9.5 -50.166 28.5 -68.499s42.833 -27.5 71.5 -27.5
s52.667 9.16699 72 27.5s29 41.166 29 68.499s-9.66699 50.333 -29 69s-43.333 28 -72 28s-52.5 -9.33301 -71.5 -28s-28.5 -41.667 -28.5 -69zM436.001 1397h928c68.667 0 127.167 -23.833 175.5 -71.5s72.5 -105.167 72.5 -172.5v-938
c0 -67.333 -24.167 -124.833 -72.5 -172.5s-106.833 -71.5 -175.5 -71.5h-928c-68.667 0 -127.167 23.833 -175.5 71.5s-72.5 105.167 -72.5 172.5v938c0 67.333 24.167 124.833 72.5 172.5s106.833 71.5 175.5 71.5zM1451 1123c0 34.667 -12.333 63.667 -37 87
s-55 35 -91 35h-846c-36 0 -66.333 -11.833 -91 -35.5s-37 -52.5 -37 -86.5v-878c0 -33.333 12.667 -62.166 38 -86.499s55.333 -36.5 90 -36.5h846c35.333 0 65.5 12.167 90.5 36.5s37.5 53.166 37.5 86.499v878z" />
    <glyph glyph-name="seven.whitesquare" unicode="&#x37;&#x25a1;" 
d="M653 1019h508v-145l-265 -508h-191l267 503v6h-319v144zM436 1397h928c68.667 0 127.167 -23.833 175.5 -71.5s72.5 -105.167 72.5 -172.5v-938c0 -67.333 -24.167 -124.833 -72.5 -172.5s-106.833 -71.5 -175.5 -71.5h-928c-68.667 0 -127.167 23.833 -175.5 71.5
s-72.5 105.167 -72.5 172.5v938c0 67.333 24.167 124.833 72.5 172.5s106.833 71.5 175.5 71.5zM1451 1123c0 34.667 -12.333 63.667 -37 87s-55 35 -91 35h-846c-36 0 -66.333 -11.833 -91 -35.5s-37 -52.5 -37 -86.5v-878c0 -33.333 12.667 -62.166 38 -86.499
s55.333 -36.5 90 -36.5h846c35.333 0 65.5 12.167 90.5 36.5s37.5 53.166 37.5 86.499v878z" />
    <glyph glyph-name="eight.whitesquare" unicode="&#x38;&#x25a1;" 
d="M900 476c29.333 0 53.667 8.16699 73 24.5s29 36.833 29 61.5c0 25.333 -9.5 46.166 -28.5 62.499s-43.5 24.5 -73.5 24.5s-54.667 -8.16699 -74 -24.5s-29 -37.166 -29 -62.499s9.66699 -46 29 -62s44 -24 74 -24zM900.001 761c24.667 0 44.834 6.83301 60.501 20.5
s23.5 31.167 23.5 52.5s-7.83301 38.833 -23.5 52.5s-35.834 20.5 -60.501 20.5s-44.834 -6.83301 -60.501 -20.5s-23.5 -31.167 -23.5 -52.5s7.83301 -38.833 23.5 -52.5s35.834 -20.5 60.501 -20.5zM899.001 354c-86 0 -154.5 17.668 -205.5 53.001
s-76.5 82.666 -76.5 141.999c0 41.333 13.167 76.333 39.5 105s61.833 46.334 106.5 53.001v7c-79.333 23.333 -119 70 -119 140c0 52.667 23.333 95.167 70 127.5s108.667 48.5 186 48.5s139.333 -16.167 186 -48.5s70 -74.833 70 -127.5
c0 -70.667 -39.667 -117.334 -119 -140.001v-7c44.667 -6.66699 80.167 -24.334 106.5 -53.001s39.5 -63.667 39.5 -105c0 -59.333 -25.833 -106.666 -77.5 -141.999s-120.5 -53 -206.5 -53zM436.001 1397h928c68.667 0 127.167 -23.833 175.5 -71.5
s72.5 -105.167 72.5 -172.5v-938c0 -67.333 -24.167 -124.833 -72.5 -172.5s-106.833 -71.5 -175.5 -71.5h-928c-68.667 0 -127.167 23.833 -175.5 71.5s-72.5 105.167 -72.5 172.5v938c0 67.333 24.167 124.833 72.5 172.5s106.833 71.5 175.5 71.5zM1451 1123
c0 34.667 -12.333 63.667 -37 87s-55 35 -91 35h-846c-36 0 -66.333 -11.833 -91 -35.5s-37 -52.5 -37 -86.5v-878c0 -33.333 12.667 -62.166 38 -86.499s55.333 -36.5 90 -36.5h846c35.333 0 65.5 12.167 90.5 36.5s37.5 53.166 37.5 86.499v878z" />
    <glyph glyph-name="nine.whitesquare" unicode="&#x39;&#x25a1;" 
d="M634 789c0 72 24.001 129.665 72.001 172.998s112 65 192 65c82 0 147.833 -22.5 197.5 -67.5s74.5 -105.5 74.5 -181.5c0 -72.667 -30.667 -154 -92 -244c-20 -33.333 -62.667 -90.666 -128 -171.999h-205c16 16.667 45.667 51.667 89 105s71.666 90 84.999 110
c14.667 22.667 22.667 35.334 24 38.001l-10 1c-25.333 -24 -59.333 -36 -102 -36c-56.667 0 -103.667 19.833 -141 59.5s-56 89.5 -56 149.5zM1001 794.998c0 27.333 -9.5 50.166 -28.5 68.499s-42.833 27.5 -71.5 27.5s-52.667 -9.16699 -72 -27.5
s-29 -41.166 -29 -68.499s9.66699 -50.166 29 -68.499s43.333 -27.5 72 -27.5s52.5 9.16699 71.5 27.5s28.5 41.166 28.5 68.499zM436.001 1397h928c68.667 0 127.167 -23.833 175.5 -71.5s72.5 -105.167 72.5 -172.5v-938c0 -67.333 -24.167 -124.833 -72.5 -172.5
s-106.833 -71.5 -175.5 -71.5h-928c-68.667 0 -127.167 23.833 -175.5 71.5s-72.5 105.167 -72.5 172.5v938c0 67.333 24.167 124.833 72.5 172.5s106.833 71.5 175.5 71.5zM1451 1123c0 34.667 -12.333 63.667 -37 87s-55 35 -91 35h-846c-36 0 -66.333 -11.833 -91 -35.5
s-37 -52.5 -37 -86.5v-878c0 -33.333 12.667 -62.166 38 -86.499s55.333 -36.5 90 -36.5h846c35.333 0 65.5 12.167 90.5 36.5s37.5 53.166 37.5 86.499v878z" />
    <glyph glyph-name="plus.uc.whitesquare" unicode="&#x2b;&#x25a1;" 
d="M977 610v-190h-154v190h-187v152h187v186h154v-186h187v-152h-187zM436 1397h928c68.667 0 127.167 -23.833 175.5 -71.5s72.5 -105.167 72.5 -172.5v-938c0 -67.333 -24.167 -124.833 -72.5 -172.5s-106.833 -71.5 -175.5 -71.5h-928
c-68.667 0 -127.167 23.833 -175.5 71.5s-72.5 105.167 -72.5 172.5v938c0 67.333 24.167 124.833 72.5 172.5s106.833 71.5 175.5 71.5zM1451 1123c0 34.667 -12.333 63.667 -37 87s-55 35 -91 35h-846c-36 0 -66.333 -11.833 -91 -35.5s-37 -52.5 -37 -86.5v-878
c0 -33.333 12.667 -62.166 38 -86.499s55.333 -36.5 90 -36.5h846c35.333 0 65.5 12.167 90.5 36.5s37.5 53.166 37.5 86.499v878z" />
    <glyph glyph-name="minus.uc.whitesquare" unicode="&#x2212;&#x25a1;" 
d="M1141 606h-482v157h482v-157zM436 1397h928c68.667 0 127.167 -23.833 175.5 -71.5s72.5 -105.167 72.5 -172.5v-938c0 -67.333 -24.167 -124.833 -72.5 -172.5s-106.833 -71.5 -175.5 -71.5h-928c-68.667 0 -127.167 23.833 -175.5 71.5s-72.5 105.167 -72.5 172.5v938
c0 67.333 24.167 124.833 72.5 172.5s106.833 71.5 175.5 71.5zM1451 1123c0 34.667 -12.333 63.667 -37 87s-55 35 -91 35h-846c-36 0 -66.333 -11.833 -91 -35.5s-37 -52.5 -37 -86.5v-878c0 -33.333 12.667 -62.166 38 -86.499s55.333 -36.5 90 -36.5h846
c35.333 0 65.5 12.167 90.5 36.5s37.5 53.166 37.5 86.499v878z" />
    <glyph glyph-name="multiply.uc.whitesquare" unicode="&#xd7;&#x25a1;" 
d="M900 796l145 140l109 -111l-144 -141l144 -141l-108 -110l-146 140l-145 -140l-109 110l145 141l-145 141l109 111zM436 1397h928c68.667 0 127.167 -23.833 175.5 -71.5s72.5 -105.167 72.5 -172.5v-938c0 -67.333 -24.167 -124.833 -72.5 -172.5
s-106.833 -71.5 -175.5 -71.5h-928c-68.667 0 -127.167 23.833 -175.5 71.5s-72.5 105.167 -72.5 172.5v938c0 67.333 24.167 124.833 72.5 172.5s106.833 71.5 175.5 71.5zM1451 1123c0 34.667 -12.333 63.667 -37 87s-55 35 -91 35h-846c-36 0 -66.333 -11.833 -91 -35.5
s-37 -52.5 -37 -86.5v-878c0 -33.333 12.667 -62.166 38 -86.499s55.333 -36.5 90 -36.5h846c35.333 0 65.5 12.167 90.5 36.5s37.5 53.166 37.5 86.499v878z" />
    <glyph glyph-name="divide.uc.whitesquare" unicode="&#xf7;&#x25a1;" 
d="M1141 622h-482v125h482v-125zM810 891c0 24.667 8.33301 44.834 25 60.501s38 23.5 64 23.5c26.667 0 48.5 -7.83301 65.5 -23.5s25.5 -35.834 25.5 -60.501s-8.66699 -45 -26 -61s-39 -24 -65 -24c-25.333 0 -46.5 8 -63.5 24s-25.5 36.333 -25.5 61zM810 477
c0 24.667 8.5 45 25.5 61s38.5 24 64.5 24s47.667 -8 65 -24s26 -36.333 26 -61s-8.66699 -44.834 -26 -60.501s-39 -23.5 -65 -23.5s-47.5 7.83301 -64.5 23.5s-25.5 35.834 -25.5 60.501zM436 1397h928c68.667 0 127.167 -23.833 175.5 -71.5s72.5 -105.167 72.5 -172.5
v-938c0 -67.333 -24.167 -124.833 -72.5 -172.5s-106.833 -71.5 -175.5 -71.5h-928c-68.667 0 -127.167 23.833 -175.5 71.5s-72.5 105.167 -72.5 172.5v938c0 67.333 24.167 124.833 72.5 172.5s106.833 71.5 175.5 71.5zM1451 1123c0 34.667 -12.333 63.667 -37 87
s-55 35 -91 35h-846c-36 0 -66.333 -11.833 -91 -35.5s-37 -52.5 -37 -86.5v-878c0 -33.333 12.667 -62.166 38 -86.499s55.333 -36.5 90 -36.5h846c35.333 0 65.5 12.167 90.5 36.5s37.5 53.166 37.5 86.499v878z" />
    <glyph glyph-name="equal.uc.whitesquare" unicode="&#x3d;&#x25a1;" 
d="M1153 492h-505v138h505v-138zM1153 736h-505v139h505v-139zM436 1397h928c68.667 0 127.167 -23.833 175.5 -71.5s72.5 -105.167 72.5 -172.5v-938c0 -67.333 -24.167 -124.833 -72.5 -172.5s-106.833 -71.5 -175.5 -71.5h-928c-68.667 0 -127.167 23.833 -175.5 71.5
s-72.5 105.167 -72.5 172.5v938c0 67.333 24.167 124.833 72.5 172.5s106.833 71.5 175.5 71.5zM1451 1123c0 34.667 -12.333 63.667 -37 87s-55 35 -91 35h-846c-36 0 -66.333 -11.833 -91 -35.5s-37 -52.5 -37 -86.5v-878c0 -33.333 12.667 -62.166 38 -86.499
s55.333 -36.5 90 -36.5h846c35.333 0 65.5 12.167 90.5 36.5s37.5 53.166 37.5 86.499v878z" />
    <glyph glyph-name="greater.uc.whitesquare" unicode="&#x3e;&#x25a1;" 
d="M1169 732v-102l-486 -237v169l276 118v7l-276 116v173zM436 1397h928c68.667 0 127.167 -23.833 175.5 -71.5s72.5 -105.167 72.5 -172.5v-938c0 -67.333 -24.167 -124.833 -72.5 -172.5s-106.833 -71.5 -175.5 -71.5h-928c-68.667 0 -127.167 23.833 -175.5 71.5
s-72.5 105.167 -72.5 172.5v938c0 67.333 24.167 124.833 72.5 172.5s106.833 71.5 175.5 71.5zM1451 1123c0 34.667 -12.333 63.667 -37 87s-55 35 -91 35h-846c-36 0 -66.333 -11.833 -91 -35.5s-37 -52.5 -37 -86.5v-878c0 -33.333 12.667 -62.166 38 -86.499
s55.333 -36.5 90 -36.5h846c35.333 0 65.5 12.167 90.5 36.5s37.5 53.166 37.5 86.499v878z" />
    <glyph glyph-name="less.uc.whitesquare" unicode="&#x3c;&#x25a1;" 
d="M631 630v102l486 244v-173l-276 -116v-7l276 -118v-169zM436 1397h928c68.667 0 127.167 -23.833 175.5 -71.5s72.5 -105.167 72.5 -172.5v-938c0 -67.333 -24.167 -124.833 -72.5 -172.5s-106.833 -71.5 -175.5 -71.5h-928c-68.667 0 -127.167 23.833 -175.5 71.5
s-72.5 105.167 -72.5 172.5v938c0 67.333 24.167 124.833 72.5 172.5s106.833 71.5 175.5 71.5zM1451 1123c0 34.667 -12.333 63.667 -37 87s-55 35 -91 35h-846c-36 0 -66.333 -11.833 -91 -35.5s-37 -52.5 -37 -86.5v-878c0 -33.333 12.667 -62.166 38 -86.499
s55.333 -36.5 90 -36.5h846c35.333 0 65.5 12.167 90.5 36.5s37.5 53.166 37.5 86.499v878z" />
    <glyph glyph-name="numbersign.whitesquare" unicode="&#x23;&#x25a1;" 
d="M1177 745h-96l-20 -94h95l-24 -120h-95l-35 -163h-125l34 163h-92l-35 -163h-125l34 163h-92l23 120h93l21 94h-93l23 121h92l32 155h125l-32 -155h93l31 155h126l-32 -155h96zM854 755l-25 -122h115l25 122h-115zM436 1397h928c68.667 0 127.167 -23.833 175.5 -71.5
s72.5 -105.167 72.5 -172.5v-938c0 -67.333 -24.167 -124.833 -72.5 -172.5s-106.833 -71.5 -175.5 -71.5h-928c-68.667 0 -127.167 23.833 -175.5 71.5s-72.5 105.167 -72.5 172.5v938c0 67.333 24.167 124.833 72.5 172.5s106.833 71.5 175.5 71.5zM1451 1123
c0 34.667 -12.333 63.667 -37 87s-55 35 -91 35h-846c-36 0 -66.333 -11.833 -91 -35.5s-37 -52.5 -37 -86.5v-878c0 -33.333 12.667 -62.166 38 -86.499s55.333 -36.5 90 -36.5h846c35.333 0 65.5 12.167 90.5 36.5s37.5 53.166 37.5 86.499v878z" />
    <glyph glyph-name="uni25BC.whitesquare" unicode="&#x25bc;&#x25a1;" 
d="M1208 903l-307 -534l-308 534h615zM436 1397h928c68.667 0 127.167 -23.833 175.5 -71.5s72.5 -105.167 72.5 -172.5v-938c0 -67.333 -24.167 -124.833 -72.5 -172.5s-106.833 -71.5 -175.5 -71.5h-928c-68.667 0 -127.167 23.833 -175.5 71.5s-72.5 105.167 -72.5 172.5
v938c0 67.333 24.167 124.833 72.5 172.5s106.833 71.5 175.5 71.5zM1451 1123c0 34.667 -12.333 63.667 -37 87s-55 35 -91 35h-846c-36 0 -66.333 -11.833 -91 -35.5s-37 -52.5 -37 -86.5v-878c0 -33.333 12.667 -62.166 38 -86.499s55.333 -36.5 90 -36.5h846
c35.333 0 65.5 12.167 90.5 36.5s37.5 53.166 37.5 86.499v878z" />
    <glyph glyph-name="uni25B2.whitesquare" unicode="&#x25b2;&#x25a1;" 
d="M1208 465h-615l307 535zM436 1397h928c68.667 0 127.167 -23.833 175.5 -71.5s72.5 -105.167 72.5 -172.5v-938c0 -67.333 -24.167 -124.833 -72.5 -172.5s-106.833 -71.5 -175.5 -71.5h-928c-68.667 0 -127.167 23.833 -175.5 71.5s-72.5 105.167 -72.5 172.5v938
c0 67.333 24.167 124.833 72.5 172.5s106.833 71.5 175.5 71.5zM1451 1123c0 34.667 -12.333 63.667 -37 87s-55 35 -91 35h-846c-36 0 -66.333 -11.833 -91 -35.5s-37 -52.5 -37 -86.5v-878c0 -33.333 12.667 -62.166 38 -86.499s55.333 -36.5 90 -36.5h846
c35.333 0 65.5 12.167 90.5 36.5s37.5 53.166 37.5 86.499v878z" />
    <glyph glyph-name="uni25C0.whitesquare" unicode="&#x25c0;&#x25a1;" 
d="M1102 378l-532 309l532 307v-616zM436 1397h928c68.667 0 127.167 -23.833 175.5 -71.5s72.5 -105.167 72.5 -172.5v-938c0 -67.333 -24.167 -124.833 -72.5 -172.5s-106.833 -71.5 -175.5 -71.5h-928c-68.667 0 -127.167 23.833 -175.5 71.5s-72.5 105.167 -72.5 172.5
v938c0 67.333 24.167 124.833 72.5 172.5s106.833 71.5 175.5 71.5zM1451 1123c0 34.667 -12.333 63.667 -37 87s-55 35 -91 35h-846c-36 0 -66.333 -11.833 -91 -35.5s-37 -52.5 -37 -86.5v-878c0 -33.333 12.667 -62.166 38 -86.499s55.333 -36.5 90 -36.5h846
c35.333 0 65.5 12.167 90.5 36.5s37.5 53.166 37.5 86.499v878z" />
    <glyph glyph-name="uni25B6.whitesquare" unicode="&#x25b6;&#x25a1;" 
d="M698 378v616l532 -307zM436 1397h928c68.667 0 127.167 -23.833 175.5 -71.5s72.5 -105.167 72.5 -172.5v-938c0 -67.333 -24.167 -124.833 -72.5 -172.5s-106.833 -71.5 -175.5 -71.5h-928c-68.667 0 -127.167 23.833 -175.5 71.5s-72.5 105.167 -72.5 172.5v938
c0 67.333 24.167 124.833 72.5 172.5s106.833 71.5 175.5 71.5zM1451 1123c0 34.667 -12.333 63.667 -37 87s-55 35 -91 35h-846c-36 0 -66.333 -11.833 -91 -35.5s-37 -52.5 -37 -86.5v-878c0 -33.333 12.667 -62.166 38 -86.499s55.333 -36.5 90 -36.5h846
c35.333 0 65.5 12.167 90.5 36.5s37.5 53.166 37.5 86.499v878z" />
    <glyph glyph-name="question.whitesquare" unicode="&#x3f;&#x25a1;" 
d="M783 434c0 26 9.5 46.499 28.5 61.499s44.167 22.5 75.5 22.5c32.667 0 58.334 -7.66699 77.001 -23s28 -35.666 28 -60.999s-9.33301 -45.5 -28 -60.5s-44.334 -22.5 -77.001 -22.5c-31.333 0 -56.5 7.5 -75.5 22.5s-28.5 35.167 -28.5 60.5zM663 820.999
c-0.666992 68 21.5 119.001 66.5 153.001s104.5 51 178.5 51c67.333 0 122.666 -16.667 165.999 -50s65 -78.666 65 -135.999c0 -26.667 -5.16699 -50.667 -15.5 -72s-21.5 -37.333 -33.5 -48s-27.667 -22.334 -47 -35.001c-3.33301 -2 -9.5 -6.16699 -18.5 -12.5
s-14.833 -10.333 -17.5 -12s-7.33398 -5 -14.001 -10s-11 -8.83301 -13 -11.5s-5.16699 -6.5 -9.5 -11.5s-7 -9.5 -8 -13.5l-3.5 -14.5c-1.33301 -5.66699 -2 -11.834 -2 -18.501v-14h-152c-1.33301 3.33301 -2 15 -2 35c-1.33301 55.333 26.334 102.333 83.001 141
c2 1.33301 6.5 4.5 13.5 9.5s11.5 8.16699 13.5 9.5s5.83301 4.16602 11.5 8.49902s9.33398 7.33301 11.001 9l8.5 8.5c4 4 6.66699 7.33301 8 10s3 5.83398 5 9.50098s3.33301 7.5 4 11.5s1 8 1 12c0 19.333 -6.5 34 -19.5 44s-29.5 15 -49.5 15
c-22 0 -39.167 -6.33301 -51.5 -19s-18.833 -29 -19.5 -49h-159zM436 1397h928c68.667 0 127.167 -23.833 175.5 -71.5s72.5 -105.167 72.5 -172.5v-938c0 -67.333 -24.167 -124.833 -72.5 -172.5s-106.833 -71.5 -175.5 -71.5h-928c-68.667 0 -127.167 23.833 -175.5 71.5
s-72.5 105.167 -72.5 172.5v938c0 67.333 24.167 124.833 72.5 172.5s106.833 71.5 175.5 71.5zM1451 1123c0 34.667 -12.333 63.667 -37 87s-55 35 -91 35h-846c-36 0 -66.333 -11.833 -91 -35.5s-37 -52.5 -37 -86.5v-878c0 -33.333 12.667 -62.166 38 -86.499
s55.333 -36.5 90 -36.5h846c35.333 0 65.5 12.167 90.5 36.5s37.5 53.166 37.5 86.499v878z" />
    <glyph glyph-name="exclam.whitesquare" unicode="&#x21;&#x25a1;" 
d="M798 434c0 26 9.5 46.5 28.5 61.5s44.5 22.5 76.5 22.5s57.333 -7.5 76 -22.5s28 -35.5 28 -61.5c0 -25.333 -9.16699 -45.5 -27.5 -60.5s-43.833 -22.5 -76.5 -22.5c-32 0 -57.5 7.5 -76.5 22.5s-28.5 35.167 -28.5 60.5zM808 1014h191l-20 -430h-151zM436 1397h928
c68.667 0 127.167 -23.833 175.5 -71.5s72.5 -105.167 72.5 -172.5v-938c0 -67.333 -24.167 -124.833 -72.5 -172.5s-106.833 -71.5 -175.5 -71.5h-928c-68.667 0 -127.167 23.833 -175.5 71.5s-72.5 105.167 -72.5 172.5v938c0 67.333 24.167 124.833 72.5 172.5
s106.833 71.5 175.5 71.5zM1451 1123c0 34.667 -12.333 63.667 -37 87s-55 35 -91 35h-846c-36 0 -66.333 -11.833 -91 -35.5s-37 -52.5 -37 -86.5v-878c0 -33.333 12.667 -62.166 38 -86.499s55.333 -36.5 90 -36.5h846c35.333 0 65.5 12.167 90.5 36.5
s37.5 53.166 37.5 86.499v878z" />
    <glyph glyph-name="uni2717.whitesquare" unicode="&#x2717;&#x25a1;" 
d="M904 792l217 214l108 -109l-218 -215l218 -214l-108 -112l-217 215l-218 -215l-108 110l218 216l-218 215l107 110zM436 1397h928c68.667 0 127.167 -23.833 175.5 -71.5s72.5 -105.167 72.5 -172.5v-938c0 -67.333 -24.167 -124.833 -72.5 -172.5
s-106.833 -71.5 -175.5 -71.5h-928c-68.667 0 -127.167 23.833 -175.5 71.5s-72.5 105.167 -72.5 172.5v938c0 67.333 24.167 124.833 72.5 172.5s106.833 71.5 175.5 71.5zM1451 1123c0 34.667 -12.333 63.667 -37 87s-55 35 -91 35h-846c-36 0 -66.333 -11.833 -91 -35.5
s-37 -52.5 -37 -86.5v-878c0 -33.333 12.667 -62.166 38 -86.499s55.333 -36.5 90 -36.5h846c35.333 0 65.5 12.167 90.5 36.5s37.5 53.166 37.5 86.499v878z" />
    <glyph glyph-name="uni2713.whitesquare" unicode="&#x2713;&#x25a1;" 
d="M1302 869l-512 -503l-289 287l112 114l179 -178l401 397zM436 1397h928c68.667 0 127.167 -23.833 175.5 -71.5s72.5 -105.167 72.5 -172.5v-938c0 -67.333 -24.167 -124.833 -72.5 -172.5s-106.833 -71.5 -175.5 -71.5h-928c-68.667 0 -127.167 23.833 -175.5 71.5
s-72.5 105.167 -72.5 172.5v938c0 67.333 24.167 124.833 72.5 172.5s106.833 71.5 175.5 71.5zM1451 1123c0 34.667 -12.333 63.667 -37 87s-55 35 -91 35h-846c-36 0 -66.333 -11.833 -91 -35.5s-37 -52.5 -37 -86.5v-878c0 -33.333 12.667 -62.166 38 -86.499
s55.333 -36.5 90 -36.5h846c35.333 0 65.5 12.167 90.5 36.5s37.5 53.166 37.5 86.499v878z" />
    <glyph glyph-name=".notdef" horiz-adv-x="2048" 
d="M100 -494v217h1848v-217h-1848zM100 -49v217h1848v-217h-1848zM100 397v217h1848v-217h-1848zM100 842v217h1848v-217h-1848zM100 1288v217h1848v-217h-1848zM100 1733v217h1848v-217h-1848z" />
    <glyph glyph-name="space" unicode=" " horiz-adv-x="455" 
 />
    <glyph glyph-name="exclam" unicode="!" horiz-adv-x="609" 
d="M129 136c0 46.667 15.999 84.5 47.999 113.5s74 43.5 126 43.5c54 0 97.167 -14.333 129.5 -43s48.5 -66.667 48.5 -114c0 -46 -16.333 -83.5 -49 -112.5s-75.667 -43.5 -129 -43.5c-51.333 0 -93.166 14.5 -125.499 43.5s-48.5 66.5 -48.5 112.5zM159.999 1365h290
l-31 -903h-229z" />
    <glyph glyph-name="quotedbl" unicode="&#x22;" horiz-adv-x="1014" 
d="M123 1365h288l-35 -560h-218zM603 1365h288l-35 -560h-218z" />
    <glyph glyph-name="numbersign" unicode="#" horiz-adv-x="1282" 
d="M1207 817h-219l-53 -254h215l-37 -198h-212l-73 -365h-200l73 365h-259l-75 -365h-199l73 365h-202l37 198h208l53 254h-205l36 197h203l70 351h201l-72 -351h261l70 351h200l-70 -351h212zM524 837l-61 -295h286l60 295h-285z" />
    <glyph glyph-name="dollar" unicode="$" horiz-adv-x="1221" 
d="M356 1013c0 -77.333 49.333 -133.333 148 -168l40 -12v358c-56 -6.66699 -101.333 -25.5 -136 -56.5s-52 -71.5 -52 -121.5zM898 382c0 46 -14.333 84 -43 114s-75.667 54.333 -141 73c-10.667 2.66699 -19 4.66699 -25 6v-385c62.667 5.33301 113.167 25 151.5 59
s57.5 78.333 57.5 133zM690 -129l-150.002 0.00976562v126c-75.333 5.33301 -142 20.166 -200 44.499s-104.167 55.166 -138.5 92.499s-60.166 77.666 -77.499 120.999s-26.333 89 -27 137h225c3.33301 -52.667 24 -97.167 62 -133.5s91.333 -58.833 160 -67.5v413l-82 19
c-46 10.667 -88.333 25.667 -127 45s-74 43.666 -106 72.999s-57.167 65.666 -75.5 108.999s-27.5 91.666 -27.5 144.999c0 113.333 38.667 203.5 116 270.5s177 106.167 299 117.5v130h150v-130c120.667 -12.667 218.667 -53.834 294 -123.501
s114.333 -156.834 117 -261.501h-221c-1.33301 47.333 -19.166 89 -53.499 125s-80.5 58.333 -138.5 67v-388l83 -19c54 -12.667 101.333 -28.334 142 -47.001s77.5 -42.834 110.5 -72.501s58.167 -66.167 75.5 -109.5s26 -93.333 26 -150
c0 -117.333 -39.5 -211.333 -118.5 -282s-184.833 -112 -317.5 -124v-127z" />
    <glyph glyph-name="percent" unicode="%" horiz-adv-x="1593" 
d="M378 880c34.667 0 62.167 15.335 82.5 46.002s30.5 72.334 30.5 125.001c0 53.333 -10 95.166 -30 125.499s-47.667 45.5 -83 45.5c-34.667 0 -62.167 -15.333 -82.5 -46s-30.5 -72.334 -30.5 -125.001s10.167 -94.334 30.5 -125.001s47.833 -46 82.5 -46zM378 707.002
c-93.333 0 -169.166 31.667 -227.499 95s-87.5 146.333 -87.5 249c0 102 29.167 184.667 87.5 248s134.166 95 227.499 95c94 0 170 -31.5 228 -94.5s87 -145.833 87 -248.5s-29 -185.667 -87 -249s-134 -95 -228 -95zM1215 -27.998c-93.333 0 -169 31.667 -227 95
s-87 146.333 -87 249c0 102 29 184.667 87 248s133.667 95 227 95c94 0 170 -31.5 228 -94.5s87 -145.833 87 -248.5s-29 -185.667 -87 -249s-134 -95 -228 -95zM1215 145.002c34.667 0 62.167 15.335 82.5 46.002s30.5 72.334 30.5 125.001
c0 53.333 -10 95.166 -30 125.499s-47.667 45.5 -83 45.5c-34.667 0 -62.167 -15.333 -82.5 -46s-30.5 -72.334 -30.5 -125.001s10.167 -94.334 30.5 -125.001s47.833 -46 82.5 -46zM236 0.00390625l481 707l399 658h252l-496 -721l-383 -644h-253z" />
    <glyph glyph-name="ampersand" unicode="&#x26;" horiz-adv-x="1403" 
d="M1097 0l-109.001 113c-54 -46 -117.667 -80.833 -191 -104.5s-150.333 -35.5 -231 -35.5c-141.333 0 -255.333 34.667 -342 104s-130 162 -130 278c0 82 22.167 151.833 66.5 209.5s106.833 109.167 187.5 154.5c16.667 10 36.667 20.667 60 32
c-56 58 -98 110.5 -126 157.5s-42 98.167 -42 153.5c0 91.333 36 166.666 108 225.999s162 89 270 89c66.667 0 127.834 -11.667 183.501 -35s101.167 -59.166 136.5 -107.499s53 -104.833 53 -169.5c0 -41.333 -7.33301 -80 -22 -116s-36 -68.333 -64 -97
s-57 -53.667 -87 -75s-65 -42.666 -105 -63.999l272 -287c33.333 59.333 50 150.666 50 273.999v69h217v-83c0 -179.333 -38 -320.333 -114 -423l250 -263h-291zM490.999 591c-103.333 -56 -155.001 -127.667 -155.001 -215c0 -65.333 24.667 -116.5 74 -153.5
s110 -55.5 182 -55.5c48 0 95.833 8.33301 143.5 25s86.834 41 117.501 73l-324 345c-17.333 -8 -30 -14.333 -38 -19zM591.998 839c60 30 105.332 61 135.999 93s46 70.667 46 116s-14.667 81.666 -44 108.999s-66.333 41 -111 41
c-45.333 0 -82.666 -14.167 -111.999 -42.5s-44 -64.166 -44 -107.499c0 -32 9.5 -63.167 28.5 -93.5s52.5 -68.833 100.5 -115.5z" />
    <glyph glyph-name="quotesingle" unicode="'" horiz-adv-x="533" 
d="M123 1365h288l-35 -560h-218z" />
    <glyph glyph-name="parenleft" unicode="(" horiz-adv-x="766" 
d="M468 1437h241.999c-69.333 -96.667 -127.666 -218.167 -174.999 -364.5s-71 -310.166 -71 -491.499c0 -346 81.667 -644 245 -894h-244c-79.333 96 -144 220.5 -194 373.5s-75 325.833 -75 518.5c0 190 24.167 353.667 72.5 491s114.833 259.666 199.5 366.999z" />
    <glyph glyph-name="parenright" unicode=")" horiz-adv-x="766" 
d="M56 1437h241.999c84.667 -107.333 151.167 -229.666 199.5 -366.999s72.5 -301 72.5 -491c0 -192.667 -25 -365.5 -75 -518.5s-114.667 -277.5 -194 -373.5h-244c163.333 250 245 548 245 894c0 181.333 -23.667 345.166 -71 491.499s-105.666 267.833 -174.999 364.5z
" />
    <glyph glyph-name="asterisk" unicode="*" horiz-adv-x="984" 
d="M582 579h-185l36 310l-251 -188l-93 166l290 122l-290 121l93 166l252 -191l-37 313h185l-37 -313l253 191l93 -166l-290 -121l290 -122l-93 -166l-252 188z" />
    <glyph glyph-name="plus" unicode="+" horiz-adv-x="1221" 
d="M725 436v-421h-226v421h-394v232h394v406h226v-406h395v-232h-395z" />
    <glyph glyph-name="comma" unicode="," horiz-adv-x="518" 
d="M236 -346h-205l113 615h268z" />
    <glyph glyph-name="hyphen" unicode="&#x2011;" horiz-adv-x="840" 
d="M735 438h-630v244h630v-244z" />
    <glyph glyph-name="hyphen" unicode="-" horiz-adv-x="840" 
d="M735 438h-630v244h630v-244z" />
    <glyph glyph-name="period" unicode="." horiz-adv-x="622" 
d="M136 152c0 52 16.667 94 50 126s74.666 48 123.999 48c50.667 0 92.834 -16 126.501 -48s50.5 -74 50.5 -126c0 -51.333 -16.833 -92.833 -50.5 -124.5s-75.834 -47.5 -126.501 -47.5c-49.333 0 -90.666 15.833 -123.999 47.5s-50 73.167 -50 124.5z" />
    <glyph glyph-name="slash" unicode="/" horiz-adv-x="766" 
d="M257 -313h-240l492 1750h240z" />
    <glyph glyph-name="zero" unicode="0" horiz-adv-x="1286" 
d="M394 712l0.000976562 -59.002c0 -140.667 22.167 -250.834 66.5 -330.501s105.166 -119.5 182.499 -119.5s138.166 39.833 182.499 119.5s66.5 189.834 66.5 330.501v59c0 140.667 -22.167 250.834 -66.5 330.501s-105.166 119.5 -182.499 119.5
c-78 0 -139 -39.667 -183 -119s-66 -189.666 -66 -330.999zM124.001 651.998l0.000976562 61c0 206.667 46.5 371.334 139.5 494.001s220.5 184 382.5 184c161.333 0 287.666 -60.833 378.999 -182.5s137 -286.834 137 -495.501v-61c0 -206 -46.667 -370.5 -140 -493.5
s-220.333 -184.5 -381 -184.5s-287 61 -379 183s-138 287 -138 495z" />
    <glyph glyph-name="one" unicode="1" horiz-adv-x="974" 
d="M727 0h-268v1097h-13l-310 -219v256l323 231h268v-1365z" />
    <glyph glyph-name="two" unicode="2" horiz-adv-x="1195" 
d="M386 954l-255.997 -0.000976562v14c0 53.333 9.66699 104.833 29 154.5s47.666 94.667 84.999 135s86.5 72.666 147.5 96.999s129.5 36.5 205.5 36.5c139.333 0 251.833 -36.167 337.5 -108.5s128.5 -164.166 128.5 -275.499c0 -55.333 -12 -109.5 -36 -162.5
s-47.5 -93.667 -70.5 -122s-59.833 -69.5 -110.5 -123.5c-4.66699 -5.33301 -8.83398 -9.83301 -12.501 -13.5s-7.16699 -7.5 -10.5 -11.5l-310 -333v-13h573v-228h-943v174l499 533c24 25.333 42.667 45.833 56 61.5s28.833 36 46.5 61s30.5 49.833 38.5 74.5
s12 50.334 12 77.001c0 54 -19.333 98.5 -58 133.5s-87.334 52.5 -146.001 52.5c-62 0 -111.667 -19.167 -149 -57.5s-56 -84.833 -56 -139.5v-16z" />
    <glyph glyph-name="three" unicode="3" horiz-adv-x="1221" 
d="M445 595l-0.00585938 214.998h144c62 0 112.833 17.5 152.5 52.5s59.167 79.167 58.5 132.5c0 53.333 -19.833 96.666 -59.5 129.999s-90.167 50 -151.5 50c-60.667 0 -110.667 -16.667 -150 -50s-60.333 -73 -63 -119h-251
c3.33301 112.667 46.666 204.834 129.999 276.501s197.333 107.834 342 108.501c140.667 0.666992 253.334 -32.333 338.001 -99s127.667 -152.667 129 -258c0.666992 -46 -7.16602 -88.5 -23.499 -127.5s-37.666 -70.833 -63.999 -95.5s-53.666 -44.5 -81.999 -59.5
s-55.833 -24.5 -82.5 -28.5v-15c32.667 -3.33301 65.334 -12.166 98.001 -26.499s64 -34 94 -59s54.333 -58.333 73 -100s28.334 -88.167 29.001 -139.5c0.666992 -84.667 -22.666 -158.5 -69.999 -221.5s-109.833 -110.167 -187.5 -141.5s-164.167 -47 -259.5 -47
c-149.333 0 -267.333 37.333 -354 112s-132 167 -136 277h248c3.33301 -48.667 27.833 -89 73.5 -121s102.167 -48 169.5 -48c74.667 -0.666992 134.834 18 180.501 56s67.834 87 66.501 147c-0.666992 58.667 -22.834 106.5 -66.501 143.5s-101.834 55.5 -174.501 55.5
h-151z" />
    <glyph glyph-name="four" unicode="4" horiz-adv-x="1260" 
d="M621 1365h389v-890h167v-226h-167v-249h-253v249h-661v229c37.333 70 80.833 147.667 130.5 233l119 202l146.5 241zM341 475h416v680h-14c-174.667 -274 -308.667 -498.333 -402 -673v-7z" />
    <glyph glyph-name="five" unicode="5" horiz-adv-x="1245" 
d="M140 354l248.001 0.00195312c9.33301 -50 36.833 -89 82.5 -117s98.167 -42 157.5 -42c68 0 126.333 23.167 175 69.5s73 108.166 73 185.499c0 71.333 -23.833 129.333 -71.5 174s-106.5 67 -176.5 67c-54.667 0 -101.167 -12.5 -139.5 -37.5s-66.5 -53.5 -84.5 -85.5
h-236l57 797h836v-226h-620l-30 -352h14c17.333 28 50 54.333 98 79s106.667 37 176 37c59.333 0 115.333 -9.83301 168 -29.5s99 -47.834 139 -84.501s71.833 -83.5 95.5 -140.5s35.5 -120.167 35.5 -189.5c0 -146.667 -47.167 -264.167 -141.5 -352.5
s-218.5 -132.5 -372.5 -132.5c-140 0 -254.333 36 -343 108s-135.334 162.667 -140.001 272z" />
    <glyph glyph-name="six" unicode="6" horiz-adv-x="1276" 
d="M1130 1045l-257.002 0.00195312c-10.667 33.333 -33.667 62.166 -69 86.499s-80.666 36.5 -135.999 36.5c-88.667 0 -159 -43.333 -211 -130s-76.333 -198.667 -73 -336h16c23.333 52.667 62.666 97.167 117.999 133.5s125.666 54.5 210.999 54.5
c54.667 0 107.334 -9.5 158.001 -28.5s96.334 -46 137.001 -81s73.167 -80.833 97.5 -137.5s36.5 -119.667 36.5 -189c0 -99.333 -21.833 -185.666 -65.5 -258.999s-103.167 -128.5 -178.5 -165.5s-161.333 -55.5 -258 -55.5c-195.333 0 -338.666 75 -429.999 225
c-68 111.333 -102 261.333 -102 450c0 243.333 48.5 427.5 145.5 552.5s231.167 187.5 402.5 187.5c70.667 0 135.167 -10.333 193.5 -31s105.833 -47.834 142.5 -81.501s65.5 -70.334 86.5 -110.001s32.833 -80.167 35.5 -121.5zM414.998 442.002
c0 -75.333 22.832 -135.334 68.499 -180.001s103.167 -67 172.5 -67c71.333 0 129.333 21.333 174 64s67 103.334 67 182.001c0 75.333 -23.167 134.333 -69.5 177s-103.166 64 -170.499 64c-71.333 0 -129.5 -22.5 -174.5 -67.5s-67.5 -102.5 -67.5 -172.5z" />
    <glyph glyph-name="seven" unicode="7" horiz-adv-x="1144" 
d="M107 1365h940v-233l-554 -1132h-284l567 1125v12h-669v228z" />
    <glyph glyph-name="eight" unicode="8" horiz-adv-x="1287" 
d="M644 175c74.667 0 136.667 20.5 186 61.5s74 93.833 74 158.5c0 65.333 -24.667 118.5 -74 159.5s-111.333 61.5 -186 61.5s-136.667 -20.5 -186 -61.5s-74 -94.167 -74 -159.5c0 -64.667 24.667 -117.5 74 -158.5s111.333 -61.5 186 -61.5zM644 805
c62.667 0 114.167 18 154.5 54s60.5 82.333 60.5 139c0 56 -20.167 101.667 -60.5 137s-91.833 53 -154.5 53s-114.334 -17.667 -155.001 -53s-61 -81 -61 -137c0 -56.667 20.333 -103 61 -139s92.334 -54 155.001 -54zM641 -26c-158.667 0 -286 36.9951 -382 110.995
s-144 170.667 -144 290c0 42 6 80.833 18 116.5s27.5 65.834 46.5 90.501s41.333 46.334 67 65.001s51.167 33.334 76.5 44.001s51.333 18.667 78 24v12c-66 20.667 -121.167 56.167 -165.5 106.5s-66.5 115.833 -66.5 196.5c0 105.333 43.833 191.833 131.5 259.5
s202.167 101.5 343.5 101.5s255.666 -33.833 342.999 -101.5s131 -154.167 131 -259.5c0 -81.333 -22.333 -147.166 -67 -197.499s-99.667 -85.5 -165 -105.5v-12c26.667 -5.33301 52.667 -13.333 78 -24s50.833 -25.5 76.5 -44.5s48 -40.667 67 -65s34.5 -54.333 46.5 -90
s18 -74.167 18 -115.5c0 -119.333 -48.667 -216.166 -146 -290.499s-225.666 -111.5 -384.999 -111.5z" />
    <glyph glyph-name="nine" unicode="9" horiz-adv-x="1275" 
d="M151 307l257 0.00488281c8 -30 30 -56.167 66 -78.5s80 -33.5 132 -33.5c68 0 124.667 21.167 170 63.5s77.333 97.5 96 165.5s26.667 146.333 24 235h-15c-20.667 -53.333 -58.834 -98 -114.501 -134s-125.167 -54 -208.5 -54c-79.333 0 -151.833 16.667 -217.5 50
s-119.167 84.666 -160.5 153.999s-62 151 -62 245c0 144.667 47.333 259.5 142 344.5s215.667 127.5 363 127.5c58 0 112.167 -7 162.5 -21s98.333 -37.833 144 -71.5s84.5 -76.334 116.5 -128.001s57.5 -117.5 76.5 -197.5s28.5 -170.667 28.5 -272
c0 -238.667 -46.167 -419.5 -138.5 -542.5s-229.166 -184.5 -410.499 -184.5c-70 0 -133.5 9.66699 -190.5 29s-103.5 45.166 -139.5 77.499s-64.333 67.666 -85 105.999s-32.667 78.166 -36 119.499zM857 923.005c0 77.333 -22.5 138.667 -67.5 184s-102.833 68 -173.5 68
c-68 0 -124.5 -22.667 -169.5 -68s-67.5 -106 -67.5 -182c0 -76.667 22.667 -136.5 68 -179.5s102.333 -64.5 171 -64.5c68 0 124.833 21.333 170.5 64s68.5 102 68.5 178z" />
    <glyph glyph-name="colon" unicode=":" horiz-adv-x="644" 
d="M147 808c0 52.667 16.667 94.998 50 126.998s74.666 48 123.999 48c50.667 0 92.834 -16.167 126.501 -48.5s50.5 -74.5 50.5 -126.5c0 -51.333 -16.833 -92.666 -50.5 -123.999s-75.834 -47 -126.501 -47c-49.333 0 -90.666 15.833 -123.999 47.5
s-50 72.834 -50 123.501zM147 151.998c0 52 16.667 94 50 126s74.666 48 123.999 48c50.667 0 92.834 -16 126.501 -48s50.5 -74 50.5 -126c0 -51.333 -16.833 -92.833 -50.5 -124.5s-75.834 -47.5 -126.501 -47.5c-49.333 0 -90.666 15.833 -123.999 47.5
s-50 73.167 -50 124.5z" />
    <glyph glyph-name="semicolon" unicode=";" horiz-adv-x="642" 
d="M150 811c0 52 16.665 94.167 49.998 126.5s74.666 48.5 123.999 48.5c50.667 0 92.834 -16.167 126.501 -48.5s50.5 -74.5 50.5 -126.5c0 -51.333 -16.667 -92.666 -50 -123.999s-75.666 -47 -126.999 -47c-49.333 0 -90.666 15.667 -123.999 47s-50 72.666 -50 123.999z
M280.998 -410h-215l117 639h282z" />
    <glyph glyph-name="less" unicode="&#x3c;" horiz-adv-x="1221" 
d="M148 439v177l920 513v-274l-617 -315v-13l617 -307v-269z" />
    <glyph glyph-name="equal" unicode="=" horiz-adv-x="1221" 
d="M1075 229h-929v215h929v-215zM1075 657h-929v217h929v-217z" />
    <glyph glyph-name="greater" unicode="&#x3e;" horiz-adv-x="1221" 
d="M1072 616v-177l-920 -488v269l618 307v13l-618 315v274z" />
    <glyph glyph-name="question" unicode="?" horiz-adv-x="1028" 
d="M314 136c0 46.667 15.999 84.5 47.999 113.5s74 43.5 126 43.5c54 0 97.167 -14.333 129.5 -43s48.5 -66.667 48.5 -114c0 -46 -16.333 -83.5 -49 -112.5s-75.667 -43.5 -129 -43.5c-51.333 0 -93.166 14.5 -125.499 43.5s-48.5 66.5 -48.5 112.5zM69.999 984
c-2 57.333 5.16992 109.326 21.5029 155.993s39 85.334 68 116.001s63.167 56.5 102.5 77.5s80.5 36 123.5 45s87.833 13.5 134.5 13.5c80 0 152.5 -13 217.5 -39s118.167 -67.167 159.5 -123.5s62 -123.833 62 -202.5c0 -41.333 -5.33301 -78.833 -16 -112.5
s-26.834 -63.667 -48.501 -90s-41.834 -47.5 -60.501 -63.5s-43 -34.667 -73 -56c-35.333 -25.333 -60.666 -44 -75.999 -56s-31 -27.167 -47 -45.5s-26.333 -36.666 -31 -54.999s-7 -41.166 -7 -68.499v-52h-239l-1 58c-4.66699 70.667 8.5 131.834 39.5 183.501
s77.167 98.834 138.5 141.501c29.333 20 51.166 35.667 65.499 47s29.5 25.333 45.5 42s27.167 33.834 33.5 51.501s9.5 37.834 9.5 60.501c0 54 -18 94.833 -54 122.5s-80.333 41.5 -133 41.5c-60.667 0 -107.834 -18 -141.501 -54s-50.5 -82 -50.5 -138h-243z" />
    <glyph glyph-name="at" unicode="@" horiz-adv-x="1761" 
d="M1300 133c-63.333 0 -117.501 13.334 -162.501 40.001s-72.833 61.667 -83.5 105h-10c-11.333 -42.667 -38.166 -77.5 -80.499 -104.5s-91.5 -40.5 -147.5 -40.5c-86 0 -153.667 29.5 -203 88.5s-74 139.167 -74 240.5v111c0 97.333 25 175.333 75 234s118.667 88 206 88
c58 0 104.667 -13.833 140 -41.5s58.666 -60.167 69.999 -97.5h7v124h183v-497c0 -32.667 9.66699 -58 29 -76s44.666 -27 75.999 -27c44.667 0 82.834 27.667 114.501 83s47.5 136 47.5 242v30c0 73.333 -13.333 142.5 -40 207.5s-64.167 122 -112.5 171
s-109.166 87.833 -182.499 116.5s-154 43 -242 43h-8c-180.667 0 -327.667 -57.333 -441 -172s-170 -267.667 -170 -459v-39c0 -82.667 10.667 -158.334 32 -227.001s50.5 -126.5 87.5 -173.5s81 -86.833 132 -119.5s105.5 -56.5 163.5 -71.5s119.333 -22.5 184 -22.5h9
c126.667 0 223.667 14.667 291 44v-155c-62 -28.667 -161.667 -43 -299 -43h-10c-108 0 -208.167 16.667 -300.5 50s-173 81.333 -242 144s-123 142.667 -162 240s-58.5 206.666 -58.5 327.999v52c0 154.667 33.5 291.334 100.5 410.001s159.667 209.834 278 273.501
s253.5 95.5 405.5 95.5h8c116.667 0 222.834 -18.833 318.501 -56.5s174.167 -88.334 235.5 -152.001s108.666 -136.5 141.999 -218.5s50 -168.333 50 -259v-50c0 -136 -32.333 -246.5 -97 -331.5s-151 -127.5 -259 -127.5zM733.999 491.001
c0 -129.333 48.333 -194 145 -194c94 0 141 60.667 141 182v83c0 58 -13.5 101.667 -40.5 131s-61.167 44 -102.5 44c-43.333 0 -78 -16 -104 -48s-39 -79.667 -39 -143v-55z" />
    <glyph glyph-name="A" unicode="A" horiz-adv-x="1312" 
d="M314 0h-273l458 1365h316l456 -1365h-287l-107 344h-456zM656 1098h-12l-167 -546h346z" />
    <glyph glyph-name="B" unicode="B" horiz-adv-x="1311" 
d="M171 0l0.000976562 1365h570c122.667 0 220.5 -30 293.5 -90s109.5 -142 109.5 -246c0 -80.667 -21.333 -146.5 -64 -197.5s-99.334 -84.5 -170.001 -100.5v-13c87.333 -8.66699 159.833 -41.5 217.5 -98.5s86.5 -134.833 86.5 -233.5
c0 -120 -43.833 -214.333 -131.5 -283s-202.167 -103 -343.5 -103h-568zM439.001 1157v-357h178c174 0 261 60.333 261 181c0 54.667 -17.667 97.667 -53 129s-84.333 47 -147 47h-239zM439.001 607v-399h201c104 0 179.833 16.333 227.5 49s71.5 81.667 71.5 147
c0 63.333 -21 113 -63 149s-102.333 54 -181 54h-256z" />
    <glyph glyph-name="C" unicode="C" horiz-adv-x="1332" 
d="M391 762l0.00195312 -164.999c0 -124 26.167 -219.5 78.5 -286.5s126.166 -100.5 221.499 -100.5c77.333 0 140.333 22.167 189 66.5s75.667 101.833 81 172.5h261v-29c-6.66699 -131.333 -59.667 -238.5 -159 -321.5s-224 -124.5 -374 -124.5c-182 0 -323 55 -423 165
s-150 262.667 -150 458v167c0 195.333 50.167 348.666 150.5 459.999s241.166 167 422.499 167c150.667 0 275.667 -42.5 375 -127.5s152 -195.5 158 -331.5v-28h-261c-5.33301 73.333 -32.666 133.333 -81.999 180s-112 70 -188 70
c-94.667 0 -168.334 -34.333 -221.001 -103s-79 -165 -79 -289z" />
    <glyph glyph-name="D" unicode="D" horiz-adv-x="1380" 
d="M171 1365h498c204 0 356.833 -58.5 458.5 -175.5s152.5 -284.833 152.5 -503.5c0 -220 -51.167 -389.333 -153.5 -508s-254.833 -178 -457.5 -178h-498v1365zM441 1137l-0.000976562 -908.001h192c126 0 219 37.167 279 111.5s90 187.833 90 340.5
s-30.167 266.834 -90.5 342.501s-153.166 113.5 -278.499 113.5h-192z" />
    <glyph glyph-name="E" unicode="E" horiz-adv-x="1179" 
d="M1050 229v-229h-879v1365h879v-229h-611v-339h575v-214h-575v-354h611z" />
    <glyph glyph-name="F" unicode="F" horiz-adv-x="1121" 
d="M441 0h-270v1365h870v-231h-600v-371h548v-225h-548v-538z" />
    <glyph glyph-name="G" unicode="G" horiz-adv-x="1357" 
d="M1235 952l-265 -0.000976562c-13.333 61.333 -44 110.666 -92 147.999s-108.667 56 -182 56c-97.333 0 -172.833 -33.833 -226.5 -101.5s-80.5 -162.5 -80.5 -284.5v-168c0 -121.333 26.333 -217.166 79 -287.499s131 -105.5 235 -105.5c90 0 159.167 22.667 207.5 68
s72.5 102.666 72.5 171.999v82h-281v207h538v-271c0 -67.333 -11.167 -130.333 -33.5 -189s-55.166 -110.834 -98.499 -156.501s-100 -81.667 -170 -108s-149.333 -39.5 -238 -39.5c-96 0 -181.333 15.333 -256 46s-135.834 73.834 -183.501 129.501
s-83.667 121.667 -108 198s-36.5 160.833 -36.5 253.5v172c0 186.667 51.667 336.334 155 449.001s246 169 428 169c78.667 0 151 -11.667 217 -35s121 -55.166 165 -95.499s79.167 -86.833 105.5 -139.5s42.5 -109 48.5 -169z" />
    <glyph glyph-name="H" unicode="H" horiz-adv-x="1456" 
d="M1285 0h-270v580h-574v-580h-270v1365h270v-552h574v552h270v-1365z" />
    <glyph glyph-name="I" unicode="I" horiz-adv-x="612" 
d="M441 0h-270v1365h270v-1365z" />
    <glyph glyph-name="J" unicode="J" horiz-adv-x="1116" 
d="M51 398h260.999c1.33301 -52.667 18.5 -95 51.5 -127s75.833 -48 128.5 -48c127.333 0 191 70.333 191 211v931h270v-925c0 -150.667 -40.167 -266 -120.5 -346s-192.833 -120 -337.5 -120c-94.667 0 -176.167 19.833 -244.5 59.5s-118.666 91 -150.999 154
s-48.5 133.167 -48.5 210.5z" />
    <glyph glyph-name="K" unicode="K" horiz-adv-x="1310" 
d="M1267 1365l-487 -588l508 -777h-325l-382 589l-140 -156v-433h-270v1365h270v-605h13l516 605h297z" />
    <glyph glyph-name="L" unicode="L" horiz-adv-x="1071" 
d="M1020 239v-239h-849v1365h270v-1126h579z" />
    <glyph glyph-name="M" unicode="M" horiz-adv-x="1683" 
d="M415 0h-241v1365h275l389 -866h9l389 866h273v-1365h-244v897h-13l-323 -720h-176l-325 720h-13v-897z" />
    <glyph glyph-name="N" unicode="N" horiz-adv-x="1433" 
d="M426 0h-255v1365h226l598 -889h11v889h256v-1365h-224l-601 895h-11v-895z" />
    <glyph glyph-name="O" unicode="O" horiz-adv-x="1401" 
d="M1011 770c0 125.333 -28.333 221.166 -85 287.499s-131.667 99.5 -225 99.5c-94 0 -169.167 -33.167 -225.5 -99.5s-84.5 -162.166 -84.5 -287.499v-175c0 -126 28.167 -222.167 84.5 -288.5s131.5 -99.5 225.5 -99.5c93.333 0 168.333 33.333 225 100s85 162.667 85 288
v175zM1285 596c0 -193.333 -51.834 -345.333 -155.501 -456s-246.5 -166 -428.5 -166s-325 55.333 -429 166s-156 262.667 -156 456v171c0 194 51.833 346.5 155.5 457.5s246.834 166.5 429.501 166.5c182 0 324.833 -55.5 428.5 -166.5s155.5 -263.5 155.5 -457.5v-171z
" />
    <glyph glyph-name="P" unicode="P" horiz-adv-x="1250" 
d="M717 1365c72 0 137.333 -11.8311 196 -35.498s107.167 -56.334 145.5 -98.001s67.833 -90.334 88.5 -146.001s31 -115.5 31 -179.5c0 -132.667 -41.167 -241.5 -123.5 -326.5s-195.5 -127.5 -339.5 -127.5h-274v-452h-270v1365h546zM903 906.002
c0 75.333 -20.833 133.5 -62.5 174.5s-100.167 61.5 -175.5 61.5h-225v-472h225c74.667 0 133 20.667 175 62s63 99.333 63 174z" />
    <glyph glyph-name="Q" unicode="Q" horiz-adv-x="1406" 
d="M1277 -134h-269.001l-100 141c-62 -22 -130.333 -33 -205 -33c-180 0 -322.333 56.333 -427 169s-157 264 -157 454v168c0 191.333 52.333 343.5 157 456.5s247 169.5 427 169.5c180.667 0 323.334 -56.5 428.001 -169.5s157 -265.167 157 -456.5v-168
c0 -208 -61.333 -367.667 -184 -479zM383.999 592c0 -126 27.833 -224.001 83.5 -294.001s132.167 -106 229.5 -108c31.333 0 60 5 86 15l-154 218h250l72 -91c47.333 64.667 71 151.334 71 260.001v176c0 122.667 -28.667 218.5 -86 287.5s-135 103.5 -233 103.5
s-175.667 -34.5 -233 -103.5s-86 -164.833 -86 -287.5v-176z" />
    <glyph glyph-name="R" unicode="R" horiz-adv-x="1312" 
d="M716 1365c150 0 267.333 -39.168 352 -117.501s127 -183.833 127 -316.5c0 -95.333 -24.167 -176.666 -72.5 -243.999s-106.833 -114 -175.5 -140l274 -547h-302l-239 505h-242v-505h-267v1365h545zM438 712.999h234.999c76.667 0 136.334 18 179.001 54s64 89 64 159
s-21.667 124.333 -65 163s-101.333 58 -174 58h-239v-434z" />
    <glyph glyph-name="S" unicode="S" horiz-adv-x="1259" 
d="M87 376l261.002 0.00292969c9.33301 -53.333 39 -96.833 89 -130.5s114 -50.5 192 -50.5c82 0 145.333 16.667 190 50s67 77.666 67 132.999c0 45.333 -16.833 81.166 -50.5 107.499s-86.834 47.833 -159.501 64.5l-211 48c-110 24.667 -195.167 68.5 -255.5 131.5
s-90.5 145.5 -90.5 247.5c0 125.333 47.167 226 141.5 302s217.166 114 368.499 114c150 0 270 -37.167 360 -111.5s138.333 -166.833 145 -277.5h-256c-8.66699 49.333 -35.167 90 -79.5 122s-101.5 48 -171.5 48c-73.333 0 -131.333 -16.5 -174 -49.5
s-64 -75.5 -64 -127.5c0 -79.333 62.333 -132 187 -158l212 -47c118 -26 208.667 -69.5 272 -130.5s95 -146.5 95 -256.5c0 -130.667 -47.667 -235.167 -143 -313.5s-228 -117.5 -398 -117.5c-84 0 -159.5 10.667 -226.5 32s-121.5 50.666 -163.5 87.999
s-74.5 79.833 -97.5 127.5s-36.167 99.167 -39.5 154.5z" />
    <glyph glyph-name="T" unicode="T" horiz-adv-x="1129" 
d="M700 0h-271v1131h-387v234h1046v-234h-388v-1131z" />
    <glyph glyph-name="U" unicode="U" horiz-adv-x="1413" 
d="M707 212c85.333 0 153.332 25.167 203.999 75.5s76 120.833 76 211.5v866h271v-894c0 -150 -50 -270.333 -150 -361s-233.667 -136 -401 -136s-301.166 45.333 -401.499 136s-150.5 211 -150.5 361v894h271v-866c0 -91.333 25.333 -162 76 -212s119 -75 205 -75z" />
    <glyph glyph-name="V" unicode="V" horiz-adv-x="1303" 
d="M491 0l-457 1365h313l306 -1061h13l303 1061h300l-453 -1365h-325z" />
    <glyph glyph-name="W" unicode="W" 
d="M642 0h-249l-360 1365h292l205 -979h13l241 979h233l241 -979h14l203 979h293l-360 -1365h-249l-253 937h-11z" />
    <glyph glyph-name="X" unicode="X" horiz-adv-x="1238" 
d="M1225 1365l-435 -684l429 -681h-311l-290 477h-12l-291 -477h-294l423 688l-419 677h318l284 -485h12l281 485h305z" />
    <glyph glyph-name="Y" unicode="Y" horiz-adv-x="1205" 
d="M738 0h-271v511l-457 854h300l290 -576h11l292 576h292l-457 -848v-517z" />
    <glyph glyph-name="Z" unicode="Z" horiz-adv-x="1229" 
d="M110 0v183l660 938v14h-642v230h969v-183l-657 -938v-14h677v-230h-1007z" />
    <glyph glyph-name="bracketleft" unicode="[" horiz-adv-x="766" 
d="M170 1437h540v-201h-288v-1348h288v-201h-540v1750z" />
    <glyph glyph-name="backslash" unicode="\" horiz-adv-x="766" 
d="M749 -313h-240l-492 1750h240z" />
    <glyph glyph-name="bracketright" unicode="]" horiz-adv-x="766" 
d="M56 1437h540v-1750h-540v201h289v1348h-289v201z" />
    <glyph glyph-name="asciicircum" unicode="^" horiz-adv-x="925" 
d="M862 795h-228l-166 354h-10l-166 -354h-228l285 570h228z" />
    <glyph glyph-name="underscore" unicode="_" horiz-adv-x="906" 
d="M907 -313h-908v210h908v-210z" />
    <glyph glyph-name="grave" unicode="`" horiz-adv-x="1000" 
d="M696 1231h-193l-280 354h235z" />
    <glyph glyph-name="a" unicode="a" horiz-adv-x="1149" 
d="M451 -16c-104.667 0 -188.998 29.168 -252.998 87.501s-96 137.166 -96 236.499c0 97.333 32.833 174.666 98.5 231.999s158.834 86 279.501 86h259v93c0 50.667 -15.667 88.834 -47 114.501s-74.666 38.5 -129.999 38.5c-100 0 -157.333 -37.333 -172 -112h-249
c6.66699 94 45.167 170.667 115.5 230s174.166 89 311.499 89c62 0 118.167 -6.66699 168.5 -20s95.666 -33.833 135.999 -61.5s71.666 -65.834 93.999 -114.501s33.5 -105.667 33.5 -171v-712h-249v134h-12c-24 -43.333 -59.833 -79.166 -107.5 -107.499
s-107.834 -42.5 -180.501 -42.5zM537.002 184.001c56 0 103.667 16.167 143 48.5s59 72.833 59 121.5v109h-203c-56.667 0 -99.5 -12.333 -128.5 -37s-43.5 -57.667 -43.5 -99c0 -46 16.667 -81.333 50 -106s74.333 -37 123 -37z" />
    <glyph glyph-name="b" unicode="b" horiz-adv-x="1248" 
d="M739 -13c-74 0 -138.332 15.667 -192.999 47s-92.667 74.333 -114 129h-13v-163h-260v1437h264v-543h13c17.333 55.333 53.833 99.5 109.5 132.5s121.5 49.5 197.5 49.5c123.333 0 220 -42 290 -126s105 -200 105 -348v-140c0 -148.667 -35.333 -265 -106 -349
s-168.334 -126 -293.001 -126zM651.001 203c68.667 0 122 24.667 160 74s57 118.666 57 207.999v89c0 90 -19.167 159.833 -57.5 209.5s-92.5 74.5 -162.5 74.5c-69.333 0 -124.166 -24.167 -164.499 -72.5s-60.5 -114.166 -60.5 -197.499v-126
c0 -76.667 21.167 -139 63.5 -187s97.166 -72 164.499 -72z" />
    <glyph glyph-name="c" unicode="c" horiz-adv-x="1117" 
d="M108 472l0.000976562 126.998c0 146.667 42.667 263.834 128 351.501s200 131.5 344 131.5c134 0 240 -35.833 318 -107.5s118 -161.5 120 -269.5h-243c-4.66699 42.667 -22.334 79.834 -53.001 111.501s-75.667 47.5 -135 47.5c-68 0 -120.667 -24 -158 -72
s-56 -113.333 -56 -196v-123c0 -86 19 -153.333 57 -202s90.667 -73 158 -73c113.333 0 177 50 191 150h243c-2 -108.667 -41.167 -197 -117.5 -265s-184.5 -102 -324.5 -102c-146.667 0 -262 43.667 -346 131s-126 207.333 -126 360z" />
    <glyph glyph-name="d" unicode="d" horiz-adv-x="1250" 
d="M509 1076c74 0 138.001 -15.665 192.001 -46.998s91.333 -74 112 -128h12v536h264v-1437h-259v170h-13c-16.667 -54 -53.5 -98 -110.5 -132s-123.833 -51 -200.5 -51c-120.667 0 -216.834 41.667 -288.501 125s-107.5 197.666 -107.5 342.999v153
c0 145.333 36 259.666 108 342.999s169 125 291 125zM597.001 858.002c-67.333 0 -120.334 -24 -159.001 -72s-58 -116 -58 -204v-100c0 -88.667 19.667 -157.167 59 -205.5s93.333 -72.5 162 -72.5c68 0 122.333 23.667 163 71s61 113 61 197v131
c0 78 -21.167 140 -63.5 186s-97.166 69 -164.499 69z" />
    <glyph glyph-name="e" unicode="e" horiz-adv-x="1151" 
d="M592 -19c-149.333 0 -267.332 42.667 -353.999 128s-130 206 -130 362v122c0 102.667 21 191.5 63 266.5s98.167 130.833 168.5 167.5s150.166 55 239.499 55c139.333 0 252.166 -44.167 338.499 -132.5s129.5 -207.166 129.5 -356.499v-121h-681v-51
c0 -68.667 20.333 -124.334 61 -167.001s95.334 -64 164.001 -64c52.667 0 97 11 133 33s57 50 63 84h250c-2 -28 -9 -56.5 -21 -85.5s-30 -58 -54 -87s-52.5 -54.833 -85.5 -77.5s-74.167 -41 -123.5 -55s-103 -21 -161 -21zM366.001 635h426v10
c0 70 -19.333 126.333 -58 169s-90 64 -154 64s-115.667 -21.333 -155 -64s-59 -99 -59 -169v-10z" />
    <glyph glyph-name="f" unicode="f" horiz-adv-x="841" 
d="M250 0v842h-173v209h173v105c0 106.667 28.167 183.5 84.5 230.5s149.5 70.5 279.5 70.5c58 0 107.667 -2.66699 149 -8v-194c-20 3.33301 -52.667 5 -98 5c-56 0 -96.333 -9.5 -121 -28.5s-37 -51.5 -37 -97.5v-83h238v-209h-233v-842h-262z" />
    <glyph glyph-name="g" unicode="g" horiz-adv-x="1223" 
d="M585 -188c76 0 133.335 19.501 172.002 58.501s58 94.5 58 166.5v149h-13c-20.667 -48.667 -57.334 -88.5 -110.001 -119.5s-115 -46.5 -187 -46.5c-119.333 0 -216.166 41.667 -290.499 125s-111.5 199.333 -111.5 348v109c0 148.667 37 264.834 111 348.501
s171 125.5 291 125.5c74.667 0 139 -16.833 193 -50.5s90.333 -75.834 109 -126.501h13v164h258v-1043c0 -58.667 -9.16699 -111.5 -27.5 -158.5s-42.833 -85.833 -73.5 -116.5s-67.667 -56.334 -111 -77.001s-88.833 -35.334 -136.5 -44.001s-98.5 -13 -152.5 -13
c-142.667 0 -252.334 29.833 -329.001 89.5s-117.667 133.834 -123 222.501h256c7.33301 -34 29.166 -61 65.499 -81s82.5 -30 138.5 -30zM599.002 858.001c-69.333 0 -124.333 -24.667 -165 -74s-61 -117 -61 -203v-81c0 -85.333 21 -152.833 63 -202.5
s96.667 -74.5 164 -74.5c66.667 0 119.167 24 157.5 72s57.5 110 57.5 186v117c0 76.667 -19.5 139.167 -58.5 187.5s-91.5 72.5 -157.5 72.5z" />
    <glyph glyph-name="h" unicode="h" horiz-adv-x="1255" 
d="M161 0v1437h262v-561h14c6 21.333 16.167 42.833 30.5 64.5s33.5 43.334 57.5 65.001s55.833 39.334 95.5 53.001s83.834 20.5 132.501 20.5c106.667 0 192 -31.667 256 -95s96 -155 96 -275v-709h-263v633c0 73.333 -17.833 127.666 -53.5 162.999
s-82.834 53 -141.501 53c-68.667 0 -123.167 -23.667 -163.5 -71s-60.5 -110.333 -60.5 -189v-589h-262z" />
    <glyph glyph-name="i" unicode="i" horiz-adv-x="616" 
d="M176 0v1063h263v-1063h-263zM142 1374c0 44.667 15.333 80.667 46 108s70.334 41 119.001 41c49.333 0 89.333 -13.667 120 -41s46 -63.333 46 -108c0 -44 -15.333 -79.667 -46 -107s-70.667 -41 -120 -41c-48.667 0 -88.334 13.667 -119.001 41s-46 63 -46 107z" />
    <glyph glyph-name="j" unicode="j" horiz-adv-x="615" 
d="M142 1374c0 44.667 15.333 80.667 46 108s70.334 41 119.001 41c49.333 0 89.333 -13.667 120 -41s46 -63.333 46 -108c0 -44 -15.333 -79.667 -46 -107s-70.667 -41 -120 -41c-48.667 0 -88.334 13.667 -119.001 41s-46 63 -46 107zM439 1063v-1085
c0 -116 -30.333 -203.5 -91 -262.5s-147 -88.5 -259 -88.5c-47.333 0 -83.666 2.66699 -108.999 8v196c12.667 -2.66699 32 -4 58 -4c49.333 0 84.666 12.167 105.999 36.5s32 63.5 32 117.5v1082h263z" />
    <glyph glyph-name="k" unicode="k" horiz-adv-x="1154" 
d="M422 367v-367h-264v1437h264v-814h12l354 440h297l-387 -459l413 -604h-307l-306 449z" />
    <glyph glyph-name="l" unicode="l" horiz-adv-x="592" 
d="M164 0v1437h264v-1437h-264z" />
    <glyph glyph-name="m" unicode="m" horiz-adv-x="1833" 
d="M157 0l-0.00195312 1063h257v-177h13c6.66699 22.667 16.334 44.167 29.001 64.5s29.834 40.666 51.501 60.999s50.667 36.666 87 48.999s77.166 18.5 122.499 18.5c77.333 0 141 -18.333 191 -55s83.333 -85 100 -145h10c21.333 55.333 59.333 102.5 114 141.5
s124 58.5 208 58.5c106.667 0 190.334 -30.167 251.001 -90.5s91 -142.833 91 -247.5v-741h-263v656c0 66 -16.167 115.5 -48.5 148.5s-76.833 49.5 -133.5 49.5c-55.333 0 -101 -18.833 -137 -56.5s-54 -89.5 -54 -155.5v-642h-254v652c0 66.667 -17 117 -51 151
s-78.667 51 -134 51s-100.333 -18.333 -135 -55s-52 -88.334 -52 -155.001v-644h-263z" />
    <glyph glyph-name="n" unicode="n" horiz-adv-x="1249" 
d="M157 0l0.00195312 1063h257v-187h13c7.33301 23.333 18 45.666 32 66.999s32.833 42.833 56.5 64.5s55.167 39 94.5 52s83.666 19.5 132.999 19.5c109.333 0 195.666 -31.333 258.999 -94s95 -154.334 95 -275.001v-710h-263v634c0 73.333 -17.333 127.5 -52 162.5
s-81 52.5 -139 52.5c-70 0 -124.667 -23.5 -164 -70.5s-59 -110.167 -59 -189.5v-589h-263z" />
    <glyph glyph-name="o" unicode="o" horiz-adv-x="1187" 
d="M595 1082c146 0 263.167 -44.332 351.5 -132.999s132.5 -208 132.5 -358v-113c0 -156.667 -43.833 -278.667 -131.5 -366s-205.167 -131 -352.5 -131c-149.333 0 -267.833 43.333 -355.5 130s-131.5 208.667 -131.5 366v113c0 147.333 44.667 266.166 134 356.499
s207 135.5 353 135.5zM595 871.001c-70.667 0 -125.167 -27.001 -163.5 -81.001s-57.5 -122.333 -57.5 -205v-108c0 -82 18.833 -150 56.5 -204s92.5 -81 164.5 -81s126.333 26.833 163 80.5s55 121.834 55 204.501v108c0 83.333 -18.833 151.833 -56.5 205.5
s-91.5 80.5 -161.5 80.5z" />
    <glyph glyph-name="p" unicode="p" horiz-adv-x="1245" 
d="M735 -13c-72.667 0 -135.167 15.333 -187.5 46s-90.166 74 -113.499 130h-13v-516h-264v1416h259v-169h14c21.333 56.667 59.5 101.167 114.5 133.5s119.833 48.5 194.5 48.5c123.333 0 220 -42 290 -126s105 -200 105 -348v-140c0 -148.667 -35.333 -265 -106 -349
s-168.334 -126 -293.001 -126zM646 203c69.333 0 123.17 24.834 161.503 74.501s57.5 119.167 57.5 208.5v89c0 90 -19.333 159.667 -58 209s-93.334 74 -164.001 74c-68.667 0 -122.834 -23.833 -162.501 -71.5s-59.5 -112.834 -59.5 -195.501v-132
c0 -76.667 20.667 -138.5 62 -185.5s95.666 -70.5 162.999 -70.5z" />
    <glyph glyph-name="q" unicode="q" horiz-adv-x="1245" 
d="M506 1076c74.667 0 139.666 -16.167 194.999 -48.5s93.333 -76.5 114 -132.5h13v168h259v-1416h-263v518h-13c-20.667 -54.667 -58.5 -98 -113.5 -130s-119.5 -48 -193.5 -48c-122 0 -218.167 42 -288.5 126s-105.5 199.667 -105.5 347v143
c0 146.667 35.333 262.167 106 346.5s167.334 126.5 290.001 126.5zM597.999 858c-68 0 -121.333 -24.667 -160 -74s-58 -117 -58 -203v-100c0 -87.333 19.333 -155.5 58 -204.5s92.667 -73.5 162 -73.5s124 24 164 72s60 113.333 60 196v131
c0 76.667 -20.833 138.5 -62.5 185.5s-96.167 70.5 -163.5 70.5z" />
    <glyph glyph-name="r" unicode="r" horiz-adv-x="852" 
d="M167 0v1063h263v-167h13c6 20 15.333 39.833 28 59.5s29.5 39 50.5 58s47.833 34.5 80.5 46.5s69 18 109 18c34 0 61.667 -2.66699 83 -8v-236c-19.333 6.66699 -54 10 -104 10c-83.333 0 -146.5 -21.833 -189.5 -65.5s-64.5 -102.5 -64.5 -176.5v-602h-269z" />
    <glyph glyph-name="s" unicode="s" horiz-adv-x="1080" 
d="M116 748c0 57.333 11.502 107.999 34.502 151.999s54.5 79 94.5 105s85 45.333 135 58s104 19 162 19c121.333 0 219.166 -27.667 293.499 -83s111.5 -132 111.5 -230h-233c-3.33301 34 -20.333 63.5 -51 88.5s-72.667 37.5 -126 37.5c-52 0 -93.333 -11.333 -124 -34
s-46 -53 -46 -91c0 -12 1.66699 -22.833 5 -32.5s8.83301 -18.5 16.5 -26.5s15.5 -15 23.5 -21s18.667 -11.5 32 -16.5l35 -13c10 -3.66699 23.5 -7.16699 40.5 -10.5s30.333 -5.83301 40 -7.5l42 -7l39.5 -6.5c52 -8.66699 97.333 -20 136 -34s73.834 -32.5 105.501 -55.5
s55.667 -52.167 72 -87.5s24.5 -76.333 24.5 -123c0 -108.667 -40.167 -193.834 -120.5 -255.501s-191.5 -92.5 -333.5 -92.5c-133.333 0 -238.333 28.5 -315 85.5s-115 133.167 -115 228.5h255c5.33301 -39.333 23.666 -70.333 54.999 -93s75.333 -34 132 -34
c62.667 0 109.5 12 140.5 36s46.5 55 46.5 93c0 22 -5.66699 40.5 -17 55.5s-28.166 27.167 -50.499 36.5s-45.5 16.833 -69.5 22.5s-53 11.834 -87 18.501c-6 0.666992 -10.5 1.33398 -13.5 2.00098s-7 1.5 -12 2.5s-9.5 1.83301 -13.5 2.5
c-52.667 10 -97.834 21.833 -135.501 35.5s-73.334 32.167 -107.001 55.5s-59.167 53.333 -76.5 90s-26 80 -26 130z" />
    <glyph glyph-name="t" unicode="t" horiz-adv-x="829" 
d="M237 1051l0.00195312 263.999h256v-264h235v-209h-235v-503c0 -51.333 11.667 -86.833 35 -106.5s63 -29.5 119 -29.5c35.333 0 65.666 1.33301 90.999 4v-201c-38.667 -7.33301 -90.334 -11 -155.001 -11c-130 0 -221.167 23.333 -273.5 70s-78.5 125.334 -78.5 236.001
v541h-161v209h167z" />
    <glyph glyph-name="u" unicode="u" horiz-adv-x="1245" 
d="M1088 1063l-0.000976562 -1063h-257v177h-13c-8 -22.667 -19.833 -44.667 -35.5 -66s-36 -41.833 -61 -61.5s-56.167 -35.5 -93.5 -47.5s-78.333 -18 -123 -18c-110 0 -196.667 29.833 -260 89.5s-95 150.167 -95 271.5v718h263v-647c0 -74 17.833 -126.5 53.5 -157.5
s81.834 -46.5 138.501 -46.5c62 0 114.167 20.167 156.5 60.5s63.5 92.166 63.5 155.499v635h263z" />
    <glyph glyph-name="v" unicode="v" horiz-adv-x="1098" 
d="M393 0l-353 1063h287l210 -810h11l232 810h278l-372 -1063h-293z" />
    <glyph glyph-name="w" unicode="w" horiz-adv-x="1616" 
d="M1568 1063l-276 -1063h-272l-205 749h-8l-201 -749h-274l-285 1063h278l155 -778h10l198 778h247l202 -778h11l158 778h262z" />
    <glyph glyph-name="x" unicode="x" horiz-adv-x="1133" 
d="M771 0l-206 355h-10l-207 -355h-281l331 528l-341 535h305l202 -353h11l206 353h291l-348 -525l343 -538h-296z" />
    <glyph glyph-name="y" unicode="y" horiz-adv-x="1140" 
d="M1084 1063c-8 -28.667 -18.499 -63.668 -31.499 -105.001l-42 -131.5l-49 -146.5l-52.5 -153l-51 -148.5l-47 -134.5l-38.5 -108l-26.5 -74l-10 -28l-24 -63c-46 -123.333 -103.5 -211.5 -172.5 -264.5s-160.5 -79.5 -274.5 -79.5c-58 0 -104.667 4 -140 12v197
c20 -4.66699 48.333 -7 85 -7c59.333 0 104.666 11.333 135.999 34s52 59.334 62 110.001l7 26l-368 1064h291l226 -830h11l230 830h279z" />
    <glyph glyph-name="z" unicode="z" horiz-adv-x="1051" 
d="M112 0v153l507 682v13h-502v215h821v-170l-492 -666v-12h505v-215h-839z" />
    <glyph glyph-name="braceleft" unicode="{" horiz-adv-x="766" 
d="M272 592l-0.000976562 -28.002c128.667 -11.333 193 -89.666 193 -234.999l1 -247c0 -73.333 14.5 -124.166 43.5 -152.499s82.833 -42.5 161.5 -42.5h40v-200h-92c-137.333 0 -238.666 27.833 -303.999 83.5s-98.333 148.167 -99 277.5v207
c-0.666992 71.333 -12 122 -34 152s-64 45 -126 45v251c62.667 0 105 15 127 45s33 80.667 33 152v185c0 128 32.667 218.667 98 272s167 80 305 80h91v-199h-40c-78 0 -131.667 -14.167 -161 -42.5s-44 -79.166 -44 -152.499v-232c0 -70.667 -16 -123.334 -48 -158.001
s-80.333 -55 -145 -61z" />
    <glyph glyph-name="bar" unicode="|" horiz-adv-x="766" 
d="M502 -313h-238v1750h238v-1750z" />
    <glyph glyph-name="braceright" unicode="}" horiz-adv-x="766" 
d="M494 564l-0.000976562 28.002c-64 6 -112 26.333 -144 61s-48 87.334 -48 158.001v232c0 73.333 -14.667 124.166 -44 152.499s-83.333 42.5 -162 42.5h-40v199h92c138 0 239.5 -26.667 304.5 -80s97.5 -144 97.5 -272v-185c0 -71.333 11 -122 33 -152
s64.333 -45 127 -45v-251c-62.667 0 -105 -15 -127 -45s-33 -80.667 -33 -152v-207c0 -129.333 -32.667 -221.833 -98 -277.5s-166.666 -83.5 -303.999 -83.5h-92v200h40c78.667 0 132.667 14.167 162 42.5s44 79.166 44 152.499v247c0 145.333 64 223.666 192 234.999z" />
    <glyph glyph-name="asciitilde" unicode="~" horiz-adv-x="1167" 
d="M790 483c-38 0 -73.8291 6.49902 -107.496 19.499s-62.334 28.833 -86.001 47.5s-46 37.167 -67 55.5s-42.833 34 -65.5 47s-45 19.5 -67 19.5c-36 0 -63 -15.167 -81 -45.5s-28 -68.166 -30 -113.499h-201c-2.66699 70 6.16602 133.5 26.499 190.5
s53.333 103.333 99 139s100.834 53.5 165.501 53.5c38.667 0 74.667 -6.5 108 -19.5s61.666 -28.667 84.999 -47s45.166 -36.833 65.499 -55.5s41.666 -34.5 63.999 -47.5s44.833 -19.5 67.5 -19.5c68.667 0 105.667 53 111 159h202c2 -112.667 -22.5 -204.667 -73.5 -276
s-122.833 -107 -215.5 -107z" />
    <glyph glyph-name="nonbreakingspace" unicode="&#xa0;" horiz-adv-x="455" 
 />
    <glyph glyph-name="exclamdown" unicode="&#xa1;" horiz-adv-x="609" 
d="M449 -278h-290l31 903h229zM480 951c0 -46.667 -16.167 -84.667 -48.5 -114s-74.5 -44 -126.5 -44c-53.333 0 -96.333 14.5 -129 43.5s-49 67.167 -49 114.5c0 46 16.167 83.333 48.5 112s75.5 43 129.5 43c52 0 94.167 -14.333 126.5 -43s48.5 -66 48.5 -112z" />
    <glyph glyph-name="cent" unicode="&#xa2;" horiz-adv-x="1221" 
d="M1067 528c-2 -100 -36.499 -182.497 -103.499 -247.497s-149.5 -102.833 -247.5 -113.5v-208h-200v207c-110 12 -200.667 59.333 -272 142s-107 193 -107 331v102c0 133.333 36 240.666 108 321.999s162.333 128.666 271 141.999v202h200v-204
c98.667 -11.333 180.667 -51.333 246 -120s99 -151 101 -247h-237c-6 49.333 -28.833 90.166 -68.5 122.499s-87.167 48.5 -142.5 48.5c-71.333 0 -128 -24.167 -170 -72.5s-63 -112.5 -63 -192.5v-104c0 -82.667 21.167 -148 63.5 -196s99.166 -72 170.499 -72
c60 0 108.833 14.5 146.5 43.5s60.5 67.167 68.5 114.5h236z" />
    <glyph glyph-name="sterling" unicode="&#xa3;" horiz-adv-x="1221" 
d="M518 214h590v-214h-961v199c74.667 11.333 135.5 44 182.5 98s70.5 116.667 70.5 188c0 37.333 -5.33301 78 -16 122h-243v165h196c-29.333 99.333 -44 178.666 -44 237.999c0 120.667 45.833 214.334 137.5 281.001s216.5 100 374.5 100
c86.667 0 166.667 -14.333 240 -43v-210c-72.667 27.333 -146.667 41 -222 41c-83.333 0 -149 -18.5 -197 -55.5s-72 -87.833 -72 -152.5c0 -54.667 12.333 -121 37 -199h379v-165h-329c8.66699 -38 13 -74.333 13 -109c0 -58.667 -12.333 -112.167 -37 -160.5
s-57.667 -84.5 -99 -108.5v-15z" />
    <glyph glyph-name="currency" unicode="&#xa4;" horiz-adv-x="1221" 
d="M991 127l-164.002 162.999c-65.333 -40 -136.333 -60 -213 -60c-79.333 0 -151.666 20.667 -216.999 62l-165 -165l-134 139l164 164c-42.667 66.667 -64 140 -64 220c0 78.667 20.333 151 61 217l-161 160l134 139l161 -160c66 43.333 139.667 65 221 65
c78.667 0 151.334 -20.667 218.001 -62l159 157l134 -139l-158 -158c41.333 -66.667 62 -139.667 62 -219c0 -81.333 -22 -155.666 -66 -222.999l162 -161zM391.998 649.999c0 -60 21.667 -111.332 65 -153.999s95.666 -64 156.999 -64c60.667 0 112.834 21.333 156.501 64
s65.5 94 65.5 154s-21.833 111.5 -65.5 154.5s-95.834 64.5 -156.501 64.5c-61.333 0 -113.666 -21.333 -156.999 -64s-65 -94.334 -65 -155.001z" />
    <glyph glyph-name="yen" unicode="&#xa5;" horiz-adv-x="1221" 
d="M1034 200h-288v-200h-270v200h-285v171h285v120h-285v171h210l-371 703h300l277 -576h12l278 576h292l-370 -703h215v-171h-288v-120h288v-171z" />
    <glyph glyph-name="brokenbar" unicode="&#xa6;" horiz-adv-x="766" 
d="M502 783h-238v654h238v-654zM502 -313h-238v671h238v-671z" />
    <glyph glyph-name="section" unicode="&#xa7;" horiz-adv-x="984" 
d="M662 72c0 11.333 -1.33203 21.8369 -3.99902 31.5039s-7.33398 18.5 -14.001 26.5l-18.5 21.5c-5.66699 6.33301 -15 12.666 -28 18.999l-31 15.5c-7.66699 4 -20.5 8.66699 -38.5 14s-31 9.33301 -39 12s-23 7 -45 13s-37 10 -45 12
c-46.667 12.667 -86.5 26.334 -119.5 41.001s-65 33.5 -96 56.5s-54.333 51.667 -70 86s-23.5 73.833 -23.5 118.5c0 106.667 55.667 190.667 167 252v7c-106 60 -159 146.333 -159 259c0 53.333 10.833 101.666 32.5 144.999s51 78.666 88 105.999
s79.5 48.166 127.5 62.499s99.333 21.5 154 21.5c118 0 212.167 -30.167 282.5 -90.5s105.5 -138.833 105.5 -235.5h-219c-2 35.333 -18.833 66.666 -50.5 93.999s-73.167 41 -124.5 41c-47.333 0 -85.5 -12.167 -114.5 -36.5s-43.5 -55.5 -43.5 -93.5
c0 -13.333 2.33301 -26 7 -38s10.167 -22.167 16.5 -30.5s16.333 -16.666 30 -24.999s25 -15 34 -20s23.667 -10.667 44 -17l46 -14c10.333 -3 27.166 -7.5 50.499 -13.5l10.5 -3l9 -2.5c3.66699 -1 7.16699 -1.83301 10.5 -2.5c36.667 -9.33301 67.834 -18.5 93.501 -27.5
s53.5 -21.667 83.5 -38s54.333 -34.333 73 -54s34.167 -44.834 46.5 -75.501s18.5 -65 18.5 -103c0 -108 -51.667 -196.667 -155 -266v-7c46 -28 82 -60.167 108 -96.5s39 -83.5 39 -141.5c0 -104 -37.667 -187.833 -113 -251.5s-175.333 -95.5 -300 -95.5
c-118 0 -214.833 29.333 -290.5 88s-114.167 137.667 -115.5 237h223c6 -40.667 24.667 -73 56 -97s73.666 -36 126.999 -36c58.667 0 102.334 12.5 131.001 37.5s43 56.167 43 93.5zM576.001 402.004c29.333 13.333 53.5 34.5029 72.5 63.5029s28.5 60.167 28.5 93.5
c0 42.667 -15.667 76.167 -47 100.5s-76 43.166 -134 56.499c-7.33301 2 -18.333 4.5 -33 7.5l-32 6.5c-29.333 -12 -55 -32.5 -77 -61.5s-33 -60.5 -33 -94.5c0 -42.667 15.167 -75.334 45.5 -98.001s74.833 -41.334 133.5 -56.001c26.667 -6.66699 52 -12.667 76 -18z" />
    <glyph glyph-name="dieresis" unicode="&#xa8;" horiz-adv-x="1000" 
d="M700 1233c-37.333 0 -67.833 11.5 -91.5 34.5s-35.5 52.5 -35.5 88.5c0 36.667 11.833 66.334 35.5 89.001s54.167 34 91.5 34c38 0 68.833 -11.333 92.5 -34s35.5 -52.334 35.5 -89.001c0 -36 -11.833 -65.5 -35.5 -88.5s-54.5 -34.5 -92.5 -34.5zM299 1233
c-37.333 0 -67.833 11.5 -91.5 34.5s-35.5 52.5 -35.5 88.5c0 36.667 11.833 66.334 35.5 89.001s54.167 34 91.5 34c38 0 68.833 -11.333 92.5 -34s35.5 -52.334 35.5 -89.001c0 -36 -11.833 -65.5 -35.5 -88.5s-54.5 -34.5 -92.5 -34.5z" />
    <glyph glyph-name="copyright" unicode="&#xa9;" horiz-adv-x="1693" 
d="M514 632v98.999c0 103.333 32 184.5 96 243.5s146.667 88.5 248 88.5c92.667 0 168.334 -26.5 227.001 -79.5s88.667 -115.833 90 -188.5h-166c-2.66699 30 -16.5 56.833 -41.5 80.5s-61.167 35.5 -108.5 35.5c-115.333 0 -173 -62 -173 -186v-94
c0 -59.333 15.5 -103.666 46.5 -132.999s73.167 -44 126.5 -44c47.333 0 83.666 9 108.999 27s40 42.333 44 73h166c-1.33301 -72 -30.5 -132.833 -87.5 -182.5s-134.5 -74.5 -232.5 -74.5c-102 0 -184.833 29.333 -248.5 88s-95.5 141 -95.5 247zM264 640.999
c0 -168 54.1689 -305.665 162.502 -412.998s250.166 -161 425.499 -161c174.667 0 316.667 53.833 426 161.5s164 245.167 164 412.5v106c0 102 -24.667 195 -74 279s-119.166 150.833 -209.499 200.5s-192.5 74.5 -306.5 74.5c-86 0 -165.833 -14.5 -239.5 -43.5
s-135.834 -68.333 -186.501 -118s-90.334 -108.334 -119.001 -176.001s-43 -139.834 -43 -216.501v-106zM852.002 -63.999c-139.333 0 -264.001 30.666 -374.001 91.999s-195.167 145.833 -255.5 253.5s-90.5 228.5 -90.5 362.5v103c0 94.667 18 184 54 268
s85.333 156.667 148 218s139 109.833 229 145.5s186.333 53.5 289 53.5c103.333 0 200 -18 290 -54s166.167 -84.833 228.5 -146.5s111.5 -134.5 147.5 -218.5s54 -172.667 54 -266v-103c0 -100.667 -17.667 -194.667 -53 -282s-84.166 -162.166 -146.499 -224.499
s-138.5 -111.5 -228.5 -147.5s-187.333 -54 -292 -54z" />
    <glyph glyph-name="ordfeminine" unicode="&#xaa;" horiz-adv-x="949" 
d="M369 474c-87.333 0 -157.169 24.4971 -209.502 73.4971s-78.5 113.833 -78.5 194.5c0 82 27.667 146.333 83 193s131.666 70 228.999 70h211v80c0 38.667 -12 68.334 -36 89.001s-58.333 31 -103 31c-79.333 0 -124.666 -30 -135.999 -90h-215
c4.66699 84.667 37.834 150.334 99.501 197.001s146.834 70 255.501 70c116 0 205 -26.167 267 -78.5s93 -127.166 93 -224.499v-589h-214v108h-11c-20.667 -39.333 -51.5 -69.833 -92.5 -91.5s-88.5 -32.5 -142.5 -32.5zM444.997 643.997c44.667 0 82.333 13 113 39
s46 58 46 96v90h-159c-42.667 0 -76.167 -9.83301 -100.5 -29.5s-36.5 -46.834 -36.5 -81.501c0 -33.333 12.667 -60.666 38 -81.999s58.333 -32 99 -32z" />
    <glyph glyph-name="guillemotleft" unicode="&#xab;" horiz-adv-x="1349" 
d="M621 565l344 404h249l-339 -403v-6l339 -405h-258l-335 402v8zM120 565l344 404h249l-339 -403v-6l339 -405h-258l-335 402v8z" />
    <glyph glyph-name="logicalnot" unicode="&#xac;" horiz-adv-x="1221" 
d="M1112 87h-229v346h-779v219h1008v-565z" />
    <glyph glyph-name="registered" unicode="&#xae;" horiz-adv-x="1211" 
d="M604 414c-144.667 0 -264.167 45.8311 -358.5 137.498s-141.5 206.834 -141.5 345.501v70c0 130.667 47.833 241.167 143.5 331.5s214.5 135.5 356.5 135.5c141.333 0 260.166 -45.333 356.499 -136s144.5 -201 144.5 -331v-70
c0 -139.333 -47.167 -254.666 -141.5 -345.999s-214.166 -137 -359.499 -137zM604 521.998c113.333 0 206.832 35.665 280.499 106.998s110.5 160.666 110.5 267.999v68c0 100.667 -37.333 186.334 -112 257.001s-167.667 106 -279 106c-112 0 -205 -35.167 -279 -105.5
s-111 -156.166 -111 -257.499v-68c0 -107.333 36.833 -196.666 110.5 -267.999s166.834 -107 279.501 -107zM529.999 1087l-0.000976562 -133.001h77c27.333 0 49.333 4.5 66 13.5s25 26.833 25 53.5c0 20.667 -7.16699 36.834 -21.5 48.501s-34.166 17.5 -59.499 17.5h-87z
M529.998 694.995h-116v482h238c50 0 90.333 -14.667 121 -44s46 -66.333 46 -111c0 -35.333 -9 -66 -27 -92s-40.667 -43 -68 -51l110 -184h-129l-95 171h-80v-171z" />
    <glyph glyph-name="macron" unicode="&#xaf;" horiz-adv-x="1000" 
d="M810 1241h-628v141h628v-141z" />
    <glyph glyph-name="degree" unicode="&#xb0;" horiz-adv-x="714" 
d="M357 797c-83.333 0 -153.5 28.167 -210.5 84.5s-85.5 125.833 -85.5 208.5s28.333 152 85 208s127 84 211 84s154.333 -28 211 -84s85 -125.333 85 -208s-28.5 -152.167 -85.5 -208.5s-127.167 -84.5 -210.5 -84.5zM357 953c36.667 0 68 13.333 94 40s39 59 39 97
s-12.833 70.167 -38.5 96.5s-57.167 39.5 -94.5 39.5c-36.667 0 -68 -13.333 -94 -40s-39 -58.667 -39 -96s13.167 -69.5 39.5 -96.5s57.5 -40.5 93.5 -40.5z" />
    <glyph glyph-name="plusminus" unicode="&#xb1;" horiz-adv-x="1221" 
d="M720 643v-249h-226v249h-368v207h368v233h226v-233h373v-207h-373zM1095 67h-966v214h966v-214z" />
    <glyph glyph-name="two.sups" unicode="&#xb2;" horiz-adv-x="804" 
d="M297 1469h-227.001v15c0 83.333 31.167 152 93.5 206s141.5 81 237.5 81s174 -23.5 234 -70.5s90 -107.833 90 -182.5c0 -46 -12 -89.833 -36 -131.5s-67 -94.167 -129 -157.5l-144 -145v-10h325v-198h-656v157l307 305c36 34.667 60.833 63.5 74.5 86.5
s20.5 46.167 20.5 69.5c0 24 -8.66699 43.667 -26 59s-39.666 23 -66.999 23c-28.667 0 -52.167 -8.83301 -70.5 -26.5s-27.5 -40.167 -27.5 -67.5v-7z" />
    <glyph glyph-name="three.sups" unicode="&#xb3;" horiz-adv-x="826" 
d="M303 1230l-0.00195312 182.001h97c30.667 0 55.667 8.33301 75 25s28.666 37.667 27.999 63c0 25.333 -9.5 46 -28.5 62s-43.5 24 -73.5 24c-31.333 0 -57.166 -8.66699 -77.499 -26s-30.5 -39.333 -30.5 -66h-227c2.66699 87.333 34.334 155.333 95.001 204
s143.334 73 248.001 73c99.333 0 179.166 -21.5 239.499 -64.5s90.5 -99.833 90.5 -170.5c0.666992 -47.333 -14.833 -89.833 -46.5 -127.5s-70.167 -59.5 -115.5 -65.5v-14c54 -4 98.167 -25.667 132.5 -65s51.5 -87.333 51.5 -144
c0.666992 -79.333 -31.833 -143 -97.5 -191s-152.834 -72 -261.501 -72c-103.333 0 -186.666 25.5 -249.999 76.5s-95 118.5 -95 202.5h224c0.666992 -26.667 12.334 -48.334 35.001 -65.001s51.667 -25 87 -25c35.333 -0.666992 63.833 7.5 85.5 24.5
s32.5 39.833 32.5 68.5c0 27.333 -10.5 49.333 -31.5 66s-49.167 25 -84.5 25h-102z" />
    <glyph glyph-name="acute" unicode="&#xb4;" horiz-adv-x="1000" 
d="M281 1231l237 354h235l-280 -354h-192z" />
    <glyph glyph-name="mugreek" unicode="&#x3bc;" horiz-adv-x="1331" 
d="M158 -353l-0.00195312 1416h263v-633c0 -68 16.5 -121.333 49.5 -160s80.167 -58 141.5 -58c64.667 0 116.834 20.833 156.501 62.5s59.5 93.5 59.5 155.5v633h263v-742c0 -46 6.16699 -77.5 18.5 -94.5s35.166 -25.5 68.499 -25.5c14.667 0 31.334 2 50.001 6v-201
c-33.333 -9.33301 -74 -14 -122 -14c-136.667 0 -215.667 55 -237 165l-3 16h-14c-39.333 -126 -120.666 -189 -243.999 -189c-77.333 0 -135 26.333 -173 79h-13v-416h-264z" />
    <glyph glyph-name="mugreek" unicode="&#xb5;" horiz-adv-x="1331" 
d="M158 -353l-0.00195312 1416h263v-633c0 -68 16.5 -121.333 49.5 -160s80.167 -58 141.5 -58c64.667 0 116.834 20.833 156.501 62.5s59.5 93.5 59.5 155.5v633h263v-742c0 -46 6.16699 -77.5 18.5 -94.5s35.166 -25.5 68.499 -25.5c14.667 0 31.334 2 50.001 6v-201
c-33.333 -9.33301 -74 -14 -122 -14c-136.667 0 -215.667 55 -237 165l-3 16h-14c-39.333 -126 -120.666 -189 -243.999 -189c-77.333 0 -135 26.333 -173 79h-13v-416h-264z" />
    <glyph glyph-name="paragraph" unicode="&#xb6;" horiz-adv-x="1445" 
d="M853 -210l-249.999 -0.00195312v656h-20c-41.333 0 -83.166 5.66699 -125.499 17s-83.833 29.5 -124.5 54.5s-76.834 55 -108.501 90s-57.167 78.333 -76.5 130s-29 107.834 -29 168.501c0 66 9.66699 125.833 29 179.5s44.666 97.5 75.999 131.5
s67.666 62.333 108.999 85s82.833 38.834 124.5 48.501s83.834 14.5 126.501 14.5h269v-1575zM1015 -210.002v1575h250v-1575h-250z" />
    <glyph glyph-name="periodcentered" unicode="&#xb7;" horiz-adv-x="660" 
d="M151 773c0 53.333 17 96.333 51 129s76.333 49 127 49c52 0 95 -16.333 129 -49s51 -75.667 51 -129c0 -52.667 -17 -95 -51 -127s-77 -48 -129 -48c-50.667 0 -93 16 -127 48s-51 74.333 -51 127z" />
    <glyph glyph-name="cedilla" unicode="&#xb8;" horiz-adv-x="1000" 
d="M381 -235l0.00195312 102l53 138h154l-48 -123c59.333 0 106.666 -14.833 141.999 -44.5s53 -70.834 53 -123.501c0 -64.667 -22 -113.167 -66 -145.5s-103.333 -49.166 -178 -50.499c-55.333 -2 -104 3 -146 15v124c29.333 -8.66699 66.666 -13 111.999 -13
c73.333 0 110 20.333 110 61c0 24 -10.5 40 -31.5 48s-54.5 12 -100.5 12h-54z" />
    <glyph glyph-name="one.sups" unicode="&#xb9;" horiz-adv-x="657" 
d="M518 876h-239v652h-12l-200 -136v218l206 141h245v-875z" />
    <glyph glyph-name="ordmasculine" unicode="&#xba;" horiz-adv-x="979" 
d="M490 1382c123.333 0 221.333 -37.166 294 -111.499s109 -172.5 109 -294.5v-83c0 -128 -36 -228.5 -108 -301.5s-170.333 -109.5 -295 -109.5c-126 0 -224.833 36.167 -296.5 108.5s-107.5 173.166 -107.5 302.499v82c0 121.333 36.667 219.5 110 294.5
s171.333 112.5 294 112.5zM490 1202c-55.333 0 -98.168 -21.667 -128.501 -65s-45.5 -98.333 -45.5 -165v-81c0 -66 14.833 -120.833 44.5 -164.5s72.834 -65.5 129.501 -65.5c56 0 98.833 21.667 128.5 65s44.5 98.333 44.5 165v81c0 67.333 -15 122.5 -45 165.5
s-72.667 64.5 -128 64.5z" />
    <glyph glyph-name="guillemotright" unicode="&#xbb;" horiz-adv-x="1349" 
d="M1229 565v-8l-335 -402h-258l339 405v6l-339 403h249zM728 565v-8l-335 -402h-258l339 405v6l-339 403h249z" />
    <glyph glyph-name="onequarter" unicode="&#xbc;" horiz-adv-x="1988" 
d="M518 490h-239v652h-12l-200 -136v218l206 141h245v-875zM523 0l335 710l262 655h243l-338 -699l-259 -666h-243zM1489 875h342v-545h112v-194h-112v-136h-219v136h-423v199c48.667 96 148.667 276 300 540zM1402 320l217 0.000976562v377h-11
c-94 -158.667 -162.667 -283.334 -206 -374.001v-3z" />
    <glyph glyph-name="onehalf" unicode="&#xbd;" horiz-adv-x="1965" 
d="M518 490h-239v652h-12l-200 -136v218l206 141h245v-875zM523 0l335 710l262 655h243l-338 -699l-259 -666h-243zM1482 593h-227.001v15c0 83.333 31.167 152 93.5 206s141.5 81 237.5 81s174 -23.5 234 -70.5s90 -107.833 90 -182.5c0 -46 -12 -89.833 -36 -131.5
s-67 -94.167 -129 -157.5l-144 -145v-10h325v-198h-656v157l307 305c36 34.667 60.833 63.5 74.5 86.5s20.5 46.167 20.5 69.5c0 24 -8.66699 43.667 -26 59s-39.666 23 -66.999 23c-28.667 0 -52.167 -8.83301 -70.5 -26.5s-27.5 -40.167 -27.5 -67.5
c0 -0.666992 0.333008 -3 1 -7v-6z" />
    <glyph glyph-name="threequarters" unicode="&#xbe;" horiz-adv-x="2114" 
d="M303 844l-0.00195312 182.001h97c30.667 0 55.667 8.33301 75 25s28.666 37.667 27.999 63c0 25.333 -9.5 46 -28.5 62s-43.5 24 -73.5 24c-31.333 0 -57.166 -8.66699 -77.499 -26s-30.5 -39.333 -30.5 -66h-227c2.66699 87.333 34.334 155.333 95.001 204
s143.334 73 248.001 73c99.333 0 179.166 -21.5 239.499 -64.5s90.5 -99.833 90.5 -170.5c0.666992 -47.333 -14.833 -89.833 -46.5 -127.5s-70.167 -59.5 -115.5 -65.5v-14c54 -4 98.167 -25.667 132.5 -65s51.5 -87.333 51.5 -144
c0.666992 -79.333 -31.833 -143 -97.5 -191s-152.834 -72 -261.501 -72c-103.333 0 -186.666 25.5 -249.999 76.5s-95 118.5 -95 202.5h224c0.666992 -26.667 12.334 -48.334 35.001 -65.001s51.667 -25 87 -25c35.333 -0.666992 63.833 7.5 85.5 24.5
s32.5 39.833 32.5 68.5c0 27.333 -10.5 49.333 -31.5 66s-49.167 25 -84.5 25h-102zM647.998 0.000976562l335 710l262 655h243l-338 -699l-259 -666h-243zM1615 875.001h342v-545h112v-194h-112v-136h-219v136h-423v199c48.667 96 148.667 276 300 540zM1528 320.001
l217 0.000976562v377h-11c-94 -158.667 -162.667 -283.334 -206 -374.001v-3z" />
    <glyph glyph-name="questiondown" unicode="&#xbf;" horiz-adv-x="1028" 
d="M714 941c0 -47.333 -16 -85.5 -48 -114.5s-74.333 -43.5 -127 -43.5c-53.333 0 -96.166 14.5 -128.499 43.5s-48.5 67.167 -48.5 114.5c0 46 16.167 83.333 48.5 112s75.166 43 128.499 43c52 0 94.167 -14.333 126.5 -43s48.5 -66 48.5 -112zM958 92
c2 -57.333 -5.16699 -109.329 -21.5 -155.996s-39 -85.334 -68 -116.001s-63.167 -56.5 -102.5 -77.5s-80.5 -36 -123.5 -45s-87.833 -13.5 -134.5 -13.5c-80 0 -152.5 13 -217.5 39s-118.167 67.333 -159.5 124s-62 124.334 -62 203.001c0 41.333 5.33301 78.833 16 112.5
s27 63.667 49 90s42 47.333 60 63s42.333 34.5 73 56.5c35.333 25.333 60.666 44 75.999 56s31 27.167 47 45.5s26.333 36.666 31 54.999s7 41.166 7 68.499v52h239l1 -58c4.66699 -70.667 -8.5 -131.834 -39.5 -183.501s-77.167 -98.834 -138.5 -141.501
c-29.333 -20 -51.166 -35.667 -65.499 -47s-29.5 -25.333 -45.5 -42s-27.167 -34 -33.5 -52s-9.5 -38.333 -9.5 -61c0 -54 18 -94.667 54 -122s80.333 -41 133 -41c60.667 0 107.667 17.833 141 53.5s50.333 81.5 51 137.5h243z" />
    <glyph glyph-name="Agrave" unicode="&#xc0;" horiz-adv-x="1312" 
d="M314 0h-273l458 1365h316l456 -1365h-287l-107 344h-456zM656 1098h-12l-167 -546h346zM755 1504h-185l-281 321h229z" />
    <glyph glyph-name="Aacute" unicode="&#xc1;" horiz-adv-x="1312" 
d="M314 0h-273l458 1365h316l456 -1365h-287l-107 344h-456zM656 1098h-12l-167 -546h346zM557 1504l237 321h229l-281 -321h-185z" />
    <glyph glyph-name="Acircumflex" unicode="&#xc2;" horiz-adv-x="1312" 
d="M314 0h-273l458 1365h316l456 -1365h-287l-107 344h-456zM656 1098h-12l-167 -546h346zM746 1739l264 -249h-214l-136 128h-8l-144 -128h-212l273 249h177z" />
    <glyph glyph-name="Atilde" unicode="&#xc3;" horiz-adv-x="1312" 
d="M314 0h-273l458 1365h316l456 -1365h-287l-107 344h-456zM656 1098h-12l-167 -546h346zM785 1460c-30 0 -57.835 5.83203 -83.502 17.499s-45.834 24.5 -60.501 38.5s-30.667 26.833 -48 38.5s-34 17.5 -50 17.5c-23.333 0 -40.666 -9.83301 -51.999 -29.5
s-17.666 -42.167 -18.999 -67.5h-135c0 60 16.833 112.5 50.5 157.5s82.167 67.5 145.5 67.5c30 0 58.167 -5.83301 84.5 -17.5s47.333 -24.5 63 -38.5s32.834 -26.833 51.501 -38.5s36 -17.5 52 -17.5c22.667 0 40 9.33301 52 28s18.333 41.334 19 68.001h134
c0 -63.333 -18.5 -116.5 -55.5 -159.5s-86.5 -64.5 -148.5 -64.5z" />
    <glyph glyph-name="Adieresis" unicode="&#xc4;" horiz-adv-x="1312" 
d="M314 0h-273l458 1365h316l456 -1365h-287l-107 344h-456zM656 1098h-12l-167 -546h346zM846 1463c-36 0 -65.168 11 -87.501 33s-33.5 50 -33.5 84s11.167 62.167 33.5 84.5s51.5 33.5 87.5 33.5s65 -11 87 -33s33 -50.333 33 -85c0 -34 -11.167 -62 -33.5 -84
s-51.166 -33 -86.499 -33zM465.999 1463c-35.333 0 -64.167 11 -86.5 33s-33.5 50 -33.5 84c0 34.667 11 63 33 85s51 33 87 33s65.167 -11.167 87.5 -33.5s33.5 -50.5 33.5 -84.5s-11.167 -62 -33.5 -84s-51.5 -33 -87.5 -33z" />
    <glyph glyph-name="Aring" unicode="&#xc5;" horiz-adv-x="1312" 
d="M314 0h-273l458 1365h316l456 -1365h-287l-107 344h-456zM656 1098h-12l-167 -546h346zM656 1468c-61.333 0 -112.333 19.6689 -153 59.002s-61 89.666 -61 150.999c0 60.667 20.5 110.667 61.5 150s91.833 59 152.5 59s111.5 -19.667 152.5 -59s61.5 -89.333 61.5 -150
s-20.5 -110.834 -61.5 -150.501s-91.833 -59.5 -152.5 -59.5zM562 1677c0 -26.667 9 -49 27 -67s40.333 -27 67 -27s48.834 9 66.501 27s26.5 40.333 26.5 67s-8.83301 49 -26.5 67s-39.834 27 -66.501 27s-49 -9 -67 -27s-27 -40.333 -27 -67z" />
    <glyph glyph-name="AE" unicode="&#xc6;" horiz-adv-x="1944" 
d="M872 1137l-278 -589h346v589h-68zM940 333h-437l-171 -333h-298l671 1365h1109v-228h-607v-340h571v-214h-571v-354h607v-229h-874v333z" />
    <glyph glyph-name="Ccedilla" unicode="&#xc7;" horiz-adv-x="1332" 
d="M656 -483c-52 0 -96.666 5.33398 -133.999 16.001v124c32 -8.66699 69.333 -13 112 -13c74 0 111 20.333 111 61c0 21.333 -9.33301 36.666 -28 45.999s-53.334 14 -104.001 14h-55v102l43 112c-155.333 16.667 -275 79.167 -359 187.5s-126 251.833 -126 430.5v167
c0 194 50.333 347 151 459s240.667 168 420 168c155.333 0 283.5 -45 384.5 -135s151.5 -205.667 151.5 -347v-28h-260c0 78 -25.667 143 -77 195s-117.333 78 -198 78c-94 0 -167 -34.167 -219 -102.5s-78 -164.833 -78 -289.5v-165
c0 -124.667 25.833 -220.167 77.5 -286.5s125.834 -99.5 222.501 -99.5c82.667 0 148.667 24.167 198 72.5s74 110.833 74 187.5h260v-29c0 -125.333 -43.833 -230.833 -131.5 -316.5s-199.834 -134.834 -336.501 -147.501l-38 -96c61.333 0 109.333 -15.167 144 -45.5
s52 -71.166 52 -122.499c0 -64.667 -22.333 -113.667 -67 -147s-108 -50 -190 -50z" />
    <glyph glyph-name="Egrave" unicode="&#xc8;" horiz-adv-x="1179" 
d="M1050 229v-229h-879v1365h879v-229h-611v-339h575v-214h-575v-354h611zM702 1504h-185l-281 321h229z" />
    <glyph glyph-name="Eacute" unicode="&#xc9;" horiz-adv-x="1179" 
d="M1050 229v-229h-879v1365h879v-229h-611v-339h575v-214h-575v-354h611zM504 1504l237 321h229l-281 -321h-185z" />
    <glyph glyph-name="Ecircumflex" unicode="&#xca;" horiz-adv-x="1179" 
d="M1050 229v-229h-879v1365h879v-229h-611v-339h575v-214h-575v-354h611zM693 1739l264 -249h-214l-136 128h-8l-144 -128h-212l273 249h177z" />
    <glyph glyph-name="Edieresis" unicode="&#xcb;" horiz-adv-x="1179" 
d="M1050 229v-229h-879v1365h879v-229h-611v-339h575v-214h-575v-354h611zM792 1463c-36 0 -65.168 11 -87.501 33s-33.5 50 -33.5 84s11.167 62.167 33.5 84.5s51.5 33.5 87.5 33.5s65 -11 87 -33s33 -50.333 33 -85c0 -34 -11.167 -62 -33.5 -84s-51.166 -33 -86.499 -33z
M411.999 1463c-35.333 0 -64.167 11 -86.5 33s-33.5 50 -33.5 84c0 34.667 11 63 33 85s51 33 87 33s65.167 -11.167 87.5 -33.5s33.5 -50.5 33.5 -84.5s-11.167 -62 -33.5 -84s-51.5 -33 -87.5 -33z" />
    <glyph glyph-name="Igrave" unicode="&#xcc;" horiz-adv-x="612" 
d="M441 0h-270v1365h270v-1365zM405 1504h-185l-281 321h229z" />
    <glyph glyph-name="Iacute" unicode="&#xcd;" horiz-adv-x="612" 
d="M441 0h-270v1365h270v-1365zM207 1504l237 321h229l-281 -321h-185z" />
    <glyph glyph-name="Icircumflex" unicode="&#xce;" horiz-adv-x="612" 
d="M441 0h-270v1365h270v-1365zM396 1739l264 -249h-214l-136 128h-8l-144 -128h-212l273 249h177z" />
    <glyph glyph-name="Idieresis" unicode="&#xcf;" horiz-adv-x="612" 
d="M441 0h-270v1365h270v-1365zM496 1463c-36 0 -65.168 11 -87.501 33s-33.5 50 -33.5 84s11.167 62.167 33.5 84.5s51.5 33.5 87.5 33.5s65 -11 87 -33s33 -50.333 33 -85c0 -34 -11.167 -62 -33.5 -84s-51.166 -33 -86.499 -33zM115.999 1463
c-35.333 0 -64.167 11 -86.5 33s-33.5 50 -33.5 84c0 34.667 11 63 33 85s51 33 87 33s65.167 -11.167 87.5 -33.5s33.5 -50.5 33.5 -84.5s-11.167 -62 -33.5 -84s-51.5 -33 -87.5 -33z" />
    <glyph glyph-name="Eth" unicode="&#xd0;" horiz-adv-x="1468" 
d="M757 0h-498v570h-165v245h165v550h498c204 0 356.833 -58.5 458.5 -175.5s152.5 -284.833 152.5 -503.5c0 -220 -51.167 -389.333 -153.5 -508s-254.833 -178 -457.5 -178zM529 234h191c126 0 218.833 36 278.5 108s89.5 186.667 89.5 344c0 158 -30 273.5 -90 346.5
s-152.667 109.5 -278 109.5h-191v-327h246v-245h-246v-336z" />
    <glyph glyph-name="Ntilde" unicode="&#xd1;" horiz-adv-x="1433" 
d="M426 0h-255v1365h226l598 -889h11v889h256v-1365h-224l-601 895h-11v-895zM845 1460c-30 0 -57.835 5.83203 -83.502 17.499s-45.834 24.5 -60.501 38.5s-30.667 26.833 -48 38.5s-34 17.5 -50 17.5c-23.333 0 -40.666 -9.83301 -51.999 -29.5
s-17.666 -42.167 -18.999 -67.5h-135c0 60 16.833 112.5 50.5 157.5s82.167 67.5 145.5 67.5c30 0 58.167 -5.83301 84.5 -17.5s47.333 -24.5 63 -38.5s32.834 -26.833 51.501 -38.5s36 -17.5 52 -17.5c22.667 0 40 9.33301 52 28s18.333 41.334 19 68.001h134
c0 -63.333 -18.5 -116.5 -55.5 -159.5s-86.5 -64.5 -148.5 -64.5z" />
    <glyph glyph-name="Ograve" unicode="&#xd2;" horiz-adv-x="1401" 
d="M1011 770c0 125.333 -28.333 221.166 -85 287.499s-131.667 99.5 -225 99.5c-94 0 -169.167 -33.167 -225.5 -99.5s-84.5 -162.166 -84.5 -287.499v-175c0 -126 28.167 -222.167 84.5 -288.5s131.5 -99.5 225.5 -99.5c93.333 0 168.333 33.333 225 100s85 162.667 85 288
v175zM1285 596c0 -193.333 -51.834 -345.333 -155.501 -456s-246.5 -166 -428.5 -166s-325 55.333 -429 166s-156 262.667 -156 456v171c0 194 51.833 346.5 155.5 457.5s246.834 166.5 429.501 166.5c182 0 324.833 -55.5 428.5 -166.5s155.5 -263.5 155.5 -457.5v-171z
M799.999 1504h-185l-281 321h229z" />
    <glyph glyph-name="Oacute" unicode="&#xd3;" horiz-adv-x="1401" 
d="M1011 770c0 125.333 -28.333 221.166 -85 287.499s-131.667 99.5 -225 99.5c-94 0 -169.167 -33.167 -225.5 -99.5s-84.5 -162.166 -84.5 -287.499v-175c0 -126 28.167 -222.167 84.5 -288.5s131.5 -99.5 225.5 -99.5c93.333 0 168.333 33.333 225 100s85 162.667 85 288
v175zM1285 596c0 -193.333 -51.834 -345.333 -155.501 -456s-246.5 -166 -428.5 -166s-325 55.333 -429 166s-156 262.667 -156 456v171c0 194 51.833 346.5 155.5 457.5s246.834 166.5 429.501 166.5c182 0 324.833 -55.5 428.5 -166.5s155.5 -263.5 155.5 -457.5v-171z
M601.999 1504l237 321h229l-281 -321h-185z" />
    <glyph glyph-name="Ocircumflex" unicode="&#xd4;" horiz-adv-x="1401" 
d="M1011 770c0 125.333 -28.333 221.166 -85 287.499s-131.667 99.5 -225 99.5c-94 0 -169.167 -33.167 -225.5 -99.5s-84.5 -162.166 -84.5 -287.499v-175c0 -126 28.167 -222.167 84.5 -288.5s131.5 -99.5 225.5 -99.5c93.333 0 168.333 33.333 225 100s85 162.667 85 288
v175zM1285 596c0 -193.333 -51.834 -345.333 -155.501 -456s-246.5 -166 -428.5 -166s-325 55.333 -429 166s-156 262.667 -156 456v171c0 194 51.833 346.5 155.5 457.5s246.834 166.5 429.501 166.5c182 0 324.833 -55.5 428.5 -166.5s155.5 -263.5 155.5 -457.5v-171z
M790.999 1739l264 -249h-214l-136 128h-8l-144 -128h-212l273 249h177z" />
    <glyph glyph-name="Otilde" unicode="&#xd5;" horiz-adv-x="1401" 
d="M1011 770c0 125.333 -28.333 221.166 -85 287.499s-131.667 99.5 -225 99.5c-94 0 -169.167 -33.167 -225.5 -99.5s-84.5 -162.166 -84.5 -287.499v-175c0 -126 28.167 -222.167 84.5 -288.5s131.5 -99.5 225.5 -99.5c93.333 0 168.333 33.333 225 100s85 162.667 85 288
v175zM1285 596c0 -193.333 -51.834 -345.333 -155.501 -456s-246.5 -166 -428.5 -166s-325 55.333 -429 166s-156 262.667 -156 456v171c0 194 51.833 346.5 155.5 457.5s246.834 166.5 429.501 166.5c182 0 324.833 -55.5 428.5 -166.5s155.5 -263.5 155.5 -457.5v-171z
M829.999 1460c-30 0 -57.835 5.83203 -83.502 17.499s-45.834 24.5 -60.501 38.5s-30.667 26.833 -48 38.5s-34 17.5 -50 17.5c-23.333 0 -40.666 -9.83301 -51.999 -29.5s-17.666 -42.167 -18.999 -67.5h-135c0 60 16.833 112.5 50.5 157.5s82.167 67.5 145.5 67.5
c30 0 58.167 -5.83301 84.5 -17.5s47.333 -24.5 63 -38.5s32.834 -26.833 51.501 -38.5s36 -17.5 52 -17.5c22.667 0 40 9.33301 52 28s18.333 41.334 19 68.001h134c0 -63.333 -18.5 -116.5 -55.5 -159.5s-86.5 -64.5 -148.5 -64.5z" />
    <glyph glyph-name="Odieresis" unicode="&#xd6;" horiz-adv-x="1401" 
d="M1011 770c0 125.333 -28.333 221.166 -85 287.499s-131.667 99.5 -225 99.5c-94 0 -169.167 -33.167 -225.5 -99.5s-84.5 -162.166 -84.5 -287.499v-175c0 -126 28.167 -222.167 84.5 -288.5s131.5 -99.5 225.5 -99.5c93.333 0 168.333 33.333 225 100s85 162.667 85 288
v175zM1285 596c0 -193.333 -51.834 -345.333 -155.501 -456s-246.5 -166 -428.5 -166s-325 55.333 -429 166s-156 262.667 -156 456v171c0 194 51.833 346.5 155.5 457.5s246.834 166.5 429.501 166.5c182 0 324.833 -55.5 428.5 -166.5s155.5 -263.5 155.5 -457.5v-171z
M889.999 1463c-36 0 -65.168 11 -87.501 33s-33.5 50 -33.5 84s11.167 62.167 33.5 84.5s51.5 33.5 87.5 33.5s65 -11 87 -33s33 -50.333 33 -85c0 -34 -11.167 -62 -33.5 -84s-51.166 -33 -86.499 -33zM509.998 1463c-35.333 0 -64.167 11 -86.5 33s-33.5 50 -33.5 84
c0 34.667 11 63 33 85s51 33 87 33s65.167 -11.167 87.5 -33.5s33.5 -50.5 33.5 -84.5s-11.167 -62 -33.5 -84s-51.5 -33 -87.5 -33z" />
    <glyph glyph-name="multiply" unicode="&#xd7;" horiz-adv-x="1221" 
d="M915 61l-304 304l-305 -304l-160 168l303 303l-303 304l160 167l305 -303l303 303l161 -167l-304 -304l304 -303z" />
    <glyph glyph-name="Oslash" unicode="&#xd8;" horiz-adv-x="1401" 
d="M699 -26c-154 0 -279.667 40.001 -377 120.001l-99 -122l-121 101l112 138c-65.333 102 -98 229 -98 381v171c0 194 52 347.167 156 459.5s247 168.5 429 168.5c150 0 274.333 -39.333 373 -118l89 109l126 -94l-108 -131c69.333 -104 104 -235.333 104 -394v-171
c0 -192.667 -52 -343.834 -156 -453.501s-247.333 -164.5 -430 -164.5zM384 588.001c0 -52 6.66797 -96.999 20.001 -134.999l513 621c-55.333 59.333 -128 89 -218 89c-94.667 0 -170.834 -34.333 -228.501 -103s-86.5 -166.334 -86.5 -293.001v-179zM699.001 200.002
c96 0 172.834 33 230.501 99s86.5 162.333 86.5 289v179c0 54.667 -8 104 -24 148l-516 -625c55.333 -60 129.666 -90 222.999 -90z" />
    <glyph glyph-name="Ugrave" unicode="&#xd9;" horiz-adv-x="1413" 
d="M707 212c85.333 0 153.332 25.167 203.999 75.5s76 120.833 76 211.5v866h271v-894c0 -150 -50 -270.333 -150 -361s-233.667 -136 -401 -136s-301.166 45.333 -401.499 136s-150.5 211 -150.5 361v894h271v-866c0 -91.333 25.333 -162 76 -212s119 -75 205 -75z
M805.999 1504h-185l-281 321h229z" />
    <glyph glyph-name="Uacute" unicode="&#xda;" horiz-adv-x="1413" 
d="M707 212c85.333 0 153.332 25.167 203.999 75.5s76 120.833 76 211.5v866h271v-894c0 -150 -50 -270.333 -150 -361s-233.667 -136 -401 -136s-301.166 45.333 -401.499 136s-150.5 211 -150.5 361v894h271v-866c0 -91.333 25.333 -162 76 -212s119 -75 205 -75z
M607.999 1504l237 321h229l-281 -321h-185z" />
    <glyph glyph-name="Ucircumflex" unicode="&#xdb;" horiz-adv-x="1413" 
d="M707 212c85.333 0 153.332 25.167 203.999 75.5s76 120.833 76 211.5v866h271v-894c0 -150 -50 -270.333 -150 -361s-233.667 -136 -401 -136s-301.166 45.333 -401.499 136s-150.5 211 -150.5 361v894h271v-866c0 -91.333 25.333 -162 76 -212s119 -75 205 -75z
M796.999 1739l264 -249h-214l-136 128h-8l-144 -128h-212l273 249h177z" />
    <glyph glyph-name="Udieresis" unicode="&#xdc;" horiz-adv-x="1413" 
d="M707 212c85.333 0 153.332 25.167 203.999 75.5s76 120.833 76 211.5v866h271v-894c0 -150 -50 -270.333 -150 -361s-233.667 -136 -401 -136s-301.166 45.333 -401.499 136s-150.5 211 -150.5 361v894h271v-866c0 -91.333 25.333 -162 76 -212s119 -75 205 -75z
M895.999 1463c-36 0 -65.168 11 -87.501 33s-33.5 50 -33.5 84s11.167 62.167 33.5 84.5s51.5 33.5 87.5 33.5s65 -11 87 -33s33 -50.333 33 -85c0 -34 -11.167 -62 -33.5 -84s-51.166 -33 -86.499 -33zM515.998 1463c-35.333 0 -64.167 11 -86.5 33s-33.5 50 -33.5 84
c0 34.667 11 63 33 85s51 33 87 33s65.167 -11.167 87.5 -33.5s33.5 -50.5 33.5 -84.5s-11.167 -62 -33.5 -84s-51.5 -33 -87.5 -33z" />
    <glyph glyph-name="Yacute" unicode="&#xdd;" horiz-adv-x="1205" 
d="M738 0h-271v511l-457 854h300l290 -576h11l292 576h292l-457 -848v-517zM503 1504l237 321h229l-281 -321h-185z" />
    <glyph glyph-name="Thorn" unicode="&#xde;" horiz-adv-x="1247" 
d="M892 701c0 71.333 -20.333 125 -61 161s-99.667 54 -177 54h-214v-430h214c77.333 0 136.333 18.333 177 55s61 90 61 160zM1167 701c0 -130 -40.5 -234.667 -121.5 -314s-195.167 -119 -342.5 -119h-262v-268h-270v1365h270v-227h265
c146.667 0 260.167 -40.5 340.5 -121.5s120.5 -186.167 120.5 -315.5z" />
    <glyph glyph-name="germandbls" unicode="&#xdf;" horiz-adv-x="1359" 
d="M431 0l-263.999 0.000976562v1048c0 86.667 21.667 160.334 65 221.001s100.666 105.167 171.999 133.5s153 42.833 245 43.5c144.667 0 260.667 -33.667 348 -101s130.666 -154.333 129.999 -261c0 -46.667 -7.66699 -89.667 -23 -129s-35 -71.833 -59 -97.5
s-49.5 -46.334 -76.5 -62.001s-53.833 -25.834 -80.5 -30.501v-16c45.333 -0.666992 89.5 -8.66699 132.5 -24s82 -37.5 117 -66.5s63.167 -66.833 84.5 -113.5s32 -98.667 32 -156c0 -66.667 -13.167 -126.167 -39.5 -178.5s-62.333 -94.833 -108 -127.5
s-97.5 -57.5 -155.5 -74.5s-120 -25.5 -186 -25.5c-73.333 0 -131.666 6.33301 -174.999 19v216c34.667 -13.333 80 -20 136 -20c74.667 0 136.5 16.833 185.5 50.5s73.5 84.5 73.5 152.5c0 66.667 -27 118.334 -81 155.001s-124.333 55 -211 55h-78v229h47
c54 0 102 18.667 144 56s63 84.666 63 141.999c0 55.333 -18.833 100.5 -56.5 135.5s-90.5 52.5 -158.5 52.5c-148.667 0 -223 -77.667 -223 -233v-993z" />
    <glyph glyph-name="agrave" unicode="&#xe0;" horiz-adv-x="1149" 
d="M451 -16c-104.667 0 -188.998 29.168 -252.998 87.501s-96 137.166 -96 236.499c0 97.333 32.833 174.666 98.5 231.999s158.834 86 279.501 86h259v93c0 50.667 -15.667 88.834 -47 114.501s-74.666 38.5 -129.999 38.5c-100 0 -157.333 -37.333 -172 -112h-249
c6.66699 94 45.167 170.667 115.5 230s174.166 89 311.499 89c62 0 118.167 -6.66699 168.5 -20s95.666 -33.833 135.999 -61.5s71.666 -65.834 93.999 -114.501s33.5 -105.667 33.5 -171v-712h-249v134h-12c-24 -43.333 -59.833 -79.166 -107.5 -107.499
s-107.834 -42.5 -180.501 -42.5zM537.002 184.001c56 0 103.667 16.167 143 48.5s59 72.833 59 121.5v109h-203c-56.667 0 -99.5 -12.333 -128.5 -37s-43.5 -57.667 -43.5 -99c0 -46 16.667 -81.333 50 -106s74.333 -37 123 -37zM696.002 1231h-193l-280 354h235z" />
    <glyph glyph-name="aacute" unicode="&#xe1;" horiz-adv-x="1149" 
d="M451 -16c-104.667 0 -188.998 29.168 -252.998 87.501s-96 137.166 -96 236.499c0 97.333 32.833 174.666 98.5 231.999s158.834 86 279.501 86h259v93c0 50.667 -15.667 88.834 -47 114.501s-74.666 38.5 -129.999 38.5c-100 0 -157.333 -37.333 -172 -112h-249
c6.66699 94 45.167 170.667 115.5 230s174.166 89 311.499 89c62 0 118.167 -6.66699 168.5 -20s95.666 -33.833 135.999 -61.5s71.666 -65.834 93.999 -114.501s33.5 -105.667 33.5 -171v-712h-249v134h-12c-24 -43.333 -59.833 -79.166 -107.5 -107.499
s-107.834 -42.5 -180.501 -42.5zM537.002 184.001c56 0 103.667 16.167 143 48.5s59 72.833 59 121.5v109h-203c-56.667 0 -99.5 -12.333 -128.5 -37s-43.5 -57.667 -43.5 -99c0 -46 16.667 -81.333 50 -106s74.333 -37 123 -37zM463.002 1231l237 354h235l-280 -354h-192z
" />
    <glyph glyph-name="acircumflex" unicode="&#xe2;" horiz-adv-x="1149" 
d="M451 -16c-104.667 0 -188.998 29.168 -252.998 87.501s-96 137.166 -96 236.499c0 97.333 32.833 174.666 98.5 231.999s158.834 86 279.501 86h259v93c0 50.667 -15.667 88.834 -47 114.501s-74.666 38.5 -129.999 38.5c-100 0 -157.333 -37.333 -172 -112h-249
c6.66699 94 45.167 170.667 115.5 230s174.166 89 311.499 89c62 0 118.167 -6.66699 168.5 -20s95.666 -33.833 135.999 -61.5s71.666 -65.834 93.999 -114.501s33.5 -105.667 33.5 -171v-712h-249v134h-12c-24 -43.333 -59.833 -79.166 -107.5 -107.499
s-107.834 -42.5 -180.501 -42.5zM537.002 184.001c56 0 103.667 16.167 143 48.5s59 72.833 59 121.5v109h-203c-56.667 0 -99.5 -12.333 -128.5 -37s-43.5 -57.667 -43.5 -99c0 -46 16.667 -81.333 50 -106s74.333 -37 123 -37zM232.002 1231l250 355h187l250 -355h-205
l-134 214h-10l-133 -214h-205z" />
    <glyph glyph-name="atilde" unicode="&#xe3;" horiz-adv-x="1149" 
d="M451 -16c-104.667 0 -188.998 29.168 -252.998 87.501s-96 137.166 -96 236.499c0 97.333 32.833 174.666 98.5 231.999s158.834 86 279.501 86h259v93c0 50.667 -15.667 88.834 -47 114.501s-74.666 38.5 -129.999 38.5c-100 0 -157.333 -37.333 -172 -112h-249
c6.66699 94 45.167 170.667 115.5 230s174.166 89 311.499 89c62 0 118.167 -6.66699 168.5 -20s95.666 -33.833 135.999 -61.5s71.666 -65.834 93.999 -114.501s33.5 -105.667 33.5 -171v-712h-249v134h-12c-24 -43.333 -59.833 -79.166 -107.5 -107.499
s-107.834 -42.5 -180.501 -42.5zM537.002 184.001c56 0 103.667 16.167 143 48.5s59 72.833 59 121.5v109h-203c-56.667 0 -99.5 -12.333 -128.5 -37s-43.5 -57.667 -43.5 -99c0 -46 16.667 -81.333 50 -106s74.333 -37 123 -37zM704.002 1216
c-24 0 -46.168 4.33301 -66.501 13s-37.166 19.334 -50.499 32.001s-25.833 25.334 -37.5 38.001s-24.334 23.334 -38.001 32.001s-27.5 13 -41.5 13c-43.333 0 -67.666 -38 -72.999 -114h-145c0 80.667 18 146 54 196s86.667 75 152 75c26 0 49.667 -4.33301 71 -13
s39 -19.334 53 -32.001s27 -25.334 39 -38.001s24.5 -23.334 37.5 -32.001s25.833 -13 38.5 -13c40.667 0 63 38 67 114h145c0 -79.333 -18.833 -144.333 -56.5 -195s-87.167 -76 -148.5 -76z" />
    <glyph glyph-name="adieresis" unicode="&#xe4;" horiz-adv-x="1149" 
d="M451 -16c-104.667 0 -188.998 29.168 -252.998 87.501s-96 137.166 -96 236.499c0 97.333 32.833 174.666 98.5 231.999s158.834 86 279.501 86h259v93c0 50.667 -15.667 88.834 -47 114.501s-74.666 38.5 -129.999 38.5c-100 0 -157.333 -37.333 -172 -112h-249
c6.66699 94 45.167 170.667 115.5 230s174.166 89 311.499 89c62 0 118.167 -6.66699 168.5 -20s95.666 -33.833 135.999 -61.5s71.666 -65.834 93.999 -114.501s33.5 -105.667 33.5 -171v-712h-249v134h-12c-24 -43.333 -59.833 -79.166 -107.5 -107.499
s-107.834 -42.5 -180.501 -42.5zM537.002 184.001c56 0 103.667 16.167 143 48.5s59 72.833 59 121.5v109h-203c-56.667 0 -99.5 -12.333 -128.5 -37s-43.5 -57.667 -43.5 -99c0 -46 16.667 -81.333 50 -106s74.333 -37 123 -37zM775.002 1216
c-37.333 0 -67.833 11.5 -91.5 34.5s-35.5 52.5 -35.5 88.5c0 36.667 11.833 66.334 35.5 89.001s54.167 34 91.5 34c38 0 68.833 -11.333 92.5 -34s35.5 -52.334 35.5 -89.001c0 -36 -11.833 -65.5 -35.5 -88.5s-54.5 -34.5 -92.5 -34.5zM374.002 1216
c-37.333 0 -67.833 11.5 -91.5 34.5s-35.5 52.5 -35.5 88.5c0 36.667 11.833 66.334 35.5 89.001s54.167 34 91.5 34c38 0 68.833 -11.333 92.5 -34s35.5 -52.334 35.5 -89.001c0 -36 -11.833 -65.5 -35.5 -88.5s-54.5 -34.5 -92.5 -34.5z" />
    <glyph glyph-name="aring" unicode="&#xe5;" horiz-adv-x="1149" 
d="M451 -16c-104.667 0 -188.998 29.168 -252.998 87.501s-96 137.166 -96 236.499c0 97.333 32.833 174.666 98.5 231.999s158.834 86 279.501 86h259v93c0 50.667 -15.667 88.834 -47 114.501s-74.666 38.5 -129.999 38.5c-100 0 -157.333 -37.333 -172 -112h-249
c6.66699 94 45.167 170.667 115.5 230s174.166 89 311.499 89c62 0 118.167 -6.66699 168.5 -20s95.666 -33.833 135.999 -61.5s71.666 -65.834 93.999 -114.501s33.5 -105.667 33.5 -171v-712h-249v134h-12c-24 -43.333 -59.833 -79.166 -107.5 -107.499
s-107.834 -42.5 -180.501 -42.5zM537.002 184.001c56 0 103.667 16.167 143 48.5s59 72.833 59 121.5v109h-203c-56.667 0 -99.5 -12.333 -128.5 -37s-43.5 -57.667 -43.5 -99c0 -46 16.667 -81.333 50 -106s74.333 -37 123 -37zM575.002 1218
c-61.333 0 -112.333 19.6689 -153 59.002s-61 89.666 -61 150.999c0 60.667 20.5 110.667 61.5 150s91.833 59 152.5 59s111.5 -19.667 152.5 -59s61.5 -89.333 61.5 -150s-20.5 -110.834 -61.5 -150.501s-91.833 -59.5 -152.5 -59.5zM481.002 1427c0 -26.667 9 -49 27 -67
s40.333 -27 67 -27s48.834 9 66.501 27s26.5 40.333 26.5 67s-8.83301 49 -26.5 67s-39.834 27 -66.501 27s-49 -9 -67 -27s-27 -40.333 -27 -67z" />
    <glyph glyph-name="ae" unicode="&#xe6;" horiz-adv-x="1795" 
d="M1239 -19c-99.333 0 -182.004 17.8311 -248.004 53.498s-113.333 82.834 -142 141.501h-15c-31.333 -55.333 -77.666 -101.666 -138.999 -138.999s-136 -56 -224 -56c-112.667 0 -202.667 29 -270 87s-101 137.667 -101 239c0 98.667 33.333 176.5 100 233.5
s161 85.5 283 85.5h258v93c0 50 -15.667 87.833 -47 113.5s-74.666 38.5 -129.999 38.5c-52 0 -92.667 -10 -122 -30s-47.333 -47 -54 -81h-249c2.66699 44.667 13.167 86 31.5 124s44.5 71.833 78.5 101.5s78.333 53 133 70s117.334 25.5 188.001 25.5
c70 0 134.333 -11.5 193 -34.5s103 -54.5 133 -94.5h16c30 40 73.167 71.5 129.5 94.5s117.833 34.5 184.5 34.5c138.667 0 250.334 -44 335.001 -132s127 -206.667 127 -356v-121h-674v-66c0 -64 20.833 -115.833 62.5 -155.5s95.5 -59.5 161.5 -59.5
c52.667 0 96.167 10.833 130.5 32.5s54.5 49.5 60.5 83.5h250c-2.66699 -36 -13.167 -72 -31.5 -108s-44.333 -70.833 -78 -104.5s-79.167 -61 -136.5 -82s-122 -31.5 -194 -31.5zM1227 877.998c-61.333 0 -112.167 -20.832 -152.5 -62.499s-60.5 -94.834 -60.5 -159.501
v-21h420v14c0 70 -18.5 125.667 -55.5 167s-87.5 62 -151.5 62zM537.995 181.999c56 0 103.833 16.332 143.5 48.999s59.5 73.334 59.5 122.001v110h-202c-57.333 0 -101.5 -12.333 -132.5 -37s-46.5 -57.667 -46.5 -99c0 -46 17.5 -81.667 52.5 -107s76.833 -38 125.5 -38z
" />
    <glyph glyph-name="ccedilla" unicode="&#xe7;" horiz-adv-x="1117" 
d="M562 -483c-52 0 -96.6641 5.33496 -133.997 16.002v124c30.667 -8.66699 68 -13 112 -13c73.333 0 110 20.333 110 61c0 21.333 -9.33301 36.666 -28 45.999s-53.334 14 -104.001 14h-54v102l45 118c-124.667 14 -222.667 63.333 -294 148s-107 197.667 -107 339v127
c0 146 42.5 263 127.5 351s199.833 132 344.5 132c134.667 0 240.834 -36 318.501 -108s117.5 -161.667 119.5 -269h-243c-4.66699 42.667 -22.334 80.167 -53.001 112.5s-75.667 48.5 -135 48.5c-68 0 -120.833 -24.333 -158.5 -73s-56.5 -114.334 -56.5 -197.001v-123
c0 -85.333 19.167 -152 57.5 -200s91.166 -72 158.499 -72c112 0 175.667 49 191 147h243c-2 -100.667 -34.333 -182.834 -97 -246.501s-149.667 -102.167 -261 -115.5l-41 -104c61.333 0 109.166 -15.167 143.499 -45.5s51.5 -71.166 51.5 -122.499
c0 -64.667 -22.333 -113.667 -67 -147s-107.667 -50 -189 -50z" />
    <glyph glyph-name="egrave" unicode="&#xe8;" horiz-adv-x="1151" 
d="M592 -19c-149.333 0 -267.332 42.667 -353.999 128s-130 206 -130 362v122c0 102.667 21 191.5 63 266.5s98.167 130.833 168.5 167.5s150.166 55 239.499 55c139.333 0 252.166 -44.167 338.499 -132.5s129.5 -207.166 129.5 -356.499v-121h-681v-51
c0 -68.667 20.333 -124.334 61 -167.001s95.334 -64 164.001 -64c52.667 0 97 11 133 33s57 50 63 84h250c-2 -28 -9 -56.5 -21 -85.5s-30 -58 -54 -87s-52.5 -54.833 -85.5 -77.5s-74.167 -41 -123.5 -55s-103 -21 -161 -21zM366.001 635h426v10
c0 70 -19.333 126.333 -58 169s-90 64 -154 64s-115.667 -21.333 -155 -64s-59 -99 -59 -169v-10zM697.001 1231h-193l-280 354h235z" />
    <glyph glyph-name="eacute" unicode="&#xe9;" horiz-adv-x="1151" 
d="M592 -19c-149.333 0 -267.332 42.667 -353.999 128s-130 206 -130 362v122c0 102.667 21 191.5 63 266.5s98.167 130.833 168.5 167.5s150.166 55 239.499 55c139.333 0 252.166 -44.167 338.499 -132.5s129.5 -207.166 129.5 -356.499v-121h-681v-51
c0 -68.667 20.333 -124.334 61 -167.001s95.334 -64 164.001 -64c52.667 0 97 11 133 33s57 50 63 84h250c-2 -28 -9 -56.5 -21 -85.5s-30 -58 -54 -87s-52.5 -54.833 -85.5 -77.5s-74.167 -41 -123.5 -55s-103 -21 -161 -21zM366.001 635h426v10
c0 70 -19.333 126.333 -58 169s-90 64 -154 64s-115.667 -21.333 -155 -64s-59 -99 -59 -169v-10zM464.001 1231l237 354h235l-280 -354h-192z" />
    <glyph glyph-name="ecircumflex" unicode="&#xea;" horiz-adv-x="1151" 
d="M592 -19c-149.333 0 -267.332 42.667 -353.999 128s-130 206 -130 362v122c0 102.667 21 191.5 63 266.5s98.167 130.833 168.5 167.5s150.166 55 239.499 55c139.333 0 252.166 -44.167 338.499 -132.5s129.5 -207.166 129.5 -356.499v-121h-681v-51
c0 -68.667 20.333 -124.334 61 -167.001s95.334 -64 164.001 -64c52.667 0 97 11 133 33s57 50 63 84h250c-2 -28 -9 -56.5 -21 -85.5s-30 -58 -54 -87s-52.5 -54.833 -85.5 -77.5s-74.167 -41 -123.5 -55s-103 -21 -161 -21zM366.001 635h426v10
c0 70 -19.333 126.333 -58 169s-90 64 -154 64s-115.667 -21.333 -155 -64s-59 -99 -59 -169v-10zM233.001 1231l250 355h187l250 -355h-205l-134 214h-10l-133 -214h-205z" />
    <glyph glyph-name="edieresis" unicode="&#xeb;" horiz-adv-x="1151" 
d="M592 -19c-149.333 0 -267.332 42.667 -353.999 128s-130 206 -130 362v122c0 102.667 21 191.5 63 266.5s98.167 130.833 168.5 167.5s150.166 55 239.499 55c139.333 0 252.166 -44.167 338.499 -132.5s129.5 -207.166 129.5 -356.499v-121h-681v-51
c0 -68.667 20.333 -124.334 61 -167.001s95.334 -64 164.001 -64c52.667 0 97 11 133 33s57 50 63 84h250c-2 -28 -9 -56.5 -21 -85.5s-30 -58 -54 -87s-52.5 -54.833 -85.5 -77.5s-74.167 -41 -123.5 -55s-103 -21 -161 -21zM366.001 635h426v10
c0 70 -19.333 126.333 -58 169s-90 64 -154 64s-115.667 -21.333 -155 -64s-59 -99 -59 -169v-10zM776.001 1216c-37.333 0 -67.833 11.5 -91.5 34.5s-35.5 52.5 -35.5 88.5c0 36.667 11.833 66.334 35.5 89.001s54.167 34 91.5 34c38 0 68.833 -11.333 92.5 -34
s35.5 -52.334 35.5 -89.001c0 -36 -11.833 -65.5 -35.5 -88.5s-54.5 -34.5 -92.5 -34.5zM375.001 1216c-37.333 0 -67.833 11.5 -91.5 34.5s-35.5 52.5 -35.5 88.5c0 36.667 11.833 66.334 35.5 89.001s54.167 34 91.5 34c38 0 68.833 -11.333 92.5 -34
s35.5 -52.334 35.5 -89.001c0 -36 -11.833 -65.5 -35.5 -88.5s-54.5 -34.5 -92.5 -34.5z" />
    <glyph glyph-name="igrave" unicode="&#xec;" horiz-adv-x="616" 
d="M176 0v1063h263v-1063h-263zM429 1231h-193l-280 354h235z" />
    <glyph glyph-name="iacute" unicode="&#xed;" horiz-adv-x="616" 
d="M176 0v1063h263v-1063h-263zM196 1231l237 354h235l-280 -354h-192z" />
    <glyph glyph-name="icircumflex" unicode="&#xee;" horiz-adv-x="616" 
d="M176 0v1063h263v-1063h-263zM-35 1231l250 355h187l250 -355h-205l-134 214h-10l-133 -214h-205z" />
    <glyph glyph-name="idieresis" unicode="&#xef;" horiz-adv-x="616" 
d="M176 0v1063h263v-1063h-263zM508 1216c-37.333 0 -67.833 11.5 -91.5 34.5s-35.5 52.5 -35.5 88.5c0 36.667 11.833 66.334 35.5 89.001s54.167 34 91.5 34c38 0 68.833 -11.333 92.5 -34s35.5 -52.334 35.5 -89.001c0 -36 -11.833 -65.5 -35.5 -88.5
s-54.5 -34.5 -92.5 -34.5zM107 1216c-37.333 0 -67.833 11.5 -91.5 34.5s-35.5 52.5 -35.5 88.5c0 36.667 11.833 66.334 35.5 89.001s54.167 34 91.5 34c38 0 68.833 -11.333 92.5 -34s35.5 -52.334 35.5 -89.001c0 -36 -11.833 -65.5 -35.5 -88.5s-54.5 -34.5 -92.5 -34.5
z" />
    <glyph glyph-name="eth" unicode="&#xf0;" horiz-adv-x="1187" 
d="M595 -19c-154.667 0 -274.499 45.168 -359.499 135.501s-127.5 214.166 -127.5 371.499v43c0 150.667 37.167 271.667 111.5 363s177.5 137 309.5 137c108 0 187.667 -33.333 239 -100h13c-2.66699 9.33301 -9.33398 28.333 -20.001 57
c-33.333 82.667 -77.333 157 -132 223l-258 -100l-55 129l212 80c-79.333 81.333 -156 152.333 -230 213h310c47.333 -34 94 -74.667 140 -122l258 97l52 -126l-206 -78c151.333 -198 227 -430.667 227 -698v-108c0 -158.667 -41.5 -284.5 -124.5 -377.5
s-202.833 -139.5 -359.5 -139.5zM595.001 822.001c-71.333 0 -126.833 -23.999 -166.5 -71.999s-59.5 -117.667 -59.5 -209v-58c0 -92 19.833 -162.5 59.5 -211.5s95.167 -73.5 166.5 -73.5c70.667 0 125.834 24.833 165.501 74.5s59.5 120.5 59.5 212.5v55
c0 91.333 -19.833 161.166 -59.5 209.499s-94.834 72.5 -165.501 72.5z" />
    <glyph glyph-name="ntilde" unicode="&#xf1;" horiz-adv-x="1249" 
d="M157 0l0.00195312 1063h257v-187h13c7.33301 23.333 18 45.666 32 66.999s32.833 42.833 56.5 64.5s55.167 39 94.5 52s83.666 19.5 132.999 19.5c109.333 0 195.666 -31.333 258.999 -94s95 -154.334 95 -275.001v-710h-263v634c0 73.333 -17.333 127.5 -52 162.5
s-81 52.5 -139 52.5c-70 0 -124.667 -23.5 -164 -70.5s-59 -110.167 -59 -189.5v-589h-263zM753.002 1216c-24 0 -46.168 4.33301 -66.501 13s-37.166 19.334 -50.499 32.001s-25.833 25.334 -37.5 38.001s-24.334 23.334 -38.001 32.001s-27.5 13 -41.5 13
c-43.333 0 -67.666 -38 -72.999 -114h-145c0 80.667 18 146 54 196s86.667 75 152 75c26 0 49.667 -4.33301 71 -13s39 -19.334 53 -32.001s27 -25.334 39 -38.001s24.5 -23.334 37.5 -32.001s25.833 -13 38.5 -13c40.667 0 63 38 67 114h145
c0 -79.333 -18.833 -144.333 -56.5 -195s-87.167 -76 -148.5 -76z" />
    <glyph glyph-name="ograve" unicode="&#xf2;" horiz-adv-x="1187" 
d="M595 1082c146 0 263.167 -44.332 351.5 -132.999s132.5 -208 132.5 -358v-113c0 -156.667 -43.833 -278.667 -131.5 -366s-205.167 -131 -352.5 -131c-149.333 0 -267.833 43.333 -355.5 130s-131.5 208.667 -131.5 366v113c0 147.333 44.667 266.166 134 356.499
s207 135.5 353 135.5zM595 871.001c-70.667 0 -125.167 -27.001 -163.5 -81.001s-57.5 -122.333 -57.5 -205v-108c0 -82 18.833 -150 56.5 -204s92.5 -81 164.5 -81s126.333 26.833 163 80.5s55 121.834 55 204.501v108c0 83.333 -18.833 151.833 -56.5 205.5
s-91.5 80.5 -161.5 80.5zM715 1231h-193l-280 354h235z" />
    <glyph glyph-name="oacute" unicode="&#xf3;" horiz-adv-x="1187" 
d="M595 1082c146 0 263.167 -44.332 351.5 -132.999s132.5 -208 132.5 -358v-113c0 -156.667 -43.833 -278.667 -131.5 -366s-205.167 -131 -352.5 -131c-149.333 0 -267.833 43.333 -355.5 130s-131.5 208.667 -131.5 366v113c0 147.333 44.667 266.166 134 356.499
s207 135.5 353 135.5zM595 871.001c-70.667 0 -125.167 -27.001 -163.5 -81.001s-57.5 -122.333 -57.5 -205v-108c0 -82 18.833 -150 56.5 -204s92.5 -81 164.5 -81s126.333 26.833 163 80.5s55 121.834 55 204.501v108c0 83.333 -18.833 151.833 -56.5 205.5
s-91.5 80.5 -161.5 80.5zM482 1231l237 354h235l-280 -354h-192z" />
    <glyph glyph-name="ocircumflex" unicode="&#xf4;" horiz-adv-x="1187" 
d="M595 1082c146 0 263.167 -44.332 351.5 -132.999s132.5 -208 132.5 -358v-113c0 -156.667 -43.833 -278.667 -131.5 -366s-205.167 -131 -352.5 -131c-149.333 0 -267.833 43.333 -355.5 130s-131.5 208.667 -131.5 366v113c0 147.333 44.667 266.166 134 356.499
s207 135.5 353 135.5zM595 871.001c-70.667 0 -125.167 -27.001 -163.5 -81.001s-57.5 -122.333 -57.5 -205v-108c0 -82 18.833 -150 56.5 -204s92.5 -81 164.5 -81s126.333 26.833 163 80.5s55 121.834 55 204.501v108c0 83.333 -18.833 151.833 -56.5 205.5
s-91.5 80.5 -161.5 80.5zM251 1231l250 355h187l250 -355h-205l-134 214h-10l-133 -214h-205z" />
    <glyph glyph-name="otilde" unicode="&#xf5;" horiz-adv-x="1187" 
d="M595 1082c146 0 263.167 -44.332 351.5 -132.999s132.5 -208 132.5 -358v-113c0 -156.667 -43.833 -278.667 -131.5 -366s-205.167 -131 -352.5 -131c-149.333 0 -267.833 43.333 -355.5 130s-131.5 208.667 -131.5 366v113c0 147.333 44.667 266.166 134 356.499
s207 135.5 353 135.5zM595 871.001c-70.667 0 -125.167 -27.001 -163.5 -81.001s-57.5 -122.333 -57.5 -205v-108c0 -82 18.833 -150 56.5 -204s92.5 -81 164.5 -81s126.333 26.833 163 80.5s55 121.834 55 204.501v108c0 83.333 -18.833 151.833 -56.5 205.5
s-91.5 80.5 -161.5 80.5zM723 1216c-24 0 -46.168 4.33301 -66.501 13s-37.166 19.334 -50.499 32.001s-25.833 25.334 -37.5 38.001s-24.334 23.334 -38.001 32.001s-27.5 13 -41.5 13c-43.333 0 -67.666 -38 -72.999 -114h-145c0 80.667 18 146 54 196s86.667 75 152 75
c26 0 49.667 -4.33301 71 -13s39 -19.334 53 -32.001s27 -25.334 39 -38.001s24.5 -23.334 37.5 -32.001s25.833 -13 38.5 -13c40.667 0 63 38 67 114h145c0 -79.333 -18.833 -144.333 -56.5 -195s-87.167 -76 -148.5 -76z" />
    <glyph glyph-name="odieresis" unicode="&#xf6;" horiz-adv-x="1187" 
d="M595 1082c146 0 263.167 -44.332 351.5 -132.999s132.5 -208 132.5 -358v-113c0 -156.667 -43.833 -278.667 -131.5 -366s-205.167 -131 -352.5 -131c-149.333 0 -267.833 43.333 -355.5 130s-131.5 208.667 -131.5 366v113c0 147.333 44.667 266.166 134 356.499
s207 135.5 353 135.5zM595 871.001c-70.667 0 -125.167 -27.001 -163.5 -81.001s-57.5 -122.333 -57.5 -205v-108c0 -82 18.833 -150 56.5 -204s92.5 -81 164.5 -81s126.333 26.833 163 80.5s55 121.834 55 204.501v108c0 83.333 -18.833 151.833 -56.5 205.5
s-91.5 80.5 -161.5 80.5zM794 1216c-37.333 0 -67.833 11.5 -91.5 34.5s-35.5 52.5 -35.5 88.5c0 36.667 11.833 66.334 35.5 89.001s54.167 34 91.5 34c38 0 68.833 -11.333 92.5 -34s35.5 -52.334 35.5 -89.001c0 -36 -11.833 -65.5 -35.5 -88.5s-54.5 -34.5 -92.5 -34.5z
M393 1216c-37.333 0 -67.833 11.5 -91.5 34.5s-35.5 52.5 -35.5 88.5c0 36.667 11.833 66.334 35.5 89.001s54.167 34 91.5 34c38 0 68.833 -11.333 92.5 -34s35.5 -52.334 35.5 -89.001c0 -36 -11.833 -65.5 -35.5 -88.5s-54.5 -34.5 -92.5 -34.5z" />
    <glyph glyph-name="divide" unicode="&#xf7;" horiz-adv-x="1221" 
d="M1093 473h-965v202h965v-202zM454 985c0 45.333 14.833 82.333 44.5 111s66.5 43 110.5 43c45.333 0 83 -14.333 113 -43s45 -65.667 45 -111s-15 -82.166 -45 -110.499s-67.667 -42.5 -113 -42.5c-44 0 -80.833 14.167 -110.5 42.5s-44.5 65.166 -44.5 110.499zM454 166
c0 45.333 14.833 82.5 44.5 111.5s66.5 43.5 110.5 43.5c45.333 0 83.166 -14.5 113.499 -43.5s45.5 -66.167 45.5 -111.5s-15.167 -82.166 -45.5 -110.499s-68.166 -42.5 -113.499 -42.5c-44 0 -80.833 14.167 -110.5 42.5s-44.5 65.166 -44.5 110.499z" />
    <glyph glyph-name="oslash" unicode="&#xf8;" horiz-adv-x="1187" 
d="M443 250c38.667 -42 89 -63 151 -63c73.333 0 129.333 27.833 168 83.5s58 125.167 58 208.5v125c0 34.667 -7 66 -21 94zM367 463c0 -40.667 6.66699 -73.667 20 -99l357 452c-37.333 42.667 -87.333 64 -150 64c-72 0 -127.833 -27.833 -167.5 -83.5
s-59.5 -125.167 -59.5 -208.5v-125zM595 -19c-113.333 0 -210.667 27.335 -292 82.002l-103 -128l-105 88l109 135c-64 86 -96 192.333 -96 319v113c0 147.333 44.667 266.166 134 356.499s207 135.5 353 135.5c110 0 205.333 -28 286 -84l101 125l109 -89l-108 -135
c64 -84.667 96 -187.334 96 -308.001v-113c0 -156.667 -43.833 -278.667 -131.5 -366s-205.167 -131 -352.5 -131z" />
    <glyph glyph-name="ugrave" unicode="&#xf9;" horiz-adv-x="1245" 
d="M1088 1063l-0.000976562 -1063h-257v177h-13c-8 -22.667 -19.833 -44.667 -35.5 -66s-36 -41.833 -61 -61.5s-56.167 -35.5 -93.5 -47.5s-78.333 -18 -123 -18c-110 0 -196.667 29.833 -260 89.5s-95 150.167 -95 271.5v718h263v-647c0 -74 17.833 -126.5 53.5 -157.5
s81.834 -46.5 138.501 -46.5c62 0 114.167 20.167 156.5 60.5s63.5 92.166 63.5 155.499v635h263zM742.999 1231h-193l-280 354h235z" />
    <glyph glyph-name="uacute" unicode="&#xfa;" horiz-adv-x="1245" 
d="M1088 1063l-0.000976562 -1063h-257v177h-13c-8 -22.667 -19.833 -44.667 -35.5 -66s-36 -41.833 -61 -61.5s-56.167 -35.5 -93.5 -47.5s-78.333 -18 -123 -18c-110 0 -196.667 29.833 -260 89.5s-95 150.167 -95 271.5v718h263v-647c0 -74 17.833 -126.5 53.5 -157.5
s81.834 -46.5 138.501 -46.5c62 0 114.167 20.167 156.5 60.5s63.5 92.166 63.5 155.499v635h263zM509.999 1231l237 354h235l-280 -354h-192z" />
    <glyph glyph-name="ucircumflex" unicode="&#xfb;" horiz-adv-x="1245" 
d="M1088 1063l-0.000976562 -1063h-257v177h-13c-8 -22.667 -19.833 -44.667 -35.5 -66s-36 -41.833 -61 -61.5s-56.167 -35.5 -93.5 -47.5s-78.333 -18 -123 -18c-110 0 -196.667 29.833 -260 89.5s-95 150.167 -95 271.5v718h263v-647c0 -74 17.833 -126.5 53.5 -157.5
s81.834 -46.5 138.501 -46.5c62 0 114.167 20.167 156.5 60.5s63.5 92.166 63.5 155.499v635h263zM278.999 1231l250 355h187l250 -355h-205l-134 214h-10l-133 -214h-205z" />
    <glyph glyph-name="udieresis" unicode="&#xfc;" horiz-adv-x="1245" 
d="M1088 1063l-0.000976562 -1063h-257v177h-13c-8 -22.667 -19.833 -44.667 -35.5 -66s-36 -41.833 -61 -61.5s-56.167 -35.5 -93.5 -47.5s-78.333 -18 -123 -18c-110 0 -196.667 29.833 -260 89.5s-95 150.167 -95 271.5v718h263v-647c0 -74 17.833 -126.5 53.5 -157.5
s81.834 -46.5 138.501 -46.5c62 0 114.167 20.167 156.5 60.5s63.5 92.166 63.5 155.499v635h263zM821.999 1216c-37.333 0 -67.833 11.5 -91.5 34.5s-35.5 52.5 -35.5 88.5c0 36.667 11.833 66.334 35.5 89.001s54.167 34 91.5 34c38 0 68.833 -11.333 92.5 -34
s35.5 -52.334 35.5 -89.001c0 -36 -11.833 -65.5 -35.5 -88.5s-54.5 -34.5 -92.5 -34.5zM420.999 1216c-37.333 0 -67.833 11.5 -91.5 34.5s-35.5 52.5 -35.5 88.5c0 36.667 11.833 66.334 35.5 89.001s54.167 34 91.5 34c38 0 68.833 -11.333 92.5 -34
s35.5 -52.334 35.5 -89.001c0 -36 -11.833 -65.5 -35.5 -88.5s-54.5 -34.5 -92.5 -34.5z" />
    <glyph glyph-name="yacute" unicode="&#xfd;" horiz-adv-x="1140" 
d="M1084 1063c-8 -28.667 -18.499 -63.668 -31.499 -105.001l-42 -131.5l-49 -146.5l-52.5 -153l-51 -148.5l-47 -134.5l-38.5 -108l-26.5 -74l-10 -28l-24 -63c-46 -123.333 -103.5 -211.5 -172.5 -264.5s-160.5 -79.5 -274.5 -79.5c-58 0 -104.667 4 -140 12v197
c20 -4.66699 48.333 -7 85 -7c59.333 0 104.666 11.333 135.999 34s52 59.334 62 110.001l7 26l-368 1064h291l226 -830h11l230 830h279zM458.001 1231l237 354h235l-280 -354h-192z" />
    <glyph glyph-name="thorn" unicode="&#xfe;" horiz-adv-x="1245" 
d="M735 -13c-72.667 0 -135.167 15.333 -187.5 46s-90.166 74 -113.499 130h-13v-516h-264v1790h264v-543h13c21.333 57.333 59 102 113 134s118 48 192 48c123.333 0 220 -42 290 -126s105 -200 105 -348v-140c0 -148.667 -35.333 -265 -106 -349
s-168.334 -126 -293.001 -126zM646 203c69.333 0 123.17 24.834 161.503 74.501s57.5 119.167 57.5 208.5v89c0 90 -19.333 159.667 -58 209s-93.334 74 -164.001 74c-68.667 0 -122.834 -23.833 -162.501 -71.5s-59.5 -112.834 -59.5 -195.501v-132
c0 -76.667 20.667 -138.5 62 -185.5s95.666 -70.5 162.999 -70.5z" />
    <glyph glyph-name="ydieresis" unicode="&#xff;" horiz-adv-x="1140" 
d="M1084 1063c-8 -28.667 -18.499 -63.668 -31.499 -105.001l-42 -131.5l-49 -146.5l-52.5 -153l-51 -148.5l-47 -134.5l-38.5 -108l-26.5 -74l-10 -28l-24 -63c-46 -123.333 -103.5 -211.5 -172.5 -264.5s-160.5 -79.5 -274.5 -79.5c-58 0 -104.667 4 -140 12v197
c20 -4.66699 48.333 -7 85 -7c59.333 0 104.666 11.333 135.999 34s52 59.334 62 110.001l7 26l-368 1064h291l226 -830h11l230 830h279zM770.001 1216c-37.333 0 -67.833 11.5 -91.5 34.5s-35.5 52.5 -35.5 88.5c0 36.667 11.833 66.334 35.5 89.001s54.167 34 91.5 34
c38 0 68.833 -11.333 92.5 -34s35.5 -52.334 35.5 -89.001c0 -36 -11.833 -65.5 -35.5 -88.5s-54.5 -34.5 -92.5 -34.5zM369.001 1216c-37.333 0 -67.833 11.5 -91.5 34.5s-35.5 52.5 -35.5 88.5c0 36.667 11.833 66.334 35.5 89.001s54.167 34 91.5 34
c38 0 68.833 -11.333 92.5 -34s35.5 -52.334 35.5 -89.001c0 -36 -11.833 -65.5 -35.5 -88.5s-54.5 -34.5 -92.5 -34.5z" />
    <glyph glyph-name="Amacron" unicode="&#x100;" horiz-adv-x="1312" 
d="M314 0h-273l458 1365h316l456 -1365h-287l-107 344h-456zM656 1098h-12l-167 -546h346zM967 1500h-622v134h622v-134z" />
    <glyph glyph-name="amacron" unicode="&#x101;" horiz-adv-x="1149" 
d="M451 -16c-104.667 0 -188.998 29.168 -252.998 87.501s-96 137.166 -96 236.499c0 97.333 32.833 174.666 98.5 231.999s158.834 86 279.501 86h259v93c0 50.667 -15.667 88.834 -47 114.501s-74.666 38.5 -129.999 38.5c-100 0 -157.333 -37.333 -172 -112h-249
c6.66699 94 45.167 170.667 115.5 230s174.166 89 311.499 89c62 0 118.167 -6.66699 168.5 -20s95.666 -33.833 135.999 -61.5s71.666 -65.834 93.999 -114.501s33.5 -105.667 33.5 -171v-712h-249v134h-12c-24 -43.333 -59.833 -79.166 -107.5 -107.499
s-107.834 -42.5 -180.501 -42.5zM537.002 184.001c56 0 103.667 16.167 143 48.5s59 72.833 59 121.5v109h-203c-56.667 0 -99.5 -12.333 -128.5 -37s-43.5 -57.667 -43.5 -99c0 -46 16.667 -81.333 50 -106s74.333 -37 123 -37zM889.002 1248h-628v141h628v-141z" />
    <glyph glyph-name="Abreve" unicode="&#x102;" horiz-adv-x="1312" 
d="M314 0h-273l458 1365h316l456 -1365h-287l-107 344h-456zM656 1098h-12l-167 -546h346zM318 1763h163c0 -44 15 -79 45 -105s73.333 -39 130 -39s100 13 130 39s45 61 45 105h160c0 -86 -31 -156.167 -93 -210.5s-142.667 -81.5 -242 -81.5
c-100 0 -181.333 27.167 -244 81.5s-94 124.5 -94 210.5z" />
    </font>
</defs>
</svg>
